<mxfile host="Electron" agent="Mozilla/5.0 (Macintosh; Intel Mac OS X 10_15_7) AppleWebKit/537.36 (KHTML, like Gecko) draw.io/27.0.9 Chrome/134.0.6998.205 Electron/35.4.0 Safari/537.36" version="27.0.9">
  <diagram name="Page-1" id="KZS-LkYloqOgbguXp34f">
    <mxGraphModel dx="3227" dy="1318" grid="1" gridSize="10" guides="1" tooltips="1" connect="1" arrows="1" fold="1" page="1" pageScale="1" pageWidth="850" pageHeight="1100" math="0" shadow="0">
      <root>
        <mxCell id="0" />
        <mxCell id="1" parent="0" />
        <mxCell id="0P4mHAlJGLYM7_raSC7B-1" value="" style="shape=image;verticalLabelPosition=bottom;labelBackgroundColor=default;verticalAlign=top;aspect=fixed;imageAspect=0;image=data:image/png,iVBORw0KGgoAAAANSUhEUgAAAVMAAAEoCAYAAADlrhJ2AAAKpGlDQ1BJQ0MgUHJvZmlsZQAASImVlwdUU1kagO976Q0CodfQm3SBAFJCD0V6tRGSAKGEEAggdmVwBEcUERGwgIoiCo4FkLEgolgYBFTAOiCDirIOFmyo7AOWMDN7dvfsf84993v/++9f7rv3nP8BQKGyhcIUmApAqiBTFOLtRo+KjqHjRgEW4AEJwACwORlCZlCQP0Bkbv6rfOgD0PR8x3Ta17+//68iw+VlcACAghCO42ZwUhE+g4wxjlCUCQDqAKLXyc4UTnM7wnIiJEGEB6Y5YZbHpjluhtFgxiYsxB1hOQDwZDZblAAAmY7o6VmcBMQP2RVhCwGXL0BYiLBzamoaF+GTCBsiNoiOPO2fEfcnPwl/8Rkn8clmJ0h4tpYZwXvwM4Qp7JX/53b8b0lNEc/F0EcGOVHkEzJdM7JnA8lpfhIWxC0OnGM+d8Z+hhPFPuFzzMlwj5ljLtvDT7I2ZbH/HMfzvVgSP5mssDnmZXiGzrEoLUQSK17kzpxjtmg+rjg5XKJP5LEk/nMTwyLnOIsfsXiOM5JD/eZt3CV6kThEkj9P4O02H9dLUntqxp/q5bMkazMTw3wktbPn8+cJmPM+M6IkuXF5Hp7zNuESe2GmmySWMCVIYs9L8ZboM7JCJWszkQM5vzZIsodJbN+gOQb+wBvQgRcIR8gfIR/gkcnLyZwuxD1NuFLET0jMpDORG8ajswQcswV0KwsrGwCm7+vscXg3MHMPIQX8vC4d+b4OyPeDU+d1sUjM5nEAqJx5nd4C5Ch1ANC6jCMWZc3qZu4SBhCBNJKhMtAAOsAQmAIrYAscgSvwBL4gEISBaLAccEAiSAUikA1Wgw0gHxSC7WAXKAf7wUFwFJwAp0ATOA8ug2vgFugG98BDMAhGwCswDj6ASQiCcBAFokHKkCakB5lAVhADcoY8IX8oBIqGYqEESACJodXQJqgQKobKoSqoFvoZOgddhm5APdB9aAgahd5CX2AUTIblYHVYHzaHGTAT9oPD4GVwApwO58J58Da4DK6Gj8ON8GX4FnwPHoRfwRMogCKhFFBaKFMUA+WOCkTFoOJRItRaVAGqFFWNqke1oDpQd1CDqDHUZzQWTUPT0aZoR7QPOhzNQaej16K3osvRR9GN6Hb0HfQQehz9HUPBqGFMMA4YFiYKk4DJxuRjSjE1mLOYq5h7mBHMBywWq4A1wNphfbDR2CTsKuxW7F5sA7YV24Mdxk7gcDhlnAnOCReIY+Mycfm4PbjjuEu4XtwI7hOehNfEW+G98DF4AX4jvhR/DH8R34t/jp8kUAl6BAdCIIFLWEkoIhwitBBuE0YIk0QZogHRiRhGTCJuIJYR64lXiY+I70gkkjbJnhRM4pPWk8pIJ0nXSUOkz2RZsjHZnbyULCZvIx8ht5Lvk99RKBR9iislhpJJ2UappVyhPKF8kqJJmUmxpLhS66QqpBqleqVeSxOk9aSZ0sulc6VLpU9L35YeoxKo+lR3Kpu6llpBPUftp07I0GQsZQJlUmW2yhyTuSHzQhYnqy/rKcuVzZM9KHtFdpiGounQ3Gkc2ibaIdpV2ogcVs5AjiWXJFcod0KuS25cXlZ+oXyEfI58hfwF+UEFlIK+AkshRaFI4ZRCn8IXRXVFpiJPcYtivWKv4kclVSVXJZ5SgVKD0j2lL8p0ZU/lZOUdyk3Kj1XQKsYqwSrZKvtUrqqMqcqpOqpyVAtUT6k+UIPVjNVC1FapHVTrVJtQ11D3Vheq71G/oj6moaDhqpGkUaJxUWNUk6bprMnXLNG8pPmSLk9n0lPoZfR2+riWmpaPllirSqtLa1LbQDtce6N2g/ZjHaIOQydep0SnTWdcV1M3QHe1bp3uAz2CHkMvUW+3XofeR30D/Uj9zfpN+i8MlAxYBrkGdQaPDCmGLobphtWGd42wRgyjZKO9Rt3GsLGNcaJxhfFtE9jE1oRvstekZwFmgf0CwYLqBf2mZFOmaZZpnemQmYKZv9lGsyaz1+a65jHmO8w7zL9b2FikWByyeGgpa+lrudGyxfKtlbEVx6rC6q41xdrLep11s/WbhSYLeQv3LRywodkE2Gy2abP5ZmtnK7Kttx2107WLtau062fIMYIYWxnX7TH2bvbr7M/bf3awdch0OOXwh6OpY7LjMccXiwwW8RYdWjTspO3EdqpyGnSmO8c6H3AedNFyYbtUuzx11XHluta4PmcaMZOYx5mv3SzcRG5n3T66O7ivcW/1QHl4exR4dHnKeoZ7lns+8dL2SvCq8xr3tvFe5d3qg/Hx89nh089SZ3FYtaxxXzvfNb7tfmS/UL9yv6f+xv4i/5YAOMA3YGfAo8V6iwWLmwJBICtwZ+DjIIOg9KBfgrHBQcEVwc9CLENWh3SE0kJXhB4L/RDmFlYU9jDcMFwc3hYhHbE0ojbiY6RHZHHkYJR51JqoW9Eq0fzo5hhcTERMTczEEs8lu5aMLLVZmr+0b5nBspxlN5arLE9ZfmGF9Ar2itOxmNjI2GOxX9mB7Gr2RBwrrjJunOPO2c15xXXllnBHeU68Yt7zeKf44vgXCU4JOxNGE10SSxPH+O78cv6bJJ+k/UkfkwOTjyRPpUSmNKTiU2NTzwlkBcmC9jSNtJy0HqGJMF84mO6Qvit9XOQnqsmAMpZlNGfKIY1Rp9hQ/IN4KMs5qyLrU3ZE9ukcmRxBTudK45VbVj7P9co9vAq9irOqbbXW6g2rh9Yw11SthdbGrW1bp7Mub93Ieu/1RzcQNyRv+HWjxcbije83RW5qyVPPW583/IP3D3X5Uvmi/P7Njpv3/4j+kf9j1xbrLXu2fC/gFtwstCgsLfy6lbP15k+WP5X9NLUtfltXkW3Rvu3Y7YLtfTtcdhwtlinOLR7eGbCzsYReUlDyfteKXTdKF5bu303cLd49WOZf1rxHd8/2PV/LE8vvVbhVNFSqVW6p/LiXu7d3n+u++v3q+wv3fznAPzBQ5V3VWK1fXXoQezDr4LNDEYc6DjMO19ao1BTWfDsiODJ4NORoe61dbe0xtWNFdXCduG70+NLj3Sc8TjTXm9ZXNSg0FJ4EJ8UnX/4c+3PfKb9TbacZp+vP6J2pPEs7W9AINa5sHG9KbBpsjm7uOed7rq3FseXsL2a/HDmvdb7igvyFoovEi3kXpy7lXppoFbaOXU64PNy2ou3hlagrd9uD27uu+l29fs3r2pUOZsel607Xz99wuHHuJuNm0y3bW42dNp1nf7X59WyXbVfjbbvbzd323S09i3ou9rr0Xr7jcefaXdbdW/cW3+vpC+8b6F/aPzjAHXhxP+X+mwdZDyYfrn+EeVTwmPq49Inak+rfjH5rGLQdvDDkMdT5NPTpw2HO8KvfM37/OpL3jPKs9Lnm89oXVi/Oj3qNdr9c8nLklfDV5Fj+P2T+Ufna8PWZP1z/6ByPGh95I3oz9XbrO+V3R94vfN82ETTx5EPqh8mPBZ+UPx39zPjc8SXyy/PJ7K+4r2XfjL61fPf7/mgqdWpKyBaxZ1oBFDLg+HgA3h4BgBINAK0bAOKS2X56RqDZf4AZAv+JZ3vuGbEF4DAyhbcCMN2eVbn+q51FnoMQDnMFsLW1ZMz1vjN9+rRoIP8JS8KRzgHqrROBv8tsD/+nvP8+A4nXv8z/BLp/AZdFjmwvAAAAVmVYSWZNTQAqAAAACAABh2kABAAAAAEAAAAaAAAAAAADkoYABwAAABIAAABEoAIABAAAAAEAAAFToAMABAAAAAEAAAEoAAAAAEFTQ0lJAAAAU2NyZWVuc2hvdE85AdUAAAHWaVRYdFhNTDpjb20uYWRvYmUueG1wAAAAAAA8eDp4bXBtZXRhIHhtbG5zOng9ImFkb2JlOm5zOm1ldGEvIiB4OnhtcHRrPSJYTVAgQ29yZSA2LjAuMCI+CiAgIDxyZGY6UkRGIHhtbG5zOnJkZj0iaHR0cDovL3d3dy53My5vcmcvMTk5OS8wMi8yMi1yZGYtc3ludGF4LW5zIyI+CiAgICAgIDxyZGY6RGVzY3JpcHRpb24gcmRmOmFib3V0PSIiCiAgICAgICAgICAgIHhtbG5zOmV4aWY9Imh0dHA6Ly9ucy5hZG9iZS5jb20vZXhpZi8xLjAvIj4KICAgICAgICAgPGV4aWY6UGl4ZWxZRGltZW5zaW9uPjI5NjwvZXhpZjpQaXhlbFlEaW1lbnNpb24+CiAgICAgICAgIDxleGlmOlBpeGVsWERpbWVuc2lvbj4zMzk8L2V4aWY6UGl4ZWxYRGltZW5zaW9uPgogICAgICAgICA8ZXhpZjpVc2VyQ29tbWVudD5TY3JlZW5zaG90PC9leGlmOlVzZXJDb21tZW50PgogICAgICA8L3JkZjpEZXNjcmlwdGlvbj4KICAgPC9yZGY6UkRGPgo8L3g6eG1wbWV0YT4KXYhSpgAAQABJREFUeAHtnQW8VcUTx5dUVFCxG1DExm4EE7sLE7sV/wa22N3d+Ff/dncBFjaKigqI3S0Wod7/fgfmuvdw6t537+PFzPvcd2rzt3tmZ2f3zLQYNPTdgvM0/NXBrlvXzm6llVbi0sgQMAQMAUMgAYGXX37ZjRz9keu+wprFEC05+2TMCGOkRUjsxBAwBAyBdAQQOmeYrq37+cdviwFbF8/qcNJ65Puu9fujXJv3R/rjSEnpr0W6uYn+B43bbFM5Vutfm7Evuda/vuzajB3mWv36mST7d/v53MQOy8r5n/McUq2siukM/fN1d+FPN8r1yD9Hu27turqV2nWX68Nm3qMYzk4MAUOgeSAAQ3168HNupo6zS4WFmcJdl+veo2wEYKLt7nuwyEDDBGCqyli5Xw2GChNt98UVRQYa5gdTVcbK/WoxVGWiMNCQuNZ7L/853PWbeVe3arvlwiB2bggYAs0IgSIznXvuuV2hIOrTXNVv98ADwkjzBG53H2EfcH9uvon7c9PKpNTpvrzYTfvF/Xmyk3CEHTfPZu6PuQ/OFScu0Hk/Xedu+unuuEcl92Cq+/15nNt55q2cSakl0NiFIdBkEYBnhtN80ZlWUlsk0nJJpNiRk9QA5cbNy0jDdImDNFsJDf1zWC5GGqYN4yWekSFgCDQ/BIo603Kk0g5nn1sxUkioY488vKz4M47crazwYeB2X17pJrQvf4fCRT8PDJPJfU68VaZdJnf4phLwzz//dL/88oubaaaZ3LTTTjtFtY477jj33XffuauuumqKZ3bDEGgKCJQtmbZ74EHXZuSoiutO3NZlSKdM71tPXmSqJFPitvm1POn0/J+v9/rQDyrJTuI1R+n0xBNPdEsuuaQ777zzYnEbNWqUe/vtt2Of1frm119/XessLH1DwFUgmebXqybhO939D7pfjlg46XHV70/3xVXu5275pdNypPS4wl78y43NSjodN26cu+eeewSK2267zfXv39+1atUqDpqy9PKxCZR5c8cdd3Q//vije/TRR8uMacENgfIQKJuZtvFboKpBeRlWm7FvVCO7sl7iV8a9Vac8WcfLW786ZdRAIj/88MMyxd9ss83c/fff7wYNGuTWWWedktIpHnoseVjDCxgpVN/51rBKlnQDRaB8ZlqHKb5iwFQ/b+du/dukfaQat5IjaeTNj/RHjatsiq9lI345+Wm8xnr83//+52affXZ35plnuscee8zdcsstbu21146tzujRo92ll17qXn31VTfLLLO4Lbfc0vXt27ck7IcffuguuugiN2LECIcudpFFFnH777+/W265f7eeHXzwwW6xxRZz++67bzHuRx995FA3ELZjx47u1FNPdagXoJ133tl16NBB8i5GsBNDoIoIFHWmvPx5fhMW7lrn7EkjT16EmTjDfHXOjzTy5ke4haddsE55Er+c/Bpz2E8//dQ999xzwhRZfOrdu7d74oknZLEprBeAfvvtt27rrbd2Y8eOdRtttJH77bff3FFHHeUuvPDCIl5Dhw51a621lnvqqafk02bOhw0b5jbZZBNh1Jrm4MGD3fDhw4vxuP/TTz9J3l9++aVr0aKFm2aaaVzLli3lxzk/jW/HfO+74ZSOU8goisw0vFnr8wnd6k9fSl0mzLB0ratUkv4K0yxVct2UL26//Xap3jbbbFM8/vXXX+6uu+6aotqs9m+33Xbuuuuuc0cffbR75JFH3DzzzOMuueQS98cff7h//vlH9K1EfPrpp0WyPPnkk92TTz4pjPD4448XZjhFwjE3FlpoIXf11Ve7BRdcUH6cn3tu5btQYrKwW4ZACQJFZpp3BPp14w1LEqjsIp3bh2X5dY49K8uiJFb+/Mj7wPY7lcQu9yIsf1M+h/mx4LTooovKj7r26tXLzTrrrO7WW28tkQIVw+233754v23btqJb/f33392YMWPc559/7lADrLHGGqI2UOyYsvfo0cN99tln7osvvihhqBqGo1LWvfC5nZf3bhhepXhpn+NYts50Qteujml621Gln1eGiaadE/fXDT1DDjp/Wvjx06/gJk4/r2vz++dpwRKfEXfs7Pvnzo+EVmq7tOs6zYJu9PgxiekmPSDeIe13LXnhk8I29vtM72FuTNc3pE0nE8zx+++/d6+//rpbdtlJ9hJ4Ceeff375ca6E3hP64Ycf5Md5z549p8BvlVVWkSk8DJcvTyB9seVi8nXcOffCPDWMHQ2BaiJQNjMl87EbbeBmrZCZft/v4LIYm+Q3+x5ulo9Oqqje33Xxm8SDlzdvIgfMsKPrN/7kvMGL4YjXXF5cpE90kkiNIc0xxxzu8ccfF6l1mWX+/YABJvv3339LHA3/2muvyemcc87p2GIFsWgUxfCDDyYtCs4222zyjK1XfAQQhkNXCnEvvK/35KH9MwRqhEBFzHS810fBUDs8XN7ePeJEO3meeo3z0umvs23k2n/3cJ7gxTDEqSQ/ElipbXfXp/1m7tZf89kDIA7hiVdpnqTRWAj9Jyv3q6++urviiiumKPZ6660n26RYXW/Xrp08R/ocMmSIW3PNSTYgwQnpdsYZZ3TzzTefMFq+niLdU045RRaRNGF0qCxwzTvvvIIvuweQfMePH+9QF0DoYCHS1TaA2bM9Sq8lgP0zBGqAQKtd9zhgAPZMQwkiTz7ju3qGuuEGzrVwbprR6VuJCPvjzju4P+pgeHr89Mv76foOPrtf3DR/pKsYJkw3r/txnn7u95k3y1OVxDAwxiXaLuw+/Odz9+PfPyWG6zpNF3f8jAe4Ldv1TgzT1B6w8MTC0CGHHCJblKL1mzBhgjzv3LmzPGdT/yeffOJYrZ84caJjker00093b7zxhuvXr59jGt+mTRtheqTL11JsnULaPOOMM2RFH8bcvfsks4dsg8JA7/vvvy+fr15//fWy6AXTROXQrdsk849ItOwMQDWAioAFKSNDoFoI0H87LbSEJFeRZBoW5Jf11/cvwKQ703qmqowVBjrO/8Z3XdCNX2jydioNGCZQ5vnPs+37b35/DHdt//hCUpgw3Txu3HTd3fjpl3NIskJVyG/FNt3dijN1d5f8fpMk+dqEd9wHEz50C7XtItf7T99HdKxcNCfph9V6thqtL+3/rw5UQPH/Nt98c3faaacJg9tqq61EymSFHUn2nHPOESmU+OwXZa+oYsce0datW7uLL75YmCDpIZGyh7VPnz4l4d566y3Ro7IVC0kVZnvCCSdIETS9LbbYQj4iOOKIIxwqAiRmI0OgFgi0wG3JM4/fPsXG6VpkZmkaAiDANqivvvrKLbDAAsI441BhpwCLW+hGdcEpLhx6U3SxnTp1intcvMdOABguDNzIEKgWAgMHDnQ9e28nydVZMq1WoSyd5oMAOtQuXSZJ9ipBRmvPpnv0o1BSGJ6xDYtfWhjC5UmLcEaGQKUIFJkpkoCRIWAIGAKGQGUItKwsmsUyBAwBQ8AQCBEoSqZZ06Qwkp0bAoaAIWAIlCJQZKY2zS8Fxq4MAUPAECgHgSIzxYyakSFgCBgChkBlCBSZ6UEHHVRZChbLEDAEDIFmigAWz5RsAUqRsKMhYAgYAnVAwJhpHcCzqIaAIWAIKALGTBUJOxoChoAhUAcEjJnWATyLaggYAoaAImDMVJGwoyFgCBgCdUDAmGkdwLOohoAhYAgoAsZMFQk7GgKGgCFQBwSMmdYBPItqCBgChoAiYMxUkbCjIWAIGAJ1QMCYaR3As6iGgCFgCCgCxkwViSZ2/Oabb9zNN9/sRo4cGVszrNPz/M0334x9XpebWLXHaR6O8eqLsHp29dVXu2effTY1Swz64GMKlyqE//jjj1PD4wTwtttucyeddJK4YMFLgJEhEIeAMdM4VJrAPazZ9+/fX3wnxVXn4YcfFkd23377bdzjOt3DY+j333/vfvvttzqlkycyTHTw4MGud+/e7phjjnGjRyc7W8TN9IEHHuh22GEHYag46ltrrbXEqV9cXjjgI11wfOaZZxz+qbbZZhtxkxIX3u41bwSMmTbR9u/QoYMwApzN/frrr1PUEod4OJiDmVSbcJyHd9Gtt9662klPkd6hhx4qDA5vp1mEK+g77rjDXXnlleJyGu+m0003nRswYEBsVO4jwb/44ovilO+GG24Qj6hIqkaGQBQBY6ZRRJrQNVIUUqL6k9eqIY3ivx6voXgCVWJ6/uCDD4ove5iIEhLdO++843755Rf5MX1XBo3L5QceeECkQ6bEkIYfO3asJiFH8h00aJDkgQvmkDQOeRCPqThhw3KE4fUcF9GYj7z//vv1VuKRcF27dpV6EwgHe7vssot74YUXxMFfGPHnn38W3Pr27Vt06LfRRhuJC+m77747DGrnhoAg8O+bZIA0OQTWWWcd17FjR9H1bbfdJA+KVPK+++5z6A633357qTNT5VNOOUXcKysIOKBDAltkkUXE33yvXr3cfvvt5/BPrwwaBnbVVVeJdIcuEUaFFMf0mPDXXnutuHwmzbPOOstdcMEFkm/Lli0dkuSWW24peU477bTFOHvuuacwR9VN4ueeaTwSZBxpvZS5x4XRe8OHD3ebbLKJXsoRZgx9+OGHbq655pJz/r3//vtuwoQJrkePHsV7nKy66qoyeJTctAtDwCNgkmkT7gZt2rRx+I1nUQYdptKdd97pFl98cbfEEkvILa7xU3/IIYeIzhEmOXHiRHfUUUdpFDnCHI888kiRXGHSMFLCfPrpp+7VV18VnWVJhMkXTK3POecct++++0pYmO3pp5/u7rnnHnfppZeWRLnxxhvd2Wef7ZB4jz32WDdmzBiRHEsCVXDB4AEGSKMhoeqAcBkdkuqSo+HxhPrjjz+K9B2Gt3NDwJhpE+8D2267rbz4Og2GOb3xxhtFqZTqs6qNBAjzmnnmmd1qq60mEtzzzz8vUqhC1LNnT2G4iy66aHH6jUSIZNu5c+cppD6Nd80117gZZphBmC1SKKqFvffeW6bPt956qwaT44Ybbihla9++vSz44Of+qaeeKglTyQXqAxgq5QiJ9CGk7ZBgmND0008f3naEp755dLQlEe2iySNgzLSJN/Fyyy0nPupVz8fCU6tWrYp6Q6rPCjhMFoa4wAILyI/pPPTll1/KkX9rrLFG8XyppZYS5nnZZZe5lVZaSRgy0+I4Iv21117btW3btuQxagj0tEjBSuutt56eCuOCcSPJ1pVYkEO9ENXj6o4DlVA1HwYVKKo+IDwMWZmwhrejIWA602bQB1iIQmcJ44KZsoIfTl9btGjhYI6HHXbYFGgQTlUEc889d/E5cVjdZpEIyZZtSUi/LEbF0bhx46a4jV4UphQugkWZFKqKahADCFN0MAgJFQUU6ku5nmOOOThI+IUXXljO+Uf4aNjiQztp1giYZNoMmh9mCrHIhC5SF5606kzxWYBBemTFOvxFp7kaR48wZhaq0KWy1Si6Sk84FrFYRAqlPKbcTz/9tDyDMdcHob5AZRBKwuxMmH/++aUcYRmWXHJJkUAfffTR4m1UAdQjlJ6LD+2k2SNgzLQZdIFOnTq5FVdcURZ8mO6uv/76JbXea6+9ZIP9Tjvt5NjM/+6778qCFMw3iV555RXRexKePaV8SYX0Fye1/ec//5GVcXYDEO69994TKfinn34SJpyUR13v//nnn66v39qk+uLddtvNsbB0wAEHSJlZUGMgoP4wdBbRdtxxR5FGGUQYdP773//KDgbKTfmRpnfddde6Fs3iN0EEbJrfBBs1rkosRMEAWd2PTqXZXoRu9LzzzpP9pywSrbzyyo5tSiGhc1Ri+v3SSy8Jg+YeU+jLL7/cwaxhkpBKnEhyrNqfcMIJDj0pRHg2z6+77rpyrf/CPPSepqPXaccwLPte2WOL/nOzzTaTbU1szzr++OOl3NTz4IMPFiZJmq+//rp7/PHHhbnON9987uSTTxYVBzsWkKSZ+rNg1qVLl7Qi2LNmikCLQUPfLTzz+O3OXD030x4QVJsV6k8++cTNM888DkaTh7766itZCWdfaqj7TIoL04bhxUmwSXHqch+GOtNMM4nUrOnwgQBqDRbbootibJGKLkahniAdJHwjQyBEAFfPPXtP2sNtkmmITDM/hxmiPy2HymWK4SJWOflUGnaWWWaZIirqCD4wiKMoIyUM27T4GRkCaQj8O29LC2XPDAFDwBAwBFIRMGaaCo89NAQMAUMgHwLGTPPhZKEMAUPAEEhFwJhpKjz2MA4BvnRiESeJ2Mdpn1smoWP3myoCtgA1FVqWb7vZ4I5ZOzbR85XRMsssI9uRoqvLU6F4mVmyoZ3tVGwdiqMNNtjAsbWIL6SqTQ0BO3Yk8OUXHzfoZ6fVrqel1/gQMGZaz23G1iO2oQ0dOlS25cBI9dtzbIyqJadqFwvDHVhpwsp8kjm7cvKEqdU3TS3sovUcMWKEeClYbLHFjJlGwWnG18ZM67Hx+cZdN6ljSAQLSWxH4qscDBSXu82onKLz2SSbzzfffPOqMNNy8q5G2KmJXTXKb2k0fQSMmdZjGx933HFiqR4JFGtISkinfJkEsWmcH1LPqFGjxAI8pu8g9JR8uolqgP2gGCcJia90MICMFIqFJzUS8rF3GqcGPvhUFFuk5M9+S4hnfC7J5vZll112CrNz5IdKYs4553RLL710mGXqOdIrn45iNYrv87t16ybhuYflJVQBIWG5isGFzfRRyoMd+JC2pouhar7HR/Lni6twDykfG2ABiv2mWNXX2UGYL/iE7RQ+yzpno/+wYcMkD1Q4ur+WPGkP8g2/RMPxISoD+kJYDz5wQCVEWbDOFbWVwMcHSMoMxN27dxfrX7QjbWVUvwgYM60nvHG/gcUmvutOe0H5XBFdZL9+/dyFF14oLwWM7Ouvv3Z77LGHvFi8YDAqvrFHLwnTxHLTueeeK8wapjrjjDOKpShck6BWgLFAWLeHSJPPI9Ms7JMONk6xRwqTY1GJFzrOApQkGvzju3gGCGyiKu2+++5i+JlPOPnk9LXXXtNHYgQF6/zgc+qppxbvc5IXOxgiaUQ9AlAOfEUdfvjhxXSxosVsgO/xH3roIcG7+HDyCe303HPPRW9nXmMMZZ999pFBjcBgR37UDTywgYCaJ7RGheM+2pdPXbUeaV4HYLhY6rruuuuKbcMnwAy2uGJJs6uQWQELUBECtppfEWzlR0LKhGBGeQgDIjBWNZ4MI0DqwhI9kiIMl6n7TTfdJMlhgANmiok4pFOkO140iDD6csEckE5hpFkW9rGQDyPFIhTSK3H5zDTLLxN5Yp0JCYk42ATAXQiqDRz87bzzziKd8S28EgwNBgwjiFK52IUeAZCIswjHf2CiPwycIDXiSaBcYlbBoIEUjocDJH6sccH4QtuwedJN8zpA29C+RxxxhLQ5OLN4madt8uRtYcpHwJhp+ZhVFEOn2Xn1okhv6FdZOYdBwjixesQKMlNkpC8YIlIQhCS76aabChNgSogKAKmLKSxMDUkVYqrLVBLpNsvCPi8rhkuwc4r0i6Q2YMAASSfrH2XAcApxMAyi0iYm7ZAUWQRDUlfCehMDTSit6bNysQs9AlD+LGKAABN+DFiU5aSTThJVS1bc6HMGP6b4p512msTHZgHupTHfhyRcDqV5HWBg4hNXBlmYaDltU04ZLGx+BGyanx+rOoXEeAgUp5uLSzi0aq+SGZaXkLqUkEI0PcLA6HhhQ+mEc5hpHKHL5DkW9pWQDiGkKGyTrrnmmkXdKvdh7nm2A+F4LvwunvqTD4wRJsBCGI79YLLkRbmx2h9HdcEuLr2keyxy7b///uIiO2oxKylO9D6YQqHjPqbk0BdffDGF3VR5kPAvtJuKpAzD1PZGV8qgwaClxACap200vB2ri4Ax0+rimZiaGtZAwuzTp09iOH2gCxZcq1m6vn37lrgO4RmMCUkII81MaZEGcVXyzDPPlOgICRslpNM0C/tsvte8NS55qasPvRd3DBdXeI6eFabJYgzEdB7Xy0xPWahBgkSyjqO6YKfphQMM96LuS9BBI0GCCc4FKyXF6/zzz5/C8hZTfxbZoLA8SK1xLl+iGOqCIvHBM/o8b9sQ36j6CBgzrT6msSnCLNjjCQPBN30oucRGCG6qJSem7Ezzo4R+lZeLxQtd+ec8JJgEpC6UOSddXm50enEm9zp5k3OoEVh4YhEFYpoeWqqXmzH/YJKqYuAxK9IwDaQraPnllxe9IlN91BF4A2jXrp08i/6rC3akxUq+LsBxrRbzua+EfhTL//jKCiVqfZ73qG0FnnFthWM/CDx0YAHjOGaalidtg14aqVelU2y35mmbtHTtWeUIGDOtHLuyY5544omyKIHuk0UYDCXzImBkGeaDceU4YjEJ/SlMmG1NMB5eGlbykfCUQd1+++0iqfJSIQGHpNuosBxPvrzIWJhHGmN1mTIxDecF5YWHGVNGVvP79+8vK81Iu0llDPPiHIbFQgy6X3R6LMCg6w2t1JM++SAVqgO/aDp6nQe7uAGB+DBuFriQFlnxZlENKU6Z6VtvvSU6Up4xcPB1E0S5V199dTmP+wfGqoLhObMJFq/Ih3qh0mDGwLangQMHCqNGJ8xsAn0025eoO66tyyWwY7sYi4PsAhjit9tdccUV5SZj4auIgDHTKoKZlRQSD0yTlwBXGroSz6IU+zuRwHSaGE2LqSeMCUbAj8UStgGxp5IfrjhglKzyco2rEF5qlUgXX3xxx2eepMOWK/YmZlnYhxmim4Nps7JM+WBqZ555ZjHdaDm5Jk90rTB8VsohBgSkUAYDJaz/kx77IylfGuXBTqW7KIYwNhaWTj/9dMmiR48eskWMlXaIjxkoK9JrKMGSJ4wwSpo++IbEgMcC1C233CKDFO0MUTe2PkEwUnZdsFULvSxTdRb4aBdtKwno/2k+es1Rw8BA2dWhbUO6DHwsnEWn/2F8O68dAmZpv3bYZqbMggSSaTkbrJGo2H4T5zoDZsJ+VBzEJREW45G4ePmUkMbSLOyjGmCTO5Jr3Auu6cQdKSvpx+1iQKpjoQrmjnRcDpWLHRIgcZBeVSItJ79KwoIZ7cvAFyXaCsxpq7owv7BtkE4ZoGDycVvMomWw67ojYJb2645hVVLQVepyEoMJhowwjAuTTGOkhI3TB6IPVV1fmJ6es40p7bmGizuGXx1Fn/PSMzXWDwmiz9Ouy8UOiY5tSvVJcQOI5k9b6cKa3ivnCKPmayhmC7QNC1ro4xnsUFcY1T8CNs2vf8ybfY7o9vgSCOd1N998c6O0FTC1G/Hee++VKT17cxmwnnzySVlcRBUUt1d3ape3OeRvzLQ5tHIDqyOfkiKZoV9Uwy8NrIgNvjjs02X3A1+RIaUyvUcnzs4Mo6mDgDHTqYN7s86VlX2juiGAeoQdGPyMGgYC9jlpw2gHK4UhYAg0cgSMmTbyBrTiGwKGQMNAwJhpw2gHK4UhYAg0cgSMmTbyBrTiGwKGQMNAwJhpw2gHK4UhYAg0cgSMmTbyBrTiGwKGQMNAwJhpw2gHK4UhYAg0cgSMmTbyBrTiGwKGQMNAwJhpw2gHK4UhYAg0cgSMmTbyBrTiGwKGQMNAwJhpw2gHK4UhYAg0cgSMmTbyBrTiGwKGQMNAwJhpw2gHK4UhYAg0cgSMmTbyBrTiGwKGQMNAwJhpw2gHK4UhYAg0cgTMnmkDaUB8Nw3xPnyUcGmx3HLL6WXJEad5//zzj9zDpUiSv/mSSHZhCBgCNUXAmGlN4c2f+Ntvvy0eLTUGrnyTmOn++++vwcQ5XGNjpriSxhFcmo+kYgXtxBBoJAjYNL+RNFRjL+a3337rLrjgArfhhhuKIzl8PxkZAk0JAZNMm1JrNuC6vPbaa+60005rwCW0ohkCdUPAJNO64dcoYuOjvTESvu4nTpw4VYs+fvz4on46rSDosP/666+0IPasiSNgkmkTbGBe7BtvvNE98MADbvTo0Y7FrRlnnFGm1z179nT9+vUTz5ZUfdddd3XfffedoNCqVSt3zz33uDZt2sj1fffd566++mo5599BBx0kHjA5Z7Hs7LPP5lTowgsvjHUx/Nlnn7l99tnH/fDDDxpUjpRv8ODBDn/2t912m2vfvr3c/+ijj9y5557r3nnnHTdmzBjHQNCpUyfXrVs3yX/FFVcsSSfpgrISH6I+999/fzHoiBEj3BFHHFG83mqrrdwee+xRvH7ooYfcDTfc4N566y2HJ1XKiDvlpZdeWnzTa0AY/aWXXuoee+wx9+677wrjx4f96quv7o499ljxaa9h7dj0EWjt/Ohv1HQQgHn17dvXDR8+vKRSLPow1eZ35513uoEDB7qlllrKtWzZ0r3yyivFsDCF7t27yzW+2cNn+LnHnTD03HPPFZ9NO+20bv7555f70X+//fZbMVz4DAbPD1LJ+bLLLhNVgF5r+A8//NDxe/TRR91ee+3lzjjjDH2UeKT+1AWijiHBIMN6hQt9p5xyirvooovC4P4VKTh0vk888YScw1y/+OILxyIhDDekkSNHOn6PPPKIDGadO3cOH9t5U0RgMg9t6Vo0xdo1/jrdcsstIpEhlUV/SbXjpT/ggAOmYKTR8J9++qlIi0xho37Whw0bJsGRbp9//vmSqC+99FLx+s033yye9+jRw8FQ60LPPPOMO/HEE4uMNSmta665xt1+++1Jj+t0/8svvyxhpNNMM41bZ511HNI8kmlIhx56aAkjnX322V3IOPFlj3Rq1AwQgIf6nx+yjZs2xOaGmSHVxf2SyoskOXTo0OLjjh07urvvvlskQKbl7F1VYvp//fXXJzJTJDuk2ZA++OAD9/3338utUCKD4SQR03PSOv/880uC7L333nKfZ7PMMovr379/yfPtt9/ejRo1yn3yySfu6KOPLnkGk6qFfvLll18uyefAAw8UFQQYsnXt1ltvlSk/UuegQYOKYTfZZBP3xhtviLQbqguQZMHMqKkjMImbls5/mnqdm3j9osygT58+IlW1bt3aLbHEEu7kk08uQeD111+XvZ6LLLJI8b5KpkiKcUQeSLZMlZXSmClT7HnmmUf2w2p4jjPPPLPc5xn61JDpoLs9/fTTHYPB9NNP7w477DC3zDLLFKP//PPPMu0v3qjSCR9AhHTJJZe4o446yoEJGK677rryOBywuLH++uuLbhpdbJcuXcIkZEAouWEXTRYBW4BqoE0L82BhJI6OO+64uNsl004CRKfwyy+/fEm8999/X65hhnqONIg0/Oyzz8qzdu3auTXXXFN0gNxgqo86QQlpd4EFFtDLio5IfSGtsMIKUyzeoNdE+lNCL7nwwgvrZVWOq6yyijB9lb7R3V577bXyQ4981llnOTAEo5BQrSQRA49R80DAFqAaaDsjSe67776xpUtipn///XdJeFaWQ4ouxOiztdZaS1aluYZRwjBVyoXB9OrVq4SZoktUSpNKNUzWMVruqHRH/KSyZ6Ud9zwcDMLnHTp0cHfddZfgroOLPkcdsfHGG7snn3xyip0JGibuOLW3dsWVye5VGYHJwkVrU5lWGdipmBySmk7TKQYMgWm00nvvvaenctTp/corryzT6d9//13uX3XVVY7FKQhGylYfJXSl1WCm48aN0ySnkDCjjIyA0XvoYtOIabkS+md0xKozDjHSMHpkEGOnAtu2YKxsL9Oyoqflyy0WmmCuSgMGDJCdEXodHhdaaKHw0s6bIgKTl51a2gJU02ndxRZbrKQyTEvRL0IwSq5DYmsU1LZt2xKGCSNRYiUbJs1qNYQUqav66DORXPNQyIAJ/8ILLxQ3w88777zFfaY8g9nByJSeeuqpotqBezPMMIOLSt0aVo9zzz23nsqR7WAwVbZjsaAURzBc1AdsfUJav/zyy0v2pxKHPblR9QLbzVZbbTW3xhprFH9I19geiJYjLl+719gRsAWoxt6CU5SffY/hywtTWnbZZWV7D0ckLiUk1t13310vp9Cv8oDtQMqgYRZRgnnAiPNQdB8qDGjxxRcXaRGGH13NR8Wx6qqrCpNiIS0kVvNZpEqjqETIboJFF11UNt7r/tNofAYJ6rnlllu6U0891Z1zzjkuqlJBn7vTTjsJQ9f4bPKHwbK/l48BiA/eqASMmg8CXjI1aioI8BURG87DPZ9jx4517AkNv0BCorz44otLGEJ0sQpMYJZIaVAcMy1HX4qkBjMLCSmPXQFIjGyVQgoOiYUeJMVQx8mKerj9KAwfnhMmnOrzDAyYqoeqjzCOnrP4xhddSPKvvvqq3pYPE7bYYgsZsNgTGxLbyPTLKeJTJ6PmhUBL31ObV40baG2jCyzR67DYoVQWDcfKO1Po3r17Fz8L1bhMtTfaaCP34osvTsG4WJGPTp3RlyrVlZlS5iuuuEI+C9U0ObJbgGfUg6n9eeed5+acc84wiJzDANmqxF7PaJ2nCOxvzDfffPKVF1uwlPisdNttt5WBRO9x1PTIA4k2xJfn4AYTRX+qZdttt92EeaJjjSP00NHdE3Hh7F4TQAAe6n8tBg0dUXjm8Tvku+cmUC2rQoAAUtjHH38sej6YAAxTGUcQrF5P0bmyEf+bb75xc8wxh3zdFVcmJFa+04dgcKy0V0JgwKeoSOioFWDeWcSWKPa9on7ggwIYc3QPapgG+mjCY6MV5o2uFFsIRk0fAQb4nr23lYr+u+TZ9Ovd7GrINBdGFNUfTk0gkPqY8sdtfwrLBVMKpcrwWTnnYBBdMMqKjx5YdcVZYXmO2kTtGeQJb2GaJgKemU5e12+a9bNaGQKGgCFQYwQm8dDWxkprjLMlbwgYAk0aAeWhrcOV0iZdY6ucIWAIGAI1QEB5qH0BVQNwLUlDwBBoRghMFk1tn2kzanOrqiFgCNQOAVuAqh22lrIhYAg0CwRsAapZNLNV0hAwBGqLwL8LUM6+gKot1Ja6IWAINGUECpN5qOlMm3IrW90MAUOg3hAwZlpvUFtGhoAh0JQRsAWopty6VjdDwBCoBwRsAaoeQLYsDAFDoKkjYAtQTb2FrX6GgCFQLwjYAlS9wGyZGAKGQHNBwBagmktLWz0NAUOgpgh4q1E6469pPpa4IWAIGAJNEgHloSaZNsnmtUoZAoZAfSPQWpWn9Z2x5WcIGAKGQFNAQHmoSaZNoTWtDoaAITDVETBmOtWbwApgCBgCTQEBc1vSFFrR6mAIGAJTDQFdwveSqZ4ml+WXX35x/IyaFwI33nijGzJkSGyl33vvPTds2LDYZ5XcfOihh9w999xTSdQp4vz666/u4Ycf9q7MG45FtHPOOceBmVFTRAAe2sK1VOVpXBXpjPfdd59bbbXV3GOPPRYXpE73Pv/8czfPPPOU/PBR/s8//+RKF3/lP/zwQ66wFqh8BO6880733HPPxUY8/fTTXf/+/WOf5bkZbbsnn3zSPfjgg3miZoahr+66667uiy++yAxbrQBfffVValKXXXaZGzlyZGoYe9g4EYCH8ucNncQTjG7LLbd03377rfvtt9/iA9Xx7t9//+3Gjx/vLr744hI/6i1b5lPlrrTSSu7444932223XR1LYtHLReCSSy5xf/31V7nRiuFr2Xb02+WXX97NO++8xfxqefLKK6+4DTfc0PHOTDvttLXMytJuwAikci06JR2lY8eONa1C9+7d3corr1z8aWYffPCBY8qG9Ml0848//pBHEydOdKNGjXJ//vmnQyLgHMas9NlnnzkkHe6HpOl9/fXX7tVXXw0flZwzeDzzzDPu+++/L7kfvdD0xo4d6wYPHuzeeeedKaaWSNlMh0eMGBGN7pDOyAfp7+effy4+j94fN26c1CVkXtTxxx9/LMb55ptvBAu9AVavv/66e/rpp0vu85z6gxsD2fPPPy/l4D64vvHGG1ImcE8jykR4iLwUa470mSTKajvK9OKLL7pPPvlkiiRo4+HDh7tBgwaltg1paNlIRNsp2o80A32e1I5RrCkH9SQf2u3DDz+UpLgXV27Nh2NSHjxjJkgaTzzxhHv33XeLMzTNj7hKP/30kxs9erRe2rEBIJC4AMWoftRRR03VIq6zzjpu7bXXdo888oiM+EisF1xwgVthhRUcz3iJzzzzTHf++ee7F154waEiOOWUU9xFF10kAwDMZs8995QwVIQ4G2ywgejmCPvaa69NUb9+/fqJaoMBhGniPvvs404++eQpwml6m222mWM6PN1008mLtdFGGzl0jdADDzzgDj/8cDf99NM7mF2XLl2Eybdr1869+eabbptttpFnvJDdunVzjz/+eOz9gQMHulVXXdXdddddrlevXjJwrLnmmm699dZzl19+ueS19957u6WWWkrq/+yzz7r99ttPGA55wZwph07LzzjjDAeD4GWEsTLwzDnnnG6HHXZwb731lpt55pldmzZtXNu2bR0SZByRBi/3DTfc4F566SW37bbbSn0effRRGeQWWmghd/fdd0u6YXwGqLi2I8yXX34p9UQ/DyZbb721u/LKKyU68XbaaScZmNq3b+8mTJggOK+11lph8nKu5dHBMKkfbbrpphKe52ntuO+++4qq65hjjpHw1Jv2gOkxKA8YMEDu0/ZLL710orqCAXf//fcv9pWNN97Y0bYQZaWvMrjNNNNMUv9VVlnF3XTTTY760p6zzTabu+2224TJgvf888/vrrvuOolv/6YeArrq5CVTPZ16hTnxxBPd7rvvLr8LL7ywpCBIVzBKRmqk1//+979urrnmcp9++qmbZZZZhHFyDnOEGcFI6YCM8DA1Oms4otOheeGRdONoxRVXFIaCNMmiAWkggSQRjJ7FExjTFVdcIQsf5A3BkFlUQdqDeSLBIFVB11xzjVt00UXlPnEpd9J96stLStkhJDeYDVItBLNEGuzdu7dI8gwATHPJk0WPY489VuoCk1GC4R5yyCEiSS2++OIyYJAmDALdHgMp09ZyqEWLFiKdM0gxEMGko5TUdoSjrY8++mjBkkGTwUMZ4gknnCCSOO1CX4ARXn311dHkE6/j+lEYOK0dw3DRc7BmMIVoxzS9bzQP+o32FepH/2DhDEn5/vvvl7Y766yzXKtWrUSIoP353XLLLdL/eWbUEBCAh2YsQNVXMZGKOnfuLL/ZZ5+9JFtGYCQ6JCxG/qFDh5ZM6cPAdOS5555bpBY6I1M9XvCnnnqqGAwJZNlll3UzzDBD8V54gnRGB4dpwwRhVHFTdI2D9ER65IOkyYKaLtatvvrqbsYZZxQJjfSQXl9++WWJOsccc7i3337b3XHHHXK9yCKLpN6HUSojJv1ddtnFMdWjbDBX8GGwgal+9913wihhXNxHGkI6VmZMRkg5SEKUCSmUl3jzzTeXujAD2HnnncvWOR544IGCKwMbEm3S4pVUNOYf7QyeYElZKAcDANNfyrfkkksKw6X+9BPSp33yUFY/SmvHPOnnCZOWB4wWtZrOBFj0RWLWNmPWccABBzikY2ZfZ599tpt11lnzZGthaoxA5gJUjfMvSZ4pDNJRHC222GLF27ykTO/QITFaR4lpIvpOnfrynE4YvnDLLbdcNFrxGrUBU0kkqx49ehSZSairLAaefILKISSYORIKxMIaagiYAOVgukbZIabd6B0PO+wwd9JJJ8nLwWCRdH/99dd3SCJMy5GsWQBCP8fLxj1evNatW4tEyJH8lJiuo0aAySqFOKAfBaPwHgwNhl8ORduKcpVDYR8AKwYi2oSZBeVD0g6l5SWWWELqxECRRdGyRftRWjuSdrjNKjzPyjd8npQHag36bYg/8eg3oXTPe0K78x4gFBg1LAT8NL9xU9ixYWTom5juhz+kLCUYSxLBmFApIN0xlcrTYZEulXghkGYXWGABYZTnnnuuSBGUBaYaLoogEbK9iEWrNdZYw6HzRJ2QdJ8Xi/qhQ4T5IcGo5ILKAv0phK4b5q8SMPdgRORDuZSQRpVgXAsvvHDJvlGm/OhPa0lh26XlA1MFl0022aSkXcG1U6dOaVFzP0tqRxJACg63NdHGcZS1pS8pD+rHTCkqydOGYf1OPfVUUffQNqiyjBoWAi0r0ZjyMqPbDFeT61ItOipSh/5CSTItXUZopriUAwaCQh/9KYwLqYjOyKKLSoNpaekzXnAkXPRWTKWy6OabbxY9I1LikUceKcGZzvFiMU1l4Ynp+HnnnSdl0vRYSEDnCXPv2rWrSD7knXSfeEinSN1M+ZHMYaa8gEjCnENM9WGovHgMDB999JHoTAm/1VZbSZi4fyzM3X777bLYB4ZMJ0PmHxenLveibZeVFlI75UN9AzNBnxrOQLLiZz1PakfisdjHwhA/sGbBMyTqAoF32r7ntDzY3od+nTDoiVnYY3DfcccdJW3UANT/0ksvlbZhS2B97qOVQti/WAQmaUydy7UABVNg2qf0/vvvy8uaNEJruLxHpDKYgf5YYFAK89V7emRjNh8VIFWx1QdmA0NjMYcpYN++fUsWn4iXlh5MqmfPnpIO+k6kwaw47Dag/EzR0OWxCIU0gSTFlP3aa68VZgnTY5qn+YMdLxAvIlM3VsfZo5h0n3JQPpg0exohmDDxkVKRyCHy5YVkQEKyJk8kVyQZ3XepZZAIk//tsccesvKOLpbFKwansLxhWM5JIy6dMFza82jbxYUN+x16QtQAlJOdArQx+uC8FJd+GDepHQnDQMPsgUES9Q86ckjTROKnTfr06eO23357eRb3jzz22muvKfoKYWGOzC7+85//OPTnxx13nOhI6cMMxoceeqhco67ZbbfdZB2BsEYNAYFJ7LTFoKEjCs88foc76KCDyioVDcwWmqlN6NTQfykzoTxIVEimMA/t8OWUE+mCFxXGlEYwTSR0JGKYOYtPMICQKBtYxekf2SeL5Mr0PVQ/JN0P081zTj2QyqOLemlxwQ0dJFP/WlNc22Xlif4UdQgLaNWiPO1IXsyA6BdJTBydNP0wVKFEy8ggldRXCIsenXToE3HrAtH07HrqIoAg1LP3tlKIxC+gsorYEBgpZYThRZkenVmnXln1iHvOlqtyiAWfpPxgknGMlPR5KXmRo5R0Pxou67rcepAeOyvqi+LaLivvDh06ZAWp+HlaO5Jo1screRh8Vh7MTpL6UsUVs4j1gkDipv16yd0yMQQMAUOgkSPAJB+qWDKdFL15/7/33ntjJcvmjUrjq721Y+Nrs4ZYYs9Mla82xOI17DIts8wyDbuAVrpcCFg75oLJAiUiMImHmg+oRIDsgSFgCBgC2QjwBRRUuvScHc9CGAKGgCFgCMQgYAtQMaDYLUPAEDAE8iKgilKTTPMiZuEMAUPAEEhBwJhpCjj2yBAwBAyBvAh4H1DpxHfQWVbX01PI/5Qvl/jemK9ElLDxyHfmStjbVBuXei/uWI4DM+pHPfkEM8neAF/e8LVSSOXkEcbLOk9Ll/LxRRXlTfsOPCsPe24IGALVQQAeyi9RMsVuKN988x10Z29rFPuSeZhYJcXD4AffLWM5HBcmfBWkVs0//vhj+WSTdPn8EAtQGAPJonIcmGEpne/Z+d6beEowdQyUsHUGW5t8G45BZ1yBQOXkoWnmOaaly7fd//vf/+Qb7moa+shTLgtjCBgCyQgkWo1iIzMvLswMazlYHzrttNOSU6rwCdbSsWaEURHyhIljmm7BBRecIkU+P8Q8HtbNq0VYasI+KG4oMEDMEeKbdsrFt7cYV8ZQCZZ7wCT6+Wq1ypKVDpI7bjIwqoHRZCwpGRkChsDURYAFKH6JX0BhpUc9LWLFZosttnC4uqgmwaDxr4QUGlrAwQpUEsFQMAYRGpNAFTBmzBix14klpTjjJpjUoz5qOUnTx50FdkixJ0kYtXSOWxEYN2bQ1Ao+cXBrEiWm29iqxMpS1FAxKgQsQZE3Uvc000xTEr2csmMgAwtFat7PNpuXQGkXhsBURSBxmq+MVEuHNaFqu0nAZQdWdsqxWIWZPp1mw6gwGQeDIw2kSpzYRYnpO24g4owdY5Ge+0zjMS2o7kxwM4JKIWSk0XS5xlUK5v4wi4YaQP0B8Qz1BQwPc3P4LMIuJvpOqJKy4wcK6RiGigQfN2hI4vbPEDAE6h2BzAUoSsQUF7uhMIVqEsyL6X0oZZaTPmoHpru33nqrOB+DKeLRMSQs5hMOC/VqBzR8jlUnGDrWfNQSFtIvEmPUjUQYT89xcYIaBMd12EAlPwhmiVdLrMNjnxXpFAlY/UNVUnZwwjQeZa2l9SStmx0NAUMgG4HMBShNAkaFwVuMLldbR4fvmyTbkJp/2hEpkIWxddddV6Q0bECGtjuR4vCxhGSKmiIvsdDF4lNUOo+LjxM99LuExa4p1v3Rt8LksUuJ7yF2IKAyYIEN/SxUq7LHldHuGQKGQO0RSPwCioUZ3P3i+xxr8Vgbrzah36xUDwsj5sf0PYlwAwGjy+PLKUwDnzyoNJA2s+IyxVfCODRSLcwU1ycQTDOcjqMzrWXZtSx2NAQMgfpBIPMLKKQ5VrfxjlgLRko111prLfGpgwqhXGKay2IPfneSiC1PSJl4HGXRqhyibAwiSftOs9JCSobwRxU692Nhq9ZlzyqbPTcEDIHqI+CdO8Unet1114nPG9xu4PBOf7jUQB9YDYd6+DTCbxNbj2DerKaTD0wMHWcaIe3hkwfpE/9GLOzA/ImvxMo9kjUr7fjSoS556cQTT5Sg+OVBXcBKOowb5sjiTxbh2A5L9+hG0ZfiohjMdOGolmXPKps9NwQMgSoiMHlvVEs/m48lvvbBEyLT6PDHolE1HerhhfHAAw+UvGBA5AUzTZMkddqM5IkEybYqVAZHH320fBmkFSIc26zw6ggT23PPPfVR5hFXI6zG89EC8Vgo23bbbcU5XejnScsSTZCFIgakUaNGiU6XLVcs5OlugVqWPVoWuzYEDIHaIQAP5ddisHeoN6SBONRj+xULUugsyyGm8kim6CxrQSxG8ZkrU/dKdh6gP2WnQNxiW63LXgs8LE1DwBCYhAAf9fRqiA71KnXmVoljtnI6A1uR2NtZKan+NC5+rcsel6fdMwQMgeojkLhpv/pZWYqGgCFgCDRdBFonLUA13SpbzQwBQ8AQqCICkxfxWyctQFUxK0vKEDAEDIEmi4Dy0MRN+0225lYxQ8AQMASqiIDuLjWdaRVBtaQMAUOg+SJgzLT5tr3V3BAwBKqIgC1AVRFMS8oQMASaIQKT5/n+C6iET6AmY8JmeD4hbYgU+kp66KGH5NPRqVHOsBzVyB/3MBdffLGY8Mtqn3Lzwxh26O6k2mXX8tQqXU0/eszrGywaz64Ngeg7US4ivKP8vNsSVZ+WJoHxEexz8pnmfPPNJ+46sIhUTeJ7db5aCn98T48l+TwU+krCIAsMtT6I7/RDCssR3q/0fPfddxcj15V+xJCW77Bhwxyf8CpVu+yVpEtHVCtbGr+cI1+R5fUNVk66FrZ5IBB9J8qtNTyUv0S3Ja1atRLr9ViH5xv1/fbbTwwv86JXizBVN378eJHCsHQP8a17+O17tfKqVjrYJcXINANBHnun5eYLo8aOwFNPPeWwrN8c6LjjjhMfYzgKrITUN1jal2aVpGtxDIFyEEhcgMJC/HbbbSfGljGAjHTK9+m1IHwjYeSEn/pg0nwwuDJkyBAxtoyl+nIoKS5W9NV9COnhNvmTTz4pJo2kg4GSKBGOuBDPwzjcwxcUZcVldJSwtIXtVpgxA0gcEYYpB0QZYNhKn332mZhDjCsXg9Lw4cPdoEGDYj3I4hQRyT1MT9PVI66s8Xf1zjvvyJRF73NkpsDoPWLEiPB28RwzhVq3JJUQFsHi8qde3377rXghoG5huyS1XzHj4ER9g3ELGw8MSrQD5fr0008lJBIwFsT4hRS2N23KQBadfVB+2oe0cWqoRFzaDFc6YRzCab4alvhh++XpE3HpgDHp0O4Q9eIaVQdeHcKZHbZz8bUWEu+xehpWrOiTeIyI67saBhsV9IOkcKQL3nEz2DfffFPKF31novfLfTfT6h62K144wrzzvBMhZrnOB784ouDNzRU8uIk/P31GsVrwPpsSw6TFT3rmO6Gk6yXf2HS9lfyCl5AL3tJSwUurBW+wuXD//fcXw3LfW5iS6x133LHgB4Dis7S43mdUwU8Li2GJS1q+08i9s846q+BVD8XnWn5vTq/gDZ1Imb3RkoJ3kSJhiOuNSMszby1K0rriiiuK8b0ZwIJ3jVLgmf/Ov+AtWRVGjx5dfK7p+yl3wbtRKabv7chKmEMOOUTudezYUY7eilUxrrfgVVh++eUFH28gpkC5wnby3lQlDvl7qb/gpd2Cd91djE/ZqT/5EoZ29h4Dis+vv/76Avn6wVTCeJ9YBc8Ai8/BhLikQ97e15U841rb5vjjj5d29H61ivG0zt5vl5SdsnkJs3DqqadKmLT207jhMcyP+ngrXwWvJimACXWinD179pQ24No7Pyx4Ji55gRf39thjD2lDbydX2on20DxI3wsVUg/vilzue/OPBW9drNhHqcMRRxwhz0444QTBxDOYYhoHH3xwwRsrl+u8fcJbFytQnhBz74Sy4D1KSH+l/b06rtjG1IN+6Zm/5OM9/Ra85bNiGahPjx49Ct5Sm9wDqzXWWKMw11xzSf/wA0lJWMIThnbq1q1bEU+vjivw/vLcm70seHWg9B/eUfrRXXfdJc8oN+Wh7/uZg5TTMzapT9z9ct7NrLpru3pPIZIv+FPerHeCMHl/8E54KL+WYjvKt0Ac4dZ42WWXFXccvnOIubu4cHW9h+3Sk046SX461cOgMj7rsQeKjVJGRKzaH3DAAZl2SbPiYkMVKQxiFGdER+pViQO1BrZWo4SLaXWY55mhONPTMJX6gtL4HJkJUHaI+mKnlWtsvXKO9HHjjTe6gQMHOiRJiHZBMiQ8UgmO+3CfDeFvCmPUF1xwgZhNxB5rnHSIvVb0zdTJDwJyrhKUZ6RiMxabrEgRSA5IwBDqiGOPPdYdeuihIu3RTocffrg8039ZPrhwgIitWVzPIMnhNyur/TTttCPSJ/2KMuF2h3JijQzpGimdtqY+IYEN95DOcYfDImBI9BnczjD7QKqkP/iBTOLglYE8WHjDZQ3mGpGMyAuin9F30O0SN80/WJgnfQKpUfsFz2677TbXp08f8QVG+9Mm2PJFevbChniI8AJBmEzqOdKkH7BFcsMpZBzR1jivxPwm56jjMG0Jcd6vXz/pP2CH7zTcHUFIsS+++KK480E6JC5eLJLul/Nu5q070jn9AFOded8JKXzef35mAB/10/z4BSjSQV+KXyM8bJ5//vlFBpQ3j7zhWHxgusePKR/Ey41qAVuiuPpgYQp9LR2eTpNGWXFpMNKBeTBFw6weelBeFqZO2B2NY6ZpeVbqCyotTZ7h/RRdIIateVGYQtF5mYoyxeElwtYq9aCj4AOL8jNd4xnWrniBsXyFbVfKGSUMVTNoki7PWRBUx38sQsKEMLKNx1b0k/i5grz0IfnhZwv7rTzD55VSpT64stpP0087LrroorKASr0ZYCCEA8pIf2Zxj5c8JDzcYseWuhCWFzCcGuLCBpy8lCrqGnx8wYS8VCfmFTFyjvcH+hHpr7322sUdJjAPL+0IE8zyDxaWabbZZhMD6uAPwawYNGlTCIy33HLLonoMe8B48FVhQQJl/CMP3jOwSTIxSX3AhOf0I9SAyuAZcOETDBwM3gz01BGCcUIYRufdJi5OLJPul/Nu5q07AxeG2mm3vO+EFDr3P3hoygIU6eywww7F5Kikn3IIgy3erNKJn7aIm+QwOfQvdNyQ0K1CdOI0yorrp3vOT3VFwkAfhFsWRmSkPyzrw1BhIuVQJb6g8qTPQIPUHG5nwj01zJJOyxFpKpQ4KQsYocOLeljlpYiSn/KW3IJ5M9BASGd4F4Bhky+MRnV1MBr03EkLhpX64Mpqv5LCJlxg1FsJZgHxIiuBQ1S/i8twJV3MAgc1vxhiSRlh1GCiBAINMDIAACzDSURBVJPwU+Fi/+T94UVGEvVTTnFIyUutOxfi/INpWuERxonrHXT2SIN+Wu46deokvsToG2G5iEdbqUTMNYNuSNHraPwwrJ4jgYftDD4q1DCQM7vgOcw87CMMXPRd+hC7SHCJ7lU5MqDF3aeN8rybSJt56k75KbtS3ndCw5dzTFyAiibCKBunnI6Gq9Y1UilTglCZrpKEdu6kvPLERfJkusrohlTKaM4iDgygV69eIg0npc/9sFxp4fSljPMFlRZPnxHf66BECkAS0B8vGBIj0oRKCfqMIy8bTJLpf0hIrVEKF2TooEzpwRhvB+eee6475ZRTJF/qEC4uIJHRJklYMPgy1c3jgytMI0/7RetQjWumoUpIkhAeZZVglkrMlFiQUSmd+7wfSI7aP+ljtA8SPNI202So3D7BDJEZx7333iuSrqZD+yNtRduUMtH+EPFQn+jAQfuF7U2YJGmUZ0rECZkw+Cg2V111lTiu5P2BQcIMQ0LlgRoM6RQVFFhASffzvJt56q5lYGarlPed0PDlHBN9QB1zzDEy1UNfw8uF1AZDhRhpq+EDKq2gTDeRrtg2w/QfPSZ7IpEYtaMkxc8TF0mbFVhWjBlN6eBIFbgaSZvi86JD6B9Zvc8iJLckX1BZcXnO9ImXAUaGFM2L0r9//6J0iPttpBVUAEguvLgqxSJxs2qJ7pl6om9VfWeY980331xcacWlN8TUHwaHtEFcVtlJhzIoKc7oCikjEjKDkxIMh+kpLyKSS5IPLsKhy2QajMSh6VbS9pp3JUckJnTF9DUkcmZGoTQbpkm7Um7i0BdYMQcHthRutdVWEhTmC47o/ZGO/cKP3C+3T9AGfhFIBjVmBQz+SuhUEQBoQ/BD+mOKT3iIWRhMH1040+yzzz5bMA4Zo6aVdmQWQvuTBlN5MEIXrcRAQv6on3RdgWdIrayDMIti9gc+9Kuk+8TJ+25m1Z20opT3nYjGS71u4Z/6X+ICFNNGdJToz2AuTC3UyRxKaDoRTLYaFE4fND2YJnpaFNlMFeig6FnoFCGh54M46nmeuHRopiNM65muQSyC0Fk5JhFSB52ZBYCwM2ne0XjkkeYLKho+igUdCwbHIhTTd5iSLj4RF6mRTupXosVfFeHUPQpTUO7DiAkDdlxHy8ogiT6M6R66UsIxYCFVsaCETy4+3kACYmTX+LyovJy0EYwHnSKSmRLhYEZZPrgYMGA8fqeAMIU87ad5hEctlx71mWKqR70fDUfbMrDS1+gTSFwhheHBBgYGE6He4DLEL0whdMBklZjqM8gxk9D45fYJ0iId2p0+F0rIfqeE9GEWV8CPAYhFWvoJhLscBl8kQvTZbM3jfdKy6FECp/yjfiwWkgaDBgMefQZClUHZyB+9Me2p6TIIUybULkjY6K9haEn3SS/vu5lVd9KKUt53Ihov9XryAlSqDyimBuh36ByhqEzCgEFD1ZoYQdFPMdVlSlMO1SVuVj5IzZQpzxRJ0wLLJF9QGibpyPQMqZC20I4ahqUzM4tQ/WD4jKk7swmm5UmE9II+icEzynSQKGlvFmfiCEmDwRfpXgemuHBp92gr6heWsZbtF5YFaZ0pJ5JVGo5hnPCcGQqDMFPqcilvn0BwYZBnYSfUB2t+qGTok7QB0l+U6D+0YSVlZJENXJB608rLM9ov2j9pR2Yu9H3cnCsl3dfneY9ZdY9LJ887ERcvei+3DygkHL8vLhpfruuDkZIRDROO9LGFSbhZl7gJSRZvxzGt4sOEE9WVJTxOvQ3TVhVDXMCwk0afMwhlDUQwwaT0kYSSGCl5wXxVfxbNO+81bRUyUuLVsv2SypWGY1Ic1DiVUp4+AaP2+0Vlu1YcIyVvvsZLaj+e038qYaTEDSmtvEnPaEfVI4dpJd0Pw+Q5z6p7XBp53om4eGn3ci9ApSVizwwBQ6A2CKBCQcXCyjkM1ajhImAm+Bpu21jJ6gkBts7w4UZDJPSMfPjAZ9ZR9Ut9lZd9xOEujvrKt9HkM2nZxrVm576RIdCcEWBqH93T3FDwYD9s3N7g+ixfXVU49VnWqZLXZB7ql7Ens9WpUgrL1BAwBAyBxo7AJB5qOtPG3o5WfkPAEGgQCBgzbRDNYIUwBAyBxo6ALUA19ha08hsChsDURcAWoKYu/pa7IWAINBEEJi9ANahpPpuT+Q7cyBAwBGqPAN/Hqx2H2ufW9HPwzDR7NZ+Nw3xmCPi1ID6R4/t/tmDwDTlfeWCjkc8bGyLxPXYeIycNsexWJkNAEcCiWOhcUe/bsVwE4KHed11WNL7Px+oN332HZtKy4uV9PtBbjceEHMZ8sX6DMY2jjjpKjOzyvXhDJDZQYx3HyBAwBAwBRaCl/2w2lc444wyRSlMDVfgQ83BYfoF5YtIPJgVTxeo31nei3xpjig+jt+pSQ7PlUzsMeahDO2xoRonn6vSNgUEJ4xpIwNzDRiNSJ8TAwcgdOpHjKxDyZoAhDueoJiCOaU7tCEPaxIkOEmPGjBHLQoSBUHVggQiJHYMMSuRB/NCUXdRhmmJBvdQNi8YPj0l5lOPQLMQOu6a0TxZhtIavjbAdGtYjC784p33kx30lxUfbNyxf2LZJfUHT0aPGp73oC2EaGoYjdWrWjuRCMJrhOTxU+Ojgoe8kOtTzRlzFyZm3+8lnUgXv/ya3oylvgSczLM7H/NcdBc+YMsOmOZXzRgtKHNp5w7EFHMFpGdKcl8U5FEtyIuftcgoeYOENg8i5t+ZTwLGX/yQx0amdlsOrSQRHL40Xy0Z80vOGf+VemiM5z9glrLclWYzvfQ4VvCGY4jVYePNoJY7fNH89puVRjkMzsPNfDhW8EQtxouYNVxS8IehiWTQ/PeJYD9y8Gkect+EYjmdZ+OEMzxtbmcJpnx98C970XDE/bxVf8PHMWu7FtW1aX9By6pH45kgu+z1WvJrjURzqeR4KH02c5iPlYa/w6KOPjjX5VY0BCCdkuCJRM3ZIfhi21Z8uRmE5Ps2pHGVBn4uRXvzjYA8Rf0UQUkiW87KoQ7EkJ3JYNcKUGFaCKA/nSM9pTu2kEJP/YTkHu7AYcFbCkG6XLl3E6DX1rNSJoKbHEfzU8Vt4n/OsPLCfSnwI6TzL2SASG/Ytce+BVX4MAWPqLUqYW8M+LXZwkbiRsLfYYgsJloYf3hZIP81pXzSv8DpsWyygZfWFMC7n5G+O5KKo2HUcArELUDA1ptr4kqHz1YqYwoaGbjGiu/fee8sP47NY84bSnMpp2bBHCVPCbCDW53kJmPbx4mLnEaO2MAaM47LQBbNRwpxe6FAM48S4RcBKfNSJnMbRI0wizamdhtMjRoJRVcDkIQwn49YDc2TVcCRHmqHjN65DysoDZlqOs0FdLKT8MEfwAPso8ZxBiMEDBowJRwanLPyynPZF84leh22bpy9E4/NdvDmSi6Ji16UITFqAmmRivvSJWE9nIWi//fYTSUl1W1ivgUEh+VWDMC2GblCJjq+O3EL7hxidhfGG2ziwmK36TeKHXjGRFikzZSUulOa8LOpQLM2JnCQW/MNoLuVIcmqHt8qQYPRYzocBw4hwB4HVfgjdW9TgRuhEUO1mwoCUwnO9F62P3ueYlUe5zgbRcSthMASD2WG76DOO7AphpoN3A/oQFv2Jk4ZfltO+sP7hueYbYpGnL2g8PZojOUXCjlkItBbFaSQUUgNblViMgNT8Fq5v1RVzJEpFl7xU+JO57777xPBtUiIYnWWxiilquaQGa3HdEWVUmpaqGbgOncjh4gOGrAxNw3PUFxcJVp3a4UAui5DE8V2DxNW5c2dx4aCGphkEkJ6ZXqu5tdCJIHkRnymyekONcx0TSvvR8mTlQXjaHuvzYA5uDHq4L8nrbDCap17jY4s0UO8wdQYvXLqk4Yf0iq+uEBNND2PH9EmlOCzCts3TFzQtPaojOSRrKM6RHP0Xwj0IaiYlZkv4gGIgx5UIAwhuO5Lu58EdjxcYNkbYYReMUuhET++F3jFwO0I5QiINo7ojoDy0pTKFMEn8uCCF6k/3ouGSmc7AFLUaDvWw1cjUkPxIDyaBYzLc4qo0TLmynMqFZY+e04GR6NjexcvGFJa84qaixNWXFn0tur+oEznCwJBgcqwks9Kb5tSO8FFiqo8uj86tniYJk+VIDoviq6yyivgeQl8L40UFUg5l5UFaeR2alZMvAzI6VdoYpoY/L7CG0vDT8qI3pc6h0z76D8yNHzMadLJpVG5fIC1zJJeGqD0DAXgov8QFqBAmHZX1WE2HeldeeaVMezn6lVNxTIbPGaRWnaJlOZWjrFq2sNycZzkvi8bLciJHmrvuuqtI0ziLY4tUmlM7wkcJCW3ppZd2LHT16tWr+DiPI7mDDz5YtlEhZR900EEyuEXrEL0uZuBP8uQB08njbDAuHyTquPt0Nqb5tDELQejH2RIHpeGX5rQPx2ws6CH94flTZx6avx4lE/8vqy9ouPBojuRCNOw8DYFUh3ppEZHaqu0HioUiJBiU/jrNDcvAM/b+JTmVC8PGnaMzo8zqvTMujN5DMqaOSb6P2MtKGHSESnmdsSGR+S1I4nESr5JRgvGg20xzIggTB6cow4imlXSdJ4+kuHW5TxsjzceVPQ0/MEty2scMgTbN065a9jx9wRzJKVp2TEKg1KHeJFVQUtjE+9VmpGSkusOkTNF/McWulFRnlic+esckRkp8JFh+IeV1xsYOAVQl6o43TINzGGSWE8Go87loGlnXefLISqOS52ltnIYfg2uSxXck/HKpnL5A2mnhk56BcbiQqmVMuq/P8x4biiO5vOVtsuEm89DWFfLSJotLLSvG1JavvFi9vvTSS2WaX8v8LG1DwBCoPQLKQ1sz3TOqHwRYhb3qqqtEt5cmhdVPaSyXLATMkVwWQvYcBJSHxu4zNYhqgwC+6cMFp9rkYqlWC4EktUK10rd0mhYCnpmqkNq0Kma1MQQMAUOgfhCYxEPNbUn9oG25GAKGQFNFYLI8agtQTbWBrV6GgCFQLwjo3N4WoOoFbsvEEDAEmioCugCV6wuopgqC1csQMAQMgWohYAtQ1ULS0jEEDIFmisDkBSi1eNJMUbBqGwKGgCFQJwSUh9o0v04wWmRDwBAwBCYhYAtQ1hMMAUPAEKgDArYAVQfwLKohYAgYAlEEbJofRcSuDQFDwBCoAAHvtkS3nFYQ26IYAoaAIdDMEVAeapJpM+8IVn1DwBCoDgK2AFUdHC0VQ8AQaKYI2AJUM214q7YhYAjUBgGb5tcGV0vVEDAEmhkCtgDVzBrcqmsIGALVRcAWoKqLp6VmCBgCzRwBW4Bq5h3Aqm8IGAJ1Q8AWoOqGn8U2BAwBQ6AEAbO0XwKHXRgChoAhUB4C+tmT9wGlp+UlYKENAUPAEDAEPAKTeahtjbLeYAgYAoZAFRCwBagqgGhJGAKGQPNFwBagmm/bW80NAUOgBgjYAlQNQLUkDQFDoPkgoKtOtgDVfNrcamoIGAK1QGDyApTpTGsBrqVpCBgCzQYB05k2m6a2ihoChkB9IGBbo+oDZcvDEDAEmjwCtgDV5JvYKmgIGAK1RCBYgKplNpa2IWAIGAJNHIHJ3NQvQDXxilr1DAFDwBCoIQLKQxuEzvShhx5y99xzT2J133vvPTds2LDE5w31wY033uiGDBnSUItX9XJltWPVM7QEDYEEBF5//XV3+eWXJzytze16YaYbbLCBm2eeeWJ/o0ePdk8++aR78MEHE2t4+umnu/79+yc+b6gP7rzzTvfcc8811OIlluv33393P/zwQ+LzpAdZ7ZgUz+4bAtVGAOHrhhtuqHayqenVywLUOeec43777TcpyKabbuqOOOII16NHD7med955UwvIw0suucT99ddfmeEsQHUQWGmlldzxxx/vtttuu+okaKkYAk0YAV2Aaun0rIaVXWKJJdzKK68sv5YtW7qFF164eN2uXbtizuPHj3cvvvii++STT4r3OBk3bpybOHFi8R6S0zPPPCNS388//1y8H3fyxRdfuGeffbYk/h9//OFGjRolwcnrqaeecl999VVJ9A8++MD9+uuvbuzYsW7w4MHunXfecbo5tyRgcEEZ33jjDSkbcePom2++kan/Sy+9VBxgwnDEo7yvvPKKA4+QqMsTTzzh3nrrLTdhwoTwUfH866+/lroolp999lnxmZ5QD+pPWu+++677559/5BHl5/6ff/4paXD+999/a7SSY1pZNO9oO5IAeSE1jBgxoiS9sE2oXxiXOiD1apuVRIxckA5TvKeffnqKNg2xef755x39KI7efPNNwSYsA+EQCOh333//fTEaaX766afFa05ow7CsaW2qEePSoR3CNkhqN9L45Zdf3EcffaTJyZE2CssaPlQsEFJojyQ84t4fTScJp+j9Dz/80P30008azfHOhtiGbU+gtHqGYaP95OOPP5Z+8vnnnxfzCk+i5Qqf1ekcHspv8NB3CieeeGLBg14vv9atWxeuu+66krx23HHHwnLLLVdYYIEFCjPNNBNLYoWtt966GIbnm2yyiVx7xleYeeaZC16iLcwwwwwSL67sI0eOLHTt2lXSm3XWWeV41113SRp33HGH5LHHHnsU2rRpU5h++ukLlOuyyy4r5kna5Nu2bdtimTbaaKPi82ientkWllpqKUmX8s0+++xSxkMOOaQY57DDDiu0atVKyu0HlQLluv/++4vP7777bsmrffv2Uh4/6BS8GkSee0lR7i200EIF78CrcPLJJxfjhWWhzMsuu2wRS8LutNNOxbDvv/9+YfXVV5dyKtarrLJKwQ8ehbfffrsw3XTTyTPw4NwPDsW4mk9SWbLa8frrry907NixMN988wmuiyyySMEzSklf22T77beX/A8++GC5D370B+Jx3HPPPacoj5bL690Lc8wxRxFj6u5nQcXwlG+NNdYozDXXXIIhfUnjcqQsYAH+c889t+TnX1gJA4b0ifnnn1/S33///eX+CSecIPc90ymmRdkXXHBBuU5r0zDvAQMGSD9UPHhGG9OPPOMrpLUbYb0qrEDfCNP0s7/CgQceWHJPn4PFqquuWujWrVthxhlnlLryTvmBSMKnvT9JOCXdX3HFFQs777xzsRzkDZbUi/KcddZZBa8GlPOseib1k7322kvqQJ+m3ZdeeulC586dJc2kcikWdTnCO+Gh/OpFZ+pfgkxCmjj66KMdOtQLLrjAecYXO6pec801btFFF3WMMoS96KKLYtP2gLp+/fpJGKRKz6zdrbfeWhKWEYx0eL755pu7iy++uOT5I4884lhUIZ8rrrjCPfzwwyUSRxjYd3wZcZH2fEd0Rx11lAtHyMcff9ydd9557rTTTpPnSANI7AcccIBImUgv++67r/ODhkiLSLhIQo899piM1Oeff7479dRTHRIt0soWW2wRZl9yTtrHHnuslPvcc891//vf/4qSgX/5HZICdUH69szcscDnO7TzTEakrFlmmUVwReLyjK8kbaSGtLKktaNniLLQSN3AnXIMGjSoJH0kLPD7z3/+48CM9r3pppukzizoDRw4UGYLJZH8Bfjts88+bvnll5e0qRMYoGICMyWkfs+gRTJafPHF9bYckc6YGb388ssi/Q8dOtT5AU+eeYYg98CWNCkLEvi2227rkJaQnCEkb3TlnnlImZLaVAIH/1CpkB51Vrrttttcnz59nB/YXFq7afhyj9Rvl112cZ6BOc55Z26//XZJJu39ScIp6f76668vszsSBh/eEfr2q6++Knkh7ffu3VvO89Yz7Ce8I/AF+AZ1eeGFF0revaRySYZV/NeyHmb5uYrbpUsX56VRaVAYG+qA8CXQRLzk4bwE5fwIJbe8dKOPSo68uBtvvLF0coBmuh5N76CDDnKk5yUR50c2eYnD6Qfl8VKelGmbbbaRBTQaLo5gTpSb8JSdlynUB8OUYUxesnLTTDONPNt9992l0WFqlO27775ziy22mHQ2pvleCnKPPvqo5A+D4yXlZfaSrzC+uHJwz0sobsstt5R4MF0YIC8LxADBM/Si0GqrrebWWWedYmeXmyn/eMnSypLWjl4idl4Kcl5ac//973+dl3yFcYXZwXxI30susijpJUQZbGD6qCHIH7VMlMAL/GCUDAqoj7z06Pyso6Rus802m7QBeftZSUkyyjgvvPBC9+2334o6ys9MJMwOO+wgDJ1yMxigIkBVMeecc7q1115b6kRAXlwv6QgTTGvTkoz9BeWC6YANxACPCoZ+BNW13SSRyD/KTr8HB1RvDOTKzNPenyScku5TLwQLhBIGW/LbcMMNpV1QI7FIq8w0bz3DfsK752e1ghUDD3XhfVVKKpc+r+tRZ/n1ojPNU9hQSoC58dIx4kfp8MMPl47qp8zOi/IiYUXDcE2joadlsQvmS5pR/R/ShhIvLUSDK62wwgp6KkfChM/1IVIRLxfSrxIvPYxaCd0TjDak7t27yyVM4Msvv5RzGCZbOvjBPGC8EFI1jGG99daTQcJPXeR+3D8kd6UOHTo4P/WR8jGaIxGE5STckksuKYxI42Qd08qS1o5I/jDxq6++2qE7jmsTJEslMKG8igezA69KidV1gi8vEs+VYIR+GltSt2jdNSzHZZZZRvJiwKRtjjnmGJGk6IcMQPxgNspgdVEURou0RT9gkPfqIBkQsto0zJtzGCcDBTpFJESvknCdOnUSfWiedmPQDCl6HT7jHKwZ+JXo3wzsUNr7k4RT0n2Ym59yy1oB2LK7RwdwBibeSwbacvpn2E9Y74i2KwOFUlK59Hmdj5O56b9I1jnF+kkAiYKtUozcdLa99957ioUaSnLVVVc5r7dyw4cPlxeExowSCmwlJAoIaVAJJqxEZ6bhGQGjBFOgwyA1KvFChOkjlSId6mIP4ZhSQqSpzPzMM8+UF5aXlh9SNQRTYC8uoziMaMCAAXK/nH8MUEh80e1aTGt5aUNKexErKQuLiKgcTjnlFKkX9WSwiJIOHtwHEwYCxUKPKq2FcZkFwNyoixIDHP0kbLOoNKph9ci0/bXXXnNIpzB9ZhQsQDJ1RPq95ZZb3GabbabB5YhURb9ENUV4ps5QVptKoODfmmuu6byO1N17770ioWo6edqNeKhlWLSCwDbsv0E2xVOeh+3MO6D9P+v9icOJhJPugxEqHSRPpFKYKe8mfbpXr14iNOSppxY+7CcIPeG7R5hoH08ql6ZXjWPLyGBWjTRrmgZ6JHQsSAd+gUk6Q9ghwsx5mZhyMdoj8UUJHST6R9JDakJyhCkq3XzzzcVV3SOPPFJuM/WPI0ZbpAk6C50aqSZkFkw7kECPO+44h1RJnn7BS0ZkGBlSNNNbdKowbaZFvNAwYNKBEVFWXlCmLSFTjitP0j10c3Rg6gY27MWDWfhFgWIUGD+M/scff5xiS1qlZaG8SEEMBKzsoj9mRTmNUNOAJYyXsDBK9htHZxikAX4wVNoUxsfKNjpTv+Dnttpqq7Rsis+QxtAvoxJCwiau4kwfQ9JEcjv77LOLcTihL9IvaDum67rtL61NSxKYfAE+tAMDDnWE6ShltVvPnj2lrZDeUVFQRiS9pHeDdFFp0Q6EZ9CmT/oFQM1SZgBx708STkn3SZCpPjssaH9US/RjBmW/GF2c4hMuq56EiRLvHiv51IX00WeHuvi0ckXTquQaHsqv3iVTpr/8Qope84yOpffDODAaAOeFZ//pGWec4aaddtowOTlHp8JLgU4V3RkvpqangZFYaFheNqaIjMYhoQtD8mUKwfSEjgrjiyO/M0D0Z0gTTEGQkhgxNU+mMSzcMEVm2kGeMEXShJBu6VgwzHXXXVemw4yuSJK8EMTzq68ibSP1ssAVR5pf+CzEkv2jqApY4AEbmDuLYH379i1G2XXXXd19990nA0t0y1haWdLyRnJDRXPttdfKIEjdQnyKmQcnvIAMYixCsVhHGWnTOCJ9BggGUCRH0h4yZIgsXqnuOq58YVowefBA54yUyJ5oXlSkKpgV5aEdUYtAYXpM9WkXpGa9n9amYb7hOelQR5iaqhN4ntVu6NEZaJCm0bsjRdPPtCxhHnoORg888ICEZ+BhwEeHCqW9P0k4Jd0nPQYW8KDv8a5B9HMGDY5KWfXUcOER1Q7vH4MugyDvFNda97RyhenU9bzFEJb1H7/TsRjTWIipDCMQo1vY4eLKjzTBgoQCSxhGLcR+Rl06LquoSBQhwTSRDGHCMBS+4IIpZRESFLpNOk4cwYzQ7zF9hVHGEWXm5Qj34BIOyRYmjT4orE9cGln3mHaTHhgigUUJPSF7WSlnHFVaFtKkc4f65Lj0w3tIw+AKU8xTb77e4iVl6lsu0T5Iw+CPvjkk0qVNYNzlUlKbRtNBWIC5sHgFU49SVruBFfhm1Z2FOvo+M5O0ssW9P5QpCaek+9F6ZF1n1TMuPqo49Na871GqVrmi6SLQrdl70mKXd1sSfdzwr+nQSRJitPQwizSKvjDRsIyiSMF5KVR8x8WBGaikFPece0lljjL8pPh57iPNp9ULhpHGNCotC4NfOYyUuqDnTCtrtL6oSyol2ifUsYbp1CXdpDYN02cAYD2AXSFxjJSwWe0GVlmMNMyT87SyJT1LwinpfjTPrOusesbFRzhJElCqVa64fJWHZotasbHtpiFgCFQTAdQ4rAGgk4WhGjU+BJqlCT50mmxlSSNWVPNKv2np2DNDIA8C6GjZKcDWsTzqpDxppoVhayEqAaO6I8DiEzRJEzzpvNn8Z2of3fMZrTzKeyNDoL4QQD2UpSKqZll0C1Q102zuadWL1ajmDrLV3xAwBJouArrs1CgXoJpus1jNDAFDoNEhMJmb2gJUo2s5K7AhYAg0RAT8AtRk7WlDLJ2VyRAwBAyBBo6A8lC/AKUz/gZeYiueIWAIGAINEoFJPLTBmOCrL4wwRMG36dUivvstx3EXnzvy7TVfcBnlRyALt2q3a/6S1TYkNl/pL0alCJT73pXGru4VrJRfvZngwyyZOtXD9B3f4GJgob6p2k7fsFZTjuMumALfmuete/Tb+PrGq6Hkl4VbNduVwbFXr15TVB1DK/RhDIjUknhXMEANYcAjyQB6LcugaYfvLXYJ+KAgzgylhq+vY7nvXU3LNZmb1tsCFN+/Y4ACe48YrOCLj6nZSWoKbpUSx1gFRjX4Ttmo/hDA/oGasgtzxYIU/Vh1ZOGzap6TR0PZUB++t9izwIsw73GSwZlq4tDY0vIm+OpvAYpv0rHShBUnLPKEFtP5jA4jBRi0UHcGgMm9JAdzdG5GqKhzNm0ETMhp3OjLQSeJc95HXL6RxtYiBlEwhhIlpAUkodAtSTRMeI0kg3kzXHWQdpQw0MDzMC8sEDHFg7AkFXoAyKq3pg+WSLYwB3DCXiUSXpRQOWBhCeMalEWJ/DGaoUSZwnJgDIWyKSXhFoaLOkHDHCFYhuloelm4abjwGFdX6kz6PAtpzJgxYukpvFfJOYZr6GfKAJPyowz0Z6W0umsYPfKegj3vTNxsJe09SWoX0tb3DiMu9AHaKkr63nrfVmKljVkV72gUU+rDO6dEv9Ky5sknrQ6kWe57p+Wo9ZG2ET6K1aj6cKiHgytv9k0cXPlpQsF/qlnwbjvk2jMRcbDlTYCJszKecS/NGVmaczbietuS4rTNGz4oeMMoBc+8JU2ceXmTegVvzKLoKM/boiyWA4de/nPTgv+kTxyNERcnXqTJL81xl4YJj14Cl7p5Y7ZSDv/lFaNXwdsQlfSSHLVRfm+0QsJSBhy9kW5WvcO8qWua0zTCpjn5K9cRWhJu4Eedy3GWl4VbWE/O0+rq9WuS/8CBA4vt6K0zyT3/2XDxnqaJkzx1iKf3OHqpTOJ4xiBxkpzOeePSEs77riqm7Zmg3PMMS+6lOQoM3xXFLur80asiimmnvSdZ/Zn3w0ua0te8pTPp8/QxrXdYFu75z7ClHt7coRzVSaVnnPI+eem1GNcLToX99ttPrrPySasD+Zb73mn5a32Ed8JD+dXbNJ/Rgak9FrYxCouPGWwohoSRYnweMUIySmFTMc7BHHHSnLNhUJm0Dz30ULE2joM2bGkqobxOct6HQy9GVyQ5fPAgQWMjEsKmaZrjLk1fj9TBe4eUOiOVIkFHzYMlOWrDOZwatEZHxfQKSqu35hsewSLJaRqW69Oc/GG/kzaBkIazHKEl4ablQdLM4ywvD26aZniMqytqJaxA4ZUBS/hKYIu/KvSAcYREhY+u8Ie9zJCwRBTntBGbDtieDRc6KQefKGOXFdxRceVxFKj5MQuKc/6Y9Z6k9WdNm/cBg9r0d+yO4ucqjrDMj+NFzEtiQwC3Qdo/mOUxc2GGBSGdo6ZS307cS8onqw7lvnfkNTWo3hagqBxW7PGjg1VybEZiwDUkdDF8M48ZrSxnZLwEuDnAAVnUORsvDWbIMOZAw2NKDoO5SklO3xDVcc6FnpKGpxFJB0PGdI4sx12avh5ZsGD6BEPFZB02AaJ2Y5MctWka0WNavaNhueZ77ySnaayAY9ouyckfzDSPI7Qs3LRcoRM0BgfMu2HfNOosLw9ummZ4jKsrbQhhtBl1Ai8uhFcEPytItI+KqUBc3YS/qOnANKdztCt5029QL8BYMboNpdVdAsT8izp/xAsn0/609yRvu6AL5Z3AtCULTgxKoToKY8s8xxgLAgELrth7VVckFJe6MmijFiIMzJX0YM5KSfmk1YG45b53ml+9HScvQNWroRMs1qMvhRjBsDaPBKhGR0KnWBilhZAgkACU1PcLbkaQFGB8WNqGaWoHoJPRiEnWd5KcvqFUp/MjAYT6UKQJjCEjrYRlpExpxinQWWJfMnTyFkqm6Kd4ofE5hKsLtXMa1e1p3Tmm1TsMp+dYyApxgIGhv4KynPxhXR5mwkyBumB1HuyQqLCYDt4w9yzcwrLoOe2LfjbcVgZO4A8uabhpGtFjWl1hEljt58XEVih9BDfKSYTtUnachASDCKVNBlwWU8GXtYCwDzKjwhsCMy0GfRYR1T13Wt3D/MLzJOePae9JVrtgxBwKBQ0GVwY42laNhtPWWP6nryMQ6TvIYIukSt+gnhhKBlekVe4xC1Wr+mn5pNWBeOW+d8SZGjTVvoBS48JIqMpMQ6v5apQWhqnPFSA6pjpnQ7ql4dXTJ2FgWPibYWoaMhKNn3Sk0yPF8iIMGDBgimC4edCptz6MOu7S+xwJz6IE0yMtHwsVSnQ6plcsdtFRkQhwXRIl6gFl1Tsaj2t1mqYDUug0jReHqXuIEwwDUgPJKn2g/KctsLmJygSmwvYhXix+abjpQpq+hKRP+5ImU94ooQpIwy0aXq/T6krfwt0NsxYGCAYG7YMav9yjOp3DxQuE2xCmyhCMChURMydmWszGlHml1V0ix/xj4Y5pNRQ6f5SFD38v7j0hbFq78DwP4ZgydC2icRBkqMuVV14pEj9Tfxgoi2QsPqECyUNp7zrxy33v8uRZzTDaBn7T/r9SXzUziEuL0QqpD6dluE3AJQYjehwhWSY5mNOXnwZjWhF1zqbO69CbwqzJE0d3eQgJhikgU090QLx8Kj1lOe6Kpo9umBeXvXmsfPISIFmGREMwMiMtRh21qXV5GC7qgqx6h+nqOZJCktM0xSnJyR9pIH3kcYSWhpuWJTymOcvLg1uYlp6n1ZUwTPUZzBgQ1fOnxq30iCTtFzlinTYy1WcGxoAR5pdW96RyJDl/THtPSKvcdknKP+k+/YP3g0EXSRZmioCBnp/zPJRVh3Lfuzx5VjMMPJS/el2AgokCMMyF0QadXSgdqPRERZkyJTmYY7RNc87G9BTGxIIXUi26WFz+QmEecsP/Q3rV+3xtwlQWiZfpIAsF6H6gLMddEijy7+STT5ZtJCxIMKUPvT/SAdMctSEd4qGS6SjxsuodyVouwTnJaRpT9DQnfyRAR6ctshyhpeEWVy5ewjRneWm4xaVH+zHNR0pk2hp1EEccmDTSHbpOpOokSprNaB/RY5rTOdIGO1Q3TI1DVU9W3ePKhf1R+lDU+WPae0I6edpF6xOXb9Y9+jCDvHpSZeaCEICUGvUflpRPVh0qee+yyl2L5y2GvOgd6j3WsB3qIbnFOZjLcs5GI6P7ZBoR6m7yAIm+ib2oIbPXeGmOuzRMeEQNgX6Sr2dUDxU+z3LUhr6WjokeEcqqt6ad12ka0nGWkz9NM+uYhltcXKbzzFhgOtGXLQu3uPS4l9Rf6A/oHpEY8c4aR/QT8tWpGwMp6pW0a9QVLFRS/jzhNT3dl6rtSnnS4oMtjAdmH1ce6s0AjM49+pydFPRnmLLmn5Xf1HgO9pRfVUIc6e/Uh/cO31DgpfXjXHGkvPVN4lBv/UkO9epVMq20ojBDlQ7DNLKcs9Hp6DzlMlLyYOU9jpHyDB1YuJDEvTSCgVKOOEZKPNQZSJ1JRDnCFy6r3nHpJGFIWJgAzIx61ZXScItLm3ohyUQZKWGzcItLj3tJdWXXB6v5LBol0ksvu/ae6VCe6f2L2/qkUzKvu/qVbfpa3vCa/kyeMXa84CLXwTOLPPnN5Rl2h3POSyxPV7/iPu1pZ8Q+Zz2gk8c5T320fOXWpxrhZzrvAjebx17xaHXd9a69Z6LgO4ev/0wXXVK8nt6/M62feDKxKev7Qb1+AVXflbP8DAEQQPfNFB/dMKvPTPOT6O8O7d0/2+zoZvTSaMs993ET/Ytt11MPj7/GT3D/bL+L6+AHwZYHHuL+8jOZ8PpvP6uZ2oSUzM+7Lam/BaipXenmlr85TZvU4kjcrLyjP0dyTqOC12/+cfoAN8NKa7lxxx7qJm6ztWu54Qi7nop4TFxjdde+14Zu/AF7uAl9d3Et/OJW8brP9mnNWS/PlIe24DOowY83bJ1pvSBimRgCIQLYKAjVHnbdsPEI264ez0Vn2nuSztR8QNUj8JZVI0IgZKQU265LG6+h4VFauvq9mjy5bxQLUPWLjOVmCBgChkD5CLT2mtPyY1kMQ8AQMAQMgUkITOahJplahzAEDAFDoAoImEO9KoBoSRgChkBzRmCS0tQWoJpzH7C6GwKGQN0RsAWoumNoKRgChoAhoAjYApQiYUdDwBAwBCpBwBagKkHN4hgChoAhEI+A15na56Tx0NhdQ8AQMARyIDCZh9rWqBxYWRBDwBAwBLIQMGaahZA9NwQMAUMgBwK2AJUDJAtiCBgChkAiArYAlQiNPTAEDAFDoGwEbAGqbMgsgiFgCBgCAQK2ABWAYaeGgCFgCNQRAVuAqiOAFt0QMAQMARCwBSjrB4aAIWAI1AUBW4CqC3oW1xAwBAyBUgRsAaoUD7syBAwBQ6A8BCYvQHl7ppMIx1BGhoAhYAgYApUh8H9ZMiAae6jU1gAAAABJRU5ErkJggg==;" vertex="1" parent="1">
          <mxGeometry x="1000" y="170" width="339" height="296" as="geometry" />
        </mxCell>
        <mxCell id="0P4mHAlJGLYM7_raSC7B-3" value="" style="shape=image;verticalLabelPosition=bottom;labelBackgroundColor=default;verticalAlign=top;aspect=fixed;imageAspect=0;image=data:image/png,iVBORw0KGgoAAAANSUhEUgAAAwEAAAKCCAYAAACJTNXXAAAKpGlDQ1BJQ0MgUHJvZmlsZQAASImVlwdUU1kagO976Q0CodfQm3SBAFJCD0V6tRGSAKGEEAggdmVwBEcUERGwgIoiCo4FkLEgolgYBFTAOiCDirIOFmyo7AOWMDN7dvfsf84993v/++9f7rv3nP8BQKGyhcIUmApAqiBTFOLtRo+KjqHjRgEW4AEJwACwORlCZlCQP0Bkbv6rfOgD0PR8x3Ta17+//68iw+VlcACAghCO42ZwUhE+g4wxjlCUCQDqAKLXyc4UTnM7wnIiJEGEB6Y5YZbHpjluhtFgxiYsxB1hOQDwZDZblAAAmY7o6VmcBMQP2RVhCwGXL0BYiLBzamoaF+GTCBsiNoiOPO2fEfcnPwl/8Rkn8clmJ0h4tpYZwXvwM4Qp7JX/53b8b0lNEc/F0EcGOVHkEzJdM7JnA8lpfhIWxC0OnGM+d8Z+hhPFPuFzzMlwj5ljLtvDT7I2ZbH/HMfzvVgSP5mssDnmZXiGzrEoLUQSK17kzpxjtmg+rjg5XKJP5LEk/nMTwyLnOIsfsXiOM5JD/eZt3CV6kThEkj9P4O02H9dLUntqxp/q5bMkazMTw3wktbPn8+cJmPM+M6IkuXF5Hp7zNuESe2GmmySWMCVIYs9L8ZboM7JCJWszkQM5vzZIsodJbN+gOQb+wBvQgRcIR8gfIR/gkcnLyZwuxD1NuFLET0jMpDORG8ajswQcswV0KwsrGwCm7+vscXg3MHMPIQX8vC4d+b4OyPeDU+d1sUjM5nEAqJx5nd4C5Ch1ANC6jCMWZc3qZu4SBhCBNJKhMtAAOsAQmAIrYAscgSvwBL4gEISBaLAccEAiSAUikA1Wgw0gHxSC7WAXKAf7wUFwFJwAp0ATOA8ug2vgFugG98BDMAhGwCswDj6ASQiCcBAFokHKkCakB5lAVhADcoY8IX8oBIqGYqEESACJodXQJqgQKobKoSqoFvoZOgddhm5APdB9aAgahd5CX2AUTIblYHVYHzaHGTAT9oPD4GVwApwO58J58Da4DK6Gj8ON8GX4FnwPHoRfwRMogCKhFFBaKFMUA+WOCkTFoOJRItRaVAGqFFWNqke1oDpQd1CDqDHUZzQWTUPT0aZoR7QPOhzNQaej16K3osvRR9GN6Hb0HfQQehz9HUPBqGFMMA4YFiYKk4DJxuRjSjE1mLOYq5h7mBHMBywWq4A1wNphfbDR2CTsKuxW7F5sA7YV24Mdxk7gcDhlnAnOCReIY+Mycfm4PbjjuEu4XtwI7hOehNfEW+G98DF4AX4jvhR/DH8R34t/jp8kUAl6BAdCIIFLWEkoIhwitBBuE0YIk0QZogHRiRhGTCJuIJYR64lXiY+I70gkkjbJnhRM4pPWk8pIJ0nXSUOkz2RZsjHZnbyULCZvIx8ht5Lvk99RKBR9iislhpJJ2UappVyhPKF8kqJJmUmxpLhS66QqpBqleqVeSxOk9aSZ0sulc6VLpU9L35YeoxKo+lR3Kpu6llpBPUftp07I0GQsZQJlUmW2yhyTuSHzQhYnqy/rKcuVzZM9KHtFdpiGounQ3Gkc2ibaIdpV2ogcVs5AjiWXJFcod0KuS25cXlZ+oXyEfI58hfwF+UEFlIK+AkshRaFI4ZRCn8IXRXVFpiJPcYtivWKv4kclVSVXJZ5SgVKD0j2lL8p0ZU/lZOUdyk3Kj1XQKsYqwSrZKvtUrqqMqcqpOqpyVAtUT6k+UIPVjNVC1FapHVTrVJtQ11D3Vheq71G/oj6moaDhqpGkUaJxUWNUk6bprMnXLNG8pPmSLk9n0lPoZfR2+riWmpaPllirSqtLa1LbQDtce6N2g/ZjHaIOQydep0SnTWdcV1M3QHe1bp3uAz2CHkMvUW+3XofeR30D/Uj9zfpN+i8MlAxYBrkGdQaPDCmGLobphtWGd42wRgyjZKO9Rt3GsLGNcaJxhfFtE9jE1oRvstekZwFmgf0CwYLqBf2mZFOmaZZpnemQmYKZv9lGsyaz1+a65jHmO8w7zL9b2FikWByyeGgpa+lrudGyxfKtlbEVx6rC6q41xdrLep11s/WbhSYLeQv3LRywodkE2Gy2abP5ZmtnK7Kttx2107WLtau062fIMYIYWxnX7TH2bvbr7M/bf3awdch0OOXwh6OpY7LjMccXiwwW8RYdWjTspO3EdqpyGnSmO8c6H3AedNFyYbtUuzx11XHluta4PmcaMZOYx5mv3SzcRG5n3T66O7ivcW/1QHl4exR4dHnKeoZ7lns+8dL2SvCq8xr3tvFe5d3qg/Hx89nh089SZ3FYtaxxXzvfNb7tfmS/UL9yv6f+xv4i/5YAOMA3YGfAo8V6iwWLmwJBICtwZ+DjIIOg9KBfgrHBQcEVwc9CLENWh3SE0kJXhB4L/RDmFlYU9jDcMFwc3hYhHbE0ojbiY6RHZHHkYJR51JqoW9Eq0fzo5hhcTERMTczEEs8lu5aMLLVZmr+0b5nBspxlN5arLE9ZfmGF9Ar2itOxmNjI2GOxX9mB7Gr2RBwrrjJunOPO2c15xXXllnBHeU68Yt7zeKf44vgXCU4JOxNGE10SSxPH+O78cv6bJJ+k/UkfkwOTjyRPpUSmNKTiU2NTzwlkBcmC9jSNtJy0HqGJMF84mO6Qvit9XOQnqsmAMpZlNGfKIY1Rp9hQ/IN4KMs5qyLrU3ZE9ukcmRxBTudK45VbVj7P9co9vAq9irOqbbXW6g2rh9Yw11SthdbGrW1bp7Mub93Ieu/1RzcQNyRv+HWjxcbije83RW5qyVPPW583/IP3D3X5Uvmi/P7Njpv3/4j+kf9j1xbrLXu2fC/gFtwstCgsLfy6lbP15k+WP5X9NLUtfltXkW3Rvu3Y7YLtfTtcdhwtlinOLR7eGbCzsYReUlDyfteKXTdKF5bu303cLd49WOZf1rxHd8/2PV/LE8vvVbhVNFSqVW6p/LiXu7d3n+u++v3q+wv3fznAPzBQ5V3VWK1fXXoQezDr4LNDEYc6DjMO19ao1BTWfDsiODJ4NORoe61dbe0xtWNFdXCduG70+NLj3Sc8TjTXm9ZXNSg0FJ4EJ8UnX/4c+3PfKb9TbacZp+vP6J2pPEs7W9AINa5sHG9KbBpsjm7uOed7rq3FseXsL2a/HDmvdb7igvyFoovEi3kXpy7lXppoFbaOXU64PNy2ou3hlagrd9uD27uu+l29fs3r2pUOZsel607Xz99wuHHuJuNm0y3bW42dNp1nf7X59WyXbVfjbbvbzd323S09i3ou9rr0Xr7jcefaXdbdW/cW3+vpC+8b6F/aPzjAHXhxP+X+mwdZDyYfrn+EeVTwmPq49Inak+rfjH5rGLQdvDDkMdT5NPTpw2HO8KvfM37/OpL3jPKs9Lnm89oXVi/Oj3qNdr9c8nLklfDV5Fj+P2T+Ufna8PWZP1z/6ByPGh95I3oz9XbrO+V3R94vfN82ETTx5EPqh8mPBZ+UPx39zPjc8SXyy/PJ7K+4r2XfjL61fPf7/mgqdWpKyBaxZ1oBFDLg+HgA3h4BgBINAK0bAOKS2X56RqDZf4AZAv+JZ3vuGbEF4DAyhbcCMN2eVbn+q51FnoMQDnMFsLW1ZMz1vjN9+rRoIP8JS8KRzgHqrROBv8tsD/+nvP8+A4nXv8z/BLp/AZdFjmwvAAAAVmVYSWZNTQAqAAAACAABh2kABAAAAAEAAAAaAAAAAAADkoYABwAAABIAAABEoAIABAAAAAEAAAMBoAMABAAAAAEAAAKCAAAAAEFTQ0lJAAAAU2NyZWVuc2hvdO3G01YAAAHWaVRYdFhNTDpjb20uYWRvYmUueG1wAAAAAAA8eDp4bXBtZXRhIHhtbG5zOng9ImFkb2JlOm5zOm1ldGEvIiB4OnhtcHRrPSJYTVAgQ29yZSA2LjAuMCI+CiAgIDxyZGY6UkRGIHhtbG5zOnJkZj0iaHR0cDovL3d3dy53My5vcmcvMTk5OS8wMi8yMi1yZGYtc3ludGF4LW5zIyI+CiAgICAgIDxyZGY6RGVzY3JpcHRpb24gcmRmOmFib3V0PSIiCiAgICAgICAgICAgIHhtbG5zOmV4aWY9Imh0dHA6Ly9ucy5hZG9iZS5jb20vZXhpZi8xLjAvIj4KICAgICAgICAgPGV4aWY6UGl4ZWxZRGltZW5zaW9uPjY0MjwvZXhpZjpQaXhlbFlEaW1lbnNpb24+CiAgICAgICAgIDxleGlmOlBpeGVsWERpbWVuc2lvbj43Njk8L2V4aWY6UGl4ZWxYRGltZW5zaW9uPgogICAgICAgICA8ZXhpZjpVc2VyQ29tbWVudD5TY3JlZW5zaG90PC9leGlmOlVzZXJDb21tZW50PgogICAgICA8L3JkZjpEZXNjcmlwdGlvbj4KICAgPC9yZGY6UkRGPgo8L3g6eG1wbWV0YT4KtxCG0gAAQABJREFUeAHsnQeAJFW1/k+HSZszu8sCswtIzlGUoOIzICCiYvr7MD1zzjx9wZx9hmeO6DNjwoQiAiqSJOe4wOYcJ3f3//vd7jtbXdM9YWdmd2b2nN3qqrp141c9M9+595xzM1dcc1fJ6simjWts6QN32tRJjXbSSSeFXIsWLaqT25MdAUfAEXAEHAFHwBFwBBwBR2B3ILBs2TJbvny5cc43Tbf9Dji8325k6ikBjzxwhy198E47+eSTexWAfmvyh46AI+AIOAKOgCPgCDgCjoAjsNsRuO666+zaa6+11v0Pq6sM1FQCUAB6OjcH8u8z/7v9PXoHHAFHwBFwBBwBR8ARcAQcgSEjgDKwau3WmopANl0bCsD8uVPt/PPPN1cA0uj4vSPgCDgCjoAj4Ag4Ao6AIzA+EMCcn4l9+H1a+igBmABF+/90Zr93BBwBR8ARcAQcAUfAEXAEHIHxgwC8Hn6Pr29S8skbtAQylkp1fYWT2f3aEXAEHAFHwBFwBBwBR8ARcATGMAJ777134Pf33H+nHX3CvN6e9q4EJP0Aep/6hSPgCDgCjoAj4Ag4Ao6AI+AIjGsEmOQn2mdyNaBXCWBkaAoujoAj4Ag4Ao6AI+AIOAKOgCMwsRAIZkEK/R+lVwnYuHGtOwJHVPzsCDgCjoAj4Ag4Ao6AI+AITGAEen0CNm9YYwsXLnR/gAn8sn1ojoAj4Ag4Ao6AI+AIOAJ7JgLwfPh+lF4lICaM6LmnxxpvudUa/3mT5R6437KbtoTqizOmWeGAA63ruGOt6+ijzPKj041M1yZr3nC5NWy6xnJtD1mmsN1KuclWmLTEumecYh2zzrRS44wRHXKsrKfUY3/Zfq39pf0au6XtLltb2BAezc3NsqMnHWpPajnFnjT5ZMtnRmfssR9+dgQcAUdgVyHQo9/53d3d1tzcbJlMZtjNdnR0hHqampqGXddQKigUCtbV1WW0m832LpgPpQrP6wg4Ao7AmEdg1Bhow0032aQf/8yya9f2ASG7fqNl119vDdddby1z51rbBc+17mOP7ZNvpxNKRWtZ9VNrXvF9yxTbqqrJFLZafuut4Whe/l3rWPgSa5//PLPMyP2iv2LbNfbZDd+yZT0rqtrmZmVhja3cusZ+v/VKW5RfaG+d9XJ78pRT+uTzBEfAEdi9CGzZssXuuuuu3k5AaufNm2f77LOP5i1G7Vdnb3vj8eK//uu/7Ctf+Ypdcskldvrppw97CGB94IEH2jXXXDPsuoZSwWc/+1n72Mc+Zt/85jft3HPPHUpRz+sIOAKOwLhBoOov2YiEBi0WbdIlv7DmP1w2KBBQEqZ88cvW8fSnWdv555mmXQZVrm6mQqdNfegj1rj573WzxAcoCC3Lvma5rXfa1iUXmeWGN9tUlPLx+Y3fsYs3XxKb6PeMkvD2NR+yl3aeb2+aeaFlR1AR6bdhf+gIOAIDInDDDTfYBRdc0CdfQ0OD/eu//qu9+93vthkzRmclsU+j4yQh/g0p6u9AvB5O16kjHsOpZ6hl6T8yUuMYavue3xFwBByBXYFAlRIwEg0ORQFItheVhrbnnZ9MHvL11KWfHJQCkKwYhYFyW/d/XzJ5yNdDUQCSlUel4S1aFXBxBByBsYXAUUcdZWeddZZ1dnba0qVL7Xe/+5194xvfsPvvv99++tOfjojZy9gasffGEXAEHAFHYE9AoEoJGO7MTePNNw96BaAWuCgC3fsvtq5jjqn1eMC0lrW/tcaNVw6Yr1YGyjWvPdra55xV6/GAaVds/8egVwBqVYYicETjwfbkyY+v9djTHAFHYBcjEH8fHn300faWt7ylt/Vly5bZU57yFLvqqqvsb3/7mz3xiU/sfbanX0TMRnr2Pta7O/DdnW3vjvF6m46AI7DnIFClBAxr2HIIm/STwZnB9NcOdXQdccTQnYVlBtSy4uL+qh7wWcvyi6195plDNgvCCfhzG781YP0DZaCO0yad4M7CAwHlzx2B3YjAokWL7LnPfa59/etftzvvvLNXCVi1apX985//NJSE6dOn2wknnGD7779/n54+/PDDdv3119vmzZvtcY97nB155JE2a9as3nw41l599dX20EMPhXqO0O9D8pGf1Yf58+fbfvvt15ufC0yXWlpa7PDDD69Kv+6662zKlCl22GGH9aY/+uijod+cGQv177vvvr3P4wV14uDLc/Ki8BBjOo5p48aNdpN8vx588EE76KCD7LjjjotFB33GkRgM8b1gpQWFi75icpWWlStX2t///nfbvn17yMcKTS2555577GZNSOHYS130q5aT8lDaju3Qz61bt9pc+bItWbIkJoe0G2+8MbwfMD3++OOD/0jMQN/BkPfI+/jLX/4SxnHeeTKBdXEEHAFHYDchUKUEDGfGo0lRgHI1nICHOi7qIKJQpyIHDUWaN15l2Z5yBJ6hlEvmpXyT6umY/dRk8oDXf2n7h5yAVw6Yb6AM1EFdZ07ymcWBsPLnjsCuRCD9uxHCjbS1tQWb9Q996EP25S9/2SCWUYgqg6Psq1/96pBEHRdddJF9+9vfrrKXh2RffvnlIQ+E+CUveYmtWFEdVODiiy8OisLZZ59tp512WjBDiu3cd999wVwJcnnvvff2Oi1DWMn/jGc8w77zne8E0kk/v/Wt6gkLCPLrX/96e8973lNFvjGBwin3/PPPD06ytPef//mf9rrXvc7+8Ic/2Bvf+EbDeToKiklUQhhrGrOYL57vvvtue8Mb3mB33HFHTArnV7ziFfaRj3ykKg1saTsplH3/+9/fm4RygJ8GJlpJOfPMM+1LX/pSUKhi+kBtx74nx/GrX/0qvEsUox//+Me2ePHiUB0rQuC3NvH3j3fxP//zPwF/Mn3/+9+3T37yk2Fcn//85w2FcdKkSfbsZz87dsnPjoAj4AjscgSG6YW7o79NN92842aYVztTV+Pm64bZarn4ztRzZfu1I9I2lYxkXSPWKa/IEXAEehFgpj6S9mMrUc2Y2X/CE54QVgd+//vf25ve9KYQWhLSvXr16lD2N7/5TSDgEOVf/vKX9vOf/zwQaZSAKK997WuDAgC5veKKK+wzn/lMIPisLDCjPXv2bLv22mutvb09FgmEnJtt27aFlYj4AHKK/Mu//Es4v+td7wrtH3zwweH8xz/+0b74xS+GWW3O//u//xvyJT8eeeQR+9znPmdvfvOb7YMf/GBYFYC04xiNAoRSQz3f+973wqrBb3/722TxuteQ4Gc961lBAXjhC19ov/jFLwJRfsELXlA1g04FrH58/OMfDwQaIk7+XC4X+o7SE+Ud73hHUADOOOMMI98XvvCFsMrCu6J8lKG0HctEot/Y2Gjf/e53w4oIz2if/oDFRz/6UeMdv/zlLzdCjKKksAKQlA9/+MNhJQeF4DWveU3ykV87Ao6AI7DLERixlYD8gw+MWOepK87EDLbSfNvItE89Q237lvYdYQQH2996+ahrqO3Xq8vTHQFHYOcRiD+HRIiB1GEGwqz7pz/96WC+ApnHPIZ8n/jEJ4JJTGztGPk1YU7zj3/8w2677TZjNhpzEQSSePLJJ4frU04phwemDmayIZV77713mFkmw6GHHmovetGLQl4+qIdZaEJmPvnJTw7pzMqzMoFigJnJiSeeGNKjEhDb/tnPfhbqxrGZWWgEUyQUmVNPPTWQffo2derU8IwPTGre+c532tvf/vbetNgfiPWLX/zi3nTGjH/Epk2bQlrErzdD4oIVEpQWlCUUiSj0FUmXhTSzIoGAOSsljA98MbHBDAulas6cOWHVg9l68qEQMEZWUlCsSB9K2/QDk6cLL7ww9AmHcFZiYv9YneC7gYL1spe9LPQPUyCEFRcUBlYnkkL41MmTJ4ekWE/yuV87Ao6AI7CrEBgxJSBuBDYSHaeuof5yzPZsHImmZVK0cchtryuMTNsMgLqGOvYRGbhX4gg4AlUIxJ9DZrk5koICgE8Atuvkg4hyxu4bG3miCDE7jDDzzLPW1tZwz8w6pjOPf3x1EACIOSR2+fLl9t///d/BGXnatGmhTPx46lOfGpSAK6+80p70pCcFExRIKjP19BElAEIKeWfFABt76vzRj34Uqvi3f/u3oDDEsZGIWQuOzszoo4SkbftRNmJ+ziggM2fOtOc///m96dTDKgWkm1UO8sUyPEsLs/MQYfrdXz7KQdyxnU/mAzuUAJQB0vFXQCDorBwkBax5H6xq8J4G03Zsi7re+973GpuWffWrXw1KWHyGchj3L0DRuP3223ubxS8AeeCB8qRSLIPyx3uO970F/MIRcAQcgd2AQJUSsBva9yYdAUfAERjTCCxYsCDMyGMKApGH8J1zzjlVO8lCBiGLrBSkJRI+zEb+9Kc/2Z///Gd7znOeE5xWMf+JM9yUY5Mq0rCBx44fB2SIMqsDCCSbflwpJQChPup/5jOfaY899liYDcdhF38AVgaiKRBkFMGBt5ZEZ1/IclIJQAlhvFFQaCDEONzW2jANh9mBBPMoVlVQUOKKRH9lGHvasfeQQw4JRTDNQlC8EFYDOGoJfcesaihtf+pTnwpVMeOP+VJSUNZwZkbqOfjSZlJYcXFxBBwBR2CsIFClBMQ/VjvTucKMaZbTTsAjIdQ11L4U8zMt17XDTnZn+0E9Q217Tm6mrSqs3dkmq8pR11Dbr6rAbxwBR2BEEIg/h5ioJG3KY+XxOWY/EHk2DnvlK18ZZtUh1dilYwNOPg5WDTBLwdYfsxJmsrEbh9DjLIowI08EHExJ/u///i/M7mMvD7Fl9QHSjAkRZZgFxxQIkswzZuwxNfnrX//a62zLygFtRxINaY79juPgHMl0epaaHZIpG8ugACDJtJBQ+cDEByF/LFN51HuKdcR8vQ/qXNRqK44n1oETNoJTdVJpCYmVD5ych9o2UZNY3fnBD34QFDJWO6LEPoAR/gi1hGdJHIjslLyvVcbTHAFHwBHYVQhUKQHDabR7yf5SAso2r8Oph7LUNVTpblH7XSuGWqxP/u6WA/qkDZRwVNMhtqptZJQA6nJxBByB8YMANvYIdvNEtokCGU8LxBGiz4EZDzb12Ooz2x9n45lNx46ctH//93+3H/7whyG6DRFukKc97WlBCcABmTaiXf7pp58eyDnKBVGGFi5cGGbsKXPAAeXfa7RJ22mJpiwxX/p5vEfhgHCzsoDJEasSSWEFYiDBVAYTH0xtUBqIpDNciSFTWalBEagnmPAMpW0iJrHagiKG0zKRh+Iu0awQMX4UC0yj0ljU64OnOwKOgCMwVhAoT59UehNnb3bm3H70USM2Juoaah86pp0wIu13TDt+yG2f1nziiLRNJdQ11LF7/vKso+PgOIzkdyD5Q91fvcTzRzCdifkwzUkqAaSzPwAhRGMeHGljrHlMVCDV2K3H501NTSEyEHXzPKZHEk8ISggoJj88w04fJ19s+6MzciyD/wDkHT8G+hvTOWOexH4COCHjHxCf0S4S7zljAkS/cf792te+VvWMyDi33npruVCqXLIOFCH6gyM00ZMg5snn69ev772PlSWfx2uexWsiMyFf+cpXgp9ETOfM/go4DnM91LbJj4nWGTLDQrHCpIuwqLEuVmW4JxJRsk2uWdHh/cR0+hev/ey/q/w74N+B3fUd4HdRlKqVADq0s9JxxOFWkANabt26na0ilKMO6tJvyyHV0z7tVJuW/3Zw7B1SwURmTIGoZ6g4nNZ0ou2dW2DLCysTtQ39kjqoa6jtD70lL+EIOAIDIRB/DjnH61plsKFntpgQmjjWMrONPT8kPkkCmcnHWZfY/ZiV3HLLLWFTq7322isQcMgvNuPnnntuMGnBth+TIgTiH/sQZ/ghpdi4xwhF5MMkiEg6CGZMsQy+AK961auCcysrCcyWY+pCvHxWGiD3xOaH9MYyoRJ9pO+JFsSsOPkpj+LBuDGZYRWDePmUSZeL9XEmQg8bomEeRVnMlhDMm1Ay0nsCpOtK3nNNH7DZRxEBA1ZHML3BVwBTKnw4qBcZattgg/J0wQUXhNUbsGOsmE4R2Qhlj4hRKF5ER8IhnKhFjI+09ApBsu+hQ/7hCDgCjsBuQqBKCRhWH/SLcvP5z7ZZX/3GsKqhDv1FGnIdpWyjbZ33Ypu+4otDLhsLbN3rJUY9Q5V8Jm9vmPb/7L0bPzHUolX5qYO6XBwBR2D3IwAhRqK9eb0eQa7XrFljl156aTDbIYY9G3Th+MpMdyzPTDv+AMzgRyGcJ/4GEE3CfLILLvVg249A8rE3f+lLXxqLhDOkGSUAok/ZKMywowRQV5wdj8/e9773BeLPcyLdRMGGnrTkrsI8Y/yx7zEvZ4guPg0oA5jJcLAKQf3ExYcwR+yS5ZLXmBVddtllYWwoRqxEUAaMIPRR6vUh1p/sH1GXIP4oFtHHgnog/ygBUQbTdqw/nsGTcJ/4fhDqlXCghGqlvygZb3vb24IiiDKIoCAQiSmaOsV64jn2xc+OgCPgCOxOBDJXXHNXmHK/6rIfV9mz7mynpv/y1zbl8j/vVPFtZz7FNj97xy/rnalk1mOfsElb+triDlRXm1YANuzzroGy9fv8i1svth9u/3W/eeo9fOHkc+wNU6v/0NfL6+mOgCMw9hDArIWZcUxqIIH1hIgxRMiBjBK+My2YBTE7Th3Yz7OiMNKCUzErDa2yoY8x64faBjPamC9h4jSQL0F/dTNzzoz9Pvvs02tv31/+gZ7RH0yeOIMxilQ9Gcm2N2zYEJyIeacoI0nlrF77nu4IOAKOwK5G4Jvf/Kad/rQLQrMjrgTIwNOm//o3Q1YEggJwzrOYdhsWHplil81appmwrYPfxbd96sm2YdE7d2oVINnZYqloX9r2/SErAigAr5vyEstmhjf2ZF/82hFwBBwBR8ARcAQcAUfAEUgikFQCdqwjK8eI2CpqSXfTuWdbx+L9bMYvfm35AXwEejRrsum8c6wjxqLW7NJwpJRpsHWL3mPT1v/Cpq37iWWK9cOGlrIttmXO823L7PO09i0CPsy2M5ax10/5f3Z4/nFBGVheqI4RnR7X3rn5gfyf3nxSeDQi+Kcb8XtHwBFwBBwBR8ARcAQcAUcghUCVEsBy9khJm+JWt2lDl5bb7rDJOEctfdjym7eG6numT7Wu1sW2XcS//Ug5AcuGlhWEkZRNs86zLdOebFM2X2mTtt9gDR1LLVvcbsXsZOtubrW2ySfYtulnWDGvpWL0Ds3ij5Sc2niCnTLrWPtr5/V2ddcNdnvXvba+uClUPzs7w45oPMhOU55T5QSc07+RxH2kxuD1OAKOgCPgCDgCjoAj4AhMXASqlIARH6bIffsxR4VjxOseRIUQ/C2zzw3HILKPaBbI/RlNjw/HiFbslTkCjoAj4Ag4Ao6AI+AIOALDRKBKCXBzlGGi6cUdAUfAEXAEHAFHwBFwBByBcYCAe6KOg5fkXXQEHAFHwBFwBBwBR8ARcARGEoGqlQC3TR9JaL0uR8ARcAQcAUfAEXAEHAFHYGwiUKUEuDnQ2HxJ3itHwBFwBBwBR8ARcAQcAUdgJBFwc6CRRNPrcgQcAUfAEXAEHAFHwBFwBMYBAlUrAW4ONA7emHfREXAEHAFHwBFwBBwBR8ARGCYCVUqAmwMNE00v7gg4Ao6AI+AIOAKOgCPgCIwDBDJXXHNX2KL3qst+PA666110BBwBR8ARcAQcAUfAEXAEHIHhIHD60y6wqpWAN77xjcOpz8s6AjuFQNBCVTKzU6W9kCPgCDgCjoAj4Ag4Ao7AYBH4whe+ELJWKQGDLez5HIHhIlCC+Yv1h3OlspCEJqCLjGsEw4XYyzsCjoAj4Ag4Ao6AI1AXAVcC6kLjD0YLAYh/QUdRB+Gp8pUYVT3FHWk5pbsiMFpvwOt1BBwBR8ARcAQcgT0dAVcC9vRvwC4cP8QfBQByH4l/svlkWsgrpYAFgZwHsk3C5NeOgCPgCDgCjoAj4AgMGwFXAoYNoVdQD4Fo8hMteyD/WR3xfmt3xjZ2mm0vZJRWsin5jM1o1LmhZDllkr4Qjlg/924qFNHwsyPgCDgCjoAj4Ag4AjuPgCsBO4+dl6yDQCDresa5qNl8iH84Evk3d2Xs2nV5u2pV3u7YmLOcch81u2Cn7lWwE+b02DQpAigNUWHAdCiYD8UE1ZW4TNTsl46AI+AIOAKOgCPgCDgCAyHgSsBACPnzQSEQCL8+orkPFjyR/McK1rWZ3bklb7dvyNndW7L2aFfOlrdrNaAjaxkVfKw7azfpeeujDXbQ1B47clbBDptesFkt1XXRhnSLHW0llIXYlp8dAUfAEXAEHAFHwBFwBOoj4EpAfWz8yQAIRHOfcFbeOHMP+UcKYupbNOO/ucdslcj+nZvydsPGvN28Nm9L2zKWay7nY7Ugo8IrZB60YrPZde05WzIlZ8du67bjZ2btsJkF26u5JFMhs6laIaB+HIdRBFgOoH2UkNg+yS6OgCPgCDgCjoAj4Ag4AvURcCWgPjb+ZAAEIN4QfUg4Tr3Bf7eiABDpZ/l2sxvXN9jVq0X+1+dsWVfWeshEGR15+QPA3rt1jeRh9pKCjke0KvDIqia7dLnZfi1FO1GmQqfPk1Iwt8f20n1OjL9X2aCM6smoHpyIYzp1uTgCjoAj4Ag4Ao6AI+AI9EXAlYC+mHhKPwhE23xm3SHbDRXSH4s8uDVjd22Qyc9mmfxsztrqQs5WahVgQ0fGUAwykHWVyYjwdzeolK5LYv2kifcHpcC6ddLqASsE8hm2h9qytqWklYT2rC1Y1mAHTyvaUVodOHh6j7VOLTsR40iMqPqgEHBNW9mgmXDn4gg4Ao6AI+AIOAKOgCMQEXAlICLh55oIRJMfHsKzIesQ7grnto6ekm2Ubf9GEffHtuXsVjn53rQhG0x/1orBZ2XCw8w/ykOuogAwa49MVySgmfoGThPbL4msb9VawnqtDuA0HFYX1AhZyb+2J2Nrt+bsFrV184ai3aXro2bk7EgpA/tMLtgM1TOruWgNqidEFqIg5Stn2qMy+u/iCDgCjoAj4Ag4Ao7Ano6AKwF7+jegn/FD3OHQmO5Anpn5T3LodhHzezXbj7nP31Y3BGffDcWsFTXLz+x+qUsrBZxViSb2rcTMv75xWd3M1DT98VN67KkLeuxoRQNSE3bDmrxdsbLBbhTR36wGyV+UckH+fIcyqPFO1bc6k7U/rsva5Wp3Xr4YnIeJKnTa/G5bPKVozWo/kn36H8ahC9LC6kByEHru4gg4Ao6AI+AIOAKOwJ6GgCsBe9obH2C8zLqXHXUr9vXkT5DmNpHye7doRl4Rfm7fmLX7NCMP8V8jR9+tnbDsMmkPxfTt6uIbprSSys3LFu2ImTLlUcSfQ3Usmly0hZq9nymnX4j6vCYpBIoItHx7TlGEMnaLHIkJH7q+mCmbDlWIPBoFhB7zohVSRLZLs3ikO2d/WJFXVCFMhRRZaHaPPU6mQg1SCIKpkPIjqiKUQzHBVCiaEYWH/uEIOAKOgCPgCDgCjsAegoArAXvIi+5vmBDjpKTJMZt6rdNM/NrOnGHzf/tmOfquk83/ppwVZO4DIY9mNzgIo0RwaO8vmyWTn2mafl+gGfojZxXtWJnvHDW72/adkm7VbL4cfucrHOhxcwp2+Fazg9cX7abJUgQ2ZW1VT862SJHYoL5QN+SdtnrkK7BV99vkd/BAISvlpGh3bpNy0pazI+Q70DqlYLObijarqaTIQkEfCeWiSVKyFxU9IQmFXzsCjoAj4Ag4Ao6AIzAhEXAlYEK+1sEPCvIOIYYMQ4Ih19GUhlrWilzforCefw8mP3l7UDP+HbD7SoGMlIPGbEkRfkTOlVyEaOvcrNn6BTLVOUkz+6fv1WPHifjvI+KfnHkP7aqeZHtci9vbkqkc3Xb2vt32qByDr1+TsyuJMqTwoqtF9ov65oYVC5kc5eRHkFcfOuWD0CGngH9uzdqNUlSmyMjowElFe8K8Hnu8zIWOkCPxXCkZCP0IY5cCUW/s5Zz+6Qg4Ao6AI+AIOAKOwMRDwJWAifdO+x0RhBfyG2budU1ITTh9UlZsz9htMsO5S+Y4d8rm/5EOTH5MqwFZ69Q5I+INUddlsNvvUgWhTm0GtqRRJj8i/kfOUPQemebMn1Sw+ZqFn6Ejhu6MpDvcp9pO9oNrZvv3k9nQtAUlO1z1rtyvJ/gh3KroQ7cpCtFSmSAVRey7pD3gg4DNf0YrBgX5DmyR78BdUiDWrs7aletVT7PMkKZplUEmSYfP6LGFk0t9xk7IUwRlJBzlW/90BBwBR8ARcAQcAUdgQiHgSsCEep21BxOJP6QW4ZQMnUmc/k0i02sUlWeZIvzcI+JfJtk5e2x71nKTQrFgt8+0eTDDweFXFTXpmIO5jcj6Ppj6iKhj13+4lIA5LbS8Q7iDZNOPtJPxjlyqVzfRmRclhVl76uI4fIbMiqZn7ZDNUjIUFehmKSuPyUxpi8qsVYzRbvWLAYY+qq1OVbZc+xMsl4Jwm5yJb5uatyO39dg9Mhk6SKZCi2SmNE8mSygpIbIQ2o0kKkn0hWtXCAIs/uEIOAKOgCPgCDgCEwQBVwImyIusNwwILJPbkGr4bTDHEUmOQvrDIsTXrMrbXxWdB1v/NXK2zYrdE+EHZSHbzmpBybpk7yNLHCvoW5PRMVmFD5Ad/2kyt3mCTH6OkBIwW06+SVEE0WC2Qz2sOEDOBxK6l+xnuo69tDLA8ZSFPbZaM/23yjfhb+r/ld15e1Sz/51qg3EZKwMyFWpUBfgOEIb0MSk7y9Y22O9WNNjcXNGOl/8B/X+8+n+AVi7iakVUmIKjtOqi2xwxXZcujoAj4Ag4Ao6AI+AIjFsEXAkYt69u4I4HEx1lg1AHUl0pQpjN+7Zk7fZ1ebtZTrcPt2tDL82ib5B9/wbNmiOY/BAaFDt/I1QnDF7lmmRqc4hm0I/TbP9RMqmBOM/SSsDcZrMpDTsUgEDCVTSQZ30MhzzT97hykVxJoJ97yeb/5HzJ9p/aY2ftm7N7NZ5b5Q9wo5SZBzSWUsVUqCgfBTYgy6n/GY2DyEKrpNFcszlj98jc6VKFJl0i86Cj5DdwBJGF5FRMqNEkdoyOA0hcHAFHwBFwBByBnUFg+fLldv3119uyZct2priXGUUEFi1aZHvvvbedeOKJo9jK2KnalYCx8y5GtCdRAYgz2+UIPyVF+MnbAzL3uUtKwG2y+b9NG3t1iuCzgy8kGdaeYelAEk6qaIqeQfLnytF3iUj3kQrBeexsmePIvr4p9Q2CJEcFALIc26e+nRXqiUpEnJmnHRQM0qcRgUhRilAEDp+esYM3Fe2AyTmFF83aUhH8tT1ZW7e9pFCiWfQYtioIvgOsDGxStKHN0nQe0mrITetKdo/smu6USdRhUwt2wPSiTJ0KNrep3Ab9CIqAPmJ/lOTiCDgCjoAj4AgMCgHI/3XXXWcXXnihtba2DqqMZ9p1CFx55ZXGgSLAMdElReEm+nD3nPEFkgxrlbSJ3P9TTrR/XZWz62Tyc5vMZ7oJ7Slyz0x/TrP+ulSCWbcKsklXSd8MVgPmaZvfw0WunzCvYE+UycyB00o2KTHjj7IBsaapeCRXHah2JAUfgSiMEYUjKjy0O1l9O3FuTzjYt+Bu7Wnwt9U5u0bRhe7ZJudmzf4zNvYaYBOyBq0MmA4UnjZpLDdKAbhBZcDkcO1lcIKUnVP36raTVedUMKNNHZxdHAFHwBFwBByBoSDAKsAZZ5zhCsBQQNuFeeO7ufzyy+28887bhS3vnqZcCdg9uI96q5GkLlekn2/f32TXbZO9vMJ9bpYNvczk5TErAqy3j5lMAWWA0J4i2CWlz80W7BjF9D9KUXSIprOfZsVnyOQGe/+moC0oX2UEzIhXkgIZjwQZU6IkUyYfwin2LSQM4yPWE+rmRp0KYUN1TdpUOfuGKEBavXjq3t22dLv2HMDpeb0OhT3dqBWQHhF7WD07E2MmlNX4cZRGOboHMynlRTE4ekWPvfqQTu07UAr9D+PXRxzXMIbhRR0BR8ARcAT2EAQwAXrlK1+5W0fb3t5umzZtspkzZ1pzs5b5U/LWt77VVq9ebT/4wQ9ST/aM29bW1j3GVMuVgAn2nYacMjMezXCWyszll4812AqM6vW/KKILQec59vVE+OFLMEcz6PNE8hdUQnseLZMfQnKmN/Wi/jj7Th2QYNpDAiGmbW7CBxc7pJJth0mNHg2XRFeVV1/oG0fom86TpNxMaihqd2LN7M/o0k7Fiiw0KSflpmj3i9yvlN/Aaq0YrFdkJFY06BxdR5noUEKXnKTXduXs0Q0ZO3NRQUpAd+hz9E1Qky6OgCPgCDgCjsC4QeAd73iHfelLX7KLLrrIPvzhD/fp9913322PPvpon/RdkbBy5UpbsGDBrmjK2xACrgRMsK9BIOgaE0R2m+zdl24vO/1CWsWFQ3Qe8d3g7MvMPzPfi5u1qZei5Jwhc5/j5/SEnXuT5Fq8uBx6U+cYsjNO56MA4GQL6Q4OvBVWHBUDFemVWCd2/fQnryWEkSbRSXMhSD37BSANtKXG9pcjM8c5sgFaofCnN6zN2VWrG+z6Yk5+AfKNaFEUIcajlYEGrZIUtXOxfKZtkyp+RKsqGzsyNlPKEpi4OAKOgCPgCDgC4wmBjo4O++EPfxi6/N3vftc+8IEPWC4X1/N370jOPvtsW7dunf3jH//YvR3Zg1p3JWACv+xuse1OHQWRWdh2dKolTOf+MpEhPOaR02TnLwfY+S0FmyXTmOlyso1kHSIfyW4M7RmfAVtcEWhM/f7YrJn1DV0la5dNTUlLDUTZma6VhpmqOyoR/M6h7jijjhIx0hJWA9CGJHEsNMMYSF4oDM6YX7IjFQ1oVZsiCylS0F1bc3bz+gZ7ULsOd0kZCMoMOOi6oPEQrhQhPYlFOdU/HQFHwBFwBByBsYvAL37xC9u4caNdcMEF9uMf/9guu+wye+YznzkmOowC4LJrEXAlYNfivWtag6iK6GK9HsiqbjkXxXzzMo85Qjb+T1Js/Cct6LFD5PyaDO1JBykej0CadZ8kvIEYQ6QrDzvFjFdrN+HlsqFfpdn1FZot3yTH2g4pAMWKEjBVMfn30p4C87XhF+R7gc7TpBigFEQTnlAdHyMkyfroM2MSlw+rDzyj/8zqz5RJJJGFjphhdu8WbSCmkKdXr22067UrcbfG0QsGl9hPhQSdXBwBR8ARcAQcgXGEwLe+9a1gboM50K9+9Sv75je/WVcJuPfee+3jH/+4XXPNNTZ37lx70YteZK997WurRnv//ffbRz7yEbv11lutra3NDj/8cMPc6OSTT+7NRySkI4880t72trf1pj3wwAPh/p3vfKfNmTPH3v3udxtmSMg555xjM2bMsIsvvrg3v1+MDgKuBIwOrmOi1jIJlomLiHbY+Etvu0mz/U+S2c9z9+uyJTKLQYKCoDNkHFKu/4Eolz/IsUMimSYP0q5VBvYcuGJlo125qiFcb5QdPYZmtBtE9eJ4Ozlbsv2kAJwgBeTMBQWZIPWElQfIeDQpos+jISgx6boZPSsRtE9XpykU6Alzi7awpduapCzdsr3FemROhPM0hctojUbvvE5HwBFwBBwBR2B0EXjkkUfsz3/+cyDfs2bNsnPPPdd+/vOf29q1awPJT7a+atUqe8pTnmInnXSSnX/++fbb3/7WXve614VVBHwJkKuvvtqe/vSn29SpU+0FL3iB9vPJ2s9+9jN74hOfGOqFzCOsNnR3iwQkhNWISy+91F74whfavHnzrKWlJZQnC9e1HJYTxf1yhBCING2EqvNqxhoCaeLLJDbWO1ojCF0NkXB0hT0/Jj/aGLiu8IgjrADovEyz/t+8t9EuummSfefRRrtdJjUbpAAERUE/70X5G4SjMpu+XeY0D8rJ9ndrGu2jdzfbB29rsWtWl7+C0dwIUr6rhLHSLj2g2WjqQ1rsT6/moLxgGXHbVX30dhwBR8ARcAQcgZFA4Dvf+Y7+PpfspS99aaiOM+T8e9/7Xp/qIenM4F9yySXBeZi9Dfbdd1/72Mc+Fmb8i4qe8ZrXvCaUu+WWW+xzn/ucffazn7Wbb745EPi3vOUtoa0+FddIOOigg4JpEud4/bWvfa1GTk8aaQTKDGyka/X6xgQCtRQAZvuZ2C4EsxaRX1h9RQLJ7VMoPi2vGEQF4GE5zBJ16OdaAbhJ4UfXKv4++xEEpqxvFXsQcASGzbeMQ3V3aWZ9vRyW71Wo0t+uzNmPHmnU/gX5EJYz1K08iS6p0OhJXB2Ipk4RC7CJ/hN0Jj4PHesHn9HrqdfsCDgCjoAj4AjsPAKQ/29/+9vBLAfTHORpT3ua7bXXXoaJUC15+ctf3pvc1NRkz3rWs2zr1q123333hehBmO889alPrYrmg2kPKwgPP/zwHhNmsxekcXjh5kDj8KUNusuDIKwhas4gKmR2PyoAkP3vP9Bsv16j0KNi96VKJB2aaxfJz8usJosCENk8xF5T7T1aGSAsf0ZnNiXbPDkrJaLJHtTmZZ8+STsQT5ePgPJCwGmL+naVxLHRHr8s+7ROZ3Zxn+iLiyPgCDgCjoAjMFwErrjiCsMciL0BMPGJsm3btrAnADP9yfQlS5YYR1KOOuqocIv5UHTiRZFICxtu/frXvw7t7bPPPunHfj+GEHAlYAy9jJHpisJXBvItp1wR73AZK66w6sqkfEglb+9Md8yXOpNH3D7Ek12vDccuW9Fgf97cYMvkDMxuu9pU2BRu3zL4AajN/eVYe4AcjmfL4ZYmN8sc6FFF27mjU462srUPs+tKy7arXpW5TzE4/1fmQa96XKcdqU3K6N/ulIwAyWjQcWUi9gUscXROoRof+9kRcAQcAUfAERiTCOAATChQZu6TsnDhQvvlL38ZVgOSSgDKASY/2PlHiaE7Fy1aZGw4htx1113xce/5nnvuCdcx3j/tsvlYUtg0zWX3I+BKwO5/ByPcgx0kVXw8zKrTQCT6/DgTnz9bMf6H4ENu43PyJoVn4Xkl8W7tuPujhxvtfvkDMLuf1yHrHmvSN2lfOf0eN78Qdundb2rJZigkKMJ+BSsUg//e2Qq/qRCc90kh2CL/gIwUCHq7TR7El69tsMOkABwwtTNs8EVJzHOSM/TUNVoScOgdKGFS1TM6l5CgVKXSEo/90hEYkwjccMMNtn79+qq+HXvsscEZryrRbyYMAhC0q666qmo8DQ0NwUyjKtFv9ggE2B2Y0KCY6RAWNC1HH320/ehHPwo2/ZMmTQqP16xZY3/84x+D4y8JrJBffvnlYSWBFYKenp7gwEu9X/jCF8p/MysV/+53v7PZs2dba2trSEEZIMJQV1eXNTZiD2DB1yBcJD5QFuIKQyLZL0cRAVcCRhHc3Vd1maliVkPUnSoyq7ScpusHS66jnTxmOhs7zG5cn7Prt+TK0YZUdwmFQrP77Dtw3t5d9rIDumxqhfynxw/HvnRpg/1QTsRXb8yHyDs5LTGgj2yZmrF/qO6Dp+bttPk9ocu7UglI9jUoACTQ4YqgExT0S7AQAYkPxsF5y5Yt/faSX/r5vP8q6Bekcfzwfe97n/3zn/+sGsGXv/xle97znleVNtQbZgofe+wxW758ua1YsSKQAiJ6EOnj4IMPNmYLXXYPAuz2+pKXvKSqccgX78llz0PgBz/4gbFJ2Itf/OKag3/Zy15mOPIS2Sc6DZPxla98pb3xjW8MZkKEFGX2/qMf/ajhH8BBlKD3v//9IcrQm9/85vB3hN8t5PvqV7/auwnZk570JLvxxhvt+c9/vuFn8Ic//KGmMnLKKafYpz71qbAqQfSiZz/72TX764kjh4D/5R85LMdcTfBVFAEIbFJyotg5pr4HKXEx8Pp1DfbPTQ2WlSKf0UpgSd8eTIAWNxbtwtZOe85+3VUKQOTLtE8XOJ62T7dNls9A6b6SlIkGa9NqADpDj863b8jZ31pydob2L0Bol16mus+j0RVh0xsFKMKkTmjxomJqNbrNj2Ttt99+u/ELeCCZMmWK7b///mGp+KyzzrIjjjhioCL+fA9FgD/mX//614PNbzrsXxISZgFRQPwPeRIVv3YEdj0CxNsn7OZznvOcmo2jHBCvnx2EUQKYCDvkkEPszDPPDD/DzPqj4EP43/Wud/XW8d73vtdYYfrQhz4Uwn3ygBUAfj+gQER5z3veE5QA9iXgYGXgf/7nf+wNb3hD1QoCiiurCK94xSts/vz5/rsjAjiKZ1cCRhHc3V01JLyY1AAqhFaGPJUfvMhwa/eU8uK9ylt+fuemrN2tgz0HSGKRYaqm8c9e1G1PWVBWAKixjy8C9VTqaNLKwSlzuq1NPgEr79cuvT3ZkL8gZ+EVpazdKifh9dpsbLY28WK1Isbxj+XLPRn5T+qvdDH0NcPyBINJSBhXVJ5i5sTzsXhZdnIeuGfM6rLZCwczMa9+9avtv/7rv8Iv+IFLe449AQG+S29961vt+9///qCGu3Tp0mAvXE8JwEQJZ0U2BUrbKQ+qgT04k2O3B7/8nRj6tdde228pIvpgqhPl97//fbwMM/+s+B1wwAF9Vowx32GTLxQInI5ZUa7lCMysPj/r+AUQXYi6kNe//vW97XBB1KI77rgjRBbCV8Fl9BFwJWD0Md5tLQTzFZYCJHBXeCvEPSt2XTZ5SbFcMiaEp9FsqEOT84/Irn/Fdjkcq6Iwy6/K9sqX7HnaeGzRlLJDcpfS8nreG2e/Uh91ER6U6f0WmQ+drVWDP67My2G40dqVllX9Ga0wrNJeAw/L32BKQ8FQGPrvYaXyET6BE+ZPVaKOgCH47QnCUi5LuswMuTgCIPDf//3fg1YA6iHGLqGYHLBhEQonjofM+rkSUA+xHemO3Q4sxvMVZnIoyK2treNiGJMnTw7mff11FufhxYsX95clPCMcKcdAMpi6BqpjOM+vvPLKPcacMVp6DAcvLzvWEKgQWIxaeqfgK31kFaBs0zIwvSYHVUH412l2fmWHfAHEjrXxr2Vl0jNXs/UnzinYPJ0RPhsg9JX2Q2Llg6TGFKk/bnbBDlIUIcyLIN0E3unQxTI5DrMT8UBSFCvvkXcyR0GtD+WI5agjLVKRgpKUfFK+rjGwdOEJdM8OkX//+98n0Ih8KDuLAGZlX/ziF2sWZzYQQnPooYcaM4r9CasIrDSxoRAKgMvgEXDsBo/VWM554oknGpt2QTRdxh4CKGi8m7333nvsdW4UeuQrAaMA6liqMnLcTIK/9jq+9tNRyoWyKseuwms7M7YNYq5vTFb3+APMayrZ46b3iNyXKTKfkPl6wiPqjH/6D5petH02FO02zf4HUYaiNIw1Mg3qKITc9aoK6VkNKhvUlH6z1X6YBEQ5knsDBH+A8pD6lg3l6j3sm32sptx5552GQzBbw990002BmLG5S1pYEXjCE56QTvb7PQyBGBowPewLL7wwmAPMnTu39xFOqcQIxy7YxRFwBKoRgFwSipOVHVcEqrEZC3es1OA74UrAWHgb3odhISADnXL5KmJevhmMOVBsHIuirQrz2UPRBDefLo/eBS3lJPIOhhrHrsClF7QUbJbMidjCOPgfKK3cVlaz+4mGYkcq5x3tlKSgFFR2R0q5F7GVVMHULUpEXtsap/SBcF+1mqHqynkGV2+qmTF5yxIvzsBTp061Aw880NjcBbJPKLmk8IeqlqA0EUIOkyHqaW1tDdEiauWtl0bUIqKVYCOKXThRZaZPn14ve0jHQQ27UpQXHNKwNcWBbCxFN+rs7Aw2rdjY4mwN1sMV8AYrNvqJIfzSdZIHRW779u1h+R58RkrYSCgt/LFkVj8t++67b3D4w8xn48aN6ccjdj8YTGiMcJn3339/cIxcvHjxsL8rGzZsCOYc2DVPmzZtSOPB94bdVsFooFWTIVW8E5mJFsOOryhwOxPJiahQ/BzyHefnd7gyHFxH+h3zu6mtrS38bhnuuGqVZzXAxREYCwj4SsBYeAuj1ofeGDdVLZRnupPEuepxjZuMdvjFcgwzmQrZV/EmrQBM18ZgkRqzb4BVJvVrVFKdpPJT9O2brANHYzQI6imJ/LMjcU+F2JfJ946iEH7IOwrO1u42u3rD/fZo+wbLygmBfyw1QA4yiQ1OekuHOtWK/ncVum1+w3R74sz9bU7TNPkw5BROlU6Ux8ho+2g1chYOVfRWOHEusNNk58d0DGmcvcAT+dvf/hYiQHAmHbIbBZtQHMKICPGqV72qLtFCaWApnJB1KBFp2W+//UL517zmNb2PCoWC4ahGuauvvrqPGQlRK4hzzXOI1XnnnRdCV/ZWoIv/+I//sHPOOSeZZMxi44SWlI985CP2L//yL71Jt9xyS1WUCx686EUvsre97W29ebi499577eMf/7jddtttoW36HAUHN0Jm4jx3wgknxOSqM1E3ks54PCRk36mnnmqE3CNiBkoAO3ZiT58UTGuIzkFfN2/eHB4Rvg8nu8985jPJrDt9XetdQfCJ6V2PzBKNhAMyhZKJ+Q87jaaF70IcE98jZkdRdIaDCW1+4hOfsD/96U9hxjW+D8JkQloJiciRXhWt1ybhVMH4L3/5S3jX8WeC7/zHPvax8LOTHle8RxkkrCJhEVGqY9nW1lb713/9VzvttNOCX0TMz5lZSKKo7Cx2ybrS15j5feUrXwkrgPFnmMkAIrMw/hjHPV2Oe1aEPvnJT4bveXLCAEUCYvvBD34wKDjpsqOB686+Y1aq0lFy+J7+9a9/tR/+8IfBZ4XfcXxn/u///q/fd5sep987AuMNAVcCxtsbG0J/4eRhnwCdA48rczn94dsRHQiSzdGfUDYcyYxKk4eANco2KJncXz3pZ40y/WmAWKujsQvw8JI2D6vwzqoiEP+iDkyA2no67fbty+0vxaX2QGm95RSyFOUgMPdYWWW8qUpUg5QarUAsKk23Bu15cOqMA2xW09ReMyWK96pPsS5qrlVfVeXj+6bWrCYkAfIGMbvgggvqDpA8KAb8sYfU/eY3v+kzq8+mVZApZkPrCXXgMBqFP8REKmJHy3rCjCbRL1hRgJBy8Ac9KfxRTyoB9AHSHclhzMs4k0oA4TCxEU0KikoUiAikCFJVL1wm5J0DAgnpQyFJY83zdDuseKBQYa5VT771rW+FEH7JyB7k5b2BN5F5ItGrV8dg0iHOaZMgVhzAlPjhKGH1hNWbhx56qN7jMFOfHDv5kZ3FhHG/7nWvC6si6UbBidlvwhzyHUXBSjoq1moTxZWwiVFRSdZJ1BTI82c/+9k+cfnJR1niotd6h4wZZ2vC8SbHT7n4PncWO+qoJT/5yU9C3Pf0956fHbCgn+CSVo6YaUdB5nselZhk/Sh3KBf8/KDwoCgnZaRxHc47ZixpvFF8UNKIiZ+UWmNNPvdrR2C8IxAmPMf7ILz/tRFgVr2UYujwWOz2e0lu7aJ9UiHAmRQLxsm46guUIMx9KkgkRC5N18LOxTEhkafeJYoAsqWnQ7sPL7M78htt1dysPdLYZkubdbToF3yTzk06NycPnuue5/lttmp2xu5q2mL/2PqIbSpoFzRJrJthlM2BqjvGXXUKpSaOMJOcltbW1rDhy1D+GEKyPvzhD1dVtXLlyrBRTH8KQFWBys0HPvCBfhWAWmXYFTMtaRIWZ/rS+dJmL0mFhLzMVD/5yU/uLQbZZLfMegpAb0ZdgCGrFRD7wcjnP//5muQxloXQQWYjYYzpyTOhJIeKebJ8vK5nvoBpC5F9XiHTn/SGZLHsSJ4HwuSuu+4Kikkt/5Z0P1hVesc73pFO7nOPyVMtBSBm5L1CfNPKFt8JVqXS371YLp5xut4VwveEuOxpBSDZNt9/lIC0vOlNbwpKwkC/B1AMWcFiRWwg2VlcR+Mdg016dW+g/vtzR2AiIFDF4SbCgHwMOxDAvr48sy4CHwm60mTwUk3edxSpuuoto9Tk9Y5MO9QA9INw6CFEueZBnh2FK1exYzse9PeHhr4jzFRByEpbu61n/TbLb9eKxBbNIG7WrmPhUMzjLbrm2My1nikv943tiiSkMra103Ji+3HWi/6Huqmfg6WUSlo46SMqCuSbKAIpYOMWZtfSUit0Y2tra5hhhkBBKvApSAtkNznbxgwhs41JweTjta99bSBQkIwzzjgjvNNkHkwi0gIhRTlgRp2ZdXwCkgJJj+80pkMckiQNAlhLMA+CyERJK0bHHXdcsMvn+U9/+tOahIln+DbUs5OGUKbNriiTlmQ/0s8YCzOztYRZTcxJ0hjUyjvYNHb6rPWeKc/PK+8JczJIb3rFgJ/TwfaFfP3l7Q8TVqMgcmmFbMmSJeG78va3v73PCgyrQazQDEbwfcFvpZawanPZZZdVPfre975XczWCTKxWUd9AMpLY0RYYgS/fD0zGagmrS0m5/PLL7Re/+EUyKdTBBlOYSKU3I6QNNofq7/d4srKh4Dqa77iWyVuyn37tCExEBNwcaIK9VX7xlsms4vmLtO6w2N8xUDS/wawEsFFXXjb++ptRJdSfSionVBI5KUu1UKbyIPQv5K0UqM5ZdUcfZB3Upz3qL+hhqEHnrAZbxKAnVK5zEEaKcB+vVSKrYKIFKRAyRwpKUsiT+FCW9JjLT2mNo8/oEoXHxyV/vHEcZYYeopsk7HEEEJBoOwuxPOywwwLJOvvss6vIOpuKPf3pTw87Qsay/LGGULe2toakNDEkETOff//3fw/P4wf2uhAqBFMKjqRAYCAkSQKDLT7EOpp1QNQOP/xwS86wMtNHfyDxSD0lAIUIZQiFBLMBZrqTwg6aCPnYLTMttP21r33NnvjEJ4ZHrCQwS57Gl3GD7WCcdzHpOfbYY4NJTSRWELU0NjSIaQo26vhJPPjgg0FJuueee9LdHPI9jtff/va3w2oOph31BDMsjvPPPz+YyKDoQfJwIkX4roBPUvDNSCo0/dmkx3K1MCGEJuZbSWFnUr4b2LwjfE/Tii39SRPZZB1c4z9AH3lfKHDpTY7IkzR5wkStltM0u6miID/+8Y8PhBzlOzl26knKSGPH95P+Y4LEKtFzn/vcqp8T2k6uomCOVGu1hPcYMcB/54UvfGHwv4h9v/7664NZX39mYuQdKq6j+Y7pDw7SmD3yHeT3QDLqFc9dHIGJhkB+og3IxwNJLQv28wUtB8SUSGyDOVCwd+mHzKpQWZmA9pZt98smMrF2zuVdfamfo2xmRHr5vnxV+ax0AipOPzjEMcvCM7oS8+hhbIs+JHvZOxMfOyctJZNrsK72Npk+6SkVh8hCVB1LlhsIjyin3c6yzXntd6Cvfxf4lPPxPEi4jTeVNJ1YWSnn3JE2Xq++8Y1vDNh1ZvOiIyvOi1dddVVVGWZcsYnGjp+oNWlJkolas7uQytbW1kAYIa0IUVM4kFplIMGY01x00UW9G9hAUJmFTgomQUklgGeYZaAEoGT0R4xRWFACCKOaNp2ISgCOwEnHyNj25z73uV4FgDQcebEXZ4Y8KZSFpOMw3J9gVoWylJZaSgzEDlIZBTt+3vPpp5/eZxwxz1DO9JWZc1Zt0t+FdD2XXHJJwA+HZvwfIrGP52R+9hmolZ7Mk7weCiaQzKgAUMcxxxxjhxxySPALiHXWi4AVnxMFCHOfGIEKksgsf3oX1qjoUI7vR62Z5U9/+tNBASAPSjYrF5jO1DLBIQ8SsYnncmr5c6jYoSTyPUFQSHBWx98hKUwM8L2nbhSbtLLJKhe4JoVVAZywkwKu/SkBO4Nrre/9SLxj+s2KEd9vcHFxBPYUBFwJmMBvOtDbXmYrAguD1UGS/teVSHTFk4O06DyzuRg2AgsJFNahgDzWki/27g7c3x4B5ZqkKETir4TJcs7FObi3M7pEMWhQWkslX1OlD/SdfsV+Nyq056z8ZCtqK+OsQgwVtA1xGFfMQIMUQBJp0hOsqJWDXHOjdctEaFa22Rqt3EjAh+yV/PE+1KEPdD1UY8AAAEAASURBVAv8LHZUHJ9MrDN//Inyk7aRxQQF5z9MP5hVhxykSXISiSR5qEV2IcJvfvObw2rAs571rOBAyYx3FKLqQCAJ15cUiCUHZAby8YIXvKCPaQVKQJIQUz7aZqeJBJtcYS4UJfoFpP0BmBUk4g6SfkYaDsPpWWbSifDDWNIz6CgitXChDAIpqec/kFSwyrnNLtSMelqo/6CDDqoaXzrPUO4xI4HgM9vPCkyaCCfrYnzMGI9UhCLq7g+TWoodqwBpky6U1qSw+oRCW29VBoUwKgCxHMpEeuzJcKjplR/KYbb2zGc+M1bRe2bVpD8loDfjCFywipcUVszSws90DNuLMpMWfg8ko3fxPKkAxfwDKVc7g+tovWP6zIqHKwDx7fl5T0GgQrH2lOHuWeOExGLuEqRCbEkI0YHqQEH2mHWjNghb1paxR7fl7GHt4rte10WZ1gdyrQiIK9oUzm9Fgy3fJkVAZkPlSETJGsqEOpowlJvcMcvf1pWxOzepoIoEkq+629X43Zuy9vvlDXbIjKLNVgjS/adhx1rOo9Khmsl5hYWcuo89M9tmD29RiFBVQtQgwoQWQ6zScjcZC8QfqZyCGVBhe8YWNE+zJzS32jTVheQi+9d1xCA8qHzUNB1KZpgA18yo/+d//qc97nGPqxoNs+IQ7iSxr8pQ4waToCjMQOJAW2t2FMfVH/3oR+E466yzwsw58f9ZCUARgUjWEmb6Wa3A/IUZ1nPPPbc3GysYzAAn/RCiEpCcxUbhIXpL0uQBB1dIYZroswoQVyeSSkNsFIJaTwglmVYCahGsZPlTTjmlyuwqPgNXiGtaIPu1BBOHWv2tlXewaSg2HMxis9Jx6aWX1izKjDnYogSNhNTDBOKaNMeJbUWFLt7XOlOW7yUKTi2JZmbJZ/XCosY8tZQ0Zr6Z/U9LXPlKp4/0PUpOXAWIdddawYvPOKfN4UjD1AklfCBhRaE/GSquo/mO6Wc04euvz/7MEZhoCLgSMNHeqMaT4LJhdJH8xqHWIrjxWTxv085gf1+bt6vXNNidG7Lyp83YChFneB1/xorytX1wc9Z+3NWoOPtl23pi+0eSFOspn3f0ALJf3qTLbHu3NkDqEGlXnaFP8tvdrp2C/1nIB8Vj8bSCHTWrYOfnum3RZNn9a2CRiDfLBOiwqQvDTP5GRQXCHyCD84Ck7DycaLPciV5ij5lURjP603MttmhqeemX3DgJR6nCkGQdRH7fEf095hyfZxxyMcHBxKC1tdUWL14c4qfXIgXM2EOwa5m/QKIhuLz3WsQnogMhhyjiyFtrNi/mY6WBDYggGdSN3TEzj8R8hwTUEvr1CtndM55oFsTMLSZM1BcFksiqQnIlAPOgZzzjGVVKAL4AkNv0DHI0BaK+WmSu3kwy+asVYVKsyq+hnFL9WY84sxdArYhA9TYlS6+kVLcyvDtWRjDrItrShVqJSH9HGDcKZL2xDLX1evWgSNbCZLD113o/sWyt32m13n/Mz5nvcFqSZknJZyMRvSlZX73rWuOolzemsw/Ezkp/mFJnrf70h+tovmPaTQcY2NlxezlHYDwh4ErAeHpbQ+wr9vN9fhGL7UKSd9DdcqWQYGze83qwXQrADevz9sm7mu3hTs2ti1v3iKD3UFYHeWHDbRA/rRY8BjcLiTrHiuM9eWMa15V0+DaEvotKpQRgZUPdstSxDVI4NinhYa0I3NLFJl5mz1rUZQdNr3gEKJ+aDjK3ZbrNai47/ZVTBvfJHyBWDqKAE+ZTiaT4qLfPcNACnZ4A8u53v7uPCU29YX31q1/tQ+6wdX/rW98aSDfkF7INwe9PsFFnFp683/zmN0MUmeRqQSzLTDy2uZgI8Z6I6oIdNv342c9+VnPDKcri7ByVAO4xCUoqAbxjnCKTM/IoCsxIMkubNF+4UtGMkjP1KCRJ59FakXL6WyWpZS7RnykQ/a9lA046UYdQeJiRTQrjSs/08ry/fiXLD+eaWVTMr1AE0oLvQy0zqXS+wdzXwyRGY0orIZjfsKo0kKT3bRgo/0DPa81yJ793yfL41YxVWbx4cZ+uYRaX/Dnrk6GSwA7kIymj+Y6ZNOhPARnJcXhdjsBYQsCVgLH0Nka8L5o5r8Fqob6RRMcmmaHnIPsKmf38dXXOHmyXkY0sZbQxr+zoy88pG0R5e5QGmYfHx7Sq5ir1VZ7uyMMVFel5STP/9CVUwb2OoFPoo6hv5+qurP1lVd4OmVqQEiD7f+UtiohLLyivKGRzsuiXSdFISuhM3wppMygK+gx4kYVxTHBJm8UwXMxvkk5/ScLcHxyQaTaY4mC2lB05IY/MvicFnwOUgCiYtLAbKaZB2KOzMkAEkqRgusBscCSKKAFpQflISiT2kNikEsCGZ8mVB8yLkkSxlukN+yNgdoOPQVLoZy0loFYdyXL1rlGM8D9IY85KS5qcgdVIKAH4JhBpB9OeJA7JPrIiVEvqmdnEvEncY9rOnFHM0mFu2ZwubQe/M3UPtczixYv7FMF8DYUIZTgpgwkXm8yfvB4p7JJ1Jq9rKbvYzaf9bZJlRvN6LL3j0Ryn1+0I7CoE+hoo7qqWvZ3RRwAyW4fQJhuH0MJlozXMGpH/2zeIXMOtpQA0i+XL/zeYAUXSS7X49OZE1vOy5Q9HvNaqQZ4jfU8+0mK67iN9p/1ArFUn9TaL6OdlclRU+w/IH2GlzIYQ8gUFRh/M3XcWuq2t0DXgsV07DLfLhon8PfIZ6JJzA0dlbSHMOIcGKo3QFySc47Vaj+mhD+UsE/4zhuxMDjRpa4/tL7P0/QmkOh2PneV3ZvmTtvzJOtiFFKdSQhlGQYk444wzQtSbmBbPPEuuLEA+00Q7SZoIvxhDhqbtgdPOo+mZbOpNhimlD6w04OicnPGF/BOBJS2EakzuPJx+PtB9LZLJvgXJnZUxzwLfkRB2RmZnYPZoYNdYTKWSihu29zFkZLq9GGGK9FomS5SNviJxt+B0HYO5T79ryrzvfe+reh/JeiDl+KKMhtTyD+G7yfcj6UAMmUZRG4yMJnb12q+FKeZ87JLdZ5VZlfA9+Y5CoI6E4lmrT7X6s7veca3+eZojMN4Q8JWA8fbGhtBfuGvvL2puAoMuVxDJbG91ehYJebcIf7tm6LF8wTynW6Y5wemX8hWBBFNlCJvJFHmvKJXKedjLlMtpGc3ak1xPYnbq7FIYT0yEguahM32Jgm8A42oXob9+04PyK9gU/ArKNv1kLJP1UJ/KYvzUVSpYcyZvi5qn27HTWq25oalXAYj1xnMZs8Sg6IeE9Kg0lFP2jE9m4dOrAf/2b/8WNgwjDvzFF19cRWxqocJGSpjmEJ4REw0cj1l+Z+b85z//eZ8imBJADImhjiKAooAJErPNEIxam4gRWSiGGo0VshqQnjGPz3AyjVFfuO5P0qsKzIZDsNMx3m+++WY76aSTwmoAKwm0nSTLsQ2cmYdjfoCj9R/+8IdYXTjTHlGdWKVhNYS20yZDVQV24gYbcUgXEu2o8VGot4kX352krfXixYv7tEofWVXiGVF1IJn17Of7FE4ksHszuygnfQNQwlBc2FcAAkmf+f6gxLBqQLx+okuNtGCWxfc1/XNDRKHjjz8+bLwGlrWiCNXry2hiV69NfDBYTUHBTAqRoeLKEwotY0FxZmMxTLJQRnn3Iy1j6R2P9Ni8PkdgdyDgSsDuQH0Xton5SoXD9raa4NPltFQGYu0nlQTyl6l1pYpE/vist3JdZIgDqv+R1IewmuLUBO0JBDs+6FtdbzW99aotRsA9Agnnvq3QabduXWZ/Kj5sDxY3aiWi7BhM5KNy38s9Dk0poUfpmFHs2zHDZjZNswOyc60hp9Ci6lR5BSQxKF3G9iqNhtOe+kE4xKRtPTgwS//1r399yJBgMsPRnxB5BaIUo71AEjGZGMhsAgfftEDemcGuJawoRIHIoJjUioaCGUytUIrEy0cZwfE1KZB+/BrqCf3EHGo4wqZXJ598cp8wldQ5EL7DaTdZlpnt5KpH8hnX+IqkN8yCGEPEkys25IW4R2WtrISTOjTh/bGDdTokKd+f0Zrxr9dDfte8//3vD5txpfOgNKU3NUvnqXU/mtjVai+mfUi+NuwBkPa3QIEf6ahTsc1657H0juv10dMdgfGEgKiay0RGIJr4JMcYZrMTnDc+i8SfM066QSr5Urw9FilnUR6yhUMZMxl28O0069ymeHLbtEFvh9JkA0Q+nkPkwzX3VVX13sTnIUEditniTPzWng67tW2Z3WCr7eG53XZP4xa7u2mz3dWkczPH1nC+q1FpenZf0za7f0an/a3nMXuoc61WEdQ/SUF1x3GHBH2gtKAI1etbzLennJn17890BbKX3nBoZ7FBAWBloKWlZUhVsGEQs4RpgSjXq4tNtJJSz5ExGRUomZ9VhO9+97tDCi3IrPMXv/jFZDU7fQ3BrmeHHytlFhyn5+EKP7dDEYg+ZkNp7LDpJtTsaAkhZV/0oheNVvVDqhclE6WkP2HFhhC1aQG/tIw2dun24j0+AOxQPZBvR8w/2uex9I5He6xevyMw2gj0/U0z2i16/bsOgcBuI5uvNCutoCBTG8x8hiJVRJkqk9VWronQmdXaUrZjnWUevcGyN8vM4+afWunBv5ltXRGeZYLNkQhFrCNZT50OZROaDCpEEDVG0cx22fiv2Wo5bfxlG0XsdWQ2lc/hXtfZLd2W2dhlPeu2Wb5dwUQ1GFYA6glPipgjqd0k9+HvcqRCVXjUq2gMpGMnnxYIRi2Skc4X7zH5wRyASDppaW1tDZF+kk68MU80teGemPKY62CHX0sITYrzKVGBomMtUUiwxUcBqUdCIfnsP4CjcK082O2n7f1pn9n9tH1xrXzkTRNZ0qIwfkwfWG1YvHhxzT6gJGHuQj4UAKKcpKXWe0ril87PPdGFiGLEqkK6PIoPJjBEU6q1AdJAdafbe+9732uElR3IxIMVFXwDsHOv5+vBjr8obOk+0yb9jt/NWs8H6jfmYJ///OfDCg3hS2Nd6fGQj/6lfSYG22atfLXScGQnhCq4pAUHYZTIWqtM9RS3wWJXC6da/av1u4CfozRu/Oxfc801Yffqeo7hjA9Fhchj6THVanuwfUyXHe47Hmy76ffl947AREQgc8U1dwUadtVlP7Y3vvGNE3GMe9SYsN3Hfr5R3O/2DRn7ySNN9i0dPXKyxURnUqPZfxzabmct7LZ5kyDD5dn4QG4r11esbLDP3NFkt3XktEwvXwHxa/3fIeEbs+MWNi5zexH7gmU2P2KZa79v9sh1mmbfqll1dSirnX3n6w/yEy600pwDVWGjleQ43MuoE1VxSfUN6mtJYyjpPEuewm85uMNedVCXnrEqkLGVnZvtkrU32aWd99vaUps1K1pit9qKJD1WSV2qQiY/WeuQd/OMUoO9dfap9sTp+9uspqkqU5AvhIKF6g8fuLHr8RpFR/rtirx94O5J1q7xK4vlhdtr9++05+2nUKXavAy/CXSTweySHPsyEc7YMGMyg8kGJAsyPRShHHba2H1jNgOhoA7IdIzqU6s+HA7vv//+XodDyjALjqIwloQxEQEmOkZC5hhbLeIxkv3G5AUzINpl86nDDjts1NrEBAhzMHw2GC9jw+6fg9CYadJWb5yYl/BOY0x9lBVMz+qt3NSrp7909pjArIzvLRvAES4UQo4yg3K7KwXciHoFPiiFUTkj1C6bqiUFU7P/+I//SCZVXe8K7KoaTN3w7nl3OO3zc8t756i3j0Oq+IjejqV3PKID88ocgVFEgMmz0592gaIrukwoBDIipvofBCKNMoAwc006zrZdcvrtCV63UOT+ZbAz3qwC2BZtkHPHr6z09++arX/MbJoao0ObZR700K1WmjzFMsdrqX7ugYHo99/yAE/pGGOQ/0FWtv3dnYr0o9tirx1TuTybghXUWkHp2SaBoV2K6ZM+q4XqgEMPIPgd2ish5gnpetaihMZU/dWVTPw7CC3HzgrKFgRsoBnldP0QNmyiOcayQGCZBU3PhI52n5kdhUBzjLZA9EaC7LHfQTJy0Gj0m5UgnNE5drfUwo1N6YiclRYU7P5kV2DXX/soUrVWN/orM1rPxtI7Hq0xer2OwGghAHVzmaAIwHkn8YYhtxXhtl0z213JcDvxYeIcnfPE2cpCHfGI+Sr1sgrAhH/p4RvNfvtxTZvLnvuAUywz/0TL7HV8uLaZiyzzh89Z6Z4rNbOuFYOofg5Sy4j9iD4BOVF0ov2UGjOWmznZStNU4YxGy0xvLh8zdNZhM5rMlCZvYMvNmCQdoGjNslnKVzpQHqcGEsepsXWqT+0yB0qmMb5GrSSoubJUxh6h8LMj4Ag4AkkEWIEgUtTXvvY1q7UrME7l+C8k96OgPKZxtUzvknX7tSPgCDgCI4FApGIjUZfXMUYQiIS5RbYqzTnRZhHYXpEWsE0rAR06YPVw8Ji/N48uatlXJ5+Xr8tMOCO7mBJOwFtWaNZ/g9mUBZaZNE3T6VuUTeY7LVPUB9n/yEm4tGm55To3WalldrlfgyDTCkJSnqWnXxVmPrWhxY6fto+tk73O0k0bLVOYImfkyNBDxnIX9ZmVTVEPA91asr0n72MHtMyzSXkpB5KcljDiWCMOHYWsbdWuxcGOiEwqikkQClWL8HRxBBwBR2AgBDA/wjTsoosusg984APW2tpqixcvDrH02a+i1gZy1EkM/sHscjxQ+/7cEXAEHIGBENBUqpOagUAaT88DteeV6qIlV7TJeZFwlAClQXK53Cj7+TZs8iWB+Fbyl1N28pNoO4WK5wAetNrAy7qkGCC5hvJZnxnF9i/1aHdYliQGK+p3/JZGJaBFfgVHTF5kDaW8rclusZ7GoiyDZBqkOnH8DaLBcc9dj0bepH0K5jVMs9aWObLnByns+qmx7A8QEvTR1pM1+REHHwFwRKhnilYCWhpIEKY6VR7x2MURcAQcgboI4LOBHwxHf4KzMg7dLo6AI+AIjDoC4kp5ZzKjDvNua4BVgOkNpbAJWIXzB4K8sSurOPspChtZdq3eprL2MvJKXjh3RjPzJR1BZO4TKLJs9a2oaxwGgg+CkhuVp2lyhdVHsq70RPsVfh6qih/JLgSOrwQc7A6cspftb4NxDi2rDzgIRwWAuqNSEdvhvFVgrdWuyUmLqSZpUtNlC9QipQqp1cfwwD8cAUfAERgiAtj4v+td76oZLnSIVXl2R8ARcAQGh4B4lFhakl4NrpznGtsIxDfalM8Ek3hMWIL5jx4URcbXdGTK5i4aRsybHBFx/KtYefJhgqz3MmHMdfKKtDH/EMscdoaVlt+r2X7tDTBnn1BPaYPMhNoUKWjJcWZ7HyFlYUY53BCKQQ1H22C+VHFojk0nmw3X+oCIN6JojIAEUl9pZJuch1ejBLBsgih9qhYzZjRVMigJ3FwRABwXR8ARqIUA0ZJe/epXh3CpRG6KflYxL+FylyxZEvwG3vnOd7oJUATGz46AI7CLEMh4dKBdhPQuayaQU2xXKjJNZjIzFd5yM5Y6eohp/uq2rG2K5kDkoxCyg+OW7/mMz3ak9LmCtMvSRkrAoZZ54kut9LvPmG1arfpUIasAnds1+y8WffILzPY9Vkkyv6H9ULc+arWbbCX1HPKNyU+PWDo7B3cRmjSZn2uVwUUAB+IW2f83BNt/7S2gcqRFP4BYjPKR1G+QErCmXX1ECdCDRnV9jlwIpjSUtYIwLKVTxsURcAQcgVoIsB8Ecf2RDRs22MMPP2zbt283IjktXrx4zIW3rTUGT3MEHIGJjcDITKNObIzG1egikcWUhTj2k+QXsKClYKsLeZMrgGmCXtdZW689AJiOD4S6QnbJjxCJP01xIb5IqD9FyiH7RUJqNs+04iHPstJ27RJ8x2+ttBL7V6XPX6ydjU630tHPFZNeqFUCaqKSSoPc9iNhwSDxnFLsP7BePgeXbbjLHm5bVzHxCU9CTq7a5Zcwp3GKHTNtXzt++mKbkmuSVZL6k6iLy3RP1neyWqKVAD3LyXoJE6CFk3qsqbJqQbq2Lhhs95XRxRFwBPZkBHD0dWffPfkb4GN3BMYmAu4YPDbfy7B7FZWAFql5+00u2P2duRD7Hq1PLgG2Wh9bNeM9RT4DsOKYn4bDXrxxNQGyS5bInLlPC8+oQOZHNmmGZeYeYCWiA21frlWAopXmLTbb60DLTJ0fKirK6bZfqdFW3AaMEKHQeFYAbtr2qP09s9IezK+zvIL7Z3BIRqSUlDSN34MNf2mjLV+/xZY0z7Mpk5qCAsAQYhNkD2OnmI51bdosTD7OGc3859VPFJBJUgL2nVKSozW5q7Eqp/inI+AIOAKOgCPgCDgC4wgBcSV3DB5H72uwXWXWHkKLTBJ7XzxFUW22KEWz9Xnx5B6ZB63WbPfS7Rk7dIY20RLRpUyVlC1fqtPTeaoKUIkSVC7sA6AoQNajKX/MfrjGtkZOwqVgN6S0JAuvqid1E9rc0XBUArZrlv/+9rX2YOMm2zI7b4UN24KZUdBWUAJ6Cpad2iKzp05rW7vMtnSL3dus3sqpMXYhXOumoC4+KlOp1V0yGJIJUF4+zXR/siICHaBdgqMS0FuJXzgCjoAj4Ag4Ao6AIzAeERDv0cRwpELjcQTe53oIxLfaopn+g0X0J2kz3yA80LFSNu/3bsraQSK3CrJTTfZDxh3Eu1ywn8/IqFVvqUe0efMyy7RvsZLMg0w7lmWUVtzwmFYFFBq0RRoIE/b9VB/6Xud5NObBpr9BM//5bT1W2N5ujaq6IA2Ef5QnkmeH9iWgqen5qTtWCeIwYp/pSuW6oPM9m/JSkFRK5VkhoJ8tyvA4lIBKZCCUpt6VkVifnx0BR8ARcAQcAUfAERg3CJTDqI+b7npHB4cABDXa90+SEnDA9ILNYNMwZraZqdexsj1nd2/e4RLSdzVAlUiqyG45qXYnKs8yRfkZ9MgRmL0BZuynyffWclhQNhML3sC1iydT4d5Bei/6Ngxx79LUfTEyct0X42oDD4vaBEz/cCDu1lFKRSGK4yIrigJCK3duztmybYqPpEWMHj3jPEsOwYunFKQEhGwhX/nKPx0BR8ARcAQcAUfAERifCET+Mz57772ui0Akudo02BY0F21hU9GybIClN17SZP2atoyUgJxtl4kQklO6dIO+wuNylvKz5HXf3JqO77TMhmVaDVhTrlBEvbR1vaIFyT8Ar2RJ7Fut4r1pqXbT4fWYome33+Doq8hDnRmtCEjRKTRkddaiA07PzbJ2axRzF5nPYNyfkqAr6BljR7Zol+B7t2S1C7GcgrEDUlGigu47qWTzWsobhJFvUP0no4sj4Ag4Ao6AI+AIOAJjFAF3DB6jL2a43YLyir8G/j5Jk/KY/SyaWrTHtBtuRo6vcgmwB7bk7OFtWTkHF2RaI/4OIe7lypROSY2kcg4IsgpStmu7Fe+71jIP3VxduF2rA0/eJNucvcvLFDQ2WDZN1am8zdm8zW+YavlOtd2iDJgd0SIfYXpfvg4aeGZbt83JNMuuX56+vcJAqLTsB4C/b5tm/O+SedSjippUUkJOqyYm3JZIgTpgWiH4UlA86UDNvYsj4Ag4Ao6AI+AIOALjDgFxJXcMHndvbfAdhgtH7vy4aT22/7SsLdusHXNVBSsC8gu269bmbD4rBZNlMlMh+SgEzSLA2fLEfbmOCm8OmkW6C7GRECGoxbLHnGOlua2qQPb/FGDXYN1nmqfLFClWlKgE4o5U2i/flLk8RB3FJF9Zp4g+AZPzzXaCwn52yk7/sc6NYcqeatiDIIiUjIJm/6fJOXj/6TNsNpuZSTRKVVnOk8RnrTZQu3Zt3nAfZtEAjEr6wAzoUJlTRQkYVZqIaX52BBwBR8ARcAQcAUdgXCEgLlOxch5X3fbODhIBCCuEFs568MyCHbyxZFeuK89mU0W7Hv5tdc6On1OQErBjw60mmdXMadZMuibvKRyVA8qEylJkneSYJ9Mw2UonPN+yRzzdCkQHUt6sdvXNtEy2YstsKQGVDkXFgc5F4TpZt+6J+jlJ/WkJgfnLGcnSqJWA/VoUezvbbNtaOrRhmBycRd1jteTslhNES7ZBG31NlfMz8/07JPY3mgKtaMvZP9Y0KPSoGlUDtFGUEnSQVk8Oml42lAr6y44q/MoRcAQcAUfAEXAEHIFxi4CUgCQLG7fj8I7XQABCDNnlvGRqyQ6c0mPNPQ22XeQ/o8ltWcrY9V0NtnRbwU6QItBY4ckzGkvaW6Bo+fUVM5903emvDJoGrFnfpWK2ybLTFllxusrSOP/VgZLyBAUg5k2y9WT91E1d5aKa2ddGxC1Fm9FczhTIe6U5sk5parHJjS3KTiHGSmpZ8CNg1j9L+/F55ftezl2e8Yfc36cVkhvW56RMqA7hQDdnZ4t2iJSA+ZN2eEskqo/N+NkRcAQcAUfAEXAEHIFxhgD8SF3eQZvGWf+9u/0iEN9rnMHeTxteHSbTlmbtgstLx+xnm2Jp3ioHYUhwlIVyhD0RpQDuq3wQYkxy9L93xj/mDWceJKQkO5qSDOuxNitldGiOvky3K5XE/DDxyMYT5ZmdD2RbZ/p+zOyC7Te1bJJDl4JiU8kfST5OwhzEBIpHuK+wdvLxLwrNRsuhWzfk7GZFSioKF/Y7Q/FokgvBsWp3kcyBkJ6KHhDLhET/cAQcAUfAEXAEHAFHYBwiACPKMlvaN/LKOByNd7kPAoH/iu2yCRaycFKPnTq/xybLvAaiG4i9+PkN63L29zU7LMPYIfewGQU7TARYPsNWIrR/hZhDgvni9DliOuwap19ikSYPpRGls7dcvetK3QTnQebli2GVYr/J5XuqTwohQAsyBap38DxdhvL0A6GrV6/K241SBEjMo69IpguDM4TVQq1CICgjvgoQoPAPR8ARcAQcAUfAERjnCMD9mTTdwYjG+YC8+30RgOxHxru3fGOfvKDbpsBo9b9TJvsFecLesjFnV4oIbyFkUEVmKDb+yw7stOO0IpDTDHklkmhQHJipR4EIR/qae2kKOWWqOkirmZf85XUCnYKiADHPT5cvsUySzpzTbcfKn2GK9jug27SZnI3H1CeuAtQ683zHqMqDo37qoL5V2iH4qtV5e3B71tjeoJOJf/H+2fo4XUrAfK2KIMk2Q4J/OAKOgCPgCDgCjoAjMF4REA/aMf07Xgfh/e4XAQgwxBnCi83/EpkEHT2rYBvXZGx7swi0ptwLmum/ryNvly5rsLP36bZp8glg5v+UuQXb3KPNBZY22DXFvGWlDECJpTwOS5hRp454TlZGWk4kfJ6WL87ep8eev09XtU1+MvNOXof+q53NUnouWZq3h9khWNg06+iRGdA8+QKcpLHP194ACEoDioqKuDgCjoAj4Ag4Ao6AIzAhEHDH4AnxGvsfBLPY2LRzni6Cf6ZWA1Z2Z+2mbYqno9WAHs1+r9HeAZc82mCHS0E4qrEcKWiadsp6yl7dlpcGIesYW96VtTadCb0Z6DEfg2XGMS/5Q+G+fYZo09ZksfQnLyjYOQu67PAZI2eOA/mnadpB7t+es0tXNNp6YaG9xcpjUf8OnVm0py7s0Q7B5Y6yEXEquFAo7x+OgCPgCDgCjoAj4AiMTwQywQ9yfPbdez0kBJhhRyDAT1/YbbfKBOifOjqkAGR1bFNozBsLefuHYuXP1+7Ce8kMhmfTpQic09ptpy7osVs25MOGWms0g95dKDPpDIb+aVFbxOVBynF5+l4nixBFiBxTtDfBPpMKdsysblusaEbT2GZAwioG/S/XUk7bmU/UCeqSL7Q9tDVrf1mZs7vbc9YtBQhXgE56LZOg4/Yr2JOFEYLiEJWGkOAfjoAj4Ag4Ao6AI+AIjHME4FSa66xB4sb5wLz7fRGAskOAedvTFW7zRM3437Cux+5QvH2TxQ8hQ7tFwn/6UKPN1LfigiVdisVfLpPXeZ5MY06e22MHTtP+AmLTRUIGjaBA8iHnU+S0PFdtEbkIgYTT0nBbw6SHuhgL8ucVOfv5I03BaVpNmoZv2aaMnTmzS/smsCxQNgOiXfcHCHD4hyPgCDgCjoAj4AhMEATg/+4TMEFe5kDDgGRDgjlg1MeK6J6rXXIfXZqzLfL6DX4D4r53aivhP8lR9jg55B4wTb4ByouzbJOmyvEViLPzqmmgJof1PCgsaoL24yrGzlbImDHpadAYuL51Y8auWNVgj2n1A3MonKfZw2y2nKHPkk/EEXJERsg73LZ3ts9ezhFwBBwBR8ARcAQcgdFEoDIvOppNeN1jBQHx3F7Tln1lbvOMRT22WF64EG2se5rFetko6waZCX3lnibb0kWJskMx0T67Kkcy8udIXneJe6NwUCfkGzOc4ZLwoACIzMcVgC3dGfvSPc12y1btX6D0Zu1ELCsobThWsiNlioQz9CztlsyzdCSiAIZ/OAKOgCPgCDgCjoAjMAEQgGZpGGWyNwHG40PoBwEINW86bny1oLloF+7fZa3aETcj+/tOZsZlGrRW0XKu3tRgv32swTa07wixicbIZlqQ49E6IOvUTT9HQsTlQ2WMfdX2jP3o4Ua7fkveNsvkP6dVgE4tAWg/M1ui/QBeeoAiESUiAg1XARmJ/nsdjoAj4Ag4Ao6AI+AIjDwCvmPwyGM6TmqEHDeL/D5t7257/Oxuy7aXZ8Tx8y1oNn5Ze9Z++lijXbM+H2bmI+mHnLNyMBoHM/+0Q90jIZgUURd1dojwX72mwX6mCEirFeWoKIWH/QB6tPIxqbNkp2p34CdpXwDCqCrZxRFwBBwBR8ARcAQcgQmLAFTLHYMn7OutPzBm23GURWbK9OWZe/fYpp6s/W59gxXaZTuP2U+H2bWKizlnRYPNUYSgk+QUjBsAqwjY1o91iWZAKAEM9cqVefvlirzd2aXOEw1IibIMsqxuz9+vx87Zp9OapBT1KD38YLDs4eIIOAKOgCPgCDgCjsAERMAdgyfgSx3skCC6UR4vgr9NzsF3bs7ZYwoJVBDf11YB4fxnEeeSNIaZSjhQjsIoANjsYxY0Vs1lIP2QeSIM4WdAONQfPNZk16zLBQdhIo92KRISzs5HTimEkKmHBWdgLY3p2VgdV3xffnYEHAFHwBFwBBwBR2C4CPh853ARHKflmSGH7GL60iJC/HhFCzpvYZftpT0CiBnFDDn+AW3K+GdF0vnp0ka7T7H1mWGPs+uQ7bEmMQwqqx2sWtwhxeanUgCu1v4HnRowOyQrAFIY++LJRXvuoi47dmaPlJtM74ZqSQVprI3P++MIOAKOgCPgCDgCjsBIICA+V/43EpV5HeMMAbF4SD0yV5uDvf7QTjt+WiGYA3VLEWiQzUxOpjNt2hPgC/c2268eabTlcq7Fxh5zogIaxBgShkKfSjog8vdsztgl6vPFSxuCT0BWJk4NGlexSeOVIdzpM7rtJXIGZkO0qNyMoeF4VxwBR8ARcAQcAUfAERgVBGD/vhIwKtCOj0pZCWBWP/oHTBZBfvVBnfasBV2GgzAz52FFQCY1WdnQfE+Rdb56X5Mt35YJpjZxtn0sjJYVgLgXAGO6fUPGvvVgi12yrCHM+of9ALS6oc2OLStH4OdoBeDlj+vsDR0anYjHwli8D46AI+AIOAKOgCPgCIw2AoqSXv432g15/WMTAXHiICgCzKQfqyg5z9aGWcdMKjsCdymRiDlZKQIb5AjwK5HqSxQ69KGtGc26a7c5qZGUCwcfu1hoEgLPOIguVPYByNrPHmu2y+QMvIW1LpkA5WXyJLcHa9HqxtMUBehcjbFVeyVQnrGjELk4Ao6AI+AIOAKOgCOwJyAAA9Lcr8uejgDmPRDpbhF9CP9pe3UbqwJvvj5nyxVKk03CGnjepj0ExPo/dVdLmHV/9r4VIq1n+h+I9K7m0pj/xBUN3uPtcgL+4SNN9hNFNeqSHpORXwNjUlRQy4jtH9xcsIuO7LD9p6qgBL8Bxs/qgYsj4Ag4Ao6AI+AIOAJ7CgJuDrSnvOkBxgkJZlafWfFmzfgfOatg7z2sPeyiazIF6tYzIgIV5SPARsIXP9pkX39AO+8q4g5lIdLY1aNIRD+DAZoc1uOgtIjAx7ap7HeP5u2rDzXZH9bkrUvkHwWA1YFOKQH06UnaDfg9R3TYfnIIRlwBCDD4hyPgCDgCjoAj4AjsgQjA61wcgYAAhJrQmvpvUzX1f5Zm+jfKhmb7A032QClrmAYRS79bM+yrdP9bhQ/l+9OjwPtHziyGGXcSoNhol6Px3YLM0z8kzuBvkVZy04ac/Vibm/1dZyIa5aSMZNSJohQART214xQK9IJ9u+y0BXogQdlBGLOLI+AIOAKOgCPgCDgCexIC0B9ROmdBe9JLH2isaIUQZIg8Owq/cEm3zWks2XtvbrFNsrsJKwVi4h3yCVjdnLUfrGi0R+Qo/LqDOuzx84q9dvlF1UNdI21rzwqAghUF8o6i0d5dst8vy9sX722xRxT7ExOgvHwAgn+A+s9eAQdq97P3HNmmDc/KKwD4DaBAsPLh4gg4Ao6AI+AIOAKOwJ6HQMZ3DN7zXvrAI4YbiyMHwj9ZoTRPkyPtR4/psC/d32B3bM//f/bOA0CKIuvjb2dnd8lBMSEqiGDOiqinYs45653xvDPreWY95TPnhDl7Zs9w5ixgBs+IYkbMioqAxI1f/Qpq6Omd3Z3dnd2d3fk/mJ2Z7urq6l/3dL/36r0qm13iPO1OGa9yoUEznMI9psZ53z/ubNtMqbA9BlT4XgT2gsLOC2879TVHQl0o96Gu8b8X2b0TOtnIX0rsGxevVOkMAHoAMECqOzkDwHVrDHNzABzmDJRVXU8FQggQyn+oozlt0rYiIAIiIAIiIAIi0B4JKDG4PZ61Vmgz3nuU5BAatECnGtt+qXKb6hT+B78x+2imMwRcmE0RHnWnVP/hPPCvT07Y5FluMjG33bqLVNpAF3dPTwLivffunTob2zNAfSHHIHjup7lxPpkF+MVJbhKzb0psmutyqKEt7kWbi9x+F3TGy9AFK223xct9D4WrRiFAQJCIgAiIgAiIgAiIgCMwT00TCxGoTYBwHjznKOElTunff1C5Le1G1bnowyL7qKjYZjmlu8hNwFXqXlVuCM5P5iTs9Hc6258HVtheS5fbWk4JR1DkMQQIweFLtoZA2C70JlAX8uKPJXbX1yX2+hR3+bo6mdAs6Sqe5UYyKu5q1tMZAJv2Kre/LzfHVuhFLfOMA/ceDAm/UH9EQAREQAREQAREoEAJoOdJRKBOAijuBNKEMJohC1XamavNsnsmltlzPyVtcvcimzPDGQKuULXT+WucMfDEz0n71nnrN1qw2PboX259OruZh+ddaNSDIVCfMo7aHhJ3uUDZFkNk3O8Ju29CqY2Z4uYpcL0O1a5ngqFLE84WmO0SBYq7my3pKt+1n5vwzM0DMLgHNc2tK4Q4+QX6IwIiIAIiIAIiIAIFTAC1bK4rtYAh6NDrJ4DXHgUapZxXmesRWKtPlVVWlVtnN9XcC7+W2ERXaI5T7lnHyEHTnEL+8i9J+2mmS9R1y9dbpMoGd6+yXmVzJxdjbH/UcxR7LsLQMxCW0SIUf9YhP8xw4T/O6z/KGRePfpu0qQnXIldH0r3M7ZN9YFQMdgu2c+E/OyxRbsv0pLZ5xoT7yCYSERABERABERABERABCCgxWNdBFgRQ0vHIB0MABX2oi/vv17XKluxSbVd/Umq/OlPBReOYG4jHueVdWaecfzY7YeeP72Qb/VJpf3GjDG3et9znCVCf9/SjnLvP7r+XYBywL5ZhJPw6q8ge+rrUHnbDf37qZvxCtS9xhgb5CMwAXO3mMHA5wDaotNKOX7Hc1nft6ua6B3z9bjn1yABwECQiIAIiIAIiIAIiMI+AEoN1KTSKgHemO60aRRzlerEuNbajG3u/f7dq+4+L0R/5i8sT6OLCdGbN9dIXu8m63HQCNnaaCxv6KmEvu0m8tulXYev0qbQuLm6fSqjLJ/O692iI0I+uF2HkD8X2jIv//2RO0n5wxkCVU/4J/2Hs/yqn/JMAvHhRjfP+V9gOLgRokAv/YTQjjIfU+P/sQCICIiACIiACIiACIpBGwKlREhHIjkA0bAdPO8N1LuoMgUW7VLhQoBpbsHPS3nTx+p86Bb7SrUPPT7ieAUKFxk9L2LdTiuxXZxhMdHMMrOkMgaW71XivfUhMIQEYz/8Xbt6BMb+VugTgYvvfb25CsjJnLDjPP3XVuCuWHocuTtNfwY1AtLGrZysXArTivCFAqYNXqNNbK9kdnkqJgAiIgAiIgAiIQMEQSOlKBXPEOtBmE6AXgJCgEB7EjLzDFqt0swZX2cNfV9kdszvZFy4UqNolCSec0p9wCbwo8NOce/7Z39yoPi5fYOOFK/2cAmu4cfx7usnIMDC+dbH/o38qsfu+KrHxbgzScleeicE6uQnBqt3g/y4ayGUgOwPAGQRr9aiyQweX21BXD70KeP8r3D4wTKI9Cs0+WFUgAiIgAiIgAiIgAh2MALqcEoM72EltzcNBJw/x/RgFzCew4xKVtkLvWfaiU+Yf/67EvnVaPOE75oyBEqe8z3HDeU5zhUe7RN9x7xfbmr2qbPUFKm16RZG9O7XYPphW7HoLnMLvXj7512062xkDiS58MFvdWQA79iu3DchJcL0QnZm1zInT/73yz0UtEQEREAEREAEREAERqI+AEoPro6N1DRDAAEDppkcAJRyjYCGnmC/UpdIWLKt24/VX25u/J+1jFwr0k0sOcB0Cc5N03UZTnJI/1Sn3k35w4T8ufGiGy/L9eoYbTciZpQw1ilHBzL/ObnCKvss/cN7+FV1vw6ZO+d9ssQq/H7fK5xT4JGDXBiUAQ0QiAiIgAiIgAiIgAvUTUGJw/Xy0NksCKOwIhgAj/BCOs2zPaveaYxv8Vmn/daP7POcSfH90JsMcQoOcZl/iQnzKXXD/Hy4g7b2ZTst32/lZf916YtQYXchcOFFnV9dynfD+V9j2bujPfi6PACHuH+Wfffn9z2uDX6k/IiACIiACIiACIiAC9RJQTkC9eLSyMQToCShyf6qdQk9sPrJczyo7fNk5toUbwWfkpBJ7xo3z/6Wb6Ku8i4v3p2vAvYrcaELE9DOSULUb75PwoVIXNrRKtyrbom+FDXUTlA10IxD1cPMMIJSlF4KLV7q/R6I/IiACIiACIiACIpA1AfQnjQ6UNS4VzIYAF1XIE+CzGzDIvaptETeST083rfCipVX27pRiN4JQ0ia6EKA/nBrPEKFo80XOeFjATUC2dI9qW7FzlQ1ZwL1c4u/ibtsgqdAfNmEHEhEQAREQAREQAREQgUYTUGJwo5Fpg4YIuFB/L3jsmc2XcB1eK7lhPFfqXW4/ziyyF78vsSfca/wfxTaZJGAnfV0ewdAFKmy7papsfaf8M+Z/EJ934L6W+O6GsFTvIiACIiACIiACIiACjSegxODGM9MWWRPAU1/iXhgDVS6Iv8gtwEBYpHO1bbtkha27aLlNnJ60b9y8APwb6HoABrhZiHu5eQGCAYDyj4nAS0N/Zo1eBUVABERABERABESgTgJKDK4TjVbkigDKuzMDfOyO++tH80k4Y6C3i+/v7ZT9gd0r7deZc3sKenf2hVN/SP4NEnoXwne9i4AIiIAIiIAIiIAINJ2AEoObzk5bZkmAHoC5xsDcDYjwD6MIsbwPcwDMExR/Xij9UvwDFb2LgAiIgAiIgAiIQO4IoH8pMTh3PFVTlgSKnJLvQ3tQ+N027s1LUPy5MAklkoiACIiACIiACIiACLQMgXkDObZM5apVBDIRQMGPK/rkDQSRARBI6F0EREAEREAEREAEWoZAZPyVltmBahWB+gikQn7k+a8Pk9aJgAiIgAiIgAiIQM4I4HtVT0DOcKoiERABERABERABERABEWgfBJQY3D7Ok1opAiIgAiIgAiIgAiIgAjkhQACGegJyglKViIAIiIAIiIAIiIAIiED7ISAjoP2cK7VUBERABERABERABERABHJCQInBOcGoSkRABERABERABERABESgfRBQYnD7OE9qpQiIgAiIgAiIgAiIgAjklIASg3OKU5WJgAiIgAiIgAiIgAiIQH4TUGJwfp8ftU4EREAEREAEREAEREAEWoRA0k/d2iJVq1IREIFMBEaMGJFpsZaJgAiIgAi0MIGjjjqqhfeg6kWgnRBwXQHJGjIDJCIgAq1KYPjw4a26P+1MBERABAqdgO67hX4F6PijBND/lRMQJaLPIiACIiACIiACIiACItDBCSgnoIOfYB1ebghUVlbarFmzrEbdZrkBqlpEQAREQAREQATanIAmC2vzU6AG5DuB//u//7MllljCXn755XxvqtonAiIgAiIgAiIgAlkRUGJwVphUqJAJVFdX+8NXT0AhXwU6dhEQARFoHoGxY8fa999/b999911WFfXr188WX3xxGzJkSFblsylUUVFhRUVFlkwmsymuMjkkgA5RXl5upaWl/hzksOqmVaXE4KZx01YikO8E/vOf/9jRRx9tO+20k1133XX53tx62/fHH3/YpEmTbODAgfWWi64cOnSof9C+9NJLNnjw4OgqfRYBERCBVifwyCOPeMV7s802s/79+2e1/4kTJxovtt15552z2oZCH330kY0cOdJ+/PFH6969uy277LL+WYDyv/XWW9uSSy5pt956a9b1qWBuCLzxxhu2ww472LPPPmtrrrlmbiptRi1KDG4GPG0qAi1BAGV32LBhlkgkDK9Rly5dmrSbX375xX766Sf79ttvm7R9vmw0ffp0W3jhhW327Nn25JNP2jbbbJNV0yZMmGAwmDZtWlblVUgEREAEWooA9/JlllnG39sbsw+MBV4YAtSRTY/AqaeeajfeeKP16tXLunXrlup12Hbbbb0HujH7V9mOTcB1BJj6gzr2OU47urfeess6depkK6+8sv3+++/2+uuve0/BSiutZGuttVat7kHCYNjmyy+/NLyxAwYM8DcxurLi8tVXX/mb1JQpU7zXYdVVV7XevXunitEFOXr0aEM54+ZEG/DQoqR9/vnntsgii9hSSy2VKs8H9t25c2ejfVHhZti1a1dbccUVU4u/+eYb7/34+uuvffw+9ePtiApeEZRi9sv2eIlnzpyZ5mGh/f/73//8MS+33HKeS7SOlv48Y8YM+/jjj/1u5syZ02QjoKXb2Vr1k5RN9ykCj6j8+c9/NnjdcssttsACC0RX6bMIiIAI5A0BQoDoAWiq4Bh64YUXGtycZyMGwN///ndjONSSkhJvBPDsLS4ubnB7FSg8AjICCuic40UdNGiQHXvssXbkkUdaiHUHwTrrrGO33Xab97ry/YsvvrC9997bUO6jQrfio48+an369PGLiXE75ZRTfNditD6MgBdffNGX+fDDD23ffff1sZDRuu666y5bcMEFvXd3o402soceeii1+rPPPvPdlnRlYiSE+MXx48f78hzLv//9b6/En3XWWV4RjMbs40nnGGkbN0KE/V144YV2wQUX2JVXXukNIIyB0M36zDPP2BFHHGFTp05NtQMvDAaFpG0IYDC++uqr3gD405/+lNaIBx54wDAuL774YhkBaWT0RQREIJ8IkAPAs6SpwrbZ5BG8//77fhf77LNP6rlHXgHP37hUVVUZ5TFQeF7HnWaU//TTT41nMc/hVVZZJXWf5ZmMg466g+AsLCsrS1vGs79v376p7UJZ9o2zi33yfMbxhkOOEJmgW4Sy6BUffPCB/fbbb7bhhhumjiusR0dhP/R6cBzBIYTj8s033/S9yCussIItvfTSXq9pSrvpVR43bpx3OlFXNDQ1eiy0Cefq+uuv75nxfKJtOB+jTsvQ9nx4V2JwPpyFVmwDP1SMAF4o0vQInHPOOTZmzBg76aSTvCFAc/Ca86M77bTTjPhqPl9xxRX23nvv2aWXXmrnn3++b/UTTzxhN998s//xUQ8/WDzslA9y6KGH2g8//GBnnnmmbbLJJr4OvBooeOFHz4+VYTj5gSJPP/20f+eH/Pbbb3sjhQWjRo3yy7faaiv//s9//tOIf8drj8LPTYkbFyP6XHXVVf6H+I9//MOXDX9oJ8bQ8ccf79vFcn7gf/nLX7yxcfrpp9vGG2/sw2nOPvtse/zxx8OmefNOjwW9KIxaRJxnNsI54GbOKxvJpjznmxscXiYS2OprCzf5n3/+2bc5GHW0A28/PTn0BmGUxWXdddeNL2r0d3oRuKbpbaqvjY2uWBuIgAiIQJ4QwEmH8KxmZnp6/jMJji6eoTzPcZ7Ru08PwnbbbeeLE5Z6+OGH++ctdXD/5B0HGgbFcccd558/9DAgKLubb765jxYIzr9PPvnERw7ccccdRihSVDBo6N1AD7n99tu94412cP+/4YYbfNsoT5vQN3jesb5Hjx520UUX2S677OKrQz+hDHoDzxee68Tdo4McfPDBvheZ5wuKOqP7oePw3GxMu3EcwpNnHc5FjpX9o1/AJBwLvMizIHQV/QXjZ7/99vOGFoYO26FX5JU41SEBWF6SwiDAj4EfDnGDq622mr8o77//fn9xo9AHzz8hOHQtokCjhHFzQLFGsNqDhM/84CiHBfyvf/3L/2goQ7gGNwMURKZrxxrmJkKvA8YFPypuHtxksKCD4JUPBgE/6CAYAShxbMO+MQBQ/J977jl/o8ETsMcee9hjjz3mFVN+vBgScaE3Y//99/eGA+swDPgd4FXmxkQ9W265pe/1wFjJByEs5uSTTza8QoRaodByU8SYI2a0LnnwwQe954Jz0LNnT1tjjTWMHpWocCOGKxy4HriZ1leeGy6Jx3hfaA/GCDe9++67L1UtyzmH5CaQoIyHBm8MMf7c6BF6c9gWzwptw0ikfFTYBqOBZDdk991398fNTRXBQwUHmPCwiApG7p577unXEc7GucTI44YuEQEREIGORABPOc4sEol5FtNbmulehxLMfRMvNc9KHEMo+EFQ8nm+cj/HyYPnn/pYzvMcA4JnCB5yhGc3yjUe+8mTJ/tlPKvpGUDZr0t4PvO8pX72xbOB7zxfEByDl1xyiXcSYbDwzCP8E8GhyXOEZyJOJMKH0WsQQqEI+6VeXugb6AmNbTf6BToBjkxCjWFx3nnn2cMPP2zXXHON31f4gzP0xBNPtFdeecWHROOg5LkMXwyFO++80zsbQ/l8eEfnSRTZ3H/50CC1oeUJYJEecsghaTui+2311Vf3SjBedASFiuX8GN955x1/0QfrOaqkoeghl19+ubfA/ZfIHyz7hRZayP8IMCK4UcQFZRvhpoFwY8H7f9hhh/k2MMoBghKMlU9bqTMYDfxA4wm0KJUYChgh4Zh8Je4Pxkq0PD+E1157zR/zXnvtFYr5d8KVUEzbWlB4ucHjleCGAgOMKJbjdcBo4WYXl6eeesorzdyMCGvC4/Puu+/6Y8JjESTcdAmTggG5G/WV52aHp4nziwG42267GUm8GBxBqJN9kMyG0YWnn/OGYs45Q5nHEON8h7wPzjVGXFSoF+OVBwLCg4K6gnCO+I4REkK/wjpGwuBBiIHBA4Tr79xzz/VenFBG7yIgAiLQUQjwLEYhRfBO8xxEYY4Kzhl6ublvrrfeerbBBhv4ez7PQp4vOOFwLpHHgHMI58kJJ5zg78PcT1GmKRuezTyDqIP7b9ATeJ5jOGTq3Q1twUAgbJf62deBBx5ov/76q3dAUuaYY46x7bff3hsTOIJ4zqHs05PBsx3ByUdbcPJQFgnPHp6POIhYzntj200vAwYSUQZ4/WnD3/72N+8gu/fee/2+wh+ezzjGll9+ef+cIdoB5yl86SnnWUQeWz4J2n8inxqktrQ8ARSlTIm9XMAIISAIPzDCd/hhbbHFFv7Cv+yyy/w6fnBB8Orz46UHgR8a3V1RRZByISwHpZGeAMJwiEMMwjZ4DILHH68+3otQHx66Sg7hAABAAElEQVQAPLz0TKAIBqOBvAWEUKBMwmgMCApwVMKxhmUYNSirlI+GqYT1KK5tLTfddJMP2eJGxo0XwwyDCG8M5wjlNnhBom3lXBFyhacELw2GE8dIWA6KeVy4AWdTPuRv4OXggYPHBM5nnHFGvEp/TeGJYT3xpeG8cJ2g/HPtEI519913+23xpGQyaELFeGBYHxR+ePCdnoL4A4fjv/766/31hmGDsYKEnohQp95FQAREoKMQoOeVEFscHtwbGZYS50sQlPOoI4yoAJxsvLhHIyitUcHxhHOQ+zVONu7jwQjAaMCpQ24hy1C+edaEZ3W0nuhnDI2oYEggQT+g7eQ34MAhFp+eY3QDHEM4qTiuq6++2u8XhZ32IzipOA6MBnoKMGyQxrYbHWPTTTetpTOh89ArwHEGieoVQTdh26jU1ysSLdean2UEtCbtPNhXUJziTQme4KDw4qFF2eJHTUweP2x+/HElC4MCi5gXFzjdi3h5SbANgicCBZ6uRMJHCD0hyRPFD6FObkp47InbxntN1x0/crblR088H54FJNxYQmx39IfoC8z7E24I8TZjCEUleMRDfdF1fA4eh/jy1vweuh7xNIQbJfsnVCaEadEFHGdBWA8eCUJ7EEKBuIEhKMVxybZ8YIWBFgSPPF3MccEIPOCAA1IeJT4jnAfiRwkHQugBwMuPxD1XfmET/rBvRsog7IwXBijCtSwRAREQgY5KgGc99z6UZJw+PFeDRA0AlmXSC8JzMWwTRmoLYbp41Xkm8xzHechzmWcLugLeenSK8KwOdcTfQ11hebgv0zOAoo+DkPwEHJDUSWhQEJ5BxODTM8FzECcYsfr0GvMswQjBgEA3Qd8IEQGNbXfogQ775R2dAN0n6jQMz1jWh5HseOZEJThZo8va+nPC9QaYf7V1S7T/ViGARRxXFNlxiO0nvIeuNryxGAR4fDEIUMiJBcykEPNjRFnHs4tHgB8wceVRRY66+JESikKXGF149AwE4YeJMBY83YnBC8FNgB8SNxaW80MLoSMorAihQ5kkGBmhXKYyLMPgoLsOz0EwHKJlQyx6dFlrfsYICp6FeIIV7Qg3Wm5+eNujQlwk5yMqeFUQvP5xybb8rrvu6jelu5keGyY/ifYQReuNj20d9s97UPopz3XEuUDisf1+YRP+YMRGJeybm3SmXJFoWX0WAREQgfZEIDjzom2m9xgJiml0XabPoWc9PiAGPc88//HIIzyzCeVEMecejxMIIwBHHj2tlAv380z7YVl8HyGUiDbg+MMQIceQ5w093pmGSSVcl3wCvP/0foRnJeWJ33/++ee9QRF6vhvTbtqBoYNBEoTnMc4r1gVnWFgX3jFKEPYdFXrO80qc/p9wT27zr7xqmRrTUgT4UeEZiAqKN4o0yjI/XBJgUCjxoEctXYbYjAuWO2WDEEpClxuCkoXBQX1BiKtDaUSiSlhQZOl1oI2hm5DuR+rEuGA4M0KTgtDVhvLODSfu1eZmwU2L8KPwgwzbxd/xguAhR/EkdCQq3KQwXNpSCFcKxkk0Fj60iZtvkGiXb1gWf+ccIHUp7dmUJ1mKXgm8ISSUc2PNlHAcr4vv0Wsqvr6+dfGyTfkejp1tsz3+puxH24iACIhAaxPg+cVACDjk8JyTRMtACITbMgx3NkIPLXXg2KEnFWceOXMo4zhtcAoia6+9tg8PQn8ITjtGJ0LxZ1lw7NW3T0J/CTvGYYd+gfOQutAhgpLNMp7BhDbRpiAcH/H59HCwPb3S6AOLLbaYz2sjhJZhSNkHEnqcG9NuBkbBeCK6Af2D+uhN5jmL0VGXoEvhgCKBmJ4ItmW7MHJSXdu1+nKn/yfVDdDq2Nt8h1jHxJJzkdJFRpwdFi3x3PyIuIDxHuNVJkkUbzw/uPBjih4ABgXdbjvuuKNP4iVWHYNi0UUX9R57hgolgZWx+Ik7ZOQAfhgIvQdB8PATSkLcOvuODguJdyEMSRqMBbYjAYfkYdqAN+AAF2bCuMMcG5n4KPd4KeJdcmGf0Xd6KWgjcw6wPZOn0fNBPdz46JJsK0HJ5/ygtHLzwcMRlahHnxtgawjKNEnExFtys2WUB27CGHjEcWbDvDXaqX2IgAiIQKEQQAknNj6qbLLsdheCG5xzPEviHuz4d4bh5B7Pc5dnIoLyTP5XGGIaXYFnOOE4wWlHOZaRAxZ12LE8k9CTTD4Z4a48M9gmOClx3hFWjH7CPlDiUcoJDaK9PN8Z2jzoEwxkct111/kEYDz3GD84KCmH4ULOAtKYdof2YKiE+H72g+Mxqr9Qb/yZR1sYNINRERFyKOCJMRDn7Qu0yZ8ijABJIREg3IM4weHDh/thxDh2FHZ+WOFHS5weHgRGGSAMhxsKHmgsdS7q6MWOpx2vezRWD6Wf+vDqUhcJRXTF8UNGUPLJtj/ooIP89/CH/WME8B71CAcjgDjGaDw82/HjRPHHsAk3D35gJATRfsKYgoR2Z/oBUi83G24yeFF4oXzDiTg+ftCZtgt15+o92u3IzQvBi4N3hmQpuhfxuEclGGfwaaj7NbpdLj5jdGA8EoNJLxI9MvT8xA2VXOwrXkc4H9HJ3eJl9F0EREAECoUA4aIo5ITkMFgEYbjRnmI4xENUWIZHnVcQogDCfEAkwOIIC8p/KMP7tdde61/RZfQS88pG6OUnp42IAnSMeP4ez18cdPSGh8nM+I7wTMTDHgb24NkX9AZ6pwld4pmJgzFeb2PajSOUF3oAz5y4o40Q06gjLhw37YU1DkRCiNCzEJyV+SQyAvLpbLRSW7CKicvH0024DT+muNB1yIsLmLCd4EUI8XahPIo8L246JB/xQ8RSDkI8It11hLOwPxRVLHoU27jgVeYVFxT6TD8yyvGjDG3gB09PAx6E+I+esozby6su4eZJV2QIcYrmEjCcWksJijPeCW4mdLsiJFDzCkIvBUYOxhU3+pAXQVcthhDCTTwoxmG7lnindwfvDTezEF5DW9k3vRWZ2LdEO3i4cd3RE8XDRCICIiAChU6A+zDP9EzP9cayIdwzPPsbu2225WlvfSG7tCEYAJnqDMp1fB3PIZyeuZKm8ozmveWqLbmsRzMG55JmO6oLpRMvfkPCBZzNRYx1HLeQo3XzQ840cky0THM/Y/Hzao40dENqTt11bYtXgtAaum3D8GzxBGDiMe+55x5vlNEtyyt0h+Lx4CZJ92drCEYLYVi0ifAsDDtyJ/B2MExaNtdLLtoJAxKtGEuauFHaRcwmcwJIREAERCBfCOAcI7y2vxt4oynCtq3dy9uUdmqbdkZAicHt7ISpuR2SAD0dGB+MQkQiNbka0fAqDhrFmq5PeivwtjN6E/MqYMwxVwPx+NFu3xBKFN6j4MKy8M668Dm811eeXgjG2ycMh7H9yQmgF4hlIeSrvjrDPsJ7dF8Yi9Fto5/j5Znhkt4aeNCDwlBuoTs4lA3vYR/wIiyMF58lIiACItDSBHBOjRo1qsm7wQhoroOryTtvgQ3x0jORVkc6phbA1PJVumdn0cjXP3LDA5mNevaBVAJDy+9Ze2gLAsQHojQRPiFpOwIMjUqsY1QYgYBwKW6K0XCqaJnwGaWXkYx44VnCgMgkKOncbINiHC3D/lCQQ54E6xpbnuHo8L7TTUq8aFzhZpQnxpaOhjWFNrB/9h3fBiOI4wvGAOVJ7qKXIV6WdZQlXI36aEMIT2IbjIJM+6ZNSCYufoX+iIAIdEgC3HdDomZrHyDzuJAcyj2bVzaC8o/xwD2LkFCJCOSKAHrIsC33UGJwroC2h3oOcDHcrRWq0R545E0bneJbeu4FtupZc2P7a45zQ49162pFdXy3f55kvdz63nWsD9v3rGd9aYb6G1u+i6ufXoGwP4vtr1Pse/R4Mu2f9Sj61FcTaV/ihFMs4b7H66c8BlD34edY90h5tqd8tzr2X3yiSyyL1nfyaVZ0wbl5czmoISIgAh2PAEo8k2YykEaYwbahoyQECMdQfK6VhrbTehHIloB6ArIlpXIikCMCmXoCas5yoylUzjSbPsPNXtZ/7ru+txqPouMOz9HZVTUiIAL5SqAtewLylYnaVZgE5vcEZI4kKEwqOmoRaCMCRWecYN4Q6LeQBYVU351h1Io82ujUa7ciIAIiIAIi0PoEnP7vegI+nJcT8J82i5Vr/SPXHkWg7Qhk6glou9ZozyIgAiJQGATUE1AY51lH2TCBuT0Bu2vG4IZRqYQIiIAIiIAIiIAIiIAIdCQCmjG4I51NHUs7IoBHSiICIiACIiACIiACbUVAMwa3FXntt2AJtNUQdQULXAcuAiIgAiIgAiJQi4BmDK6FRAtEQAREQAREQAREQAREoAMTcInBSTfbTgc+Qh2aCIiACIiACIiACIiACIhAGgGn/yfSFuiLCIiACIiACIiACIiACIhAhyfgcgI0UUCHP8s6QBEQAREQAREQAREQARFIEShST0CKhT6IgAiIgAiIgAiIgAiIQIEQSBapI6BATrUOUwREQAREQAREQAREQARcHBCJwTVKDNa1IAIiIAIiIAIiIAIiIAIFQwD9X4nBBXO6daAiIAIiIAIiIAIiIAIiMJeAEoN1JYiACIiACIiACIiACIhAQRFQYnBBnW4drAiIgAiIgAiIgAiIgAhAQInBug5EQAREQAREQAREQAREoIAIKDG4gE62DlUEREAEREAEREAEREAEIKDEYF0HIiACIiACIiACIiACIlCABJQYXIAnXYcsAiIgAiIgAiIgAiJQyARIDGayME0YVshXgY5dBESgHRCoqqqyWbNmWXV1dTto7fwmttd2zz8CfRIBERCBDkjA6f4J2QAd8MTqkERABNIIjB8/3saMGWMopO1VrrjiCltiiSXsiSeeyPkh/Pzzz/bkk0/aDTfcYK+99po3NnK1k5Zsd67aqHpEQAREoNAIoP9rxuBCO+s6XhEoQALHHXec/e9//7OPP/7YFlpoobwn8Ouvv1qfPn3S2hl6AHI9y/s111xj559/vs2ePTu1v/79+9sDDzxgSy+9dGpZUz+0VLub2p6mbEcPDAZkt27dmrK5thEBERCBvCOgxOC8OyVqkAiIQKET2GijjWzrrbduFQyPPPKInXnmmbbAAgvYLbfcYs8++6wdfPDBNnHiRNtll12ssrKyVdqRzzt58MEHbdlll7Vnnnkmn5uptomACIhAowkoMbjRyLSBCIiACLQcgc8++8z69evXcjuI1HzWWWdZcXGx3XfffbbCCiv4NWuuuab98ccfvifg6aeftu233z6yReF9/Pbbb23mzJmFd+A6YhEQgQ5OoMiSSgru4OdYhycCItAoAijAhA6hjBODv/baa9cKIXrrrbesU6dOtvLKK9sPP/xgr7/+us2YMcPWWmstW3HFFWvtj27XDz/80MaNG+fXrbPOOjZgwAB7++23fYjJ8ssvb1988YVNnjzZh50QfjJ27FhfdplllvGe+milFRUV9u677/rX4osvbhtuuKH16NEjVeT999+3CRMm2A477OCV/NSKyIcpU6YYCu6qq66aMgDC6gMPPNAbAY899lhWRgA9Bh999JGRe0FY0eqrr+45lJSUhCr9e0PtphDhQ/D98ssvvTECp2HDhllpaWlaXdFz8M0339irr75qcB04cGDWdYQKJ02aZB988IHf55JLLmlrrLGGde/e3Z8zGCFcD5wTzvsqq6wSNvVtbMz1Em8rFX311Ve+bs4JvQ6ck969e6f2oQ8iIAIikHMCLikgSWKARAREQAREwGz06NF26KGH2i+//JLCgTJ41VVXpSnD22yzjQ0aNMj23XdfH04TChe5KRhPOeUUIwchyLRp0+ywww7zoTZhGe/HHnuskTQ7ZMgQe+qpp3w9hOMgP/30k7EPZMSIEbb33nv7z/xh3QYbbOCNhrAQQ+Dhhx/2CjAGx6677moolCisdYUWkQyMdOnSJVSTeqc+BAOnISHP4ogjjvBKdLTsIYcc4nMNwrKG2k05DCGOFaU4KijGjz76aFqeRDgHu+22m98Px/1///d/tuWWW2ZdB8bLlVdeaZdccolhoETlpZdeSp0Dll922WX+RS/Ne++954s29nqJt/Xwww/318utt96aNuoTRsCLL74YbY4+i4AIiEBOCaD/J7hx8pKIgAiIQCET+PTTT22PPfbwI+NceOGFRijMX//6Vx8XjxL/448/puHBM3zRRRf5FyP2oLwmEglj26gSi6KHco93mbAblLtjjjnGGwDRClGkr732WsOQICmYz7zWW2+9aDE77bTTDCX98ccf93XQU/D999+nFG62RxEePHhwLQ9/tCKSfwkFwoOPoRKV0GPRkBEQjBW86BhE9Bzcc889ts8++9jCCy8crbLBdlMYxr/99psvy/Hdfvvtttpqqxnn5tJLL02rjy9ff/21XX755d6gOvfcc72HvjF1nH322Z4bvK+++mp7/vnnbfjw4d4wgw/8t9tuO7/f/fff338/77zz/PfGXi+Z2sp1c/PNN/seJY4XQ4drgx4miQiIgAi0JAF0f5cTIBEBERABEfjXv/7lQ3FOOukknxwLEUKBEBQ1FFK8/FE54YQT7KCDDvKLhg4d6j3neIdfeeUVH+5DyA4JpUsttZRX2svKynxZPL0YDCiwQYKyjxJI7wMGSSZBub///vstmUzauuuu68NH8PYztGcQRvxpSGjLJpts4hVfDBV6HAhBoc0wQGhjfUJSMeFT9GqcfvrpqaJbbLFF6nP4kE27V1ppJR8WEx0ZiTbtuOOOPkQr1BXe58yZ49vKeQjy+++/Z1UHRtz1119vvXr18oZZMFoIZTryyCN9dZwDDCyUdVjjyQ/S2OslU1vhh5CMTf3I+uuv79/1RwREQARamoASg1uasOoXARHIewLEoRPXj6AEBk8438kLQIhRjwoe95122im6yHvtMQK+++47vxxjAEHJCwaAX+D+7LnnnmlGQFje0DvbYQAEwVPeuXNnY1hRQlricfihXKZ3hgblWDFUCLkhr4AwInotOIZFFlkk02apZXjOGTYzGv6UWhn7kE27Qxw8ibiffPKJH6WId4Reh0yy+eabpy3Otg7CfRj2k16eYACkVVTPl6ZcL1QXbyu9DQjGILkPwRDwC/VHBERABFqUgEsMds8xiQiIgAgUNAEU3jBOfgj/iAOJhwOhtMVH8QlJwSG+nBAQBAU7Lo1VPMP2JK5GBaUfLzvJwMS4N8YIQAkloZawl3feecd7/lFEN9tsM9t4442tb9++0V2lfSangDAiDIZMeQVphd2XbNpNcjUhVnjo4xO7ZQpb7dmzZ1qSLvvMto7PP//cN5FemcZKU66XTG0lhIpQsRdeeMHnnBAGRFhYtMehsW1TeREQARHIhgD6/3x3UjZbqIwIiIAIdEACxMYjeL5PPPHEjEcY94pHvfFhg3j4zPTp0/2qTGXDurBttu/xfbAdvRJNFcJhTj311LTNSVRGMHTqkmA01bU+vjybdhN3P2rUKN+jQnIzBgaGCmFCmYRzEq832zoa2/7o/ptyvWRqKyMe3Xvvvd4IYLbmkGg8cuRIyyakK9omfRYBERCBxhLQjMGNJabyIiACHY7AYost5sN1UAxJ8I0PR9nUAyYXACH5lknAosKyuiST17uusi2xnInDMCyioxLF90OYFKMPEVuPQdPc2XSnTp3qcymY0fmhhx5K9WgwFCjeffIkGpLG1EHvCcIwrfR8NCTRc5LL6wXOhAnxoi2ETZHzQYgVw51KREAERKAlCHBPqz/rqyX2qjpFQAREIM8I4E0mIRMlkiEj40LSLYmdjRXGrUcIbyFhNQjzABD2kkmYvbe5E1QRU09Ca1Pkxhtv9B5pknuXXnrpOquAGcozBgBDc0aVZDaKHm+dlURWEDpFCFDXrl3Tch7uuuuuSKn6PzamDpKiOYbrrruuVr4HeRHheDgfSMhN4HOurhdGkYqGPTFRW1D8SbiWiIAIiEBLElA4UEvSVd0iIAJ5RYAhP+MJuoScnHzyyX6cfsIxGOKT+Hom4EKZJmaeEBU83vFtGzq4TTfd1Cd7vvHGG34knv32288ruHh6UTQzCYr13Xff7UcdIseA741NGEXBJZGZsJ4wwlGmfeHxZ9QjjpUcBZKjGcKUMCCG3GxIzjnnHM/mtttu80oyQ5MiDK+KQsuMxNkK8y4QmjRx4kTba6+9fE4CvQDPPfdctlX4uRuyrYP4exK2b7rpJn9uCCMi9Ii5CuBPTw29G6GXgGUYBnjuGRmIkX2ae70wLCnMGf2IEZHIy6A3YNFFF60zBCprGCooAiIgAg0QcInBTY8lbaBurRYBERCBvCCA5xaJDqMZGhbugSjcTz75pB111FF+tBxGzEHwTJOsGQ13YZtQZ6iH91BXdB3K49FHH+3rRrEmnhwFmSE5CQGJJ9UecMABxgRcJIvyWmGFFfwuQp1hH5n2G9YFL3Z4j5aNfmYkHXoMiEdHOEaGG2USswUXXDBaNONnEqOJX2dYUwwdXrSTGH6OEcm23YQWYZQwUg51YowQR09PAMp6qCc0JNM5YJSkxtTBmP/9neKP4UdyNIIRMWzYsFQ4EnMyMIIQ55FJ4+gdwQjIxfVCHZxjJisLwlCzTEyWKY8klNG7CIiACDSXAPfQolFvfORnChv5zAP+4dfcSrW9CIiACLR3ApMnT/YeabzjeGVzoZARNoN3nnAPlO0333zTT0SF0h9VAgM7RqBBMY6OmR/WNfRODwYj99D2hgRDgbAURjTCGx9XthvaPqxnn3jRyYNgJJzmyKRJk/z8AyE0pil1NaYOGBCCRe7BcsstlzLmovslX4Qy9JLEr4fmXi+MPMVoSxhVTTnf0XbqswiIgAg0RAAn1MZb7WFKDG6IlNaLgAgUHAHiwEMseK4OHsU/OhzlnXfe6atG6cwk8eFHM5Wpaxm9C/EehrrK4g2qL/a/ru3iy9nfKqusEl/cpO8YX00dQjXssDF1wCA+hGmoJ7xjkGEkZZLmXi8kGvOSiIAIiEBrEcD5MbePvLX2qP2IgAiIQIERwNNPaBGecoRJvYYPH24PPPCAH4d/n332KTAiOlwREAEREIF8IKDE4Hw4C2qDCIhAhyVAYusTTzzhQ0zwlhNyguDpZ2SabD32HRaQDkwEREAERKBNCCgxuE2wa6ciIAKFQoDRXsJrwoQJPuxkmWWWsd13310GQKFcBDpOERABEcgzAoRBqicgz06KmiMCItCxCBDrvd122/lXxzoyHY0IiIAIiEB7JqDE4PZ89tR2ERABERABERABERABEWgkASUGNxKYiouACIiACIiACIiACIhARyCQ1FRhHeE06hhEQAREQAREQAREQAREIDsC6P9JN2RFdqVVSgREQAREQAREQAREQAREoP0TcPq/5glo/6dRRyACIiACIiACIiACIiACjSKgxOBG4VJhERABERABERABERABEWjfBJQY3L7Pn1ovAiIgAiIgAiIgAiIgAk0ioMTgJmHTRiIgAiIgAiIgAiIgAiLQPgkoMbh9nje1WgREQAREQAREQAREQASaToAZg4kJkoiACIiACIiACIiACIiACBQGAeUEFMZ51lGKgAiIgAiIgAiIgAiIQBoBDRGahkNfREAEREAEREAEREAERKDjE1BicMc/xzpCERABERABERABERABEUgRmJcYnPquDyIgAiIgAiIgAiIgAiIgAh2dgLMCXGJwRz9KHZ8IiIAIiIAIiIAIiIAIiEAggP6vnIBAQ+8iIAIiIAIiIAIiIAIiUCAEZAQUyInWYYqACIiACIiACIiACIhAIKDE4EBC7yIgAiIgAiIgAiIgAiJQAASUGFwAJ1mHKAIiIAIiIAIiIAIiIAJpBJQYnIZDX0RABETAvv/+e3vrrbfs22+/FQ0RaBUCSyyxhPXt29eGDBnSKvvTTkRABESAxOCkMIiACIiACMwlgPL/448/2qabbmr9+/cXFhFoFQKjRo2yr776yhufa6+9dqvsUzsRAREQgQQxQbwkIiACIlDIBMaOHesNgAMPPFAGQCFfCG1w7MOGDTOuOwxQeqIkIiACItDSBND9E94CkBXQ0qxVvwiIQJ4T+OGHH2zAgAF53ko1ryMT2HjjjX1vQEc+Rh2bCIhAnhBwur+GCM2Tc6FmiIAItC0BcgDwyEpEoK0IEIKmXJS2oq/9ikDhEdCMwYV3znXEIiACIiACIiACIiACBUxAMwYX8MnXoYuACIiACIiACIiACBQuASUGF+6515GLgAiIgCcwefJkGz16tL300kv222+/pah89NFHNnToUL88tbCFPvzjH/+wffbZp4VqV7UiIAIiIAJRAqQDKzE4SkSfRUAERKCACDz99NM2aNAgW3DBBX0+BEOj9unTx3bddVdP4Y8//rAxY8bYr7/+2uJUPv74Y3vvvfdafD/agQiIgAiIgCPgrADNE6ArQQREQAQKkMBJJ51kF110kQ0cONCuuuoqW2WVVYwRkkaOHGlVVVUFSESHLAIiIAKFRUCJwYV1vnW0IiACImAvvviiNwC22247u/fee61bt24pKnvvvXfqsz6IgAiIgAh0TAJKDO6Y51VHJQIiIAL1Ejj66KOtR48edvPNN6cZAHVtVF1dbeedd56tu+66tsIKKxjbz5gxI604vQfnn3++rb/++jZ48GDbfffd7dNPP00rw2RYhx9+uK2zzjq23HLL2b777muff/55WpnwZdKkSbbHHnvYnnvuaVOnTg2L9S4CIiACIpAjAkoMzhFIVSMCIiAC7YEACvX48eO9cr3IIotk1eRTTjnF9xxgAKD8jxgxwggnisr2229vp556qmEwoOQ/8cQTtvbaa/sQI8p98MEHttJKK9mdd95pq622ms9BoEfiiy++iFbjP5OLsPXWW9ujjz5qBxxwgPXs2bNWGS0QAREQARFoOgElBjednbYUAREQgXZJAAMAwROfrcyaNctPYnXLLbfYl19+6ZOHH3roodTm999/v5FkfOaZZ9obb7zhFf3nnnvOUOavuOIKX+7QQw+18vJyPyPuDTfcYNdff703EDbbbLNUPXyYM2eO7bjjjt5ouO+++7wxkFZAX0RABERABJpPQInBzWeoGkRABESgPRFAMUfKysqybjahPd27d/flk8mkbbjhhvbII49YZWWl8f2pp57y6/D0M8woQnhQSUmJjRs3ziv7GAcnnnhimvGRSCSMVxC2YZhQhiu96667bOeddw6r9C4CIiACIpBjAi4xuCbHVao6ERABERCBfCWw7LLL+qbF4/Xray9x/lEh5p9nRzACQkgPxkJcfv7551RuAEZCffLZZ58Zr/3339+UoFwfKa0TAREQgeYR4B7uXDBEBfGSiIAIiIAIdHQCSy65pPXq1cseeOABmzZtWlaHG/XWs0FRUfozY4EFFvAefZJ8f/rpp7QXcf9du3b1+xk7dmy9++vfv7/vZSBv4J577qm3rFaKgAiIgAg0h0CRKTG4Ofy0rQiIgAi0MwIo8MOHDzc89IcddpjNnj271hE0tod4+eWX9wnBhPyQbBxeCy+8sE/qZT3hR+QRkDhcl3Tu3Nkee+wxP2cBvQEPP/xwXUW1XAREQAREoBkEcOVoxuBmANSmIiACItAeCRx55JHG7MB429daay278MIL7cEHH7TTTz/d1ltvPYsn6zZ0jAwZigJ/7LHH2nHHHWevvPKKkdTLKEF4/8knYDQhhgjdYYcd7IUXXvD722WXXez1119Pq56RgJ555hlbaqmlbK+99rInn3wybb2+iIAIiIAI5ICAswLmZ2TloD5VIQIiIAIikP8EiouLjdF7Lr74Yj+Cz8knn+zH9b/ssst8qA+TiCEh7Ce8hyML38N7v379vOJOmNHll1/uQ3qI6e/du7cR4oOcccYZdvbZZ/sZiTfffHM/ROnEiRP9fAWsp65QHz0JtK9Pnz626667eqOCMhIREAEREIHcESga+fo4nxk86tkH7aijjspdzapJBERABNoRAca+J0ymEGXKlCneSz9o0CA/2k9zGODt//33343cg+hMxKFORgCaMGGCV/AxEiTpBLgG9SxOZ6JvIiACuSXA827YlrtZ0vlecluzahMBERABEWhXBPDg88qFLLbYYsarLqEXAmNDIgIiIAIi0HYE0P8VDtR2/LVnERABERABERABERABEWgTAkoMbhPs2qkIiEC+EVhiiSWMGHWJCLQVgVGjRhnXoUQEREAEWpyAEoNbHLF2IAIi0E4IrL322j5ptZ00V83sgAS++uor69u3bwc8Mh2SCIhAPhJIMB50Y8eEzscDUZtEQAREoDkEFl98cR/LfttttxkeWYkItBYBeqC47silGDJkSGvtVvsRAREoYALo/koMLuALQIcuAiKQToDeAMa1//LLL2UIpKPRtxYkQAgQ1x6GqEQEREAEWoMAicHJ1tiR9iECIiAC7YWAPLHt5UypnSIgAiIgAs0hkNQIoc3Bp21FQAREQAREQAREQAREoJ0RUGJwOzthaq4IiIAIiIAIiIAIiIAI5IBAUknBOaCoKkRABERABERABERABESgnRBQYnA7OVFqpgiIgAiIgAiIgAiIgAjkioBmDM4VSdUjAiIgAiIgAiIgAiIgAu2IgBKD29HJUlNFQAREQAREQAREQAREoNkElBjcbISqQAREQAREQAREQAREQATaHYGkmy643TVaDRYBERABERABERABERABEWgiAaf/J5q4qTYTAREQAREQAREQAREQARFopwTcjMEuKEgiAiIgAiIgAiIgAiIgAiJQIASKTInBBXKqdZgiIAIiIAIiIAIiIAIi4Am4PgDXEyARAREQgdwQ+P77723s2LGWSCTsm2++yU2lqkUERCCvCAwdOtT69u1riy++eF61S40RARFoHAElBjeOl0qLgAjUQQDlf8yYMXbAAQf4Ev3796+jpBaLgAi0ZwKjRo2yhx9+2NZZZx0bMmRIez4UtV0ECpeASwxWT0Dhnn4duQjkjAA9ABgAw4cPz1mdqkgERCA/CQwbNsx48XunN0A9Avl5ntQqEWiIQMKKXFAQL4kIiIAINJHADz/84JWCJm6uzURABNohAXr96AGUiIAItEMCTvfXEKHt8LypySKQbwTefPNNGQH5dlLUHhFoBQLk/0hEQATaJwH9etvneVOrRUAEREAERKBNCZD3owEA2vQUaOci0CwCSgxuFj5tLAIiIAIiIAIiIAIiIALtjIBmDG5nJ0zNFQEREAEREAEREAEREIEcEFBicA4gqgoREIHCIlBdXW2ff/65vfDCCwqHiJz6H3/80cLr119/jawpnI8Mn8k4+uPGjSucg9aRioAItD8CSgxuf+dMLRYBEWg7AjNmzLAjjzzSevToYYMHD7bNN9/cllpqKevTp4/99a9/bbuGNWPPf/zxh02fPr0ZNczddNasWX4CKSaR4rXQQgtZ9+7dba+99iooQ+m3337zw+VOmzat2UxVgQiIgAi0JAHNE9CSdFW3CIhAhyHw1Vdf2WabbWa8o/BvscUWtuSSS9p3333newTef//9dnesr7/+um2yySb26KOP2pZbbpmT9m+11Vb25z//2feUPPPMM/bAAw/Yhx9+aG+//baVlZXlZB+qRAREQAREoPkElBjcfIaqQQREoAAIHHLIIfbtt9/a008/naYwM2PqLrvsYoQItTehF2DOnDk5bfYKK6xg++67r6+TyaR22GEHe/zxx+3ll1/2PSc53ZkqEwEREAERaBoBJQY3jZu2EgERKCwCDz30kL344ot23HHHpRkAUQrx8dKrqqrs/PPPt/XXX9+HDu2+++726aefpjb57LPPvIL8yiuv2LnnnmvrrruurbjiinbCCSfUUsw/+OAD22OPPXw91HfppZemjI5QD7HoZ555pq2++ur28MMP+/2geJ9++umGoYLH/+abbzYUf+Rf//qXnXHGGf4z7yjrGDhB6ttnKJPN+2677eaL0U6kvjaxnonnDj/8cFt55ZUNg2KfffbxvS2sQ+6//35/LEsvvbRtvPHGdt1119lrr73m2//GG2/MLeT+YtzsvPPOdtVVV6WW1biHHuFJ0WXkdhx44IG2xhpr2HLLLWe0l3kvgtTHt7y83DPk3NFWDMUpU6aETfUuAiIgAnlNQInBeX161DgREIF8IICSiRxzzDFZN2f77be3U0891Svr66yzjj3xxBO29tpreyWXSiZPnuw95Pvtt59dfPHFXolEQb/kkku84h52NHr0aGP7Z5991jbccEMj1vz444+3E0880RcJ9fzjH/+wO+64wxZbbDFDOa2oqLCNNtrIMDKGDRtmGCUoqRgQCKE5paWlqc+dO3e2ZHJuhGhD+/QbZfkH4wQZMGBAg22iNwVj5d5777Wtt97a83rppZd8sjF13H333V6JLy4u9u8cJyFH1A3f//znPxTzgtH23//+16655pqwyCfrYkR069bNL8MgWXXVVe2pp56yDTbYwO9zzJgx9qc//ckee+wxX6YuvhgUhFCdffbZnjntfuSRR3zOSGqH+iACIiAC+UrAJQYrJyBfT47aJQIikDcEiGnv1auXV/ZCo1DYUUqDFLkb6sEHH+wVaRRNvOp45gmJQf72t795Jf6KK66wiy66yC/jD4osYUYk0aK4o8SjBGMYoBTjFe/UqZNNmDDBevfu7bcjN2HEiBF22mmnpeqhDrzaoQzboiBHY/3XWmstr6jSJnoIMEqI4aeeUC6bfYZ9pHae4cPHH3/sjZz77rvP505gwKC819em8ePH+96SCy64wE466SRfK8p2EJTsrl27eoMo9LzQXj6vueaa9txzz4WiXonnnODJnzhxovV3E1s9//zzxrJtt93Wsz300EN9+ffeey91bmFB2WOPPdYw5ILE+XKOMXBOOeUUO++883wxDDh6BMgbkYiACIhAvhNIFLkW8pKIgAiIgAhkJjBz5kyvaEbXTpo0yQ477LDUC4WScgieZWSllVYyPNm8Zs+ebSUlJbWGjiRMCAMAYT0eaUJiKisr7euvvzYUY8JN3n333VRdjEiE8RBCbNgWZT6qnKMYo9ijABOTf/nll/ttCPOpbzSgxuyT/cblyiuvtC5dunhlGEW+X79+PjwJ73tDbVp00UV978RNN93kw6+oG6WdF0IiNiM00QvCKDxIMAYIZ/roo4/s+++/NwwHjhmFHsMjGAcYARg+iyyyiB+xCEOFEZ4wvIIw0tOmm27qFXmSvoPE+YbQKcKLgmCsHXTQQeGr3kVABEQgbwlwV01GvSx521I1TAREQATakACx4oQEoXguuOCCviUDBw70oTl8Ib4e5TfIF1984T+i4Mfl559/TluEgh8V9kUYC0ZAqAeFMyid0bLUtfDCC/tFhP5EhXH6CRG66667vCKM4RCSgAkNqkuy2Wdd27Kc3gYU5p49e9qyyy7rR1QKYUcNtQkF/N///rfv/aC3gxyJc845x3baaSe/SzjT20FIE2E+hFLhheec4LUntwGFH+MLQ4pY/5EjR/pl+++/vw+NwnOPhOMMPSB+4bw/hE8RDoRBFEKk4ny//PJLz36VVVaJburzCtIW6IsIiIAI5CEB9P9EHrZLTRIBERCBvCJAsi2ChzoqePB54QGOygILLOA91CisP/30U9qLWPWoBC93WBb9Tj0IPQ7xevhO3HwQlO6ooChjAFx77bU+/wCllUTZhqQx+8xUF4nLhBthgGyzzTapvAPKZtOmPffc03vpSfgl5Io2h54Vejrw8DPcKAm8N954Y4rBaqutZksssYRX+BnylMRikodpA8yJ/6enJoT4hOOkpyUun3zyiV8U7SGI8yWH4vfff08lWoc6CC2SiIAIiEB7IOASg10zFQ/UHs6V2igCItBGBIj1x/PPKD6Mrd+QLL/88j7mnNFqCD0JL7z2cWWyvrqWWWYZHyJEUnCoI7zjNSd8qC5B8V188cW9AcHkZnj/H3zwwbTihMogKLNBmrPPUEdd79m0iW2J+ye8ihmZEcJ4osJIPnfeeaftvffe9tZbb9nUqVP9ahR8yuLFD70HGEqM2EOeAUYCicAIvRQo8uQZxHvEMTroXSA3oC5he3I4QqhRKMe8CBIREAERyHsCTvd3PQGyAvL+RKmBIiACbUoATz/DaxJ/ToIro+zceuut3tN+xBFH2D333JPWvqOPPtormCSXMqwoI/SQIMsoP2PHjk0rW98XDAaUYZKCCUchVCYko2YKNYrWRTuJj7/wwgv9ZGAkw9J7EBXi4zEkbrnlFnvyySd9TH1z9hmtO9PnhtrEyDzMuUBbMKDCUJ6E9yCE95DbwBCeKO9wJecgGFbkBRCyNW7cONtxxx39NvQQ4NEnL2O77bbzy/iDocHoTYQNURYDhVGRiPEnF4Awo2AkpTaKfGDmaNZzjhmViHAx2qek4AgkfRQBEchjAm50IHUC5PH5UdNEQATyhgBx4iiXRx11lB+rHqMAIXwHRZNYcxRLBMWUUXCC0oriijDLcPAuh7Cf8O4LuD/he3hHiSc/gFAkQloQegHolUBCufDuF7o/GCckE5McSy8ACceE6NCWUBblGYOF0Bu87tdff72Pw29on2Efmd5D3ZnWNdQmQqtgHJR1hjGFNxwR2kteAMnBCD0ut912m//MH84RCciEDTFaEEJ76A3AaAuhQH6F+8M5wwgi74AwI4QeAFgzKzQSjie8+4XuDz0BeP0xCJnDgfXrrbeeXX311d5wi5cP2+ldBERABPKBgO8CGPX6OD/+2shnH/Q323xomNogAiLQvggwXCVx4IUihI8w6g7KOSEm8ZyAKIcff/zRh9swsk0Ynz66PtvPjAZEMiuKMJ7tMCpOQ9szihESEogzlSf2nvkHCB+KSlP3Ga0j0+eG2kQCMWVIZg6GVagHg4ZRkTAYMLZyIQwzGpKAOZ+NEbYl3wLDLDo6U2PqaM9l+d1jqElEQATaDwGe2RtvuZvmCWg/p0wtFQERyBcCeHkHDBiQVXNQ2KMJplltlKEQI+wwBn1jpT7lP9QVEpzD9/De1H2G7et6b6hNKNS8MgkhOPQA5FIwqLI9n/H9su2gQYPii/VdBERABPKeQFJJwXl/jtRAERABERABERABERABEcgdARcPpMTg3OFUTSJQsAQIdSE8RiICIiACIiACItAeCCgxuD2cJbVRBPKeAHHREhEQgcIiwEhVQ4cOLayD1tGKQAchQGJwggS3+BjJHeT4dBgiIAKtRGDIkCF2++23t9LetBsREIF8IIAR0Ldv33xoitogAiLQSALo/i4cSCICIiACzSPAqDKMgc9IISgGEhEQgY5JgLA/XvzW+c3HR5TqmEetoxKBjklAicEd87zqqESg1QnQG4BCwORLKAgSERCBjkeA/B/C/5jUTQZAxzu/OqICIuDigZJuKpQCOmIdqgiIQEsSQCngxUy0EhEQAREQAREQgXwloMTgfD0zapcIiIAIiIAIiIAIiIAItAgBugCSSgpuEbaqVAREQAREQAREQAREQATykoASg/PytKhRIiACIiACIiACIiACItCyBJQY3LJ8VbsIiIAIiIAIiIAIiIAI5BcBEoOLlBicXydFrREBERABERABERABERCBFiSA/q95AloQsKoWAREQAREQAREQAREQgXwkoMTgfDwrapMIiIAIiIAIiIAIiIAItBABJQa3EFhVKwIiIAIiIAIiIAIiIAL5TECJwfl8dtQ2ERABERABERABERABEcg1gbmJwbmuVfWJgAiIgAiIgAiIgAiIgAjkKwE/WZhpdKB8PT9qlwiIgAiIgAiIgAiIgAi0AIEizRjcAlRVpQiIgAiIgAiIgAiIgAjkLQESg5N52zo1TAREQAREoE0IFE2fYcVffZ2276qBA6ymS+e0Zdl8KZox08w9bGq6dc2muMqIQBqB4o8/s6LKytSy6t69rLpf39R3fRABEWg6ASUGN52dthSBNidQ9Md0s6qqtHZ4ZStZj31fUWFeMQtbJRJW06N7+KZ3EbDSBx6zLicOTyMx45oLrXzPndKW1felaNof1vXIk63kxdG+WMXGG9iMEedbjVPiWkoy/R5S+younmuIFBEJK2kXBGbPsR4bbJ/W1Kr1h9i0R+9MW6YvIiACTSDgboVuxmCJCIhAeyXQa/A6ZhXzvWQcR/l+e9iMy86u85A6X3Kddbr0mrT1Uz961aoXWShtmb4UMoGa2gfvvPmNkbI77rOSp15IbVLyzEtWdsf9NvvYv6eW5fpDpt9D2j6KE1a9UB+rHLa+lW+1iVVsu7lLi9NTMI1RPn3JdM017jLMp6NRW0Qgrwhw53MzBvOmm2BenRk1RgSyJVBVXatk6b8fsJJX3qy1PLWgOr3nwC+P9SakyupDhyRAuE+pU9C7/vMMS77zQYscY/LdcbXqLRnzdq1lOV2Q4feQVr9bn/hpkpXe94h1O+Ao677nIVY0+fe0IvoiAiIgAoVBoMgSJAbwkoiACHQcAl3/cbrZzFkd54B0JDkhkPzfe9Z9p/2s16Ah1nW/I6zUeeYTn0/ISd3xSsr32jm+yObsvkOtZW25IPnSK9b9wKPbsgnatwiIgAi0CYG5MwarI6BN4GunItCSBIomfmtdzr2sJXehutshgeIPP7Xkq2NqhZC1xKGUbz7Mpt8+wiq228IqdtrGZtx0qZXvuHVL7KreOqvWXNWqlxtk1rVLxnLFr4210udHZVynhSIgAiLQYQk4/V85AR327OrACp1A2U13WfnO21rlWqsVOgodf1sQcLH23gBwRkBbSfVii9i0Zx+Yu3sX8lZ214NzE55jYUPJl141jBaJCIiACBQKAfoA6hlCpFAw6DhFoIMSqK62rsecZlNHPmJWWtqkg2S0ldLHn7XicR9b8qNP3VCP1Va17DJW6Tyr5S60o6Znj1S95CEUx+LAK9dbu5YRUvT7FCu78z+p7fhQ3XdRK98tfRSQ5Fvveq918sOPLfH1d35YwKplB1nln4ZYxQZD07bnS/GnX1jJsyPTlpe7xM+ahftYifP0ljw3yorcaCMzL/iXVS+6cFq5+JeS0a9b8fsfzV+cKLLZB+1rFhkiM+P+tt/SqgcsOX87PpWXW+kTz7k8jTcs8d1Pc2PQu3Z1CaoLWOXKK1jFNptZ1eCB6du4b41hX2vj2ILSF0ZbYvxnVvL62Ngad2m4tiV+/sUvr/zTOla5xiq1yoQFjPhT8vSLrp4xVjz+87nnZIXBNvtv+6VdC5TPyMedj+qB/UN1/r34y4lWev9/rXjCREv88KNZZbUbQainVS21hL92/HXhRrBqtrjRgebsv6clx4230tvvS6subThUFx6b/OAjf+0lXI9a8TffWdGvk63GXTNVA5eyynWHWPnWm6ZtH/3S6OPJ8voou/UeI5cjSI3r2ZhzsLsmI1J678OW+OW31BJGCptz0D6p7xxH2T0Ppb7zgRGf4oMCFLsQseSo14z34i++siIXWli19FJWNWhpq3LXR8VG66XVEb6UuXykoilTw1d3jS9o5Xvv4ph/bCVPPu+5lruk7DnueolK8v0PLTnyNUu+96G7Bn6yquXcPWbN1ZwTY5toMX0WARHIMQFnBCgpOMdMVZ0I5A2BhFOMGQ1o1qnHNLpNJS+/YV2PPsWKvnOKWUSK3/ifYVJ0uvx6m3X52Va+xcZ+bfL1t6zTxVdHSrqoE6f0Tb8jfRmKeuezLkkv50ZqCUYAw5d2OeMCH68eLVTsFIQSp7CaG9kIxWXm+aenDW2adGEd8XprOneyTlffYonv5x9D4vjDGzQCUEpLH3g0unsr33aLNAWfsJr4/qoXd8ZMxAgocUy6HnS0VyLTKnNfit2r5NFnDMV61hnHp61uLPu0jTN8Kb37IStxxlwm8Uq9U+yR2ccdXqcRkPhtsvXY8c+WGPdJqhqMPuotdR72GffeYJUrLJtal+l8VDuDrDwYAW6o2m5HuCFEH3nSzyOQ2nDeBzxUKL7lO2zlLray+Oomf8fwipvERfMUZ669nhvtYITT1RJnFPo2XXu7lTklmCFT04zJJhxPY66PztfcYkXOGE6J62nxhngY3tcZuF1PONOdxPJUEUY+Kt9lW6vp1dMvK3ntzVrXbOWmG6SMAIyMzhePsLLr73BDD6cPOlDs8kmCVG62oc24aLhVL7l4WOTfO593edq1XrPE4paYOs06n35+qlyNG744ZQQ4g6vTlTda5/OvSNtfsUtWL73nYSv971Op7fRBBEQg1wSUGJxroqpPBNqUQOUWw6xmwfRx2DuNuNHwpjdG8Ch22/XAWgZAtA68x133OdRKnFGAzIl58lmGMmuRiX5YVvrCy7ylyZyQRDprtvXYfLdaBkBaYfcFJb3b/kfGF9f63uX089IMgFoFWnAB3s9ue7nRZ5z3tTHSFPaNqb+pZTufeVGaARCtByOr878uiC5q8HPXo06xkoefyGgANLhxMwokvv2+1tY1C/Seu4w5NDIZALEtkq6nqMvxTuGOSGOPp7HXR/kmG0T25j7SYxHpefMjL0UNAEq7MiVvzh+Rqfi9SO+WW024VOWKy1HSe/t7bLqLlV1zW5pC7lfG/iTdb7jnBttZYsLXsTXpX4sc687nXJ6+MPKty6nnuvWX1bm/ZH2jnEXq0UcREIHGE1BicOOZaQsRyGsC1S48Z+Z5bmSgqLh5BAgLik8qFi0S/Vw06VdDeUaBiErVekOspt9i0UX+c5eTz/J1E+ZRtfrK6etdOFHJW/M9iLQhOerVtDI1vXpYhTNekM6XXGOJz770n8MfQhWYIMjcGO9RQUGoy7udKhfzZqaWt8IHr+DGRmhC6SJJttJ5kmvcePVxaSr7eD21vrdChy+KcfEnn9fadaYFfohSegCi4kJ+4FJBSNWqK7oBrNPPd7RoUz8n3xtnnW66s9bmFcMyhLcwp4C7pr2n3L3HhXkP8OQjTTmexl4flZtuGG+C4TEPksTgziDFkWFZk9EQN1e2crP5hgW9b4kvJ2aooY5Frtek2zGn1rpP1Co9e3atRSwg1Kjs1rszrtNCERCBViDgngtKDG4FztqFCLQWgaLqGivfdXsre/hJS0bi4xPu4U9YzOxj/tbgQ7uLC9UpmvpHWpNnnX2yzT7sQOc6rHbhAtekhf0kXK4AvQEVLp6c3oAuEe8klSRffNkq1l3L11filJaiKdPS6qa95CyggHS6+ua0dTX9l7Bpzz/oZ5klVrjHZrsainKQzjf+2yuN4XvG95KkS1Dd0mrKSn08eHX37hmL5XphyZtzFcRovdNefWJ+7LzrIUGRtD4LpIo0h32qkgwfZp7/L0scd5iVPvS4lY24Ja0EIUAVO2zhl1W58I36ZPY/j3Bx9Xt446vLBVeZMWN1RDiHVS5fpCEh3yMebkLsOvkaQRLffG+lTz7nro2SsKjR74lff7Mup5xjRbNmupwDF9//hjsnMeMW47J8683m1o3h0b2bzfnLbjb78IPTwn2YW4AZkKNS/M77VuHyXppyPI29PnweDCzKK1JNiM7xQB5LJmE/YbDgYpfrEJXyzYb5r8Uff1YrT4IV5QfsZbOO/puRf1Dqem26DL/QdfnN378PDXzsaTfqU/2x+9XkEbl7ADkW1f37+X3GQ4BYiME/89qLrHK1laxk5CvW9TjX2+LC5SQiIAK5J4BvKPeulty3UzWKgAg0ksCMS89yyma6skusL0l+DUm8Cx6P9eyQgOiUpDl77lirisRnE/wyRiOKe+xLXxydKp98/uXU5/ChfO+548n7cIaY534WCae954Y3kTxc4ZIKo5L4vOHjmXHntTb9pstsxtUX2NTRj1n1UnOVkGg9LfI5w0y03d3Y/D5EyhlT5mKj/eg5Q+caSLShOezrOwaUq8qVlnfJtkvVKuaTXd061kcTveMFMchmnXK0T+Ke8/f9rWKzjeJFrDhDqE2tQizIwIaEXCJq0wAAQABJREFUVeLDg5FHvLk3PJvTI+B6wcqc57/0roesmKTouAHgmkLPWbVLekVqXHz975+PsZlnneINAJLYUbRRgIsnfOPLRP8Uh3CYphxPhm3quz5QxCuHrBHdfaongGTc4g/Gp60LX4rfd8tdvkBi4jfpBrgzjul5QZJjnVEWE3pAZlzyfz7uv2bB3jbnkL94wyhWzJJvvx9flPadHsSpLz7s6/rjwVs9WwqQQxSXmbdd5ZOOuQ7Ld9rWJePvEy+i7yIgAjkk4IwAbAFeEhEQgY5CgITFWWefkn44Ll6467Gnpi+LfSMxEo97VIp++dV6rrW59VxlI//qvsNfoqv95+Iv5xoBjMRTucG6aesTbmz6oNiVRAwCCnkP4WpzQ4iKP/sibTu+dDn/ytR+2X88WbfIeXpJrK1LCF8qz6Cs1lU+l8srV1y+VnWMSd9tlwOs58obWmfnSY/OVttc9rV2luMFc1yYTlQq1l07+tV/Lpoxo9ayTAuqlh9cy1hkcrvOZ19qvVbawLrv8VcrdcN2tqh06uQS5o+tNcIOPRD0HvR07eg1aB3rvsXu1vVv/7ROl11bqzlhVKWmHE9jrw92XuEU86iwf36v3njEsAziRgVKies5oAeOEY+iUumMT0YPQuLrWDbnwNoKeEjeZ32Q4o9r/27DOt7n7LVTrcRufrPxXBnmcqiIGTkVLqlZIgIi0FIElBjcUmRVrwi0OYE5++xqlTHPefGb79QaIjDa0OIvnDKfwVuKohF9RbfhczTEp1aCsKuvxM3MyggscW+lVxDmVVY8rzchrW4XblLffv2+f5+atkn0S0WGOOro+pb8PPvYv7tRWXpk3AXKWyeX/9Bz/e3M94C4Urlgn3FnOVrI0LBRqVmq/tChaNn4Z3om5hx2QHzx3O9OmWUm3657HGxdjzjJh6BlLtiEpc777oej3XcXm/rWc240pMPSKikZ+ar13GRn33uQ+GlS2rqMX+b9VppyPI29Pth/XXkBpZFQIBwA5btul9bc4jf/54a8Te8piBoUmRJ8q5fom1YHX8hpiUvx1xlGUooUqognNLt1xa5XIi5VkVG1wjo/2lRzeoJCRXoXARGoRUCJwbWQaIEIdCwCM644p9ZMqcEr31JHSoiLOS9rVEpffMVKXG5AmoFBLPbutUOLots193Olmy02V1IUG+WoqI6Ex7C/6sUXs2kvPFTLEAvreaeXpctf/2H0AhSazBx+ks0899Rao1lFOTAKVKcb7oguatxnF98//fG7/WvaK4/b79+8Z1M/GG0zrjy/tkLreiK6EPMfGYufnREOV+HyVrzBEEtOjzamscfTlOsDpTiuiBOu5EPM5jXGJ1e7uTSiQs5OPCm4YvNhqSJhCNHUAj64EKK4MHdFXBj2tS7hGNOGUQ0FXZhWXIrcoAFx8fuL9nBQQIELcUz6LgJNI+B+S0oMbho6bSUC7YJAdb++NtONQd/lpLOyam/VwAG1ytFNP/Oy+revcvH6QQgxqNhymB8DPyxLvjbGalwMclQqN1o/TUGoGjTAks+NihaxmZecZdUr1J1oWoNnN4PHMlRS01QvYgmj+KcL46QzWVKQklGZEzHDet6r+y9pxEEnP/rESv/zqBsS86la4VaJH3/2ClrlKitEN/WfG8u+VgVZLIhOQJVF8ZwWIbdgzl/28BPSlT34uCVfdkxjeSGlLnna5wY0Yc/VXIvzktIb2rzUXaMhvCeUxVs/6+Sj3ZMy6UO3mBujPmns8TTm+iABGancZH0rvfvhVDPK3NwZRSE3wS0lb6ZyvXVS6/mQdNduTcSAqXH3hWjPTtXgZazEnk3bhjkg4kZ0fDJANqgvEbyojt8fE8HFpXj8p64yZwi4Sd2ClIx9J3yc/14z/6M+iYAINJ0A9nSi6ZtrSxEQgfZAgFFXqrJUhFDg455GuvurnUeVeN34i9FkKl18N8ZGVMp32yH61ecElD71QtqyOXu7WOGIVA0aGPk292Ny7Nu19unbsNZqVu0ShivXXr1FhpKsXnSxWm0pfX5UqieDeGYMm/qEmWmDN5Wx2PEUT337hdSkaNFti777wcdn54J9tN5an5O1b/mZZhGutV2OFxATzozCXtwszEz+9sd/brFpox6tlSsQnegtx81Iqy5tIq55ayqYGdgZAEipG3ErrSdrXhnemnI8jb0+wu7iIW5RA4AyzOZLeFJ1xGBlFKdoyF755ulJ3VXL1/7tdXajiUV7Df1EYhmMIH7/jZUaRsRyic5RYVLCsshMzvQCdDrvimgRfRYBEcgxgXTXXI4rV3UiIAJ5QMB5y6dfca6bCdWF3jQQwkJrK9zsvWW33ZtqeI2bwKv79vvanL/+xarWWtWY8TPhlFY84SWPP2MzLxruho3cM1WeD+UugbGLi4ePKh5pYRZuFJbyrTdP26Ziw/XmhhFF2kgiMLHZ5DfUEI88+XcrdvMIdHKTmdGuqR+9mlZHrr5UL1HbCCh57Fnrue7W3tPKLLvRoRoz7bfrYSf65Mc5B+7tPLNr+1h0JqpifPS4VK+4rF+UC/bxuqPfa/pmOC7nSe6+txsGsqzMypm5OUzcFt0wx59LRr9mXQ88xio3/pPNcaNDVQ92Sqjz8Cbd8nhPQJjMKsdNqF2dM0bi0uXMC2y2S5Clh6DzhSPiq1Pfm3I8Tbk+2GGF60HzI3DFekxYR88RyflIpZtbozTDtebXxXJlKjbZ0BsO0Z4QDNOeG+7gZmx2CeGuF6/U9dIVffWNrzv8QZlnRuKmCEOGMulYVOixLHEzcVf3W9RKn3X7i/RwRMvpswiIQG4IJDPkAOamZtUiAiKQNwSY9IjhHZn1tSGZdfpxVvrE8z5ePZRFmSeRNWtx4/5X7Lh1nTP/lu+0da0RQxgSctbxh8+dQTSyIyZByjQRUo3zdraU+KFIY2Oys6+EG2K1LIthVkO7GL2o08VXh68Z32v6LGg+AdKtzQn7jHuZu7By8NLObe06gaM3fqdMJp8f7QsQFtKaknSJuLzqk4oN161vdc7WZQprIZG+q3tlK409nsZeH7SD4TMxxovH1B7Ws2JjZ0jPkwqXF1Aa8ayH5VZWYuUxpgyNOvOiM2vNwk37ym69J7Vp/MPM805LDeEbX9fQ91mnHWfdXa5Q2rXoNmpwAsCGKtZ6ERCBrAjwGEhohNCsWKmQCLR7ArMPPcCqskiURcmYefX5dY5sky0IPwlYHYXL994l45rZRxxkPgQj49rWW0h4U7nrfahTXHx11ZDV6lyd9QoXEjHjDudhRjF3kiv2de3fH5eb0K29SIXzQsd7mVqq7ZVrrFJvEjchNs2VRh9P7PoI+y93nvtMUklv2jypWH9o+Jj2XrmuyxfI0OtRse3mNvuEI73XP22DTF9cz8Ds449wvQDpoxBlKlrXssqVl7c5Rx5U12q/vCbDiEH1bqCVIiAC2RNwj50Ej565j5/st1NJERCBPCHgPO5RqXFevjrFJdzNuOq82jOwOgW0piR9u3IXLjB1zHM+Vjs+0k+qfkJ63FCLlW6m4ExCQiajg8SFB3sFsfyZxLVjOpN73T7C6lMAqlZf2Zi9Nk3cjMC1pD4etQqnL5hx/uk2++hDauUcMPfAjOsvdiFKu6Vv4L7VRM5HhUvgrGESqkhCZmqDTq6nxE2s9sfjd1nFOmumFvMhF+zTKox9YVZeYvAzSU3XeSExWbAkfCgu0eO3euqo7r+UVa2zeq0J7UJ9hAfNGn6CTb/xslRMflhX73uEP+WKMrWhngqmX3exn8AtrYj7fRCuNf2///bhNtF1gUFTjqep1wf7ZyKvWuJ6rirWn/9brFlowblhVrGC5ZtnNiAoNuuko2zayP+6uT6cAZFppmZ33Va6XgTK+ITpWN1p59+tY5bu+mTmmSfajBsvrT1CFBOZuaFFpz7pwhJjAwrE91Ff/VonAiJQNwGv/49+Y5zrEDB76ZkH7aijjqq7tNaIgAgUJgHXZ5j49gdLujCYmpluKEunXFS5YROrnTJsMaUr14AYOpPx8xPffOe8l12seuGFjJGImMG0tcS3wSWxFn3/o1U57yUjujRK5pRb8vMvjXjqoq4u8XpRdwxudBRmgG1QWpA98zZwTot++cVqune3qiX7GWFjrS3EoRd/8rmRvGrO217lcj/iieat3iZ3rsk9Kaqo8AZrmLU6m3Y0+niac31k06CmlnEj9SS+/i41C7S/Pphtu44Rf5q6m7Ad+0q6EYJqFuhlFauuVCtcMJTTuwiIQPMJjBgxwjbZajcrkhHQfJiqQQREQAREQAREQAREQATaA4FgBCgxuD2cLbVRBERABERABERABERABHJEgMTg5Lx8tBxVqWpEQAREQAREQAREQAREQATymQD6fyKfG6i2iYAIiIAIiIAIiIAIiIAI5J6AjIDcM1WNIiACIiACIiACIiACIpDXBGQE5PXpUeNEQAREQAREQAREQAREIPcElBice6aqUQREQAREQAREQAREQATyloASg/P21KhhIiACIiACIiACIiACItAyBJQY3DJcVasIiIAIiIAIiIAIiIAI5DUB5QTk9elR40RABERABERABERABEQg9wRkBOSeqWoUAREQAREQAREQAREQgbwmoMTgvD49apwIiIAIiIAIiIAIiIAI5JaAEoNzy1O1iYAIiIAIiIAIiIAIiEDeE1BicN6fIjVQBERABERABERABERABHJPQDkBuWeqGkVABERABERABERABEQgrwnICMjr06PGiYAIiIAIiIAIiIAIiEDuCbjE4Jrc16oaRUAEREAEREAEREAEREAE8pIA+n+yiMwAiQiIgAiIgAiIgAiIgAiIQEEQQP9XOFBBnGodpAiIgAiIgAiIgAiIgAjMJyAjYD4LfRIBERABERABERABERCBgiAgI6AgTrMOUgREQAREQAREQAREQATmE0iaEoPn09AnERABERABERABERABEejoBEgMNiUGd/TTrOMTAREQAREQAREQAREQgfkElBg8n4U+iYAIiIAIiIAIiIAIiEChEFBOQKGcaR2nCIiACIiACIiACIiACMwjICNAl4IIiIAIiIAIiIAIiIAIFBiBpJlmDC6wc67DFYHCI1BVZd3+frxZZWXq2OccvK9VbDA09V0fRCDfCJQ+9rSVPvxUqlk1C/a2GZeelfreVh86n3WJFU/4OrX7io3/ZHP23zP1XR9EQATaAwESg00zBreHU6U2ikBTCZTe85CVvPJm5s0TCavp2sWqBi1tVauvbJVrrZa5XHtfWlllJf+dr0xxOBUbrmsmIyAvz2zRtD+sy8lnOx9VHU6q0qRVL7ywVa20rDPk1rWaBXrn5XE0t1HF74+3kieeS1VT02cBszwwAkpfGG2J8Z/Nb1e3rjICUjT0QQTaC4EijACJCIhARyZQ8uoYK/3PY1kdYvWqK9qMq86zyhWXy6q8CjWPQOK7H6z4m++tYr21m1dRpq3Ly61kzDtWucKyhge5PUnR5N+t9IFHs2pyUedONuvQA2zWaf/IqrwKiYAIiIAIzCWgnABdCSIgAikCifc/sm67H2wop5KWIZAc97F1OfMC67n+ttZztY2tyz/PyN2OKiqs7Pb7rdtfDrfeg9axbjvv73qBXs9d/XlYU82s2dbp8uut89mX5mHr1CQREAERyF8CMgLy99yoZSLQYgSqV3Te4d49M9ZfNOlXK7v/kYzrtLD5BEr/fb+VXXObJT79ovmVxWoomurCaI4/w0qeftFsxszY2vb9tabPgla9zACz4syPrU433G7mej8kIiACIiAC2RFwd1NiLuuIu8yuDpUSARFoRwSqF1nIpo5+zKZ8PtamjXnWKjffqFbrk29/UGuZFohAWxKYdcoxNvXNZ2zKl/+z6XdcbebyWdJkdrklP54fp562Tl9EQAREQARiBJQYHAOiryJQWASqBva32Uf+1bo9PzrtwGtcnLUXl5hZdtt9blSditT6SjcSCIZEyXOjrGTUay5Bs4/NOsONvBPEjcBT+vQLRlJjcvynVpNMWtWyy1ilyzeo2HZzNxZB7cEICD8qefkNS3zxlY+RJya8erFFrGrppaxim82savnBofZa70V/TLeS50dZ8acTrPjzL6xoyjSXKNrLqvstZuU7bWOVq61ca5uwoGjqNCt55iUreX2MJb6f5BKkB1jlsPWtfMuNQ5Gs30vGvO088C+4UKqfrOi3yT7humbRhd3+V7LyHbay5NvvW+LzCZZ878O0Oosm/WJlN/7bL6tZsp+Vb7XJ3PXzYvqL3/nAir/93hIud8CSxVY1YEmrXGl5K99te7OSEl+WRNrS+x6xhDv2uJQ+9ZIVTfrNLy7feVtfRzxHpHyvna2mR/fUpiWjX0/rqUhr17xSDR2vr88dQ+nI1yz56htWsc5aVrGZMzg7laX205QPNS4JleuoauhaVvz62LQqasrm1d0a120jzk9aI+d9SXJe//eeu2bddfvVN+5cumRn19tRueZqVr779v76ybQdy5Juu5KRr/r3mu7dXd7HYJtzwF51J0g34TdJUnbpsyOt2F23yXHjze9njZX9b6qudmm5CIhAeyKgxOD2dLbUVhFoEQLFY9+pVW/FekPmLiuvsC4nDk9bj0e27NZ7LPHzL3559eKLpYyAYueJ7XbkyUZuQVRKnnrBf61af4hNH3GBVS+5eGp1l1POsbKb7kx9j3/ofNEIm3PYATZz+EnxVVb63yet82nnp9oSL0CPxrTH744v9t8TP/1iPbbeyxKffZlanxz1qm9L8sC9bebFw1PL6/uAwdJ9z0Os+N1xGYuVuqXVAwdYp5vvsqRTquLiQ3hOPdcvrhq6hjcCEl9OtB7b7OmMiSnx4n40B1TdziNuthk3XGKVK69gxRO/sS7z6ohvUPLwE8YLqV7u/9k7CzgpjiyM1y6LE0LcE+Lu7oS4ey56cQ9xV+KuxN0uycUv7kLc3d1dSILDcv0veENNb/dMz+ws7Mx8j9/SPd2lX1dXPa2e0zPh8bSjl14sEtIWyGXtfO0truO9D+d+j152iZxwkrW/I6M83fc/Ohfg2/mS69zISCj758pzc+WWe9IwZKhrfO+DvOwIpqNxF4LaeNyW+nzGNmrs/7jbdT/61NwzCe9x3unmOyO3p95u5ApLx2/5310uvdZ1jfKHxM5Xna/6jxt8yxXReJg3vOXKeScRKnvseUiL8drxrvtdl8tvcA1/tByXeZXqhxAQAlWBQGNVtFKNFAJCoGIINP4z2Gv42Dq0xw79XNezL8krm61CC+353fXU8xOZ7g4ffuJ6rrZJCwEgLLzDcy+7SbbcNW+//g5ffBUmaXk+utl1vvDqaL/0sYysJSAQtPsuBya2xdIUOnY55+I8ASBM2/mam6OddV4LL6We94wCqdMEgNRMRW40RkxYkgAQZkN46b7noXlYhvfb6jxzf4cNd51uvzevGR3vfchhuSmHmt5613WKrDZdTzrH9Vx1E4fwlKPIujTkjOMiFXn6hneVHLflPp/GH36KAsLXSRUAcv1JOWn49fcWAoAlRSjvetzp9tMfy3onm5tdz43+3UIAsIIbIquUi+YQkRAQAtWPQFNLw3z1d0o9EAJCoAACUcBo9232SEww7NB+btheOxZkphIzRoxD9wOOcm74eLch3H5GrdEnuhb5akfuJbbnO8xrl0jzP2zPqJ6Axkw1pRu1/JKRu8ss3j2i4+MDnQsYxm6nnOdGbLKez9H0yhuuS6QJb0GdOkZWhhm9S1DDr2NdYFqkiV+I8qA5jlOnG26LXFgWj1/O+90hcl+KWz28Nn/1VVzjH3842tnhpTd8nuZJeji2s2Q3mzhxHRrTo0f+rQhDr6XHHapHN+9+1fjOh7k0jZHg1emuB9zoheYbWzYfQxsZ/YUUldFgLjjUk7b3fpgn5byU/uL2Q7s6BO5PYyIXrzHWlpQ60i53uv5Wx1+cRi+2kBt64uFFn1U8n//d2nGb8fmM2HwDX133/Y+KtOiDWjSFoOcxk07iGmGwE8ZiiwzEQ7B4RwJySE241EVuY97SVmbf2Jq18e33w2L9efP007qGIUP8u9Xipi4IASFQdQgwhTSNUVBw1T04NVgItBUCne64142ea9bI7zfyHS9AzdHHxYbut5triBh8XANw9+nwylt5OQZfHTHt66/lr6G173L+5bn7nf73UE4IGLXoQm7E6n3c8G02y/MXR4vcfY+Dc3kavvrWucgNxHXr6rodG7lDRExOSCOiL5YO6X9o5Ls8lpHmA2kd3s53SwrTI6QMvuj0SLBY13Ua+KLrjoUiKLPDV9/kJU/6ETK4dh+3pfCja/h8j55xejdy2bMc+tNuh/SP4ixutuQOLAe98GDuNyfN0c5NMI7D99k5/5sNkbK715KruwZ8yMcR7h6k/f2btxya4l7zRB9BC2jwFWfnPc+OCe5fQfKCp6X0l4KGnnKU6xIJb8RBjF5ofjf0oD1zcQwFKyrhJsHAna+6yY2aY7ai30Oo1Lgt9fnQHe/D//gzeT2DsR4y4FQ3cuXl/HXccLpcfI0bHbnYpdGo6CN3fDUYoaH7vkf6mJYwbYevv/VCQLnvZLezLw6L87sxDY5cuPy7HL3vPfY+rMWH9/Iz6JcQEALVgAD8f7rttBp6oDYKASFQUQTwdfYuNl9/74btGzHFSRRpIfGz918vHXe/6ynnt0g5plcv1zFy//HUCc/48dT46ee5H0MP6+fPfaDkm+9F/u1fusYvv/VBxblEnEQabBhzvm7cIaapJNYAxiikkdHXgPlLo9FLRQGYW2zob4/ou4LrOs8ceV9BxXWjGCV9hKtntDf/8IgpH7HZBv4jYLS3VGruPbMbfMmZDv97fPM7RNYT+t4hwqUh9g0HH1RaagVlpi+1vyOXWsyNvPv6MmvLlg3LCjEPPV94xf018J5o69teyRkrOG7LeT5Nr+cLyTRyyMVn5Pn+E0w99PB9k9s/7uqwSPhujoLDoeFbbdJCCGj4/kd/r+ntD/wx/K/YO0msRShgknf04pGQPk6Yd507uaGH7iMhIARV50KgihGIhAAMAiIhIATqBoGI0fj73hu91rvD6+843G4scNcw6Hra+V5D3hy56MQJ94tQAOB+h48/jSfzH6pqcXHcBXbwQesJ09Ppsad9UGvD51+lJc9db4hcmZoI5A3djqK7wyJmqFQasUbfvCyjIoa10/sf566NibvV5O6MPxm1+ML+ewuhiwdMqbmuNEe7Ig05+Ug3MtpxqBSCGet2+AljfeqLuIc0TED/7LbqbxZsYH5HRlYbrB0dowBu3KAavv0hlxWhrVsULxAXBi1BJcctsQelPp8OgRsXbRoz0wx5AoC1s+AxsoKNjAReI8ZsnBpwCYuonHcyKT5n5ApjrRRWz+i5ZvcB5riiiYSAEKhmBBpcYzU3X20XAkKgdASaI7/wUfPP43eVIQD4n+svcmjS8yhiPJtSAmOTGNrG78YzY3nlFPoRMdm47BCfkCgAdBnrJx8vIvFrxlNMFk9W9Le5DVnCMd272mnmI0LM4CvOdWN69UzMwwfB+AJzx/seSbyfdrHH1ru7Tjfd2dI/PHJhmpjUVv3N0idiPRi3uM4MOe5QN/jiM1tkYzylUSXHbTnPJz5um6ecPK2pqdfHREJAXvAzv1OonHeycZwVISxy9HxzhD/HnkdfphYJASFQ/QgoMLj6n6F6IARajcDw9dd03cx1Z1xpSQwBt/guQJzYJjS+Q47fxz6e0H5Hrhl8i6AL/sdBcGPz7L3d0P13dyNXXSlSZXZwveZu6c5DXXFi/323ep/45QnyG+Zy0EuP+GDnzrfcmaed9g2I3Ji6RTsqDVpvjeT2BHEIJOj4/CvRvvov5aUdvtPWbsTWm7hR88wVbS95iusUbeGZmZrH5CdNECS8Rj3YIpQ4hjRqdX/TCi7x+sjlloxiAHrl7aLU8P1PqaVUatw2RYJdOc/HvyNBkHQju2LBTI/71kNqw8u8Uc472TzVFC1qa4q2vg1jhBAucBsUCQEhUN0IoFJSYHB1P0O1Xgi0HoHIfaXzXfe1KKd5mqlbXEu7gN97tMdOHg3ffXs3KtputBB1eDffb3nowXv7IFfysO95Eo3Cxz76sFK4C06XC6/y/tEt/MGjbSpb+3GqpDbEr+Erjy838Q0dX3wtcm860eXt4kMMBG4aCVtYNkZ7/OPSw0ewoMb3xu/+w+8xvWcau/0lP0aPbuG6xeVC1OHdqLxxuyqRrjnBZ54PtfkPuUX3YfCKuXqU0l/6xi5Jo3AjmzTZYlKo/Wn32C40vo3qmGmnSkueeL2ccRv/pkXW5zN6vrldx/sfzbUDlzjG7bAD9shd8ydR8C2+962lcvrW8OegFtV2fPxZ544ff7njg4+P/6EzISAEqhYBBQZX7aNTw4VA+Qg0DhoUMR9XRtxgtDNAtFNMp2j7zhbbVnZojL7uGmnjM9LoyDc+Tt33O9IN22Er7w8/JtIwdvjyGx/A2emJZ9ygp+/xyRsjhifUU3d6+Inoi6kLu46RJjzcTSiv7CjIeFS0dWeojeUDTD1XXN/5oEm2MoxiBzrfeo9rGDnC/fW/9A+R5ZVbxg//sbLoOwtD997Zf9kYd5mR0ReCR88+W54QMGbyyPVjnAAwZoqYG0hkCWHHoFFLLhbtbNQ92nEpElwCItCTnWVgvDtfcm309d9fg7v5p+wY46JnF1pX2PKRLyizGxJbrCbtPNM5+towXyMe07On63zb//ILDX6V2l8Y5m7HnxEFbUSMbbQV69Aj9/dfqA6KzHzKV6Eb/v7bNUZfWO746ED/9eV45hFrrBK/VPB3OeO23OfDrj7uzAvz2tP15HOjL11/Gglgq40NfH//k0j4vdENvu4iH1Sel7jEH+X0bUyvSf2XusOgeATCHjvv50ZEX2nGOtj1tAEltkTJhYAQaK8IROo0DAIiISAE6gaBiCHr2n+8P3XIhBsGw3f/d8Q4Rn72aCUz0Ii1+rrOkVtM01PP5VI3RkG23Q4NVIh2Z9wWnvwkyDDcZ7/j3Q+6SaO/YjTkrONdzz4bjGUuxyVu/PFnx9eHQ+JLt21KQ4e7xg8+cd2jryRDxAY0/PVPJGA151U7Koi5GD3bLHn3+NHptnv8H98YGLZPbFemKD6DuIJMFLmWEHDaEAlcRuBiz3t09HXh5ogZbY7278/bCx6h6bLrLUv6sZT+Rq4ufNvBCwCUGPWjy3mXuWG7/rssTXfHSPPPXxrhGjQssj6VQuWM2+ZoK9I8yvh8+IIyLl0+1iMogK1w4x9Vi4+fIHnm03L6RuHDDtwrEkqPy6unY7SlL38iISAEagkBBQbX0tNUX4RA6xGItMgjdtgy2m//sJLLGnxmfzdmxpb++oUKGrbjVqm32UM9jUbPMasbfNYJkatPcvBwWr62vo6LR5yB83vBRxpwo5FRbEDztOmuViOiwNcxCYKC5feuULkfLU+G7bxNy4uxK0MO3DN2ZfxP/0Gz6DsFWahgf6O4j+bu3fKKwfLTELk0VZpwyfnnxktd8ywzllx0qeO2Nc9nyElHutFLLFJyG8vNUGrfqGf4dps5dlJKpXb2zqW2UzeEgBAoikAjdgDZAoripARCoHoR6BQZ/AoQX+odveTCbsS/t3B/PXt/xFxH2vuIgfPEDIF7SUh8YTeB2Lt80PMPuuF77+hcjPmz5DC3Q6MPYBkN33ZzN4zvBHQOyozcVpoXnMf9jRsPvv8hBXWP2HJjNyjaF37UKiu0TEeeyOIwcoVlxubO0I8xHfP9sBvidYftGHdOf5oXnt9/rbfF7QiDEdHWpX9H31RoDph6dngZHO3IxPahcRrTJdrtJQqY/psdm6Jy8yjqD190HnrIPnmXcbMJadgu20YfGdup5XMjIHjc13oRRIZccIr/8FqYF2b67/9eGWG6YnjZjRn3nYeS+hsFdqNVzj3bqJ1DDtrL+R1u8kpP+FEsWLZLJ/+RtVGRy9qQSBj8M/rY2qglFx1fUIbnbYlLHreteD64i/31wM1uyGnHON67JOK5j46+rOwphsOY+G/e09j7GaYpuW9UGrmt8R2Q4QiTsXdgTCRk/XP7VW505PKWR7ExmHdPP4SAEGiXCEQrgmt4+oW3vTfAEw/d4fr1G/vRnnbZWjVKCAiBqkIA/2HiAAhmHdOzR7Sr0FTe3zipE3wzgF1XSDsqchHyrkhJCdOuRa4nHaLvDDT+8pv3rWb7xdGzRm4345jetGwVux65/zR+/a3rELne4EKFpn90tKUlDH0qRX1tjPDpEPn4NwwZ4tiZhS0w2RXJE2VGXwbmPtuXjlpg3vHCWWqh4280DPrLscsP3xyAsRsVWU/GxHd2GjHCNZEmsmCMjhi85ujLxpmohP76Z/v+R27UvHNVNDA4UzvLSJR53Lby+dC0ht/+GPvdC96RaKxgNWo2AaCMthfLkrlvVhDjI4oJaBg81OHG1jxNaYHXVoyOQkAItC8EBgwY4PqutamEgPb1WNQaISAEhIAQEAJCQAgIASHQdgiYEBDZ2jEIiISAEBACQkAICAEhIASEgBCoDwQUGFwfz1m9FAJCQAgIASEgBISAEBACAQL6YnAAhk6FgBAQAkJACAgBISAEhECtI4AfkL4YXOtPWf0TAkJACAgBISAEhIAQEAIBAnwxOLb3X3BXp0JACAgBISAEhIAQEAJCQAjUJAIKDK7Jx6pOCQEhIASEgBAQAkJACAiBNAQanGIC0rDRdSEgBISAEBACQkAICAEhUIMIEBMgd6AafLDqkhAQAkJACAgBISAEhIAQKISAAoMLoaN7QkAICAEhIASEgBAQAkKgxhBQYHCNPVB1RwgIASEgBISAEBACQkAIZEFA7kBZUFIaISAEhIAQEAJCQAgIASFQQwhEgcGEBoiEgBAQAkJACAgBISAEhIAQqAcE4P9lCaiHJ60+CgEhIASEgBAQAkJACAiBAAEFBgdg6FQICAEhIASEgBAQAkJACNQ6AgoMrvUnrP4JASEgBISAEBACQkAICIEEBOQOlACKLgkBISAEhIAQEAJCQAgIgVpGQIHBtfx01TchIASEgBAQAkJACAgBIRBDQIHBMUD0UwgIASEgBISAEBACQkAI1AMCjQQG8E8kBISAEJgQCAwdOtSNGDEic1XDhw9377zzjnvjjTfcqFGjMuebmAlL7ePEbOuEqnvYsGGOZylqiUB7HC/V/ryqvf0tR4muCIHKIgDv31TZIlWaEKgfBP766y/3wQcf5Drc0NDgpppqKjfTTDO5pia9WjlgghMwm2222dxSSy3lHnjggeBO8umTTz7p9txzT/frr7/6BAMHDnTzzTdfcuJ2crWUPt53333u/PPPd8cff7xbbrnlKtqDn3/+2b355pvus88+8+NyiSWWcL17925Rx6BBg9yzzz7rvvvuO9e5c2e3wAILuMUXX7xFOi4giH344Yfujz/+cDPPPLNbfvnl3WSTTZaYNn6R9HPOOad77rnn4rfq+ncp42VCAlXtz6va2z8hn7Xqql8ExKnU77NXz1uJwKuvvuq22GKLFqV06tTJbb/99u7www93k046aYv7upANAZjTXXfd1Q0ZMsTjOe2007opp5wyW+YqSYUgBGP96KOPVlQIuPDCC91pp53m0IYadejQwe23337uyCOPtEvu8ccf99iG6bjZp08fd/3117tu3brl0m600UZeWMhdiE569uzpzjvvPLfBBhuElxPPx4yJ9E7Rn6jyCCAkV/rdqPbnVe3tr/woUYlCoCUCCgxuiYmuCIGSEFhkkUXcuuuu6xmur776yt1///3uiiuucJ988om77bbbHBYCUekIvPLKK+7PP/9066yzjjv77LNLL6AKchxzzDFem874qRTB/PTv39+h+d97773dHHPM4QWN4447zp1zzjlu4YUX9uOV+rAWLLroom733Xd3M8wwg3vhhRfctdde65566il30kknuVNOOSXXLBjNww47zK288sreEoAA85///MfXgWUHIU004RHgeSAo876IhIAQEAJZESAwuCn6EwkBIdAKBBACDjjggFwJ3377rVtllVU8I4XrwworrJC7p5PsCPz0008+8ZJLLpk9U5WlnG666dw222xT0VYjdO67777u6KOPdo2NY3eBnnfeeV3Hjh29axVCqgkdm266qdtqq61y9SMQ4M624447+vGbuxGdPPHEEw4rl9Gaa67pXnvtNe8e9NJLL7kNN9zQbuk4ARH4+OOP3YwzzjgBa1RVQkAI1AQCEf/fJPNsTTxKdaIdIcCCvPnmm7vLL7/cvfvuuzkh4Mcff/RM0zfffON69erlYG5nn332Fi3/4osv3Msvv+y14HPPPbfX3IZ+1yNHjnRPP/20+/zzz305Cy64oJtrrrkcvsVYH6aZZho3yyyz5JWLlrBr167e3zu8QT3du3d3888/f+4yriEE4hLv0Nzc7H3w0R7jLx4SZXbp0sVR/9dff+1dRZZeeum8PtH/t99+22dDWzz11FOHRSSeE/z7+uuvu08//dTf//777z0ek0wyiYOZNaLO9957z2F9gXGlHfgBh4SGlDZQb9wfnnIR2MDY3LbCPnH/+eefd4MHD/Za9RCjsI5y+mj5f/jhB8d44PkxJqBy2mDl2fHYY4+109xxscUW8+fgZhQy9XYNARYyAcKup6UlRiCe1vIUOzJmyQ/ZGCun/8XGLDEMrXk3wueEixQuXG+99ZZnvtHE8w5lpazjhXcPLIjp+Pvvv92ss87q3bTsOfB+/P7772706NGOwGLeZQjLz+STT+7Pi5XhE2X4D/x4F8CBmBGsTGHcU4gPWCAw8u5tvPHGudLpAy6UCC28r8x/xFDFKes8ST4sWcwvYMS7zxhn/osT7UMh888//3jLF2MtibK0MW3+xd1OJASqCQH4f8UEVNMTU1urBgHzpWZxhk488UR38cUXOxYQIxYNAkL32GMPf4kX8ogjjnBXX321Z74tHQsWvtsQDASaY4I4Q7rxxhvdFFNM4V1nYEruuOOO3G0W3bXXXtvBRMMI2eL9/vvv+/S42+D/DbFQ4jf+5Zdf+t/2HwGdl156qWfU7Br5uL7ZZpu5U0891ft70x9cUGDu+vXr512jLD1HrhWj3377zbfL0uFaxR+Mx0MPPeSZixNOOMFdddVVeT7mMKL77LOPxxCtN/TRRx/5ssCMANyQrrvuOu9mhPvLeuut529Zn0iP+4wR2nWezYEHHmiXWtVHK4Tndvrpp/u+mCa9lDZYOVmOv/zyi09WzG2HIGEoLTjY34z+Q1h78cUXvbsbFoRSCSYRYRlrAvhfeeWVvohS+59lzMIwU26574Y9p5NPPtm/nzCdRgS633nnnUW18aW8E7QXCw0KgZAQWP/3v/95/3/G58MPP+xvwzjTP2jAgAE+b5YyfIYi/916663+vUKgMFpmmWU8DibUGz7EofCewXQjDJgQgNKCec7GIOUwH11wwQVu/fXXt2IzzZMkZuxRz1lnnZU3p3KPfptAze9LLrnE4XYXEpayuKCcpY2F5t+11lorrELnQqAqEGjEG0geQVXxrNTIKkEARp9AT8gYKdwl2EkFBv+RRx5x+++/v9eeIhyY2ws7xcAIodG+9957/WIPQ85vIxZSNNQwACxaLIQsoix61EVwIIyZCR/ke/DBB312tFwwXEb4fUO2eCEswNCjmca9CZ9v2rH11lt74YEgaBiZkNDCn3vuub4/MEgLLbSQv20CAG265ZZbvBBDn2FQihF9QWCiXmiTTTbxvw899FD/+6CDDvI4wRDByCMgkR6tIkwFQbGtIXA444wz/B/PBGYMAQNmPWTKWtPHYu3L2oZi5YT3EeKgvn37hpe9xYn60PSeeeaZbq+99vKaWtyJ4gTzi+aVccFYQSMOg1WqOwrvCMHzjMfVVlvNW81MOKXOrP0nXZYx29p3w3A46qijPDb0n/gKBAAscoyNYlTKeIGJRhimPupCUMXtEKHW4mMQthn3CKi895zzZ7tMZSmjWJt53ry3/D322GM+xgmlBHMMGx/EiTgShEzaaMoN2szcwZwETsxHu+yyi2fk2fmLdhplmSdJy7yJ4oF+874z3xIHg7Ux1MgzPkiHcMK7jHDPfeYh2mWUtY2F5l8rS0chUC0IwPtHlgCJANXywNTO9osAWjJMzSwmMJC4qcAQozGDWBRhWo0wW2O+h/GCqVp99dW9qZz7O++8s1t22WV9UgQHI9xScJ2A4TKNOi4qLGxGlHPzzTf7cldddVV/Ge05rkAswpjpcdmBEAJgIMgDwXDAnLFgskgb0Rb6BzN/0UUXeY243WPfd4JFDznkELvkXXnwO+/du7e75557cm5EMA8w0zBPhQi3I5gG2nLTTTd54cZ2YcKdgGBrMECYMosLZcPowQCxWw3tR9NYLtGfnXbayWfnGSJ4IXQ988wz3i0Dd6XW9DFLu4q1IUsZlgbmHiaIMQnTHBKMY/hMYOKwssRdNdC+2tix/OzehNBQCjGWYGDZ/nXFFVf0DK65uITlZOl/KWO2Ne+GtQsBlTFJe3kv5plnHq+Bpy+FqNTxgssN80O44w8ugViLeAcgY/ZRFDDW7R2xdmQpw9KmHXE1QmPO8zJCKcE2vQgnCMW4KYWEpcLeS64jJFIO8wRzG2RxPig9EHCwskFZ5kkYewRangUKALNGYI3CEhgnxraNed5lrKjMfcy9NidnaSPWg2Lzb7xu/RYC7RuBBtfoZQDJAe37Oal17RoBFjEWIrSCuN3AEMBswUgZc2OLDZpzGHHu4Q4BmSUAphlCs84uLXHCvA5jhh87bjdxrTzpCdaEWOQgzO9oW9G4wVAYs8LHuqiDhZMycUVCuwejscMOO/i84X/sHgPBzMTJhAi7bu4kMOLxOIJ//etflqysIws3hEYuZDS4RnwFbUFYCrV83CuFEIzYDjMkY7jAHmrLPlJ+ljaQrhjhKw8DhwaWuAN287ExaXnXWGMNr1nF+sP4ZczgnoOVJSQ0qOwWhIWAZ4tfN25ajDl8xrMSW5TiPoNAQXuIK4lTlv6XOmbLfTfCtoFLiB/aedrPO4yQlEaljhfeQ95X5gjeOfBCCIVw/clClSgDtzoEvZBoF/MG+MffMwSj8L1E4LN3ljzEGtkf4wcKXauyzJPMnwgVzGkmAITtC895NgS/h2SKFbNAZG1jlvk3rEfnQqDdIxDx/goMbvdPSQ1s7whMP/30PrAW5gCtGFppNHZhsCQLIe4sFgQZ9olFCEKjj48vZndcfNC4wcCZFos0uLvstttu3pyNFg2mGuaN7R0hgjphvFkoMZmjLad8ysPNh1gBtt3EtxXLgDFGaMf4TZ2hW4YvNPrPApjjsQIE1JoLkKU1lxlb0O06x7h2ObyX5Rx/XwgNbBIRFAnRTmIIyiGeYdy9xYKCsU5AbdlHys/SBtIVIgROdvnB0sRuQFhxevTo0SILOIVYESsCs4t2lvFkwdYw5ow9IwQCXLNuuOEGP9ZCa4KliR/R4vLHO4NlKWQYw7RZ+l/qmC333QjbheUiJN55hCswZmwkvTukL3W8IMhiUUTjDcMbEsx3FqpEGTynUOixeldaaSWvXMBCFhLXQ0Jotm9QMKaSyJhx7mWZJ4lrgphnixHvMeM2JNtcwN7lUtpYbP4N69G5EGjvCDCXRO5AIiEgBFqDAJpUAtTSiB0++JgS5muYKNLDrN51111eo2/5WGxx5UEIuOyyy7zmD4032nsYOAhNN24CaGBhvrBCwNjjdgMDj7YKTRdCAIsrfv0shNwjL640fHUXpgUyIcAWSlsY/c3gP9NyxplIduIIhR2y2KJvZQbFeJep8Hep51ZmWjuxcEDgEJK1qdg17icxchOyj1nbEPYlfo52FcEPDT0+0XFtbjx9+BtXD7Sn11xzjWf0TAgI03AOJrjjMA5N2xtPE//N+EFIhXlkLJrLVTxdlmdQbCzEx2y570bYtiztCtPbuY0/a7Nd54gbYZyIl3gqsuZhgeJZ4D7Yu3fvFrt7xfOFvytRhgXYh+VyblbMuFCP0BCS+eczT1hMT3ifc9vNJ+s8aVjGy0n6HX9vSRO/Vkobi82/SW3QNSHQnhGIPhYmEgJCoC0RwBcbwic2ZMbMvB/WDZPAQsMfbjxo+v/73//6XWlMG8/Ci0sFO9UQnMfOHAS6sSUpRKAvQgA+69Sx3Xbb+etoQlkAESqwBGA9wG8YYvFGK4uWlgDiuD+9CQ2mafeZUv6z7UmJi+jTp09eKq61htiNCAIbMIoTrgaQpeOLtpBtn+h/jPsPYatcass+ltsmy4fmeNttt/UCAGPDYkPsfpajMbt2TMtjTGKxdJafcUYMApYy3gfcNSwA3NJkPZYzZst5N7K2p1C6UsYLX8om9oT3HAHfMIZJRrsffzepN24dKKeMpPajJUfgtjZYGotLQDApRHwHA6EPxp0A+ySrguXPOk9ieYEsqNzyl3sspY3UUWz+LbcdyicEJjQC8P+NE7pS1ScE6g0Bc2GxvejpP4srGvmQcBkITf8EuhrjD2POYoyLhxEMFNpeiPtGpt0nyI7F17YOxEeYMgkUZo9zLBJGCB/8hslgh4+QqSD413Y/sW0sLV/S0YJHcWUIfcVxN8LFoTUEQ4vmDksJu7KEBFNPnAOuO8RnQAg6CD64QoW+xwgLcX/msKxi523Zx2J1F7uPCxguEwh/xQQAMDN3NCsXn/O7777b48Z4gfhmBGM2TmahYleWrIQfPdYDGEt2nbn99tuzZs1LV86YLefdyKu0zB+ljBfeceYBLBehcIVAl0R8E4Dxbdp50pRaRlK5XGP+iO+2hXIBBhxBG6tRIeLdwzKJUBLfopd8bO/K/AJlnSfZ3Ypy2fozfKcpA1fHcO7iWjHK2sas82+x+nRfCLQnBKIvBssW0J4eiNpSewjAIOHrz7aexASgycOfH61YaNpmscWtAkab4DsCAlls2a0FjT1bBrK7BXtvw0jxoSACBqFQKw7ji58+2ntckGynIdKxHSPuIZAxRP5H9B8xBFgQCFqmndzHvYY68BOnjjS/XiuDIxYH6oQhZ8GGGYXhw6IBM9Aawp+XgECwomyCmHFXoX3GWOKaxcIOISiBJ65XpMeygvsBAgr3QvxLaVdb9rGUdiSlhWGHwN92Y4mnYxcV200FPHi2aNb5kBjMJszUwQcf7K9ZWeygwtiD8YPRwqKEywqa0aTtIuN1hr/xHUeQo33EvaAtNoE2TFfsvNQxW+67Uawdxe6XMl5grnlvv4ziWrbcckv/PmEFQLhLIt5pAqxxrUIA5jfzQyllJJVr14j94P1CkEFw5psiCGDsGmSuNJY26WjbGaNIQPnAs0dgIVia8YP1keefdZ7EtZFxg0sk7zRuT70jiwRCBDhgbYy7LSa1K7yWpY0IAVnm37BcnQuBdo1A9B4rMLhdPyE1rj0jwEIIGcOZ1lb8+tGusnUegWUsnDA8LNTsbW0LKQs4mtkwvoBFh4BLNIJs8wnjRjl8wAdioSeAM+5bjVYfIYBjqE00IQDXn3iQI2ZxFmXcjLBSoKWD0EjCEBIEGhL9T+s7izHbmBKTABNBH9Eq42eOgGDYheXFzy1NvA4WbBh/yjUtJWkJFGRnJZiEkPh+ATvewHTwnQaELz5SBfMLtlYPeTiP12fXOYb3KtFHK6/cNtCmONmuUQgDJhDE0/DtBcYS20piGWJbVSPGAeMydNMBU/zTGXsE9EK0nVgXhINiu7SQPo4t7wCWIcYWsTKMacZkPB15IcPIMONaqWOWPOW8G1antYFyjOyaHe16/Jh1vPCeI4gzlhG02AaTsYpwBvNrbbHyEYR5zswd/CGk8Y6VUoaVFR7pD8H9zC18nA9BGkIpwXsDjkbWpiQMmNewHjAfMNb4g5hXEACNYc86T5KXd793xPgjWOBeBjEX9unTJ+e6RFusXT7BuP+sjeG9LG1EYZB1/g3r07kQaK8IoMxpePqFt/1WA088dEdu7/H22mC1SwhUMwK4XaClwsUnbVcU+kdAL1sOEtCLRSBOaOfR1FMG2+yhRas04bqDexILNQy3LZyl1kPQIyZ7+myLfallFErPDjFYRHD/oa2F6Ndff/V7hONTDKNVKWrrPlaqnYXKAUfGHOMJzX4a2dhDkGIHn7YYe2l1F7teqTFbrJ7W3i9lvPz888/e1c/cAgvVjbsW1q34nFFKGWnl457EnINLIRajcol3FQsHQiPCRKigsDKzzpOkh4nBFQo3RnYMK3eesro5FmujvQNtOf+G7dG5EGgLBIgj7LvWpq5h4Dgh4HEJAW2Bs8oUAkJACAgBISAEhIAQEALtBgGEgFUjIWCs42y7aZYaIgSEgBAQAkJACAgBISAEhEBbI6DA4LZGWOULASEgBISAEBACQkAICIH2hEAUN6PA4Pb0QNQWISAEhIAQEAJCQAgIASHQxggQU6OPhbUxyCpeCAgBISAEhIAQEAJCQAi0JwTY31AxAe3piagtQkAICAEhIASEgBAQAkJgAiAgIWACgKwqhIAQEAJCQAgIASEgBIRAe0JAgcHt6WmoLUJACAgBISAEhIAQEAJCoK0RUGBwWyOs8oWAEBACQkAICAEhIASEQPtCQIHB7et5qDVCQAgIASEgBISAEBACQqDNEVBgcJtDrAqEgBAQAkJACAgBISAEhED7Q0CBwe3vmahFQkAICAEhIASEgBAQAkKgTRFQYHCbwqvChYAQEAJCQAgIASEgBIRAO0NAgcHt7IGoOUJACAgBISAEhIAQEAJCoI0RUGBwGwOs4oWAEBACQkAICAEhIASEQHtDgMDgpvbWqHh7BgwYEL+k30JACAgBISAEhIAQEAJCoGoR6Nev30Rve7sXAkCof//+Ex0oNUAICAEhIASEgBAQAkJACLQWgfbC10aBwa3tivILASEgBISAEBACQkAICAEhUDUIRPx/05gxVdNcNVQICAEhIASEgBAQAkJACAiBViIA/98kQ0ArUVR2ISAEhIAQEAJCQAgIASFQRQjA/+tjYVX0wNRUISAEhIAQEAJCQAgIASFQCQQkBFQCRZUhBISAEBACQkAICAEhIASqCAEFBlfRw1JThYAQEAJCQAgIASEgBIRAqxEgMNgpMLjVOKoAISAEhIAQEAJCQAgIASFQNQhE/L/cgarmaamhQkAICAEhIASEgBAQAkKgMghICKgMjipFCAgBISAEhIAQEAJCQAhUDQKKCaiaR6WGCgEhIASEgBAQAkJACAiBCiAQxQTIElABHFWEEBACQkAICAEhIASEgBCoJgSqIjC4f//+1YSp2ioEhIAQEAJCQAgIASEgBNovAnwxuP22bmzL+vXr196bqPYJASEgBISAEBACQkAICIGqQkDuQFX1uNRYISAEhIAQEAJCQAgIASHQegQUGNx6DFWCEBACQkAICAEhIASEgBCoHgQUGFw9z0otFQJCQAgIASEgBISAEBAClUKgKgKDK9VZlSMEhIAQEAJCQAgIASEgBOoeAX0xuO6HgAAQAkJACAgBISAEhIAQqEMEFBhchw9dXRYCQkAICAEhIASEgBCobwQUGFzfz1+9FwJCQAgIASEgBISAEKg3BBQYXG9PXP0VAkJACAgBISAEhIAQEAJ8LGxMFBkgEgJCQAgIASEgBISAEBACQqA+EIj4/+iLwZE9QCQEhIAQEAJCQAgIASEgBIRAnSDQ4BQYXCePWt0UAkJACAgBISAEhIAQEAKGgAKDDQkdhYAQEAJCQAgIASEgBIRAPSAQOQI1yRmoHp60+igEhIAQEAJCQAgIASEgBMYiAP/fOCYKDOCv3mnYsGETFYI//vjDPfroo+6VV16ZqO1Q5UJACAgBISAEhIAQEAK1jQC8f9mBwWS+7bbbXHNzcx5Kk046qevdu7ebe+65XWNjdYQcvPjii+5f//qXm2222dxjjyvDKiMAAEAASURBVD3mOnTokNenCfED5n/rrbd2888/v3v66acnRJWqQwgIgQoiMHToUNe1a9cKllg7RQ0aNMi9/PLLrmfPnm7ppZeunY6pJ0JACAiBqkWgASGgPBo1apTba6+9UjPPNddc7qSTTnJ9+/ZNTdNebrz55ptu8ODB7r333nNo5Keccsr20jS1o4YQ+PPPP12vXr1qqEftpyvvvvuu4w9aYYUV3IwzzpipcW+99Zb74IMPfNr11lvP9ejRI1O+eKJtt93WPfHEE+7CCy90m2yySfx23f9mjt1qq60c68Lzzz9f93gIACEgBIRAe0CgIoHBG220kdfwwEgPHDjQ/fLLL+7jjz922223nXvwwQfdQgst1B76mtoGNPDDhw/3lgAJAKkw6UaZCPz444/+Xfjiiy/cp59+WmYpylYIgf/973/u3HPP9UlgNgcMGFAoub+HNXP33XfPPZPFFlvMM6lFM8YSUA7WxBEjRnh3PgkBMYD0UwgIASEgBNofAlFQQEUCg4855hg3yyyz+A6yIL766que6fn111/deeed566++ur21/mgRZio99tvv+CKToVA5RDAuvTGG284XOVEbY/AnXfe6Y477riiFr2HH344JwC0plUNDQ1+jnvppZfcv//979YUpbxCQAgIASEgBCYIAm0SGMyCuOSSS7p99tnHd+Ltt98u2BncikqhUtOXUnZr05batlLTF2tf1vKI40BYK5VGjx6dmiVr3WEBhcoL09l5ue0utW2lpqd95eSxfoXHSpUTlllv51j1rrrqqqLdvuiii4qmyZpgpZVWcocccoibZpppsmZROiEgBISAEBACEw0B+MAochdZgL/K0mSTTeYLZEGO0yeffOJ23HFHt/DCC7vpp5/eCw0HHHCAI3gsifAnxecWt6IZZpjBrbLKKu6MM87wpvd11103T4v/n//8x3HtsssuSyrKp+X+a6+9lruPoMK1eIzDYYcd5q8/99xz3q1p0003dTPPPLO7/PLLc3nL7csCCyzg+7Lqqqu6s88+uyymnEYQyLzNNtu4RRdd1E033XRuiSWWcLvuumvOP9oa+sMPP7j999/frbzyym6mmWbylpvVV1/dnXLKKd4VytJxDPHAj/3AAw/05dJ3XKeoE+J5HXnkkd4Hm+dI3aeddpqLM/chjmjE99xzT/8s8dumPWeeeWaLPL6C6L9y202QZv/+/X35tG2RRRZxRxxxhEvbBSrrcwyxKVYHbWdc4XIC/fXXX/431/bee29/jf8Y3zvttJObZ5553LTTTuuxYbxrp6gcRJlPzCJ5zTXXtBjXYSGMwxdeeMHHaGSJ00AAjW+CEJaX9bxcQTZr+ZVMx3tcirJg5MiRlay+RVm0pZRnUIpAnSUt9cfnthaN1AUhUIcIpK2rdQhFlXW5FYHBxXpKkBw077zz5iW99957PQM0ZMgQv5MGjOXXX3/tbrjhBvfkk0/6bTKnmmqqXJ5bbrnFHXTQQX5BZ9ceGFgYtnfeecfdfvvt7vPPP3f//PNPLv1XX33lMMvDZCcRTBx5f/vtt9xt3DXIwzEkAg25DtN78cUX5xYAE1ZK7ct///tfz1AjGFlfPvroI0dw4uyzzx5WXfScxRDN43XXXefTdurUycc0fP/99+6uu+5ya665Zg6D+++/3/Xr188zoVhqYDRhYGGE+HvggQc8llyHDA+w3GyzzTxe4M4i+Mgjj/i4D2I9Dj/8cI8P+XCp+vLLL91ZZ53lyz7++ON9WfxnOLIF6vXXX+/+/vtvH7jZuXNnH4xNQDY7h9x6662O9hmV227zwX/qqad8X3HD+fbbb90VV1zhj4y1kEp5joZNljoY44wfI/Cz3zaGnnnmGbflllv68Q0zSuDkd9995x566CGHkIZVTZQdgdVWW82PZwSwO+64wwutSbnNCrD99tv7cZGUhnGJMgF/f8YPNOuss3qBDSVGuPsZgi7jHKF4+eWXzyuOtpx++un+XSMmhHef3dNQZjC38R4YMT8hrCLMnHjiiT62gXkO5tMCmC2tHREWEXi7d+/u3yG7zpF3jRgJxh7jfvLJJ8/dZh5FMcD7cdNNN/nrzCvMdbwT9L9jx45+xzIEd4TXkJhDeGeZ1z777DM/pxJTxZg94YQTPFZh+qRzymBuAiPace211zrmshBPhAssOwhtMBvsoMb8sswyy7Qokj6h2Hj99dd9meBIoDj4xN3xEL4vuOACH6iM6yrKAhRNuIbae0d91H3zzTc7YnqYn1jTeMaUKaodBJjbGfesYz///LObZJJJvEshu1nxvMO1qXZ63fqetIfdFVvfi/otobHShgAm9VNPPdURqAftu+++OXQJGOY3zBGaTxZE4gdYxOacc06/0KIVN4LRgtGFad544439QkN68u28885eALC0bXkkyJCFBAbu2Wef9W0ptS8//fSTO/jgg31fCKS2vrN4ornnWAoRZ4EAAENx9NFH+4mL9jGB0V7TiFo70ULDIL3//vueqad+tnhl0f7www/9oh2vH/xhVikX3BFWFlxwQb8Qw8Cw0MJYw/wQCM4zhWhbKJhZueycwgJOOQgfCHAs5jBTCIA2ZkjfmnYjvCDoIQzRNhgDsIcQXrhnZPVkHZOWL0sdbDkLzvfdd5/Pxs4z/OYPJh8655xz/JjAwsKzYecUmA2Yofnmm8+n0X/ZEeB94H2CLr300sSMMPQs9jC4pE3TYGOlgjlmnKKYgBFHaIdBPf/88/PKNkEXZjIkBFkYiBtvvNE/X5hwmFzGP88eSyDvmZEJmTCoWOB4Z7gfL9fSc5xjjjn8+4nihXaE9Pjjj3shhncYoTgklBtcb2pq8pfZ2GHzzTf3zC2WUuYG7rHIIywR3xUS8wxCDAI88z7paSfv2Nprr+2VDmH6+Dna91122cXdfffdXuCgLLCBDE+UQFg66RtCMs+Ktm244YbeghaWyTMFT46///67t9qagolnybtuhPCNUHPPPfd4Vz6Eb+Y63kveQ4j20W/iS3juKEKmmGIKXy9zp6h2EEBwZG3jnUMwZNyxtsHLsF7zXoqcwzMgTsxV4e6K8fv63Y4RiHSujehdx+tey2ss2mKY5KWWWspro2Hk0W7xMnHdCLcPNFO49PDSmQYMawBMPcRiidYKYrcPFheYIVxwbPu+Ll26eM1aXOPmM7XBfyxutAttPS4bLLrl9gUtEpMLWgYIDJho8CnOSryI4AchAKDNs8UTJgjNn2mycJticUPIwlUqtLLAyNvCzqKWJIigAezdu7evi7xoKY122GEHLxDxG0aettAOnhmMbJzID1OFxg0iD24xtptK6GbV2naD6YorrphrwqGHHuoXcS7AgBmV+hwtH8didaA5gnExDSTPht/82Vg27S6WG3uG4MJ2lfYMwzp1XhwBGDe04jBzMHtxuuSSSzxDz+Ju1q94Gn5TRv9I28tYRnBlsUMZASEEFHMNMQGzHAEcoRomHYsF/UDjnka4XtpYiTP6WPmMELRDsrRrrbWWv8y8zTdKwARmmP4iQB977LH+PlY+LI0hLbvssg5BA6GYdvJ+d+vWzQsDZqUM09s5czzzFsHZfFsBTfviiy9ut3NHrsPw0w4UEQgkKDjAHiHKyLDOKsxnEb6pj74xDhBCqNvGAdYLUW0gwFrKeMDq06dPH7+2wruwZvAbqncrAIoILNO4/MYJBRabw2Axg1cSVQ8C8P4V+WIwiyTaZDRmaGpgcFhMGBwhMYlCG2ywgdduoZGzP6RwiBcR0zCEhgnaY489El9CFocJQWjH4h8BKrUvaNwgmOqkCQVMshJMLIwFL5z5m6fltdgHFi2Y0DjBALCosiibBixMs8Yaa4Q/fRyHXSBGIiRcgozBx6UlTggnJvyE99D0QSz0Rq1pN8x0fGzAWBuTYa4d1FXqc7T2lVKH5Uk6IlBCWEQUA5CEUOnXELps7oHhD4n3BmEYiscAhek4x2LEBgc2Zom5sVgOLF1JYzwso7WCLAI3HzGceuqpvetQWHb83Bj5kNFnLoaJRfhmzjGmn7xsZ4p7DddZ3GHuzXKC1Sxc7MGAuYa5OdSAMy+jdSe2i3J4x5gvTDmD9jyNEK7QtqIEwU0JYSKJcJuCIUOwgHDHwmIAYYk0KlWYzyJ823zI/GjrE/WhxKLvoupHAGESpRzE+4br3W677ebnD4QAfhMTaHNA9fe4vB5gCYHvMAVtWIrtrrj++uuHl3VeBQjwPCsSGMyLgsYN8zC7Y7BAMkmGQcH4miIkQCzMBGqGf6G/qS2upk1mIUgiJuMJQSw8IbWmL1gSksiY56R78WtoCSHiHkx7HE/Dbx4wridQPDbDXxz3H24rkOE97rIXDuIfXbKAb9JgHo+T3U9ysUiLe7BymGgwK7a23bQ5SeAxLQUMEFTOc7T+Zq3D0qcdYYZYYHg3cKGAITMf8LQ8ul4cARZymFLiUEILFzEpzE8wqiFjl1QiixuEdhmBAIY3ZLJx8StErRFkYapL2W7UhACEWtoLweRjBcR6ga87yhWUNRACJ+nYUAAhgQWe9wIrKxY0U85wREAwATqcIwwfyiMda4DF/HAtdHPitxFMPRYO3LHQHvYZp221++ERK6G5K9l1E1DA3+aZUoX5LMK3pUEYID6DuUlUWwgQ94J3AsR3jZII/iM+BpPSlXKtmBUxqaxy8lBOlqB30rHullsH+bNQ1raEZdEu1uosNCH6kKUd1ZOmQoHBMMloS2A0MUvjl4kpGfMygXIQk7UJBXyUJwxQiwOGJg+XEvMrN3eKeLpCA4rBkERZB1OYN97W1vQlXDjDOowxDa+lnRvzkVaW5aNMcITilgxLw5GFH4rjae5a/mbCf0kTI4xXGpkLTPy+La4w7rSlte1Oahd1xttW6nMM2521jjBP0jkMDcwT7wouHzBjCNC4RuFaYYJLUl5dS0eAOWmdddbx8RhgSWAuz9tczrDIFSO0xcxfaAJLnTeYf7IK4LjShMw17cL3vNj7HbYfhhUhG4EH5p85GN98CAULgiauLLi1oIgwqwBuaJBZ4dD2EwiZRqEVDTwJnMY1KqvPNAoMgoYh8prwklZf73GuiOF9hBYIjGkD80aoYIpbf8K8KJhQuCB8Y+E14RthCKsqApMpEHDRxGWMmAX6iMBCED/p4oqhsA6dVw8CoYaf9x2rWyFiHsBqz9jDkhXmJx/eC1h1ERxCdzXusa5hseIdRBgnLy7URx11lJ+XuEb8CdeMyslDXt5n3JyKBcjzvhcKfEdxQNyOCUpYUk1hy7uJMB9uZsCmAnFi4wDWNvpHwDXKW2IDib8w5YLlKWdDgGJ9sLJ1TEagKVI4VZRYjPAh5WFiGUCTw6IDQ4k5Ha0S5ua4m0lSI1gI2cWHidu0MmE6gr7ihHYJSluUGISlElq5kMrpCxpy2sQimrUvYZ3huS2MX0ZBwIWIdvLCUSdp06wQhiNxA21JacGN1g8sAizA/E2IdpfzHNsCH6wKxL+wADAhs3gwecOAGtPaFvXWepm4+xCUjV85Cy3+58w/WL6M+U3DAGsMrj9oxhDESM/7A/OHe0xSgFxYVmsFWbOohWUWO4ehZlGGyTAhgHLYRYexjqCJJQNc4kKACeIoXCy+IKk++/o7CoO+ffv6HYuYH20HFbCFKSg0bkkPE2WCR1I9di1J2DYm3dKUI8xnFb6vvPJKv1ZhvYCJ4TfuSyeffLLbIYqJElU3AqylrDvffPONfy/Y1KKQEIwQYFYnxl2c4Fdw/TWFp91n7UeANOsgcWFY8YnZQXDgfWJOCdfIcvJQHxZL5i4sfSj/0nZgpE7ip3AZ5J1EiYDSEAUu8ySCMmWYKzNl897ab6yMEO3kGseQyMs7wnwEEVvDuo5gAU9CzBN1hAqZcEMAPvoIwTfyfMAON1/mcbxIoCx98An1XyIC0WPHHajyZN8A4CXBf5OBA5nbie2WUqxmXlAo3DXGXxj3X1I5DDLIfD7HJfUHFp1wh4jwXqnnpfbF0rNjTRIl9SUpHdfMtQcXhdAvNim9Mf7sNpNEmEPN97Wtd6MxxiPeDlwIILQDRhOq3fZcSsHf2ljqEY1F0sJh5bAw8L4gDEA22dp9HUtDAI0amiYWIzRRfDsAwtISF+zjJfO+IACwSPKOoAlmsUIYYOEpRiaAk86E3KQ8aQJ4sfYllWVadd4zFlMWWtoL04z1FYEAKwGWRKwCzJW2lbLNtQg5aDjT/syySznMsTAyMDHsgsQ9GB2bg5PayC48uNZABNaz+1FryYR5ykHBlNZ2rlO/kQnfPF/8wSnHhG9Lw3GLLbbwu8KxkxDCAwweSi5zywzT6ry6EOA9w3KEBZr3gg0ZmB9CF8JK9AgLAEwsczxKCayECMtY6xh3SUqFcvKUEiCfJfCd9ZG22vqINZ/f/NkOd2n4oMxCACAPSgHmQQQM8vJOMb9iFeR3nLJuCJClD/Gy9TsfgYoEBucXOdbtAvM7LxiMjO3LbjsA8YCZkENCc4YpCdOrEQsKRCCfmbb5jVBB+UlMksUPoLUJy8KMhfmpUlRqXwjwg+g3krqR9cWCoO16oSMLEdo98qKVjGvUwMWC8tjzGkLqRttsAhnX8NnlI21cw2KT5rNP2koQzzAujKBZQxMBWVvD87Zud6nP0Te0xP+waEEwD0yCIaGdZTvDkHAPgdCAiFqHgAX/srMN7xiLsM0raSUzV1iQNh9tCzXPCN7mppiW365PKEHW6kPooX+8+ybwEGcC4QqH5h5BFOYCjWZojTVhGIWAudZYuUlHYi0gXGbirjFsc1uIYLKYdyA0gcwBrSVrvzErpZSXVfhebrnl/JpC3BsMDAyIqPoRYC1Fu4xyjbUQKyDPmsDgJOa81B4jXNhOWazBxH0ZYXVLcl8rJw9l8m5n3YHRlH+FAt/h4Xg/zCWbuZDf/KW599IOLAlYJSHWOPgLU2zgBgWvx4YCKMW4Hyf4uCwbAmTpQ7xs/R6PAOO9TSwBVAGjym4wENIeZi6ix1k0qBjmlUWJXWvYyQPzDm5EtjMQ+QjU4cVkwiVIDlMQizrbjjLYQ9850kNo/uwjMuwBjsTJosNLjeYq7sM3Nlfp/5fTF5gC+oKlBI0DJjuC8NL6ktYqXiaYGl5MtFFs9clOPXyDAW0gPnsIQRC7bhijiwmb32g02ZGH4Eg0X2jETDuXVmclroO9uYLx/HFZ4INjEM8abaXRhGp3qc/R2lfKET9TMIbYTtf++M2igD8y13gXwMSYInt/SCcqDwHeM7A3MzvmadtpJq1EcynkPvEARpj6S1EkmFDb1oKstY8F2hgMmA60m8wNRnbPBPHQJQoXCCyBKGMYh3G3SRZbE6gozzYkQKjF0mJEHAsMVTHCPQsrC4QWni2YW0M2x2VVMGURvtFimrBjbUNANDeIQtvLWnodqwMBrNDsaAjjyXzBOo1rEEHraOxbQ8R5oQCiXPOnD8uDN4nHIpSThzLNVSnLDozmlsy7XenAdzCDwafPCABJxOYNEIqVOJEn7goITwkhIJlFvS37EG9Trf6OhIDIKcj/ldZFGFGT7EJNWVgKTD2MKtK07WtPkAiLI75qDBQmbb5CSxq0buE2UwwCfOYIzkKTxYKMWR/NKeZY9plOIrb8grlG2GAiR7KnPuoyjVEYJGrndrQyrX/x63a/lL7AWNAXXk7w4mUlP31hj11jLuID3+qKHxEo+HAZHwDjhWACYwHGtEZAZGj2xmqCtoFFi/ts88dCzcSEMEBgKtotI+uvHe06x/C5J923sZB0jy0TCcbDVQGLCC4JjA8CqWCG41TJdlN2WttKeY7WLzvG25xWB99jQHuC7zXuGuY/idAGU8o1xieYYAFAyDMmKV6HfmdHgOdh2+jyDhLkVoyYK+y7HWiqYZ7Jh9BMfJIxwMXKmVCCbNgOcwniGgxMKPCgdLFxy/XwOxpcR0kARlgSaTvzMcI6FgOEidAaiwDBXIBwxS5L4AODgyKChT8LofxgvmeeZv4Ltx/Nkj9MU6own0X4Zp5CEOe5w7CAB+MCawrWD1M2he3QefUiwDuAQpLxj0smQjQudVgOTYlQTu9wg4GIubP3z18I/otbfcvJg3XPrHis9+Hui5yHAgjzGGMZ3grC3RFBCKVcfJOCoJmZT83FBz7F+Kh4ZvM8oK/MASH1HucKHl6LbwjAvbbsQ1h37Z5HuwNF83hZBLNazL+egLq4bx2LDEwvmiAGG1IdLwB+pEmLK9pjNKNom9Dkw0jZ4EF4SCLKw/cezR2DkcAf24LTXE/CfCyGSS95MdNyqX1htw+0C/QF6Ztdh0wooT1JbQjbGT+nnzDTMPNYBHjZ0OYlTTQw3/xRB7hTNwtZUto0PKifPhd67uHHieLt5fkyOeEryALL+KANhahS7aYOtB1JFo9SnmMhbArVAUOGxgPsqc/GsGn9mQixgiGoEchlwkQhbHRvPAK20CThBvOGAAqDnKS9tXfAjpSKRhCLGYI2Wjn+MFHzvCgPly2rk/RoDqGwDH4jyKLBQtBlLrLFEQYDAfykk07Ks05afjtSRikEo8/4QjGAMiAk3nmsTvgmMx7xRQ6JsY1yAEsAfvKhzy9KBbNskAc3Bph4+oVmHNdLAv+wFjAHITyE+Fh/7EgZnPNtAhRAKCLIg+scfbC8YXryhEQaS8d1hPnTTjvN+x+jYDINLvMOzyxUMDEWUCohfBshvKBYMuGbfuCywFxl7pWML5gpBKZQwLIydKx+BHgveAcQ/vA+wCrGuo17UEhxxpV7SdfgcSB4lzTCAhdSOXl45+EFoCw7MJKO+Qwhv9KB7+ZGVegdsfkHzPgL3+UkZWjS3N6WfaDsWif4/6aJ1UkmdxghY4aKtYPBFN9OqlgeFhTzxy6WtjX3y+mLmbZaU6/l5WUqtue5pYXx5m9iEprWQjuQJLVtQrS71OeY1M5C1+g3jEUS9Y40H/yJykOAoFQLWo2XgCKhkHYLrVicELBhbLlH8C7zlJnsbYePMI/FdSQJGZUUZMM6k87pa+hSGU9TzFWH3X+wKuL2AuMLA40SJb5NMuXuELlW4W6JoodgaeYgW7zjcRdpwjNzV9JmCYUUMChTkhQmpQjzWYRvrKz8obRBKKKt+E+bf3QcW/2uLQRgpHEnxEKFEgCCEeUPoR9rbpy/MOY9RIK5BMJPPo2wOIRUTh7GJ/mox9xuwzLTznmH+SOWB9dtYl3wtMBNKfQoSMufdN34ui/HWUGS0rDjD5SmjEzKk3atLfqQVletXY8Cg5Fea61b6o8QEAJCoPUIYKHENcYEgKQSYRJtgTeLY1I6BFmEXxbIQhrupLwT+hqMNm1FE54kAFh7UM7A/GNhMAHA7k2sownzMDEwGEkWZmsbgjfPl3Rpmkb6CBYISBIADLnaOKI9NyteoR6ZKwraamPQk3YgDGOIrDyzdhN/Z5s+2D2ObNtr+/Db9XLykNc8CwoJ0VZH/Mj7guKjUOB7sR3urEzbFKHQDobm/pemGLOySjlm6UMp5dV6Wnj/KCZAJASEgBAQAuUiwO5nLI4sfIWEgHLLVz4hIATaBgHc/XANw7U4vvUv297aDoPhtwNMO44LTbhTGIx30nbmbGTCvIDAgUsdVjYj3AMPOeQQ+5k7lpOHzKUEyJcS+G4WD9yN4jvc5RodnKAUwF8fNx9cq+Ju4WwLDl4I3hYPGWTPfFpKHzIXWmcJJ5o7UJ3hrO4KASFQQwiwmxNaZHx5bbtjFrvQr7WGuquuCIGaRQBXHwKCiWkhOBbLEW4s5qKDKxvvuxGxKzCf5INZR/vMdtsDBw70QfGWz9LjBkqgMRsUIHRgeSIPm0TwGwYbS0MYa1dOHuqzAHnaQjvZn58+ER8J8058g8XFEeuC+w+xTqTBookrUFLgu+1wR9/Awtx52XQljYjDYoti3AqJQUKQwl2SeEiL18HtyKwGaeUUul5KHwqVU8/3yg4Mbg+gMRDZUaVQwE17aGe9t4FJh0kI7YBICNQCApj1LagU9xN2EbJvgdRC/9QHIVAPCLAFOYwq7zJMefi9HtxiEA4IFsff3ggNN5tbHH300V5QYMdCmHaCzwmyZTvzuLsfW3gjZPB9DOIGiINBC05s4GWXXea30UQIwA3PqJw85M0aIF9q4Ds73LELGEG/4IWrIGR9taO/GP3H9p24RxGfwFa75DHCbYmPBbIldkimRImXFU9j6UrtQ1iOzl2ktIr+nnnxbR8R8NiDd3izjYARAkJACAiBwgggBMAwsGgTQGg+w4Vz6a4QEALtEQFcddD+oym3AFu01mlxIvSBPLi5IDwQF1Mo9iTsM3MHggBf6ybehJgEdqaiPLT1SVvslpOHLUOz7MBYSuD70KFD83a4K8Ssh32mb7g+YWUgJioUdsJ05Z6X0ody66i1fAMGDHCrrb2pa1JQcK09WvVHCAiBtkaAXWL4EwkBIVD9CLCzFPv485eVyFOOK0t87mBbbZhktg1OiykqJw8MOgy37dST1i8LfE+7H14vtMNdmC5+DlZYXdqKSulDW7WhGstVYHA1PjW1WQgIASEgBISAEKgaBPjQXtLWvR9++KHjo6oQ36cINevl5KkaQNTQdoNAk3cKajfNUUOEgBAQAkJACAgBIVA7CPBRvBdffNF/eRs/drbTxT2GD/KxuQDuhATJhlROnjC/zoVAUQSioICmKC5AJASEgBAQAkJACAgBIdAGCCyyyCLulVdecY899pj/C6tgtx2+HB73ky8nT1iuzoVAMQTg/6PA4HfGBQbfrsDgYojpvhAQAkJACAgBISAESkRg0KBB7q233vLbibJ/PjvksIPOZJNNllpSOXlSC9MNIRAgMDYweDMCg5uDyzoVAkJACAgBISAEhIAQqCQCfG2a7UVLoXLylFK+0tY3AvD/+mJwfY8B9V4ICAEhIASEgBAQAkKgDhGIPhamqIA6fO7qshAQAkJACAgBISAEhECdIgD/L0tAnT58dVsICAEhIASEgBAQAkKgfhGQEFC/z149FwJCQAgIASEgBISAEKhTBKLAYL85UJ12X90WAkJACAgBISAEhIAQEAL1hQD8vywB9fXM1VshIASEgBAQAkJACAgBIRB9LEyBwRoGQkAICAEhIASEgBAQAkKgbhBQYHDdPGp1VAgIASEgBISAEBACQkAIjEdAMQHjsdCZEBACQkAICAEhIASEgBCoeQQUE1Dzj1gdFAJCQAgIASEgBISAEBACLRFQYHBLTHRFCAgBISAEhIAQEAJCQAjUNAJRYHBN90+dEwJCQAgIASEgBISAEBACQiBAAP6/yTlJAQEmOhUCQkAICAEhIASEgBAQAjWOQIOLAoNrvI/qnhAQAkJACAgBISAEhIAQEAI5BOD/FROQg0MnQkAICAEhIASEgBAQAkKgPhCQEFAfz1m9FAJCQAgIASEgBISAEBACOQQUGJyDQidCQAgIASEgBISAEBACQqD2EVBgcO0/Y/VQCAgBISAEhIAQEAJCQAjEEPCBwYoMjqGin0JACAgBISAEhIAQEAJCoGYR0BeDa/bRqmNCQAgIASEgBISAEBACQiAdgSZ9JSAdHN0RAkJACAgBISAEhIAQEAK1hgD8f5O+FVZrj1X9EQJCQAgIASEgBISAEBACBRCIpABtEVoAH90SAkJACAgBISAEhIAQEAK1iED0xWAFBtfig1WfhIAQEAJCQAgIASEgBIRAEgIKDE5CRdeEgBAQAkJACAgBISAEhECNI9BIYICCg8c+5b///tvdf//9rpLWkeuuu8499dRTNT6Mqqt7rX3OjzzyiPvtt9+qq9NqrRAQAkJACAgBISAExiEA79/o+GQYf2XSeuut52aZZRb3wQcf5JUwdOhQN+OMM7pnn30273p7/vHwww+77bff3n333XcVa+Ztt91WVRhUrONlFDRkyBD3+++/l5GztCytec60cbvttnM333xzaZUqtRAQAkJACExwBH766Sf3zz//TJB64YPeeOON1Lpee+01d/HFF6fen1A3irVzQrWjPdRz5plntuBf20O7JkgbIt6/1YHBw4YNc4MHD3b777+/a25uzrUbbTr3Ro8enbvW3k823nhj98orr3jhpb23tRbbt/TSS7vHHnuszbvWmufcrVs39/LLL7vdd9+9zdupCqoPgfvuu8/deeedZTe8vTAJZXegDTOC7V133dWGNajoWkHgxx9/dDvttJObY4453Pzzz+9mnXVWt9xyy7nhw4e3aRdPOeUUd9hhh6XW8frrr7trrrkm9f6EulGsnROqHe2hnosuush9/PHHE70p8Mzff//9BG9HIxW31v1lgw02cO+884678sori3bg559/9u4xL730khceCmX47LPPvASPJA9zboQ7xzPPPOOvxV/qUaNGubfeess9/fTTjnTffvttznXjr7/+cl988YUV449o/c21g7LIb1RO/SNHjnRvvvmmrz+r9uGPP/7I9QcLihFaZ5iCxx9/3P3www922R/BhImONGDx9ddf++s8S54FfyGRzgb6V1995ZnteJmkz1InOL344ose27AOzhH63n77bffEE0/kcOV6WD/tCJ8nmHGNvtMmzk145PngfkN/RowYQVEtqFQs4s+ZAhkz1AM2ISVdZ4zYuLO6C2FiY2LgwIF+PIdjMqxL5xMPAbRzK6+8cqsbgBALs1outRcmodz2t2U+sL333nvbsgqVXQMIsH6ssMIKfq2/8MILHbzG9ddf71ZZZRXX2NhqvWdBhKivGqzE1dLOgmDX2M2jjz7aHXzwwRO0V/CLTZWoEWkbS8DJJ5/s1llnnVRN+qmnnurOO+88hzYVpnCyySZzV199tZfQk9qx6qqrurXXXttr1maaaSb36quveuZ655139lYHmMbZZpvN+/H36tXLM8XbbLONZ+j43bFjR9e5c2e32WabOQC+5ZZbfH0wsEb77LOPW2SRRdxxxx3nGdstttjC/frrr/52qfXDEG699da+fvpG/Z06dbKqEo+XXXaZO+GEE3xaGN811ljDXXXVVZ6x32OPPXxbunbt6vE66KCDcloGsITZRqjC4vLnn396/B999FEHI4EAtOSSS3qGhImPPtM3sLvhhht8fTDV559/vr9O4xAmitWJGRGhifoQqsD73HPP9X3j+rbbbuvrn2SSSTyjTExE3759c/Vvvvnm7sEHH/QM/5xzzunuuOMO/yxXW20138fTTjvNnX322e7555/3z51+4m72+eefu/79+7u99tqrBY7lYsFzZgyBy3vvvedoM0IHuPL8kq5PP/30jnEBbhtuuKGj7kKYIKhttdVWXohhTDIeGRObbrqpH5MtOqMLEwUB3j3eI5EQEALViwBMzYEHHug1/8T32fo7++yze14i7Bk8CHM3a9l8883npptuutxt1nLKYh3AvQfXZv5CYq1g3SDf3HPP7etiDgk9Ikj/5Zdfuk8++cTNO++8YfbcOWs1isMuXbq4hRZayK8R3AzbAO+z6KKLet4plzE6QaHUvXt3306uM4+hvGTNZK2BirUTHChnrrnm8gq4QYMGed7BZw7+C/vRs2dP77rbu3fvIMXYUysPvhB8wGTxxRf3AhjrIVgsu+yyrqkpn/3M+jxCLOgvdbCWL7zwwm6KKaZo0Z7wAgrXd99912O9wAILOHgrI1yRWfuXWmqpFjjj7UK95AnrSHtGjAEUiIw/LFFxircD3gleDsUxQuzUU0/t4BegUsdH0vOO1x/+rlhgMEIAjPohhxwSlp87xw8b5g5B4cMPP/QabgCFqUvT8JL5ySefdA899FBOsw+TiuWBB8/LCWgwldDxxx/vX2g0RgCJWY7B3Roqp34Y8Y8++sgdfvjhBet/4YUX3FFHHeUFKAYmeWD0eei77babfxGZHJiojjzySIfvGloNIwYsQgR4wmhS1qSTTuoHOW3AbYX8IYEH16gPJvaCCy7wt7PWiWWCeniRac9NN93kMaeQY4891gsIpOH5UP7ll18eVu8nAu6RhsFKO5lEsWRMOeWUnrnmfIYZZvDj5cQTT/QCBM9zk002ySsr/FEOFuQnZoXnAK68tJzTjrTrYZ12XggTG5NYGegD78c333xjWXVspwiYFZCF4akosJ8FKk5YfxgzWOp++eWX+G2/IPPMw/ktyRrJ4sp7kDZX8W6mWT7jlcK4UCfj7f33389jSOgD9yCOoTUuLId20B5LG94LzwthxOJM/kJ9t/xY/5hnWWghBHP6axbasE7OscSh6HjuuecSn0ta+60+Fu60vsfr0u/qQoA1FIUXCiMTAJJ6wPhCSYbSEsUYDOTpp5+eS4pyh/jA5Zdf3iu2FltsMXfAAQfk7rNuLrHEEn7NQylkXhDkY300OuKII3y6Pffc01HGf//7X7vlj3gswNxTF3wNCjOEEoiy4I9oJy6srLlxgh+65JJLcpeZK3B74t2HsrQTvMhDG1FCEueJJYX3xAheiv5aP1BiodBLIiuPPtFuFLmkv+KKK3xfURyCN++wUZbnEceC+YG2rr766p5fQpmLB0IawSvBcxLTBy+BAtgICyP3cCGDab/99tvtln/uXEO4RFhEYWyU9IwoC4GPssATLJnTjJLaQd/uueceP3ZRiKKwhkodH2nP2+qOH4kGbnVgsBXKC4d2lAUxyW8TqRwhYZdddvESKlI1Lx8T9qeffmrFtDjCSPKSIO0yuFhsAdiYXMpESIAeeOAB/yIxGNB+//vf//bMZItCS7hQSv300dJTP4Mtrj0Iq2agIfHB+Pfo0cNLnwwymHf6ud9++3kGGWmVQQIG4SAHByYpJOr111/fF73rrrv6csBg2mmn9UxtWOe+++7r60TrTVoECFxgstaJdM+L3RAFlHCE6UBrzxE3CDQZvNwIfVNNNZVnpkMGau+99/b9ABckblxkkojyYcbBCGEPqZj+pFE5WFAWbYSwZoA51gnGctp1nzj2XxomJENA3WijjfwCwJhgYiw0JmJF6+dEQoCFHcWGLQyM69AVhTHJu8eEzZhm/MWJRYrFNVy8sXzx3hi1hkmwMuxIfZRNncwXK620kp+P0OxBtjgXWuwRuplvWSAph/alUSGMsvSd/KwHxAJhQQRrhBew3mGHHdyCCy7oLcdh/Wj8+vTp4610vFe0MXThK9R+6kMIp3wwENUeAgierB2M4TRqrcKLtQ6FZjEFFXwJjC/eD6yzCK3wO0a0o5BSk3Ssj6zZKArgDUqhrO20Mlmf4go67tEPvBPoMwpJFGRZFFnwZvT7xhtv9EL9Oeec4zGgDtZ2mF4o6/OIY5FF6egriP5LU7jafbT8CCIIT8zrtNkIIQwlI8o+FJ/XXnttzh2YNPF2TT755N7DgTUChSsu6Cg5oLR2gAW8AesJSlDGRTnjI8u49A2x/6J3paIOcph8YCxZODB3hITWl/shMRlDSVo0S4f0aWRBEzCG+PDyh1YIpg3A0CSF6RnUuG+ExIsRUvx3eI/zsLws9Yd9ZDIqxLiyeGEWo50hgRWuRCyCRvRxnnnmybkqcR2G1QhhAsKkZ0TdcRcHBrQR2nYIJiVrneFEhEkQywO4G/4Mens2DHgWdsxcRmF+JolQQLA0dsTKgOCDpI/EH06glsaO5WBBXoQlNCkILWgnsLhgyku7bvWFx7BPISZofbFUhWOo2JgIy9X5xEWAhYEFj0ULRhXXNgitDswrJncYaxbGcgLaK8EkhAixKLLgoAxBscLCQttwsQspbbHnHUCRg7sgGlX6y4LHOE6jNIzS0sev806zuLLIopjAnRLmijmJhZD6Q0LhgHKFfnHO+3Trrbf6JFnaH1p2w3J13v4RgKlCW29/KK7ihBad8c16mUatVXgx5rIoqHgPe0fuMgi4KOpYo3AxNSqm1CQdyijmGlyo4QlKoazttDLTFHQoslirYVJpAzxG2A/LHz+iCaffrN8oOVGQ4r7New6jDX8AZX0eIRaUm0XpaG1KU7jafawauIzhkgWvQZuwZkLMSQiXxJXA38DvsCYYhe0CH/qG0pINIsiDEtc8OIq1w8rkWM74yDIuwzo4jwKDXaTFjV8u/zemMDqNn3tIDCIk4dBfjk5CLKZpFL7MxtCzqLGA2h/SNgMLJpmJwojFC3O90TTTTOMlWDPNELCJW0whKqV+/AJDExcaOBa3NMINhoUsxIS0aIppWzjJwSzT1kJYpdUTXg8DhmFwIMpsbZ0wv0xUWCTsudiRiTArhViAJ5pTJHRMk/0jE29bEBMA7gFobBhLWHSgtOtZ2wAmWAnCMVlsTGQtW+myIZCFcUgriYWORYv5bN111/WLFgsD7yUCPBY8Fg4WW4TGUqkSTEJYJ+MWMzcWNggtOZol00JZ2rTFnkUVxQAuPAgQKFjoG9bdNErDKC19/DqWCxZR/GxXXHFFxxz9r3/9yzNya621lhf8Q+GfORNFE4stTBUuFMwzUJb2m6UW5YKouhBgTUSpZX+MzzgxJnhHQ+tbPE1rFV6Ul0VBhdIQF6CQGN9GhZSKliZUKtq1Qse4UjNLO628UJkVKujAK1Qekj7sh+WPH1n7oA4dOvj3O1RQ8h6bAjDr8wixyKp0tDalKVztPspKI3gh5kDGEW3ElYl5FSWD8YMmIJAnbBe/BwwY4JVGuEITAwFvamO1WDvIb1TO+CjleVMPvH8TPkGVJBhBzD5xSRGGChMLAbqYqvHPZGsm/KWyMonLLLOMl8CJK6AcpB6YRBY9NOr4nuFzx28GHKab0CeV3T94GGh+0SbB8KE5iL84aXhkrR/NLz5kaCzC+uPlggk7CSA4YZ7GesKDp50MxJNOOsn3kxcGXy80HIX84uPlJ/1Gy4YfG364aP0YwEycLP6trRNGCV82TLH0Ae0ozDvPOwtRP4Lhmmuu6TUH9JlFnrbBKIQCQpbysqRBC4nWk7YzCYIx9aRdz1JmmIZyGZOMCVxGzjjjjIJjIsyr89YjYIyDlWSTsf0udAwDumaeeWZvAmbyZyKHCY0vjGllhfNLeF4KkwAzbmQLkf3maFanONOBNTFupYgv9ixUEO3BcoUlzwhrrfnq27XwmIaRpQn7G57bfWMU+I01k9/WV7OihtZM3iPeUSPmRnMnzdL+0CpnZehYHQiwrpuAm9Zixjt8AWs/m44kEeuMKdkQlCFTsjFfZyFTUGGRwu0YBZXFBVh+5ge+ExQSCi2jUKmZ5r6U9K5bfo68M6xfRqESkmtZ2ml5047MKXEX7zQ33rQyCl3P+jxCLEKlY+ijn1YP8wTzIGt7OH+kpbfrKFBQlqLMRfDBehF/zmG7mKsYe/BZWEJYL/AwMCrWjpDHKWd8lPq8WVXGz6bWygoc2YoLbU5ImEgQDmAS0ZqxYw/an0svvTRMlnfOYmALAjeQqPBNwzSDhgumnJcKUxME6DwozDdMFgTuhZM+JhoCXJDQYMgw0TDAwzp8QeP+K7d+BAwmACYa2pFWPj67MIUIArQDhhdNPYIUAhMLMtcoi8GImZ4XBoqXaQPbjuO60OKAwMWzQJiAkTH8y6mTwpHyrS0ILTAFPAc0pGjW0aIaWTr7zTG8hh8wkw1CCcIDuCDcoY1FQErbfzksgzINAztyLY0o95hjjvHt7RsFZYE3Gsi065RDfVanHcPyQ0yIe2FMYhK2MYHFCuxFbY8A7x+LhP3Zot+ampmcjYkoVA4LFTt0hFpJzMlGjIf4op3GJJhVjSPKizhRF/NjmJ80zHFZrYf0izkyrItzxm6pVKzvpZZn6ZkfQ2GCBRoBDcrS/nDBtjJ1rB0E4AVgwLBksZ7wfiEc8vvQQw/1Chj4BtZR1iss8bjQoYhjvciiZOPdx/ea97qQgoqgY3z5SYtLLO51oVUuVCoyL2DxQjFnbjJZnkqfPn08k4qXBcKw7dRH3qztLFYP1n0wgn/DdTvej2L5i90v93mY0pFni4UdhXCowAjrReFK23nO+NzjIWIbyoTp0s6xVqC4DoPHk9LCxLP+o1hBwcyzNyUL6Qu1A+sLMQnEU6HUKXV8lPu8m9x4BVNSn4pei2uZLAP70PIXEhIzDDKAsvVWMZMsAy9OMLBIZbzYlBEymUhZBAzzwsHUMiHg3xUSJnwCbXhAaJdDggm07UG5Xmr9LEKm/aZvJpyEdcTPYZiZrJgAyI+vG4R5Cmmb3UmQJuNtDV920qOxC9vOtaRnc9ZZZ/kdDbBQoDEJqdQ6yUvgjxFCHT5vDOB4+WAbj/2gLSHBbDAJM5iJNcDfmD6hvYWRTmK4yV8qFuFzRphk8mRiYDzBvEBp17kXjot43dwPMYmPCQQ7tFVZrSOUJ2pfCCBIsPhjkSSGBKEVVxze5ZDwL0WIRaDH4sa4YMGC0YZgEtAasVAwL7IowSQYUxsuAkmWz7AuzrG+shCieUKQpS7KY4eqLMSiiuCNu+WOO+7oLR6Ux4eFWNhKoWJ9L6WsMC1MFcwIa8ndd9/td89gFzaoku0P69R5dSEAo8U7hnIHqzJCI2udadtN4cUcjNIHQigopGQjjSl3KI/3BIs6xPtv60CoIGKeRwkE40harFzMEeZeZ0pNvABYb3hneOdZn6C09c7fHPcfcwjvOEpVCFc5rOnkzdpO8iXVZdesH8wLzAX0Y8stt/TWcvImkeVNusc17luacp8HQhwf7bR5F8WuncfrNYUrbuooUeDPcIvEeyRsSzwf44e8pENIBF9zo7Z+hHnoCzwm44F5ivkfRZQpJAu1g/kLAQttPnM27UPpnXV8FHreYRvzziP+v+GZF9/2EQGPPXiH69evX979WviBEMCLxSJaz8SuQjAJcUGhnjGZEH03SxXWL3ZUYGJAUMKvHAFB1D4QQGEBs25xSrNGXxhFK2dMAhM/u9GgfECbjEaayRnGngkeIRyhm20EEYKZvCG2eGPhQfMEI8KignBvcSJYt/iCKBokFlesqDAJFg+Eho96qNeYBKwaLMxxwm2H3W9g3FEckJ5dftCA0kbmACy0oTDOx2mwusEAQVgmseAhxKN46BNpGsEmSQgohlGxvsfzgxOaW5h7CMEcCynPBGzAFrzxB+ZIm1AcwGCZhr9Q++P1+Ur0X00jwDuBwg+hPYnSlGxJaePXsiioyEMbGLPm3hYvh99JSs2kdGnXsFzzvodKUUubtZ2WPu0Y9gO+CkY6vuVpWt6s18t5HklKx7T6mGfjCte0tOF12gW+MPlZiPmTcWcbtsTzpLUDRp75OD5WShkfWZ83sQurrb2paxj4wlgh4PGHJATEH1Qt/ZYQMHGeJtpimEm0PkxWWDiwgMBQiqofASZcGFCzIKX1iBgcJnbTfoXpwsU1vB6el7II4JdKu7CMJjHvYblJ51jiWIhgnJLam5Sn0LVCfS+Ur9C9QnhUuv2F2qF7QqDWEcBzA6UHWmyYVALwURhj4cBiKKpOBBACVl0rEgKeGScEPFajQgDxA7jl1LvWFQYUtxc0a6IJiwAuQEyiaE7QaGbVJkzYVqo2ISAEhIAQEAL5COCWi5su1kWUAsRa4o6H1a0cJUN+6fo1sRDwloBICGh1TMDE6kDWesNtqbLmqcV0aColAEycJ4sQim+gSAgIASEgBIRANSHA5irEwbETEm5NKLLiMYrV1B+1NUAgigkYG4UaXNOpEBACQkAICAEhIASEgBAAATT+4V76QqV2EGisna6oJ0JACAgBISAEhIAQEAJCQAhkQaCJQA+REBACQkAICAEhIASEgBAQAvWBAPx/xb8YXB/QqZdCQAgIASEgBISAEBACQqA6EYhCAggM5iASAkJACAgBISAEhIAQEAJCoC4QiPh/xQTUxZNWJ4WAEBACQkAICAEhIASEwHgEJASMx0JnQkAICAEhIASEgBAQAkKgLhBoJC5YscF18azVSSEgBISAEBACQiADAnwZ984778yQMjnJa6+95i6++OLkm3V+lW8OvPHGG5lQOPPMM/03CjIlHpfo888/dyeddFIpWeoyLbx/IxEBigqoy+evTgsBISAEhIAQqCkE1ltvPQfj2Fp67LHHHIJAufT666+7a665ptzsNZ3vlFNOcYcddlimPl500UXu448/zpTWEn355ZfuvPPOs58T9ThkyBD3+++/T9Q2pFUO79/oJQBJAWkY6boQEAJCQAgIASFQJQgMGzbMjRw5skpaW5/NvPDCC93NN99cF51feumlHQJlu6SI91dMQLt8MmqUEBACQkAICAEh0BoE0MKaFpnjK6+8kljcH3/84Z555hl/f+jQoS3S/PXXX+6LL77Iu/7dd9+53377Le8aGuhHH33Uffvtt3nX7cfff/+dq2f48OF2OfHIHu60+ZFHHnHvv/++a25uzqXL2i/aQXsMg1wBCSdvvfWWr+urr77K3f3ss8/cP//84+j/k08+6d59993IfTzyIQlo9OjR7u2333ZPPPFECzxIloQtgtqIESOCUpwDT55BqQIcONL2xx9/3P3yyy95ZdLWTz75xL388sst2k3CtDqt3z/99FPemBk8eLB7+umnE/sZbwf9AHfG0w8//ODPwQoqhFla3T5jG/zX1AZlqkghIASEgBAQAkJACExUBF588UW3xRZbuM0339w9+OCDniGbc8453R133OGmmWYa37bLLrvMnXDCCa5jx46eOVtjjTXcVVddldfuW265xV199dWO8oz22Wcft8gii7jjjjvOXzriiCPcFVdc4Xr16uWZ5oUWWsiS+iPM48477+yZeRjD2Wabzd1///0+fV7C6AfCBWmfffZZf//PP/90yy67rLvxxhvdpJNO6ttRrF8nnniiu+CCC9zkk0/uy9t1113dqaeeGq/KY0JZ7733nptkkkk8YwxTP/3007tVV13VbbTRRu62225zXbt2dbQDd6trr73Wl0M7t912W4frE3lhhK+77jrXt29ffz8NW9qBYAGmuMqsu+66noFvampyo0aNcldeeaXr06ePL6PQf8QV0C8ElymmmML9+uuv/s/y7L333u6BBx7wfZxlllncXXfd5WaYYYaiddLvtdde28eEzDTTTO7VV191BxxwgM9PPQhXe+yxhzv++ON9VUnteOedd9xqq63mENhOO+00d/bZZ7vnn3/e41gIs6S6rT9tcWx0YyLpkj+REBACQkAICAEhIARqDIHGxkbP5BKsi/YX7Tj0wgsvuKOOOsrtv//+Xsv90UcfuYMOOqjk3j/00ENeAMAP/cMPP3TPPfdcnjUACwBM4wYbbODbAdOIhh3BJImOPfZYb3mAgf3000/dPffc44NjYSZDSuvXww8/7M4//3x3ww03OPoEYw7jDuMdJwQNcHjppZe8Rp3zKaecMpcMQeXee+/1GvVLL73Ux0mYZYF2IgiAK0LEhhtu6C6//HKfNyu2DdFe9eCPxh5Lw+KLL57JVQhBapdddnEw9whnBBvH3W6wBNAu2oeVAKsKlKVOLB88V4Q3aMkll/QWD8oi5gQ8EXrS2jHddNO5r7/+2mPJs+B8xhlndIUw8xVF/8XrtusVP0a8f+QOFDkFKTS44tiqQCEgBISAEBACQqAyCMA4n3766bk/XDyyEhrh7t27eyZsqaWWcgMHDvRZb7/9djf11FN7xr9Hjx6uW7dubr755stabC4dzHrv3r29VhxtNtYGtOtGMKkwofPOO68XQGg7GmaYzCSC8d5kk00cbYWWW245r1WGOQwprV8ENKPxxuUGAQLtOowvLjNxmmqqqfylc88917eRtnfq1CmXbLPNNnOLLbaYz885jCxCBgw29WDxwBLANcpCqED7nRXbySabzK2//voeFywpCEwIJMUIDLEAILTNPvvsvn1YZkLaa6+9cs99mWWW8Zp47mepE4Fm0UUX9fnJs/XWW3uXnuuvv969+eabDtcgBIws7SA/VAyzsamcF6bCuu165Y8NfDG48sWqRCEgBISAEBACQkAIVAoBfKzxJTeCsc1KIWMP8/3jjz/6rDCRuNmgUS9GMHAhhb+///5wf0OGAAAKdElEQVR7zyiH983diGvch2CMYcaNQmbbrqGtx0oA4x3Sggsu2ELTndYv6qOMcItSmHUY1zjBOF9yySXeZQXt9g477OC31zRMTBCxfLgJobWHWac8GOIwBmKBBRZwP//8s2fQs2CLZn3HHXf0zwBhB2HMfOetzqQjzw4XLjT0aURbjBCK7LlnqXOJJZawrF6o2W677Xx8wIorrugFOG7SziztsIKKYYYgCYV1+wtt9V80FBUT0FbgqlwhIASEgBAQAkKgIgjAjMYZ0tYWjMsGLiQE3RrTm1QmDP0333zjXT/wjUcgwXUFbS0EI4rffEgEuRrBOEO481geuxc/9uzZ0/vXkx8NuRHacVxfshD1EaScZmmIl0HMxKabbuqFFKwLMO9WN/EBG2+8sc8C049FBr912onlhHQWFxGWmxVb4gaIj7j77rt99sMPPzzTdwHoI88BTfzyyy8fVp07DwWu3MXoJEudoYCGBQYLB1gwFnB1Im4BytIOC+ouhpkvMPovrNuutdWxuPjbVjWrXCEgBISAEBACQkAITCQEYH5x0yEuAJ9tdplJ8tNfeeWVvUsNGnPS4xNOkKxZA9ZZZx3PdBP8iRYcH/zQdQdXFPzsTz755JzmHD9xmMkkwpWID5X95z//8T73fG+A8rbZZpuk5C2uEWiLhhqhgx1uYJTZlz9Jw45W/KabbvKafSwLCEPGtFIwwcj40lPeoYce6utCYICoh6BpXI4GDRrkA67N+pAVW8pBuCC2AIEsLkxxP4mwGqDdB1MYdPpJoHFWKqdO4knYvQe3NKNi7cB9CncwdknCelUIMytzQh6jwODIxBUzc03IBqguISAEhIAQEAJCQAi0BQJJ2mC7ttJKK7kzzjjDB6LifkPgLru6QKSxdOz4AxNN0Ct+/WjlzU+etLjqsJsPzCGMNMLCTjvtlMvPzjnsOERALTvGIBSg6cf1JYkIHmWXogMPPNDNPffc7phjjnFo6HHVMbK22W+Odm2ttdbyDDu7A80///xu++23TwwKJg/MKeXjV8+uPmBAfiO0/rvttpsP2MWyQN/MbYWv8lI+fSU/gdFYSqCs2O65556+bfSTPrL7kPWDcjgPf3MNwgqBgIL7FDsY8QwQZoyS8ti1Uutcc801fX/YMWiFFVbwcRBWT7F28MzYlYhYC9yRCmFGmWn9tfoqeox4/4ZnXnjLO7o99tCdrl+/fhUtX4UJASEgBISAEBACQqA9I4DmG792XDsI7E0j3E+wAFgwbTwd2mX8vqeddtr4rdxv/PUJTDVmOXcj4YQYCLa9xLWmQ4cOCSkKX6K9aMjRmBsDnJQDiwaWENqFy4oRzD4WC7TXMLDgk+Q2BSNOEHK4q5CVkRVbcKGfhdppZcaPYIQLTdj2eJqk36XWyXamXbp08QJIUnlp7SBQmmfB9q5GhTCzNG15HDBggFttrU0UGNyWIKtsISAEhIAQEAJCoH0jAGM788wzF20kgahpAgCZ2YGIv0IEI52VYDhxJymXaG+W/DDeheINEIwKlVOI+c6KbSm4xPFIEj7iaZJ+l1on31woRGntwFoQp0KYxdO22e8oMFgxAW2GrgoWAkJACAgBISAEhIAQEALtE4F0u1f7bK9aJQSEgBAQAkJACAgBIdDGCLBjDy5BotpFoElBwbX7cNUzISAEhIAQEAJCQAiUg0D841vllKE87RiBKBYksgRETkEiISAEhIAQEAJCQAgIASEgBOoEAX0xuE4etLopBISAEBACQkAICAEhIATGIaDAYA0FISAEhIAQEAJCQAgIASFQfwhod6D6e+bqsRAQAkJACAgBISAEhECdI6DA4DofAOq+EBACQkAICAEhIASEQJ0hoMDgOnvg6q4QEAJCQAgIASEgBISAEIg2BmrS5kAaB0JACAgBISAEhIAQEAJCoI4QUGBwHT1sdVUICAEhIASEgBAQAkJACIxDoElfCdBYEAJCQAgIASEgBISAEBAC9YMA/H/TmCgwQCQEhIAQEAJCQAgIASEgBIRAfSAA/68tQuvjWauXQkAICAEhIASEgBAQAkIgh0AUGCyHoBwaOhECQkAICAEhIASEgBAQArWOQMT/yxJQ6w9Z/RMCQkAICAEhIASEgBAQAjEEFBgcA0Q/hYAQEAJCQAgIASEgBIRALSOgwOBafrrqmxAQAkJACAgBISAEhIAQSEBAgcEJoOiSEBACQkAICAEhIASEgBCodQQUGFzrT1j9EwJCQAgIASEgBISAEBACIQIKDA7R0LkQEAJCQAgIASEgBISAEKgPBBQYXB/PWb0UAkJACAgBISAEhIAQEAIeAQUGayAIASEgBISAEBACQkAICIE6Q4DA4CgmoM56re4KASEgBISAEBACQkAICIF6RiDi/5ucpIB6HgLquxAQAkJACPy/vTvIQRCIgig4GO5/ZeUTApzBV6zcdvUsMNJCgAABAjmBbdkE5EoXmAABAgQIECBAoCwwDwJ9ygCyEyBAgAABAgQIECgK7DMMcBEgQIAAAQIECBAg0BAwDG70LCUBAgQIECBAgACBR8Aw+LHwiQABAgQIECBAgEBDwDC40bOUBAgQIECAAAECBC4Bw2BHgQABAgQIECBAgEBQwDA4WLrIBAgQIECAAAECXQHD4G73khMgQIAAAQIECFQFjueBvCegWr7cBAgQIECAAAECWYHjjcEzDXARIECAAAECBAgQIFAQmPt/vwQUmpaRAAECBAgQIECAwEvAMPiF4SMBAgQIECBAgACBfxe4hsEeB/r3ouUjQIAAAQIECBAgcAtsHge6LXwgQIAAAQIECBAgUBE4hsEuAgQIECBAgAABAgQqAnP/bxhcaVtOAgQIECBAgAABApeAYbCjQIAAAQIECBAgQCAk4I3BobJFJUCAAAECBAgQIHAKHM8D2QQ4CwQIECBAgAABAgRCArMJ2Jc3BocqF5UAAQIECBAgQICAvwh1BggQIECAAAECBAjkBAyDc5ULTIAAAQIECBAgUBYwDC63LzsBAgQIECBAgEBTwDC42bvUBAgQIECAAAECXQHD4G73khMgQIAAAQIECGQFDIOz1QtOgAABAgQIECDQFTAM7nYvOQECBAgQIECAQFDAMDhYusgECBAgQIAAAQJxAcPg+AEQnwABAgQIECBAICcww+BPLrXABAgQIECAAAECBOIC+1rzXcBFgAABAgQIECBAgEBDYFuGwY2mpSRAgAABAgQIECBwChgGOwgECBAgQIAAAQIEagKGwbXG5SVAgAABAgQIEKgLGAbXT4D8BAgQIECAAAECSQHD4GTtQhMgQIAAAQIECHQFDIO73UtOgAABAgQIECCQFDiHwZt/CE2WLzQBAgQIECBAgEBTYO7/vSys2b3UBAgQIECAAAECYQFfAsLli06AAAECBAgQINAUMAxu9i41AQIECBAgQIBAVmCGweubjS84AQIECBAgQIAAgZrA3P/vdsG12uUlQIAAAQIECBAoC3hZWLl92QkQIECAAAECBLIChsHZ6gUnQIAAAQIECBCoChgGV5uXmwABAgQIECBAICpgGBwtXmwCBAgQIECAAIGqwAyDf4afgZfz0nk3AAAAAElFTkSuQmCC;" vertex="1" parent="1">
          <mxGeometry x="140" y="120" width="769" height="642" as="geometry" />
        </mxCell>
        <mxCell id="0P4mHAlJGLYM7_raSC7B-7" value="" style="endArrow=classic;html=1;rounded=0;entryX=0.988;entryY=0.454;entryDx=0;entryDy=0;entryPerimeter=0;" edge="1" parent="1">
          <mxGeometry width="50" height="50" relative="1" as="geometry">
            <mxPoint x="400" y="410" as="sourcePoint" />
            <mxPoint x="94.93200000000024" y="634.384" as="targetPoint" />
          </mxGeometry>
        </mxCell>
        <mxCell id="0P4mHAlJGLYM7_raSC7B-8" value="" style="curved=1;endArrow=classic;html=1;rounded=0;entryX=-0.015;entryY=0.314;entryDx=0;entryDy=0;entryPerimeter=0;" edge="1" parent="1" target="0P4mHAlJGLYM7_raSC7B-1">
          <mxGeometry width="50" height="50" relative="1" as="geometry">
            <mxPoint x="850" y="194.42000000000002" as="sourcePoint" />
            <mxPoint x="1010" y="220" as="targetPoint" />
            <Array as="points">
              <mxPoint x="880" y="194.42000000000002" />
              <mxPoint x="930" y="280" />
              <mxPoint x="930" y="200" />
              <mxPoint x="980" y="194" />
            </Array>
          </mxGeometry>
        </mxCell>
        <mxCell id="0P4mHAlJGLYM7_raSC7B-9" value="" style="shape=image;verticalLabelPosition=bottom;labelBackgroundColor=default;verticalAlign=top;aspect=fixed;imageAspect=0;image=data:image/png,iVBORw0KGgoAAAANSUhEUgAAATMAAAD9CAYAAADQzZAuAAAKpGlDQ1BJQ0MgUHJvZmlsZQAASImVlwdUU1kagO976Q0CodfQm3SBAFJCD0V6tRGSAKGEEAggdmVwBEcUERGwgIoiCo4FkLEgolgYBFTAOiCDirIOFmyo7AOWMDN7dvfsf84993v/++9f7rv3nP8BQKGyhcIUmApAqiBTFOLtRo+KjqHjRgEW4AEJwACwORlCZlCQP0Bkbv6rfOgD0PR8x3Ta17+//68iw+VlcACAghCO42ZwUhE+g4wxjlCUCQDqAKLXyc4UTnM7wnIiJEGEB6Y5YZbHpjluhtFgxiYsxB1hOQDwZDZblAAAmY7o6VmcBMQP2RVhCwGXL0BYiLBzamoaF+GTCBsiNoiOPO2fEfcnPwl/8Rkn8clmJ0h4tpYZwXvwM4Qp7JX/53b8b0lNEc/F0EcGOVHkEzJdM7JnA8lpfhIWxC0OnGM+d8Z+hhPFPuFzzMlwj5ljLtvDT7I2ZbH/HMfzvVgSP5mssDnmZXiGzrEoLUQSK17kzpxjtmg+rjg5XKJP5LEk/nMTwyLnOIsfsXiOM5JD/eZt3CV6kThEkj9P4O02H9dLUntqxp/q5bMkazMTw3wktbPn8+cJmPM+M6IkuXF5Hp7zNuESe2GmmySWMCVIYs9L8ZboM7JCJWszkQM5vzZIsodJbN+gOQb+wBvQgRcIR8gfIR/gkcnLyZwuxD1NuFLET0jMpDORG8ajswQcswV0KwsrGwCm7+vscXg3MHMPIQX8vC4d+b4OyPeDU+d1sUjM5nEAqJx5nd4C5Ch1ANC6jCMWZc3qZu4SBhCBNJKhMtAAOsAQmAIrYAscgSvwBL4gEISBaLAccEAiSAUikA1Wgw0gHxSC7WAXKAf7wUFwFJwAp0ATOA8ug2vgFugG98BDMAhGwCswDj6ASQiCcBAFokHKkCakB5lAVhADcoY8IX8oBIqGYqEESACJodXQJqgQKobKoSqoFvoZOgddhm5APdB9aAgahd5CX2AUTIblYHVYHzaHGTAT9oPD4GVwApwO58J58Da4DK6Gj8ON8GX4FnwPHoRfwRMogCKhFFBaKFMUA+WOCkTFoOJRItRaVAGqFFWNqke1oDpQd1CDqDHUZzQWTUPT0aZoR7QPOhzNQaej16K3osvRR9GN6Hb0HfQQehz9HUPBqGFMMA4YFiYKk4DJxuRjSjE1mLOYq5h7mBHMBywWq4A1wNphfbDR2CTsKuxW7F5sA7YV24Mdxk7gcDhlnAnOCReIY+Mycfm4PbjjuEu4XtwI7hOehNfEW+G98DF4AX4jvhR/DH8R34t/jp8kUAl6BAdCIIFLWEkoIhwitBBuE0YIk0QZogHRiRhGTCJuIJYR64lXiY+I70gkkjbJnhRM4pPWk8pIJ0nXSUOkz2RZsjHZnbyULCZvIx8ht5Lvk99RKBR9iislhpJJ2UappVyhPKF8kqJJmUmxpLhS66QqpBqleqVeSxOk9aSZ0sulc6VLpU9L35YeoxKo+lR3Kpu6llpBPUftp07I0GQsZQJlUmW2yhyTuSHzQhYnqy/rKcuVzZM9KHtFdpiGounQ3Gkc2ibaIdpV2ogcVs5AjiWXJFcod0KuS25cXlZ+oXyEfI58hfwF+UEFlIK+AkshRaFI4ZRCn8IXRXVFpiJPcYtivWKv4kclVSVXJZ5SgVKD0j2lL8p0ZU/lZOUdyk3Kj1XQKsYqwSrZKvtUrqqMqcqpOqpyVAtUT6k+UIPVjNVC1FapHVTrVJtQ11D3Vheq71G/oj6moaDhqpGkUaJxUWNUk6bprMnXLNG8pPmSLk9n0lPoZfR2+riWmpaPllirSqtLa1LbQDtce6N2g/ZjHaIOQydep0SnTWdcV1M3QHe1bp3uAz2CHkMvUW+3XofeR30D/Uj9zfpN+i8MlAxYBrkGdQaPDCmGLobphtWGd42wRgyjZKO9Rt3GsLGNcaJxhfFtE9jE1oRvstekZwFmgf0CwYLqBf2mZFOmaZZpnemQmYKZv9lGsyaz1+a65jHmO8w7zL9b2FikWByyeGgpa+lrudGyxfKtlbEVx6rC6q41xdrLep11s/WbhSYLeQv3LRywodkE2Gy2abP5ZmtnK7Kttx2107WLtau062fIMYIYWxnX7TH2bvbr7M/bf3awdch0OOXwh6OpY7LjMccXiwwW8RYdWjTspO3EdqpyGnSmO8c6H3AedNFyYbtUuzx11XHluta4PmcaMZOYx5mv3SzcRG5n3T66O7ivcW/1QHl4exR4dHnKeoZ7lns+8dL2SvCq8xr3tvFe5d3qg/Hx89nh089SZ3FYtaxxXzvfNb7tfmS/UL9yv6f+xv4i/5YAOMA3YGfAo8V6iwWLmwJBICtwZ+DjIIOg9KBfgrHBQcEVwc9CLENWh3SE0kJXhB4L/RDmFlYU9jDcMFwc3hYhHbE0ojbiY6RHZHHkYJR51JqoW9Eq0fzo5hhcTERMTczEEs8lu5aMLLVZmr+0b5nBspxlN5arLE9ZfmGF9Ar2itOxmNjI2GOxX9mB7Gr2RBwrrjJunOPO2c15xXXllnBHeU68Yt7zeKf44vgXCU4JOxNGE10SSxPH+O78cv6bJJ+k/UkfkwOTjyRPpUSmNKTiU2NTzwlkBcmC9jSNtJy0HqGJMF84mO6Qvit9XOQnqsmAMpZlNGfKIY1Rp9hQ/IN4KMs5qyLrU3ZE9ukcmRxBTudK45VbVj7P9co9vAq9irOqbbXW6g2rh9Yw11SthdbGrW1bp7Mub93Ieu/1RzcQNyRv+HWjxcbije83RW5qyVPPW583/IP3D3X5Uvmi/P7Njpv3/4j+kf9j1xbrLXu2fC/gFtwstCgsLfy6lbP15k+WP5X9NLUtfltXkW3Rvu3Y7YLtfTtcdhwtlinOLR7eGbCzsYReUlDyfteKXTdKF5bu303cLd49WOZf1rxHd8/2PV/LE8vvVbhVNFSqVW6p/LiXu7d3n+u++v3q+wv3fznAPzBQ5V3VWK1fXXoQezDr4LNDEYc6DjMO19ao1BTWfDsiODJ4NORoe61dbe0xtWNFdXCduG70+NLj3Sc8TjTXm9ZXNSg0FJ4EJ8UnX/4c+3PfKb9TbacZp+vP6J2pPEs7W9AINa5sHG9KbBpsjm7uOed7rq3FseXsL2a/HDmvdb7igvyFoovEi3kXpy7lXppoFbaOXU64PNy2ou3hlagrd9uD27uu+l29fs3r2pUOZsel607Xz99wuHHuJuNm0y3bW42dNp1nf7X59WyXbVfjbbvbzd323S09i3ou9rr0Xr7jcefaXdbdW/cW3+vpC+8b6F/aPzjAHXhxP+X+mwdZDyYfrn+EeVTwmPq49Inak+rfjH5rGLQdvDDkMdT5NPTpw2HO8KvfM37/OpL3jPKs9Lnm89oXVi/Oj3qNdr9c8nLklfDV5Fj+P2T+Ufna8PWZP1z/6ByPGh95I3oz9XbrO+V3R94vfN82ETTx5EPqh8mPBZ+UPx39zPjc8SXyy/PJ7K+4r2XfjL61fPf7/mgqdWpKyBaxZ1oBFDLg+HgA3h4BgBINAK0bAOKS2X56RqDZf4AZAv+JZ3vuGbEF4DAyhbcCMN2eVbn+q51FnoMQDnMFsLW1ZMz1vjN9+rRoIP8JS8KRzgHqrROBv8tsD/+nvP8+A4nXv8z/BLp/AZdFjmwvAAAAVmVYSWZNTQAqAAAACAABh2kABAAAAAEAAAAaAAAAAAADkoYABwAAABIAAABEoAIABAAAAAEAAAEzoAMABAAAAAEAAAD9AAAAAEFTQ0lJAAAAU2NyZWVuc2hvdCFzHVIAAAHWaVRYdFhNTDpjb20uYWRvYmUueG1wAAAAAAA8eDp4bXBtZXRhIHhtbG5zOng9ImFkb2JlOm5zOm1ldGEvIiB4OnhtcHRrPSJYTVAgQ29yZSA2LjAuMCI+CiAgIDxyZGY6UkRGIHhtbG5zOnJkZj0iaHR0cDovL3d3dy53My5vcmcvMTk5OS8wMi8yMi1yZGYtc3ludGF4LW5zIyI+CiAgICAgIDxyZGY6RGVzY3JpcHRpb24gcmRmOmFib3V0PSIiCiAgICAgICAgICAgIHhtbG5zOmV4aWY9Imh0dHA6Ly9ucy5hZG9iZS5jb20vZXhpZi8xLjAvIj4KICAgICAgICAgPGV4aWY6UGl4ZWxZRGltZW5zaW9uPjI1MzwvZXhpZjpQaXhlbFlEaW1lbnNpb24+CiAgICAgICAgIDxleGlmOlBpeGVsWERpbWVuc2lvbj4zMDc8L2V4aWY6UGl4ZWxYRGltZW5zaW9uPgogICAgICAgICA8ZXhpZjpVc2VyQ29tbWVudD5TY3JlZW5zaG90PC9leGlmOlVzZXJDb21tZW50PgogICAgICA8L3JkZjpEZXNjcmlwdGlvbj4KICAgPC9yZGY6UkRGPgo8L3g6eG1wbWV0YT4Ku5MCuwAAOXJJREFUeAHtnQm8VOMbx5/SvhdShNBiaUElJaKiTYmsrZQlrUTWIiSSQlHWUFmKkjaylEiJyJqK/EuIaFNpEfd/vm/eue+de+7cmXvnLmfmeT6fmXPOe971957zO8/yzpwC8xevSJH/ZOvmjfLFJwvk1FNPlYYNG9pk3SoCioAikK8QWLp0qXz00UdSt8FZUq5CRdO3Qm4PIbKOHTvKYYcdJikpIY5zs+i+IqAIKAJ5jsApp5xieGratGnStOUlpj8Fba/WrfnGaGMQmYoioAgoAvkdAbgKCxIlDDFkBpHt271VTcv8PnvaP0VAEUiDAGRWqkQRwUUW0sxUI0uDkR4oAopAQBCAu7Zt+V2MzwxWO7lOkyz7yQqtWiXFZ8w0Qy+8arX8XbOG7Duupjne1b593CEp/OdHUvyXx029hbavl32lD5d9ZU42x38d2j/u7S3e9Zks2b1cPt79paza9Z2pv2bx6nJKsTpm/4byPePeplaoCCgC0SEAma36blEqmWVFM7MkBoG5wrFNKz5jluzq0E7iQWqWxCAwVzi2acV+fl12H3aexIPUILFHtj4fIjC3TUjNEhvpjYqdJI2L7ydUN5/uKwKKQM4iAHehkIWimbFGL4vPnCUlXp8VVS8hNIKju9q3iyq/X6YSv4zxtLH92p/feTcNQmM82SG00VsnyKQt09xqM9wn3ySZJl3Ld5SB5XpkmC/WEzt27BA+VsqXLy9Fixa1h0mz7dWrl1SoUEGGDx8e9Zi3b98uK1askMKFC8txxx0nxYsXj7qsZgwmAiGfWSzdj4XIbL0QH5pcViQWIrP1Q3yFt39kD2PaxkJkbsWQGtpcvGTUqFFSu3bt0KdKlSpCSPrFF1+MVxOBqOebb76RVVFeOx9++KGcdtppcvTRR8u5554rLVu2lKpVq8rpp58uy5YtC8R43U6GP9Dcc7qfFoEsaWbRamRpmxIp+8Ao2TpooOyrud+fFn4+o+NoNbLw8mVWDZZtNYbJ36VjWwAcrUYW3h7HfX4dIp9Vne13KstpkBqyePFiWbBggQwYMEAKFSokF110UZbrDGLBzKyHBx54QB588EFDXmhxtWrVkr///lu+++47eeGFF+TXX3/Nsl84L/D6+OOP5YILLpCJEydKs2bN8qILgWozRGbR9rrErOhMy4zqK7J6dUxkVnLD2Iyqiiq9yI6PYyIztLLsypLdn3k+tPj5z84//3wpVaqUdO3aVb788ktp0aKFPPfcc0lHZpHmZcmSJYbIwObJJ580eNn8aGU9evSQf//91yYFYotWtnfv3kD0NT90MmRm8tSL7pO9bhdeuTrKdlL7k50WC/+5PKb2stOWLfvI1okxtRkJd+p0z2N2HnHEEbJmzRqT/ttvvxmz86qrrpJGjRrJbbfdJp9//nmaMhs2bJBBgwbJGWecYUywa665Rn7++WeTJ6Nz/FykS5cugnZg29+9e7d0797dkIVNgyBoGwIh7Z9//pFnnnnGEG2DBg2MqTdixAihrC3z/fffm7oXLVoknDvrrLNk9uzZ5jym4OWXX27MaX6NMnNmqp/Ulvfb3nzzzVK6dGl56KGHpGTJkqG23LwFChQIpe/bt08efvhhadOmjVlfCdmhwdn8to+Q5OjRo6V169bSpEkTufPOO9OMhfxff/219OzZ09RDfY899pjBgXO2Hr+xommjQZ5zzjnCA2vSpEmCr49y9913n8GG+Qcj5uKdd94J9Y/579evn9HYmPcrrrhCPvnkk9B56kBTBRfmkAchWh7pifgBp5BmxgCjkZIzs2dCWSCjaYs8JTZkTxNkVNGOjfYmb53OJtsSS5uZNeZi9uOPP8r69eulbt26ZlxPPfWUuQlatWplyOrVV1+VyZMnG+d3iRIljDbCRfz777+bG4Itpiom1yGHHGIucL9zhx9+uLz11lvGZKtfv77p4vvvvy9vvPGG8V9deeWVJg0n++uvvy5NmzY1/eGm4aaDoM477zyTFzOZNiGsggULypYtW0zdEOq2bdukRo0asmfPHpk/f7656SpWrCjt2rUzWujVV19tyhx88MEZzuOff/4pK1eulM6dO0ukfC7OkAPtnXzyyeZD3+gjPrdKlSqF+vjtt9/K1q1bDSkvXLhQxo8fb6qB1BAI6bLLLjOBhvbeMqTPPvtM7rrrLuEhM3To0FA94WNF4+rQoYP5HXTjxo1NuRtuuEF++eUX8+ApUqSIqZM22C9WrJgccMABBgMIljbR1qkDkqb/YPbss88aPyHleDDgb5wzZ44cf/zxxjURz+uSNvKTxExme2tUlyKr96+1yspAKBsLoH+XOlwK70i7FCOWdikbS3s1ih0jq3eviaWJdHlX7/4+pjbTVfBfgu032507dwpkMmHCBFP3hRdeaLY4uIn2EelEIJFu3bqZGxMtAcc5T/Hbb79d+vbta/LYeiOd4waBMN97773QWObNm2fK//DDDwKpQnicRzDvXnvtNUNkEN0999xj0vkaNmyY0VamTp0ql1xySag+blzIoFy5coZ06Ts3LSR64IEHmvJoKzfddJPZt/02B84XRIZAim4eiAnNyAo+tHr16hnyhcggjxtvvNGchtzQjp544gm54447QvVAOhAUxIH/DUwYJ3nQSm+55RYTYUaTZRwIvky0U3ybtj/uWMlDWQI5jNkKczl37lzTp+uuu8601alTJ1OPzYfma/HgocEDCaEtNOHBgwfL2WefbQiOdB5U9JHziO2POUiwr5CZmVvj2tGubW41ZdrZWSnry0Gy2tHOZc/PalHfcpiW3KiYEtygkAVmEYJmwbIDTIwpU6YYwiOdYwRNheUJaGsffPCBSYOo+EQ6R0bMn9WejxNTlJsAkuEmQ7uyJAbBnnjiiaYuNBvk4osvNlv7hYaG8C8HrnCDWgJAc6Et/FuWyMiLqQmRRJJdu3aZ02gurrz00kvmRuZm5mNN1nfffddkq+kFojD/+KAZElSxxGjrQdux7YMjP59Bq8VM/emnn0yf0VwxNW1dRJ0hPkjfijtW0sCQNLRscIVEIU40QR5cGQk4YQ7jMrBERl4wAzvqgzhdQWNMBoldM6uZPc3MezbE9HTYW6putjSzWNvrW7qL9N99V7bmnhs/nk9A/DGYjNwkkNcxxxxj+kcbmBBDhgwxN1iZMmWkqrcMAeEJznnWZ40ZM0ZuvfVWQzKQIn4UfECRzlEHT/iRI0ca4jr22GON6YRmBaFCZmggaCT4bmjrf//7n7mp0IDc8Z9wwglC37j5Sbfn+Kspu09ZhBvSpnEMUR966KHspkk3Cf99WTysH9GeI7KJ7wl/XZ06dUx56rZtYcKGC5oMeWwf0OTsPnmrVatmirhkhZbHJ1w2btwoBx10kEl2x0rCpk2bjP9t+vTphtiYW+vshyjdPrj7liDPPPPMNP2iTsxViBFCs5hBeFwT7hjIm4gSM5ntqV5NIj8nI8O03TN9PGQjZ3LO7ilRX0pK1v10f1bsHVN7DYuc6LSetd0BpbvH5eKxF2D//v1D2gE9sulEu3r37m1uVKKbaHCbN282W/cG4MmMGYg/bezYscZZTbi/efPmEukcJMRNga9o7dq1AqERfGCZAL4jNC20IuqmPbQs2ucmRuuzgiaDXwtfmNsvHPZ2LHYxMJqHTaM8Wsq6deuMFuKm27rZVq5c2RAzmpcNBJCOr4mPq7FRB/1EM0VTtVoX+RG0L/K4bbn7+3PtnwOrVWLWDxw40J4KbTlP9Blxx8rx448/LhAZAQB8mpzHFcA8hrdPftsH2yZarE3jPILGhrg4h7drMiToV8jMtABmtt1Trbr8cX3/LMGx/dzWoYnKrB17fnfJBrLpqP3O1lgb3VGxbczt0e7DB94Ra1Oh/JeVPi9LbdrxultbqZvm7kMmaAhoS1Ybwhlvxc2LhoNz/uWXXzanMQ/t+UjnICrIjCc+Ph3KYB5BTo8++qghEpzLpNstQQJbN1tr1rnaUXgfjzrqKEMwbsSOsvjpMAHd+vz2ITG0HcxJCDY8j9se2hXncZCjOdkPppq9+Tlvxa3LTTvyyCONaYqWauuwW3yYmK0Z1YNJSqABIoRQ0cbQshHbHqYoQgDCprEYGL8iGON3s+ls0Q4hO7Q8jq24eRJ1n7HGrJlRaI93MfzZtrWUmfMGh1EJ+bd7po2HclT53UwQ2vaD20rp3/dPtnsuo33y/1nx2iy117BIXYGUXtqeSgwZteOmU6Z/qW5pLiT3fFb37QUYXv6kk04ymgcLQjEnvvjiC7PAkny2zPLly2XcuHFy6aWXmgt9xowZphrMTRzbGZ2jPIKpiRbHDUVUknRIi6c/5iYEafPiy8Nhj2nHjQZ54YPiGI2OaKPNS93s22NMXiJzONchJAIcBBnuvfdeY4bZ/Gz9hOgepMn48F/ha+PGx6TEFEZse/gb0YCGDh1q8hIJRnskMnz33XcbU962Ycu4x7YuiI/xE0GkPTDmd4KQG+Yg9VkJrwffG8tZWMaBmQxumLi2bvKDH4SI74/lJpAUfj4COZjQ+FBxQaB5Uh7f5v3332/worwVd9+mJeI2S2QGEH+2buV9p3iE9mZEXDBLt7VpJXurV+dqipg30sltFXuZ9kr/PjdSNtlboopsq9hD9ngEmJ32+pXsKqcUri1L934pL+9IXevk13j1okdL75KdBBM1py4cv3p5ChONe/rpp836Ly54lgWQhhlFGXxtOJUvv/xy03XMLvZx0hPpy+icbQ9fD3WULVs2ZL5SET4bopPWxCSNPK+88opZWoDJhNAPnNWslcKUtPWak96XewyRYFYSrOBDfayP40a147Hl/LbgALFjAtOeFXBBe4VsaA+NiDqJZlKGD0I/ISO3T6S7x/TDCun4ItGqiExa0kQrI+LolguvB40M0qWfED8/U+NhYPtCWcgSwqKvaHKYpDyE+vTpY0gOXyiaLMK1QF2QuttuNLiZChLgqwDvAFg4b0ooOpaVMZV5Yz+hFfvueynqfSAwZFublp4W55FYnKXsxv1//1Psry+kyF8/ewR2mGlh28E9BC0u3jJ25yRT5bK9X8v3e/dHqKoVOVrqF6llCC8efrbs9JmbAQ2kqufodf1Dbp34sv744w/zdIecXIl0zs0Xyz6LP9F2WL6BWRSLYMKipaBZueQRSx2QIgEHTEdMv4yE9WCsdYPEIL2sCs57/IoEOtBarYmYWX3MCRKpj/b3mZCwK8w7Y0R7sw5/93wy7bNkKURm9smdTADoWBUBRSAxEMBtkGUzMzEg0FEoAopAoiAQIjNUVhVFQBFQBIKKQGhpRlAHoP1WBBQBRQAEQpqZGwFRaBQBRUARCBoCITJTMzNoU6f9VQQUARcBJTMXDd1XBBSBwCIQIjP7M5fAjkQ7rggoAkmNQIjM+OcDFUVAEVAEgogAf6Cg0cwgzpz2WRFQBNIhoGSWDhJNUAQUgSAioGQWxFnTPisCikA6BJTM0kGiCYqAIhBEBJTMgjhr2mdFQBFIh4CSWTpINEERUASCiICSWRBnTfusCCgC6RBQMksHiSYoAopAEBFQMgvirGmfFQFFIB0CSmbpINEERUARCCICSmZBnDXtsyKgCKRDQMksHSSaoAgoAkFEQMksiLOmfVYEFIF0CCiZpYNEExQBRSCICIT+AiiIndc+KwKKQCoCCxcuFN7fifBu1NNOOy31ZBLsJRSZrV+/XlatWmU+vK27VKlSUt17kzof3gTNC2FVch4BXv773nvvpWuIF/rylm5eWFunTp2oX5SbriJN8EWAt5/zAmWElxp/8cUXvvkSNTEhyIy3ed94443CkymS3HfffXLVVVdFypIU53iD919//SWVK1fOkfF+9dVX0rdv34h18wbvbt26yU033WTeyB0xs55UBKJAIPA+szFjxsjpp5+eKZGBxT///BMFJImZZePGjfLQQw9JmzZtjKY6efLkPB3oH3/8IaNHjzaElqcd0cYTBoFAa2ZTp06Vu+++O91kVKxYUY499lj5+++/ZcOGDfLjjz9Ksr99atmyZXLvvfemwyo3EjB5MCs///xzMx9um2+99Za8/fbbcvbZZ7vJuq8IxIxAYMkMkrr11lvTDPjwww8Xq6m5J/Dh8MKWqlWrusnp9iE8PoUKxQ4LWt8BBxyQrk6/BJy0RYoU8TuV5bQ9e/ZI0aJFs1zer2B28HDra9asmdEKSfvmm2+kbdu2smPHjlCW+fPn+5JZLGPiva/kL1asWKhev51o8/mVzU5aTsw588N4or3ustP/IJSN/a7NJ6O65557BN+PFbSxBQsWSLly5WxSaFupUiW57rrrQsfuDtrbo48+Km+++aasWLHCaHPHHHOMNGnSRG6//XYpU6aMyQ4h9ujRI1QU07ZTp06CH+7DDz8UzLgjjjhCevbsKb169Qrlsztff/21jBw5Ur788kshUIHPCO0R31KLFi1sNvFrp2XLljJu3Dgzvosuukjuv/9++eSTT2TatGmCxoXmuXnzZhPwOProo6V79+7StWtX42CnrWuuuUY2bdoUaoOd559/3tSHUx6ixzGPRIuHyZyFrxNOOEEuuOACmThxYqj02rVrzX60Y7IFeaA99dRTMmvWLPn5559NJA8yq1atmtxwww3Srl07kzWzfDwEHn74YVutXHbZZQY/m3DxxReHyJcg0qRJk+wp44OlbaRBgwZy1113mX2IBoxnzpwp3333nZnXsmXLGhO/adOm5nosXry4ycsXJvc777wTOn7sscfM/DK2devWyeLFi03ghAwvvfSSvPDCC4Jvkodo7dq15ZZbbgmVTdadwJLZRx99lGbOMDf9iCxNprADLkJuegjGFRsRnTt3rrkYjzrqKNm1a5d8/PHHoWxoAVOmTJGffvoplEYgYvDgwUa76927dyj98ccfl6FDh8q+fftCafiMFi1aZD4DBgyQIUOGmHPh7aDBceFCcoiNVlE/7bmCtsNYuJGXLFkitEua22+bn/psnTacHwsetp6sbAsXLpymGNoFEu2YyAsBQlYQlSu7d+8WHhxogJyPJl+HDh3SYFS+fPkQmfGAQ3N0hTYJnhBEef3110MujLPOOstk4wFy+eWXp4sm8vDl4cPnlVdekeeee86Y3xSC8Nx5euCBB0we2y4PGYRrhevBFR4CnTt3FsaezBLIAAAXBdqIK5guVngijh8/3veDBmPl+uuvT0NkaHcQlxUuWrQzPyHs7RKZmwdNz96gXGgQlUtkJ510krg39COPPCKfffaZW0VoH8KzpBNKdHYqVKggp556qtSrV0/Qsqy8+uqrhtDscTTb7OARTf3k+f3332X69OlpstN/V6IZE8EMl8hYfkNwo27dumlwiCYfGrIb2XXn4v3333e7ZvZ5UCCQJhqYFTRs5r1Pnz7piMzmsVuuXzRmHop+AtmFC1paOJHZPMlOZOAQSM2Mp64r+MpclX3YsGGyZcsWN0ton4WE3CxoXe4Tl6c4mgyaECr7M888Y8rgoGbNmp9fAnOOJ+V73pqqgQMHhtrA5ORzyCGHyKBBg0LEBtnMmzdPTj75ZHMjQmqW5Gj7ySefDNXh7qApcOFjUkC4CCYNJHnuueeG1mvhSMdEssKNSPsQ77vvvpumj1dffbW56ciL6RQrHphy0Qpa9M033yzLly83H0v0lMfEa9++vakq2jE1atRIli5dGmqeBwNzaa8BiGL79u3mfLT5mjdvLjbCC+HyoKpSpYpvlJw6MZXddVy4DU488UR57bXXjEloO8e1hinMdbdy5UpjlqKFIWwnTJgg1157rc2eZot7AXcG5XADhAdwcHPgboFU2aLxJbMEkszcpyGTZwkhlonEB+FKq1atzMVFGn4nV1avXi3HHXecmyQlS5Y0Fxc+GtZLQUbks/LLL7+YVdhcaFZq1aplyNKmEZCAKBG3rM1vtxDrGWecYQ/NFh8a4+bGoix+FVuXzYgZWrBgQbOAkpvNFQiSKKOVWPGIhcy4ae0NbNuzW3xFFu9ox0RZ8LeCCYZWduWVVxrTEt+llWjzuWRGWbQzHkbhuHDOamZEZ60Q5OBh5ZIn53i44CNDmH/cIe4D59NPPzXnwr/QVl0tDJ+nO7/MK+QGyUGU+Opc6yS8vmQ4DiSZ1axZM83cYG7ga7JPZi4eGxzggvPT0sLJA9MgI+FJH05maAdu5Kx+/fppCAk/VHgbOGzPPPNM32YgIz/hVwyNGzdOd4pgx2233ZYhSVDAaifpCvskhPc1Mzx8qogpCby4sU855ZRQuVjGhCbtakZgi5ZMhJsgDNo1Wl+0+bhm0L7tWkTIDC14586dpn8XXnihYLoj3377rfFdur5Wu7TETSMvJOkK43YFrctP0MpcCfePogXaoA35wBENOzzQ49aR6PuBJLODDz7YmIqu/4uIHD/nQJ5++unQvKGKYyqGSyyTbp2vbh3hyyD4LVy44OSPVjLSLhs2bJhuqQhOZ25YV1jHhaY3e/bsNH4cN0+k/eziEaluzGmc7GBGH9HErDZmy8U6pn79+hmyxjdqAxjUhVN+7NixRlPFhIs2H1FrzFwbWILM7MORetH6+IUJJihmMvsEihC0JOv8t2RoTnhfRMZdIW80Ev67Stp1xdWqSecatcTr5kum/UCSGROE38kNZQ8fPtxcUNws0QiOfvfJTrQRQvATTKqMHLV++W2aG0wgjRv4wQcftKfTbN2AgHvC1f5sOje+FRzXc+bMMctCIE+cxNFIuMM4VjyiacPmwbyKpOmRL9YxoUXhM8T3R1QZhzkakxWWRPCww2cVbT60KEtmXBv2AQPRQcgQzIwZM0wTEKV1d0CCNpLOb4DdAAKal0s8bh+piOCDn4TPO/47VzB1IVUb9MEcDp9TN38y7Ef3mMiHSGCiuAtPMSXxKxFJxNGM6fnBBx8Ivis/4aJzBecpFyt12A/kA1nww+isCAThLsD94YcfzEVv62drn8CYrdGKG7ggimd9RC+++GIo2BBeV7gmydo4ezOSNzfwCO+TexzrmAh28IDBr9W/f38h2GG1I1sv2ky0+SiD38sKWo5dKsGaQ8jTzhV5uLasuOsEjz/+eJtstiNGjJCtW7eaferk2JWMHqBuHvbDH9I8uNDCEbQy1xoxiUn4FVjNjJuPHykTubSCiYGGFY106dLFLES1K9G5MKiT6BFm7Jo1a8waMOqDMLIiaFuYJwQHrHDDsMgRHwcXOQ5jtmvXrrVZMt2iBdh+cxPjz8FHCIlnJJbw7HnImwWsaB/ctLmBh23bbxvrmFhGgknXunVrOfLII81DyzrmqR9tinnr2LFjVPkoA7Ew9+EmnfVzQmp+4pIZ6xaZb/sQRUvDiuDByPoz15xHY3MXYvvVbdPwjxGkYnG3FcriP+b6ibR8x+ZP9G1gyYyJwR+CjBo1ygQAzEEmX9ZngbZ15513mqULtgiEYJ92Ni27WxzR+OzQyqzgrOZjBSd/LELU6oknnggVYWkIwgWfkdOfm4kghmvm2JsWDS238DAd9fnKypjov/tLArdatDU719Hmw2RDu+M3v67YaCTkSFCAZTdW+HUJDycrzAHrBiE1a/ax0NmNfJKXKCs/vYtl7jGXmWtbL2amDSBQj33A2b4k2zawZiYTherPz5TwF7DuJyNzEL8JDnOiZfhvrBAwgLzcNHuOLeFxG32yN4Y9T9uuhB/b/FxkXID8bMkvSEAEitXbVmw5exxeL+lE7OzaLJsPnwo/b2KsVtyy7OMsD48E4+S2+WLBw7bhtw0fQ/ixX5lYx8QiYeuncuuDcFjuYX++Fm0+W0d49BFcXSe+a2pSJjw/aRAiZjwRyXBfKOY+xI0WaUmSMtb3xT5i52T/0f5v5o4HY7ifDc2U9W0uHtFg7tadCPsF5i9ekbJw3pSQlhP0QeGXwERkC1Hg83JD2BmNj/ys48FUZQ0W5fgtXTyFJyk/GcLcwN/HUx4C9rtwo2kXvyDLRuhruBmZUXlMM5aB/Pbbb8bfhC/G78LPDTz8+hjrmBgH4wHDSP7NaPP59Sk7aZjxuBDQDtHiIB4/vGNtA+2Q5RrMO+NOdiGCnXBkluyTquNXBJIRAcgs0GZmMk6ajlkRUAT8EVAy88dFUxUBRSBgCCiZBWzCtLuKgCLgj4CSmT8umqoIKAIBQ0DJLGATpt1VBBQBfwSUzPxx0VRFQBEIGAJKZgGbMO2uIqAI+COgZOaPi6YqAopAwBBQMgvYhGl3FQFFwB8BJTN/XDRVEVAEAoaAklnAJky7qwgoAv4IKJn546KpioAiEDAElMwCNmHaXUVAEfBHQMnMHxdNVQQUgYAhoGQWsAnT7ioCioA/Akpm/rhoqiKgCAQMASWzgE2YdlcRUAT8EVAy88dFUxUBRSBgCCiZBWzCtLuKgCLgj0CevGqO/+tWUQQUgWAjYF/1mF9GkSdkxuCjfVlvfgFK+6EIKAKpCOTH+1fNzNT50T1FQBEIMAJKZgGePO26IqAIpCKgZJaKhe4pAopAgBFQMgvw5GnXFQFFIBUBJbNULHRPEVAEAoyAklmAJ0+7rggoAqkIKJmlYqF7ioAiEGAElMwCPHnadUVAEUhFQMksFQvdUwQUgQAjoGQW4MnTrisCikAqAkpmqVjoniKgCAQYASWzAE+edl0RUARSEVAyS8VC9xQBRSDACCiZBXjytOuKgCKQioCSWSoWuqcIKAIBRkDJLMCTp11XBBSBVASUzFKx0D1FQBEIMAJKZgGePO26IqAIpCKgZJaKhe4pAopAgBEoKCkpAe6+dl0RUAQUgf0IFJQCCoUioAgoAsFHwDMzlc2CP406AkVAEVCfmV4DioAikBAIKJklxDTqIBQBRUADAHoNKAKKQEIgoAGAhJhGHYQioAhoAECvAUVAEUgIBArl1SiGDh2aV01ru4qAIpCACOQJmfXr1y8BodQhKQKKQF4ioAGAvERf21YEFIG4IaABgLhBqRUpAopAXiKg68zyEn1tWxFQBOKGgEYz4walVqQIKAJ5iUBB/WVmXsKvbSsCikC8ECiYon8BFC8stR5FQBHIQwQ0AJCH4GvTioAiED8ENAAQPyy1JkVAEchDBDQAkIfga9OKgCIQPwQ0ABA/LLUmRUARyEMECqaIvgMgD/HXphUBRSBOCKjPLE5AajWKgCKQtwgomeUt/tq6IqAIxAkBDQDECUitRhFQBPIWAQ0A5C3+2roioAjECQENAMQJSK1GEVAE8haBPPlzxrwd8v7WP/74Y/npp5/k559/zg/d0T4oAlEjcNhhh0mVKlXklFNOibpMMmRMSjKbPn26VK9eXc4++2ypWrVqMsyzjjGBEFi7dq3w4Tq+4IILEmhk2RtKoQJJ9kZzNDKI7Mwzz8weclpaEcgjBHgA24cw17NqaPsnIumWZmBa2gshj65FbVYRiAsCXMdczyr7EUi6AAA+MiUzvfwTAQGuY/X5ps5k0mlmqUPPnb1//vlHvv32W5k7d6589dVXwnGyyjfffCOnnnqqzJ8/30CwceNGGThwoMEnFkzC64mlbG7kfe+998w4mW+V3ENAySyHsN62bZv06NFDSpUqJccff7y0bdtW6tSpI2XLlpWlS5fmUKtZq3bDhg1ZKxhjqe3bt5ux//HHH6bk+++/Lw899JC88sorMdUUXk9MhXMh86ZNm8w4//zzz1xoTZuwCHgBAJV4I7B69Wpp0aKF8WdceeWVJmp68MEHy+LFi2XBggXxbi5b9bVr104glyVLlmSrnqwUPu+88+Sdd96Rhg0bZqW4llEE0iDgLc1QOkuDSDYP+Bvyq666Sn799VeZN2+eITJbJRHU2267zR7mi63VkvKiM4ULF5bmzZvnRdPaZgIikHQBgJyew1dffVUwn/AFsY4tkvz777/y2GOPScuWLeWYY46R008/Xe68807Zs2dPqBhaXvv27eXDDz+UMWPGSLNmzaRmzZrSqVMnWbdunckHaZKHdl35+++/5cILL5SRI0e6yWYfPx5l2Nr9bt26hfJ99913csUVV8jJJ58sxx57rKnno48+Cp2PtDN58mRB46tWrZpZAoMp6Sfu2DjvHmc01vB63HydO3eWH3/8MU2WaDD+7bff5Nlnn5VLL73UjHXAgAHy6aefhuqx/cIXxvycdNJJZo0XGfbu3St33HGHNGrUyLgTeJBt3bo1VFZ3cg8B9ZnFGWtrrvXv3z/TmiGTvn37SsGCBeWSSy6RAw88UO6++25p2rSpcBMimzdvllmzZkmvXr1k1KhRUr9+fTnjjDME0mzQoIFs2bJFateubQIMTzzxRJo233jjDZk2bZocfvjhadI5oM3ixYubrd0vVqyYyQcp1q1b19QJwbZu3dr4gJo0aSIzZ85MV5ebgFndtWtXwW8EkSIZ+cTs2GxEzh5HGqvb1j333JMGE9qxmNh80WAMIQ4aNEhKlixp3AOQMeP+66+/TDW2X9dff708//zzUrlyZUNiaOE8iOgHaTxoXnvtNTOntn3d5h4CSfkLgJyEl0hbmTJl5NBDD43YzMsvvyxz5swRtICHH344lPeWW26RESNGyMSJE+Xyyy8PpaOFseq7QoUKJq1evXpy7bXXyqOPPipDhgwxhPP666/Lzp07zU1JJm68gw46yHeVONrdlClTjEZBXvYRSBQyQT7//HNzk7J/++23myUt1113ndG6ChRI755AQ3zmmWeMmQ2x2jyupkldmUlmY7XlM8sXLcYQ3g033BDCtlWrVmaMjOf888+3zcn69esFjbV8+fImDczQ1m699VYZPny4SXvwwQeNhva///0vVE53cgcB/deMOONMpK1IkSKZ1vrmm2+aPN27d0+TFw0N+eCDD9Kkc1NZIuMEx5CFNYcwbyAyqzmhTcyePVswHaPpj20MMw2zExMZbcMKpIh/i5s0o4WaaIH4wTBrLZFRvmjRoraaqLaZjdVWklm+aDEmAFGiRAkToOEBQFACwbR3BZKzREY6mi+CeWoF7ZYotkruI+CZmemfsLnfjcRpEY0HpzpkEkm+//57qVixovG/uPlOPPFEKVeuXMgfZs8RHXXlkEMOkUqVKsnvv/9uktu0aWPI58UXXzTHaA34cyC5WIR+IZhP4UIAA7G+OnPgfK1atcqYtCw/yY5kNlZbd2b5osUYEsa/d9pppwma56JFi0wT4WsCMf9dWbNmjZlDlty4go9RJfcR0ABAnDHH14Q89dRTEWtGy4L0cD67wpovHMiuVsR51q25AqGQl39PQAoVKmTMUkwjiBQzFb9PrDeW1f5WrFjhNmf2V65cabbhfbMZ8TlhCrMYNjuS2Vht3ZnliwZjNGmCKUcccYTRcvFBgqGfhJM0PkfyU4crmOcquY+ABgDijDkOcAhm2LBhxmzxqx7HMRoY/qkZM2akycIvBRAc/a7glHbl7bffNof4zqz07NlT9u3bJ/fee68Qebz66qvtqQy3BxxwgLkhbQY0S25SHNnhb7unbwQpqlatarOn2RLlY0xoOtmRaMZK/ZnliwZjzHk0WExDIrcIvrZoBKyIGL/11ltpsk+dOjXNsR7kDgIaAIgzzqz4x/l90UUXmagjBNO4cWNz0bNglg83IZGxxx9/XHD4QwCQFz9/wZl89NFHyzXXXJOmZ/xqoGPHjgJZsobtpptuMs59ggBWWN6BKTh69Gjj27HRRHveb0vfcFpPmDDB+OQ6dOhg1sIRVGBRKwEKtL7x48cbXxljgwD9hDFxnjEwJsgE0sXH9vTTT/sV8U2LZqwUzCxfNBjjZ8Sn9+STT5qgzbJly2TcuHG+/QpPJBINLpimjJegD+NU5384UrlzrL8AyAGc8V8tX75c+vTpY4iLGwU58sgjjenHFkfywoULBbLr3bu3Oc8SiXPOOcfcWHaZhDnhfQ0ePFgmTZoUWt+En+all16S0qVL2yxmi4YBYXbp0kXC60iT8b8D8qFx0Q98cJAZZIQjH+2SZSEIGhmmM2SakRAkILpHH7jREcqxXg2xQYGMtiaT95XZWG158mFO879eSDgm0WAMRiytYC0cPzkDT5ZqMAbbTvjWNOZ9oZmhheGXvPjii01+Hg5EmIkI23I2v25zFoECCxavSHlv3hTp169fzraUT2ofO3asDB06NNd6wxMbRzH+Fhz+fsJv+Oy/eWDiuYK5yIJMHPrcMD/88IO54fh5lJ888MADcvPNNxstr1atWn5ZfNPQJtAs3Mgjfcc3h2bmt1bNt6L/EvH74Q+sUaNG1Dd1rGO17WeGCfkiYcx5xsqyCwIBGWme5PMTO8eQuRvt9Msb7zSu5WS5dyNhx31dSF8CHAmi7J9D2+LPICMJ69L4RCOYoBnJjh07hEllWUUsREZ9Rx11VLpq6btferqMPglEZPlkRyKN1a03mnyZYcxY0bSyItHMcVbq1TKxIZB0AQD+P52IWyIJGhAaGWYSEdJofT6JhEEyjoXrmOtZZT8CSbdolkhjkMiMBa+sKQs3P90LmLVmrNDH3OEnPZhKQZRoxhrEceVUn7mO7dKcnGojSPUWClJn49FX/i/dOoxZYpDRMoN4tBWPOlguQPQykmBSskQg6BLNWIM+xnj0HxLjg49PX2iSiqhHZgVSj5JkjwuAF0GwbMD+yDlJhq7DTAAE7KvmlMjSTmbSBgDQ0PStNmkvBj1SBIKMQNIFAII8Wdp3RUARyBiBpAsAZAyFnlEEFIEgI6CaWZBnT/uuCCgCIQSUzEJQ6I4ioAgEGQHvL4BUFAFFQBEIPgKqmQV/DnUEioAi4CGgAQC9DBQBRSAhEFDNLCGmUQehCCgCSmZ6DSgCikBCIKABgISYRh2EIqAIqGam14AioAgkBAIaAEiIadRBKAKKgGpmeg0oAopAQiBQKEj/AMTf9vzyyy+yfv36hABfB6EI5AcEeL8D738I+r/IFPJe4RgI4T2OvEqtefPm+f4PFQMBqHZSEfgPAf7okRfacI+df/75gcUlEK+aQyODyM4666zAAq0dVwTyKwLuPy5zrwVVQwuEzwzTMqtvCcqvF5D2SxHIbwhwj3GvBVUCQWb4yPL7f/UH9QLQfisCFgHusSD7owsGKQBgQc/PW142++GHH5p3DOzatSs/dzXX+rZhwwaxH16Fl4zCm95PPfVU83LmZBx/boy5YFACALkBRnba4GI94YQTzJvLmzRpIg0bNjRvHq9du7bwpu4gCgSUXYHQiZTZD29iL126tFx66aXy448/Zrf6wJTftGmTLF261LxZPTCdDlhHAxEAyO+YDh06VO6++27hzdq8Ubxu3brm1W8rV66UZ555xmgl+X0M4f1r166deaHwkiVLwk9l6bhVq1bSpUsX83q0N998U6ZOnSpff/21fPrpp1K0aNEs1amFFAEXgaR7b6Y7+Hjsv//++4bI2rRpIy+//LKUKlUqVG2zZs2kd+/e5uW8ocSA7MTbHDz++OOlc+fOZvSQf/v27WXWrFkCfmeffXZAUNFu5mcEAhEAyM8A9unTR8qUKSNPP/10GiJz+1ywYFqYv/zyS7n44oulRo0actppp8moUaNChLd69Wpzo3/wwQdy7733SqNGjYz5OmjQINmzZ49brUSqh4x33XWX9O3bV9CuzjvvPLNGj/TffvtNnn32WWPqHXvssTJgwACjIXHu22+/Ne2ztfvdunXjlJF//vlH7rvvPtNv+n/RRRfJqlWr7OmotxdeeKHJy3gRSG3w4MFmWQAPAfDcvn27OWe/pkyZIpxDA2aZzvjx4+0pyegc4+/fv38oHzsTJ040Y+RN8FZmzJhh0iyJ84LdK664QngxMRjR33B3QUb47t27V+644w4zd5D4VVddJVu3brVN6TaHENAAQDaA3bZtmzGVIKZKlSpFVdPChQuNP23evHlyxhlnGB/KjTfeKDfddJMpv3nzZqOxQCAjR44UbgZu6gcffNDc7LaRzOohHyQ2bdo06dixoyHCwoULm+JjxowRyLFkyZLSokULmTx5spx++uny119/CcRbvHhxs7X7xYoVs80K5udtt91myBe/4OzZs6VBgwYxh/TxMSIsB+Bt7E2bNhUI/MwzzxQIEwKA5K288MILhnwPOOAAs4UwMFeRSOf27dsn48aNky1bttiq5NFHHzUYv/POO6E0CO7zzz+Xgw46yBArroK5c+caXFq3bm38XfhCZ86cGSrjh2+K54Ru2bKl3HPPPVK5cmVDvixGhVRVchiB+Yu/TrnzzjtTvCdSvv3Qv/woXtSS30+kPPTQQ2m6N3/+/BRPawh9vIvenPdu0hSPnFLKlSuX4pFWqIz3q4aUIkWKmDTyUqfnME/xIqMmj3fjphx44IEp3puso66HjN5NZeryNDxTzn55GkaK55C2hymeuWfyTZ8+PZTmRd5S+LjimdEmnzsfnkZl0jxydLOG9j2CNOcHDhxo0lasWJEyYsSIFI8wU4444ogUj6hTwMUjplAZdurVq5dSp06dUJpHyCke+Zq8NpFySKRzHtma9l955RWT13uDfUqBAgXMp3v37ibNIzwzJ55LwNR/3HHHmf55a67Meb48Lc6075Fvyr///mvS/fC1GN16662hsl4QJIVyzOuiRYtC6flxJ79zQUY8Rb+9f80okMN0mbjVo8kgaAuuTJgwQa699trQB2c3sm7dOvFuZmN+LF++XDzSM58jjzxS0DSsyUVezDeifggaFZoTCxrRNGKph/Jojq6gUZUoUUIWL14szz//vFgNhSUlkQRNBalVq1ao77t37zb9++qrryIVlUceecS0iaZ58803S5UqVcQjT2OaowGizfCzGvxo3sPB4IEZvWPHDlOvR3yyc+dOo8ESGUSs+R7pHD9/Y6xowgj1ly9f3mhKb7/9tkn75JNPjBl47rnnmggr5jV+PDQrK2hs1MXPfn766SebbLYuvm+88YZJI1prBc22R48e9lC3OYSABgCyASy+FMQlIY7x92DasCzhkEMOIcnI999/b7Zc8Pai/++U2eDLqlixotnHV+YKbeHXgcyiqceWZUlEtWrV7KHZYnriJ/O0FPG0RPNTMU5g3kUS2y5EGy70PZLUr19fiGiWLVtWatasacxbTxs1RfBTXX/99cbc5cEAuVv/oO3TkCFDTCQU0/Oxxx4TzPDhw4eLp7FKpHMQCcT01ltvmbYwE9u2bWv8Y0SeiahCapjc+OMwdRHINVwwgSnPw4QfZyPh+K5Zs8bMoadVpilur5U0iXoQVwTSeqbjWnXiV4Z2wbopNC8Wy1phqQFaFYEBVypUqGAO0dp+/fXXdB98M1Y8U8jumq17HEs9kIcr+N86deokaDMsi8CXZLUWN5/fPu2iDeEcD+//u+++61cklEaggygmpEXk1xIZGSAo/HY8APAZQgjhP3hGm0Kros8445988kmxeEU6R/1ETlnTtmzZMqGfHTp0MP5KCAySQzOF8Jg3iy0adLiw1AZxNbZwfPE3gml48AJ/nErOIqABgGziS8Rx48aNxqTE5IokaEiYjJAHGpv7wYyxDvpIdXAuO/WgeWDSYvYQqUNYUhIuaEiu05zzni/JOP5xfLt9R5sMv6nD64t0DMF4/kCDIQ8AtLFXX33Vtwh9njRpklx22WWCeUgQxkpG59DEeBgQZGGL1gWZYjbinGc8BDYQtEYIiXTPp2WrNlvMbDTBqt7PfjISyhPQsJqgzWddDfZYt/FHoJA3Y/GvNYlqvPLKK2XOnDny4osvCn6wrl27miUXaC/WZLFwcMP36tXLLKwletezZ0+jIUFuLG/AhxSNZKce/GVoIGg2mEhoK2hE4dK4cWMTQcX/h7aCNsMSByKB1113nRkr2hOm6ujRo4UIKT/XyYoQ1UU78wIDZhkESy7Q/FxhmQSmG+Y3v0wAWzRjsIh0jjogXsa9YMECwS+GRoagITIfEByEh3COaC2mK8tZMMcLFSpkloHgK3viiSfS+UhNwf++iFrSfzDyAgUGY9wO+NpUchYBz2eW1pzJ2eYSr3ZuBHxZkAM34+233x56omNqQlgQnhXy4Pd66qmnzBIA0tHK0PAQ6nO35sAnPbN6bB22PlsPmgXLBnCycwPTR4gITc3Ny2p9NBH6z7ITyAzyYDkE5EF5Psg555wjVSNoK+Rx6+bYFdbq8SAAO7Qygh2Yo9Rvy0FaEAxBAAQtkbVySKRzJoP3hebFOjHGYcWaqSwtgfCseJFIoyUPGzbMmLakgxtz5s4lfbP9s2XRzNDCWFpCYIDzPBh4CFjitHl1G18ECixY/E3Ke/OmSr9+/eJbcxxrw1GLvyUIQvRtrReVw/Syzny/fmPq4VDnRsQHYyNzfnkjpWW1HrQGtEdM1vBorNseGgUaXPhPjtCOMEPxvbm/enDLxrqPuY5khBtER7AFAoZYXYl0zs0Xyz4Y4exHM7MO/2jLUxbfHw8qfHpBEe6z/MwFGeEIR3iamUo8EeDGZulCZoLPhmUK2ZWs1gN5okVkJt76KN8sELDrCPfNFGNiRiRmq4F00cj8JNI5v/zRpIFRRuPPrDxlq1evnlk2PR9HBAIRAOCpiLajoggoAjmHAPdYrBpozvUm9poLBiEAgJmjDtTYJ1dLKAKxIGBdCrGUyU95vXVm+T8AwH+S438gGqUaWn66fLQviYAA9xT3FvdYUP//n3kIjM+MZQC8bIE1SUH+a99EuPh1DImFAKYl1k/4QuWgjTIwZAawQX5qBO3C0P4qAkFDIBABgKCBqv1VBBSB3EcgEAGA3IdFW1QEFIGgIRCIAEDQQNX+KgKKQO4joP+akfuYa4uKgCKQAwgomeUAqFqlIqAI5D4CGgDIfcy1RUVAEcgBBDQAkAOgapWKgCKQ+wiomZn7mGuLioAikAMIaDQzB0DVKhUBRSD3EVDNLPcx1xYVAUUgBxAo6P0RpooioAgoAoFHoGD4SxsCPyIdgCKgCCQlAmpmJuW066AVgcRDQAMAiTenOiJFICkRUM0sKaddB60IJB4CGgBIvDnVESkCSYmABgCSctp10IpA4iGgZmbizamOSBFISgQ0AJCU066DVgQSDwH914zEm1MdkSKQlAgU1B8AJOW866AVgYRDQAMACTelOiBFIDkR0ABAcs67jloRSDgENACQcFOqA1IEkhMBDQAk57zrqBWBhENAAwAJN6U6IEUgORHQAEByzruOWhFIOAQ0AJBwU6oDUgSSEwENACTnvOuoFYGEQ0D/NSPhplQHpAgkJwJqZibnvOuoFYGEQ0ADAAk3pTogRSA5EVDNLDnnXUetCCQcAkpmCTelOiBFIDkR8AIA+r8ZyTn1OmpFILEQUM0sseZTR6MIJC0CGgBI2qnXgSsCiYWAamaJNZ86GkUgaRFQMkvaqdeBKwKJhYAGABJrPnU0ikDSIqCaWdJOvQ5cEUgsBDQAkFjzqaNRBJIWAdXMknbqdeCKQGIhoP80m1jzqaNRBJIWAe8dAPoLgKSdfR24IpBACKiZmUCTqUNRBJIZAQ0AJPPs69gVgQRCQDWzBJpMHYoikMwIaAAgmWdfx64IJBACGgBIoMnUoSgCyYyA+sySefZ17IpAAiGgPrMEmkwdiiKQzAgomSXz7OvYFYEEQkADAAk0mToURSCZEfACAMk8fB27IqAIJAoCXgAgUYai41AEFIFkRkB9Zsk8+zp2RSCBEFAyS6DJ1KEoAsmMgAYAknn2deyKQAIhUMgGAMaOHZtAw9KhKAKKQLIh8H/SF5K4rPWpPQAAAABJRU5ErkJggg==;" vertex="1" parent="1">
          <mxGeometry x="-210" y="570" width="307" height="253" as="geometry" />
        </mxCell>
      </root>
    </mxGraphModel>
  </diagram>
</mxfile>
